<?xml version="1.0" encoding="UTF-8" standalone="no"?>
<!DOCTYPE svg PUBLIC "-//W3C//DTD SVG 1.1//EN" "http://www.w3.org/Graphics/SVG/1.1/DTD/svg11.dtd">
<svg xmlns="http://www.w3.org/2000/svg" version="1.1" viewBox="0.00 0.00 1670.00 1470.00">
<g stroke-width="2.00" fill="none" stroke-linecap="butt">
<path stroke="#8d8f9a" vector-effect="non-scaling-stroke" d="
  M 685.52 137.76
  C 683.68 137.94 682.09 138.91 680.44 139.18
  C 677.82 139.60 675.16 139.51 672.72 140.53
  C 670.49 141.45 668.07 141.47 665.74 142.10
  Q 661.19 143.33 657.00 144.37
  Q 636.26 149.51 616.50 156.25
  C 615.01 156.75 613.55 156.85 612.13 157.60
  Q 610.56 158.43 608.78 158.69
  C 606.67 159.01 605.20 160.38 603.05 160.66
  Q 600.96 160.93 599.08 162.16
  Q 598.65 162.45 598.13 162.49
  Q 596.49 162.60 594.99 163.21
  Q 588.85 165.71 583.42 168.22
  C 582.86 168.48 582.33 168.40 581.77 168.61
  Q 564.14 175.24 547.17 183.35
  Q 543.09 185.29 533.49 190.40
  Q 526.93 193.89 519.76 197.38
  C 518.04 198.21 516.81 199.51 515.11 200.42
  Q 493.52 211.98 473.90 225.32
  Q 460.43 234.48 447.46 243.67
  Q 434.73 252.70 423.60 261.95
  Q 408.94 274.14 396.65 285.36
  Q 373.75 306.28 354.67 328.50
  Q 339.19 346.53 323.29 367.25
  C 317.38 374.94 312.19 382.85 306.64 390.82
  Q 300.30 399.93 295.32 408.09
  Q 272.99 444.62 254.20 484.80
  C 246.88 500.45 240.85 516.08 234.30 533.01
  C 233.86 534.14 233.67 535.23 233.24 536.38
  Q 222.04 566.48 214.93 597.82"
/>
<path stroke="#8d8f9a" vector-effect="non-scaling-stroke" d="
  M 214.38 600.79
  L 212.83 605.76"
/>
<path stroke="#8d8f9a" vector-effect="non-scaling-stroke" d="
  M 212.32 609.85
  L 210.83 614.76"
/>
<path stroke="#8d8f9a" vector-effect="non-scaling-stroke" d="
  M 210.38 620.80
  L 208.83 624.75"
/>
<path stroke="#8d8f9a" vector-effect="non-scaling-stroke" d="
  M 208.38 629.85
  L 206.81 635.25"
/>
<path stroke="#8d8f9a" vector-effect="non-scaling-stroke" d="
  M 206.40 642.80
  Q 205.08 645.09 204.81 647.25"
/>
<path stroke="#8d8f9a" vector-effect="non-scaling-stroke" d="
  M 204.43 654.81
  Q 202.68 657.75 202.81 661.02"
/>
<path stroke="#8d8f9a" vector-effect="non-scaling-stroke" d="
  M 202.40 669.78
  Q 200.54 673.31 200.82 677.54"
/>
<path stroke="#8d8f9a" vector-effect="non-scaling-stroke" d="
  M 200.39 688.80
  L 198.82 699.79"
/>
<path stroke="#8d8f9a" vector-effect="non-scaling-stroke" d="
  M 198.47 719.77
  Q 196.18 739.21 197.26 758.75
  Q 197.48 762.79 198.40 770.88"
/>
<path stroke="#8d8f9a" vector-effect="non-scaling-stroke" d="
  M 198.78 791.22
  Q 198.52 797.88 200.40 804.21"
/>
<path stroke="#8d8f9a" vector-effect="non-scaling-stroke" d="
  M 200.83 814.26
  L 202.34 821.22"
/>
<path stroke="#8d8f9a" vector-effect="non-scaling-stroke" d="
  M 202.84 831.22
  Q 203.09 833.77 204.33 836.22"
/>
<path stroke="#8d8f9a" vector-effect="non-scaling-stroke" d="
  M 204.84 843.75
  L 206.38 848.26"
/>
<path stroke="#8d8f9a" vector-effect="non-scaling-stroke" d="
  M 206.89 854.73
  L 208.29 859.86"
/>
<path stroke="#8d8f9a" vector-effect="non-scaling-stroke" d="
  M 208.86 864.11
  Q 216.51 899.90 223.32 921.50
  C 225.70 929.02 227.93 936.68 229.89 942.51
  Q 238.07 966.84 247.96 990.50
  C 250.24 995.93 253.19 1001.63 255.78 1007.26
  C 266.01 1029.50 278.02 1051.08 290.65 1072.09
  C 298.05 1084.42 306.62 1096.25 314.89 1108.09
  Q 321.73 1117.87 331.37 1129.77
  Q 350.41 1153.27 370.37 1174.41
  Q 376.90 1181.34 384.35 1188.52
  Q 399.43 1203.05 410.76 1212.58
  Q 433.18 1231.45 459.20 1249.79
  Q 476.93 1262.29 509.68 1282.02
  Q 517.49 1286.72 527.19 1291.78
  Q 543.71 1300.40 557.80 1306.99
  Q 579.99 1317.38 602.29 1325.48
  Q 609.84 1328.23 618.29 1330.91
  Q 626.63 1333.57 634.14 1335.96
  Q 642.92 1338.75 651.89 1341.46
  Q 653.68 1342.01 655.18 1342.27
  C 657.73 1342.71 660.07 1343.70 662.56 1344.38
  Q 664.61 1344.93 666.75 1345.43
  Q 686.05 1349.92 713.49 1354.74
  C 716.85 1355.33 720.24 1355.57 723.51 1356.31
  Q 727.31 1357.17 731.00 1357.51
  C 734.29 1357.81 737.36 1358.84 740.63 1359.09
  Q 742.60 1359.25 744.43 1359.32"
/>
<path stroke="#8d8f9a" vector-effect="non-scaling-stroke" d="
  M 747.58 1359.50
  Q 751.02 1359.56 754.41 1360.25
  Q 758.59 1361.09 761.17 1361.17
  Q 770.81 1361.48 780.31 1362.04
  C 782.02 1362.14 783.78 1362.96 785.76 1363.02
  Q 822.50 1364.17 847.68 1362.87
  Q 849.14 1362.79 850.77 1362.57
  Q 859.15 1361.42 866.69 1361.34
  Q 871.01 1361.29 877.19 1360.30
  Q 882.28 1359.48 887.79 1359.29
  C 892.41 1359.14 896.84 1358.04 901.45 1357.54
  C 906.06 1357.04 910.58 1355.90 915.28 1355.35
  C 919.54 1354.86 923.94 1353.92 928.25 1353.15
  C 950.87 1349.08 971.84 1344.12 992.86 1337.32
  Q 1004.66 1333.51 1018.76 1328.83
  Q 1020.12 1328.38 1021.55 1327.91
  Q 1057.13 1316.24 1098.19 1295.10
  C 1112.49 1287.74 1126.37 1280.13 1140.19 1271.64
  Q 1157.34 1261.11 1182.75 1243.34
  Q 1213.93 1221.54 1245.60 1191.89
  Q 1263.26 1175.36 1277.42 1159.74
  Q 1296.52 1138.66 1314.66 1114.50
  C 1322.42 1104.18 1329.28 1092.78 1336.61 1082.00
  Q 1343.54 1071.82 1347.46 1065.21
  C 1356.36 1050.20 1364.43 1034.53 1372.68 1018.99
  Q 1376.51 1011.78 1380.29 1003.52
  Q 1387.50 987.75 1392.30 975.47
  Q 1396.93 963.61 1400.99 951.97
  Q 1401.42 950.75 1401.87 949.54
  Q 1409.60 928.97 1414.50 910.54
  Q 1416.04 904.75 1417.47 899.45
  Q 1422.84 879.55 1425.67 865.69
  Q 1426.66 860.82 1427.60 856.51
  Q 1428.19 853.79 1428.33 851.34
  C 1428.55 847.45 1430.29 844.04 1430.34 840.25
  Q 1430.39 836.28 1431.36 832.99
  Q 1432.25 829.98 1432.36 826.73
  Q 1432.49 822.74 1433.19 820.50
  Q 1434.56 816.14 1434.25 811.65"
/>
<path stroke="#8d8f9a" vector-effect="non-scaling-stroke" d="
  M 1434.48 805.21
  Q 1436.09 801.32 1436.11 799.76
  Q 1436.29 788.04 1437.13 776.10
  C 1437.24 774.57 1437.95 773.09 1438.00 771.34
  Q 1438.62 747.78 1438.19 723.89
  Q 1438.08 717.38 1437.27 709.83
  Q 1436.44 702.15 1436.37 694.76
  Q 1436.32 689.56 1435.40 684.00
  Q 1434.34 677.60 1434.24 670.39
  Q 1434.21 668.77 1433.60 667.24
  C 1432.29 664.00 1432.37 659.48 1432.21 655.95
  C 1432.09 653.28 1430.62 651.03 1430.52 648.19
  C 1430.36 643.79 1428.79 639.77 1428.40 635.37
  C 1428.11 632.22 1426.93 629.22 1426.52 626.05
  Q 1426.23 623.79 1425.71 621.45
  Q 1418.92 590.62 1409.51 560.67
  Q 1408.91 558.77 1408.29 557.14
  C 1407.41 554.83 1407.22 552.52 1406.01 550.35
  C 1405.31 549.09 1405.45 547.64 1404.88 546.31
  Q 1403.55 543.22 1402.11 540.28
  C 1401.31 538.63 1401.42 536.91 1400.48 535.22
  C 1399.57 533.60 1399.44 531.94 1398.77 530.23
  C 1396.07 523.36 1393.75 516.30 1390.94 509.48
  Q 1371.65 462.73 1349.98 426.34
  Q 1329.03 391.18 1308.12 363.85
  Q 1296.44 348.58 1281.17 330.68
  C 1272.37 320.35 1262.71 310.65 1253.41 300.85
  Q 1244.41 291.36 1229.52 278.72
  C 1223.11 273.29 1217.14 267.71 1210.63 262.57
  Q 1201.25 255.16 1191.94 248.05
  Q 1185.39 243.04 1164.61 228.57
  C 1136.07 208.67 1105.34 191.78 1072.99 177.43
  Q 1071.83 176.92 1070.57 176.38
  Q 1046.17 165.99 1021.06 157.07
  Q 1019.81 156.62 1018.51 156.17
  Q 994.07 147.73 967.97 141.80
  Q 960.73 140.15 953.98 138.65
  C 950.25 137.82 946.61 137.48 942.97 136.42
  C 939.92 135.54 936.87 135.54 933.82 134.72
  Q 930.25 133.76 926.75 133.54
  C 922.93 133.30 919.46 131.87 915.64 131.66
  C 910.74 131.40 906.27 129.97 901.37 129.65
  C 894.70 129.21 888.38 127.58 881.32 127.66"
/>
<path stroke="#8d8f9a" vector-effect="non-scaling-stroke" d="
  M 874.12 127.31
  L 863.72 125.88"
/>
<path stroke="#8d8f9a" vector-effect="non-scaling-stroke" d="
  M 847.23 125.60
  Q 824.69 123.67 818.00 124.04
  Q 807.40 124.61 795.01 125.17
  Q 793.54 125.24 792.24 125.29
  Q 785.35 125.53 777.91 125.74
  Q 770.97 125.93 763.83 126.92
  C 757.67 127.78 751.23 127.40 744.99 128.67
  Q 741.07 129.48 736.96 129.63
  C 731.15 129.85 725.59 131.59 719.66 131.78
  C 715.80 131.91 712.32 133.54 708.35 133.66
  Q 706.02 133.73 703.75 134.51
  Q 700.69 135.56 697.09 135.62
  C 694.59 135.66 692.36 136.62 689.98 137.32"
/>
<path stroke="#8d8f9a" vector-effect="non-scaling-stroke" d="
  M 1242.01 833.96
  Q 1253.59 812.29 1259.74 792.03
  Q 1265.73 772.31 1267.57 750.50
  Q 1268.21 742.87 1268.26 730.00
  Q 1268.34 705.51 1268.23 683.25
  Q 1268.15 665.92 1268.05 663.25
  C 1266.74 625.84 1254.52 588.16 1231.62 558.12
  C 1212.74 533.34 1188.57 513.65 1160.49 501.34
  C 1136.17 490.67 1110.09 484.82 1083.37 481.71
  Q 1056.10 478.53 1028.95 476.57
  Q 958.77 471.50 888.99 469.01
  Q 878.87 468.65 868.99 468.59
  Q 800.62 468.17 778.69 468.48
  Q 694.61 469.68 606.10 476.87
  Q 602.10 477.19 586.15 478.39
  Q 559.81 480.37 534.01 483.89
  Q 510.65 487.08 486.77 495.69
  Q 458.97 505.71 437.21 523.44
  Q 423.86 534.31 415.18 543.42
  C 395.53 564.03 380.46 589.82 373.07 617.98
  Q 366.82 641.77 366.61 659.23
  Q 366.25 688.51 366.31 730.69
  Q 366.32 741.45 367.05 750.33
  Q 370.54 792.68 390.16 830.72
  Q 412.63 874.27 453.24 901.86
  Q 461.37 907.39 470.24 912.53
  C 503.95 932.09 542.60 940.45 581.31 935.43
  C 615.77 930.97 646.69 915.79 672.24 892.38
  C 682.27 883.19 692.46 871.02 700.49 859.95
  Q 723.05 828.81 746.19 796.56
  C 766.47 768.29 793.54 747.10 829.93 754.51
  Q 844.36 757.45 855.43 764.95
  C 872.05 776.21 886.08 794.12 897.75 811.11
  Q 913.07 833.41 928.20 853.67
  C 941.31 871.24 954.13 887.49 971.20 900.98
  C 983.15 910.43 996.62 919.07 1010.50 924.69
  Q 1058.94 944.27 1110.75 932.67
  Q 1132.04 927.90 1156.18 916.28
  Q 1164.73 912.15 1173.58 906.34
  Q 1189.39 895.93 1200.53 885.92
  C 1217.17 870.97 1231.55 853.52 1242.01 833.96"
/>
<path stroke="#40597b" vector-effect="non-scaling-stroke" d="
  M 260.5481 746.8300
  A 2.33 0.26 89.8 0 0 260.8000 744.4991
  A 2.33 0.26 89.8 0 0 260.5319 742.1700
  A 2.33 0.26 89.8 0 0 260.2800 744.5009
  A 2.33 0.26 89.8 0 0 260.5481 746.8300"
/>
<path stroke="#697b95" vector-effect="non-scaling-stroke" d="
  M 779.02 840.79
  Q 774.30 846.97 773.01 848.99
  Q 763.85 863.29 755.59 876.32
  Q 751.35 883.01 747.28 890.58
  Q 744.33 896.08 744.68 900.18
  C 746.25 918.83 757.26 935.48 772.92 946.00
  Q 794.29 960.37 820.47 959.47
  C 839.50 958.82 856.88 951.01 870.55 937.82
  Q 881.32 927.41 886.38 911.73
  C 888.55 905.00 890.29 896.67 886.86 890.29"
/>
<path stroke="#8d8f9a" vector-effect="non-scaling-stroke" d="
  M 886.86 890.29
  Q 882.40 879.64 876.06 870.19
  Q 863.72 851.83 845.89 824.04
  Q 841.51 817.21 835.78 811.01
  Q 827.53 802.08 814.03 803.54
  Q 802.62 804.77 795.36 815.58
  Q 783.49 833.24 779.02 840.79"
/>
<path stroke="#dbe8ed" vector-effect="non-scaling-stroke" d="
  M 886.86 890.29
  Q 884.42 894.69 882.11 899.25
  Q 879.32 904.75 876.75 907.88
  C 872.49 913.07 867.75 917.84 861.82 921.33
  Q 855.96 924.78 851.61 926.57
  Q 837.39 932.39 820.26 930.61
  Q 809.35 929.47 800.19 923.79
  Q 790.57 917.83 784.64 909.61
  Q 780.36 903.69 777.71 893.70
  Q 776.42 888.83 775.85 881.71
  C 775.25 874.12 775.47 867.54 776.11 860.21
  Q 776.47 856.10 777.61 850.54
  Q 778.59 845.77 779.02 840.79"
/>
<path stroke="#8d8f9a" vector-effect="non-scaling-stroke" d="
  M 967.96 1127.28
  Q 967.63 1130.29 966.86 1133.33
  C 965.81 1137.45 956.48 1138.56 952.98 1138.67
  C 941.38 1139.06 932.04 1134.58 926.17 1124.24
  C 922.12 1117.10 921.57 1107.81 925.36 1100.47
  C 934.47 1082.83 955.27 1082.52 969.87 1093.37
  A 1.74 1.73 49.5 0 0 971.72 1093.52
  C 976.01 1091.31 983.70 1086.45 979.90 1080.55
  C 975.76 1074.11 966.87 1070.05 959.10 1068.26
  Q 942.79 1064.52 927.34 1072.03
  C 905.54 1082.64 896.52 1110.45 907.57 1132.12
  Q 914.71 1146.12 928.73 1152.55
  Q 948.87 1161.77 968.57 1152.53
  Q 969.16 1152.25 969.64 1152.68
  Q 974.64 1157.06 981.56 1154.71
  C 985.18 1153.48 985.55 1148.81 985.57 1145.39
  Q 985.66 1127.68 985.65 1112.21
  Q 985.65 1111.71 985.28 1111.35
  Q 983.19 1109.35 980.44 1109.30
  Q 969.87 1109.12 959.59 1109.26
  C 956.04 1109.31 953.75 1109.08 950.84 1111.43
  Q 950.09 1112.04 950.03 1113.07
  Q 949.62 1119.78 950.43 1125.19
  A 1.59 1.58 85.5 0 0 951.99 1126.53
  L 967.29 1126.53
  A 0.68 0.67 -86.9 0 1 967.96 1127.28"
/>
<path stroke="#8d8f9a" vector-effect="non-scaling-stroke" d="
  M 1109.9030 1107.5211
  A 46.30 45.15 -5.8 0 0 1059.2773 1067.2811
  A 46.30 45.15 -5.8 0 0 1017.7770 1116.8789
  A 46.30 45.15 -5.8 0 0 1068.4027 1157.1189
  A 46.30 45.15 -5.8 0 0 1109.9030 1107.5211"
/>
<path stroke="#8d8f9a" vector-effect="non-scaling-stroke" d="
  M 667.6592 1075.8607
  A 7.77 7.77 0.0 0 0 659.8487 1068.1315
  L 656.3687 1068.1497
  A 7.77 7.77 0.0 0 0 648.6395 1075.9603
  L 649.0208 1148.7793
  A 7.77 7.77 0.0 0 0 656.8313 1156.5085
  L 660.3113 1156.4903
  A 7.77 7.77 0.0 0 0 668.0405 1148.6797
  L 667.6592 1075.8607"
/>
<path stroke="#8d8f9a" vector-effect="non-scaling-stroke" d="
  M 739.79 1120.93
  Q 737.97 1119.43 736.92 1117.38
  Q 727.97 1100.00 718.35 1078.06
  Q 716.34 1073.48 713.82 1070.25
  C 711.27 1066.99 702.19 1067.98 698.83 1069.33
  C 694.95 1070.89 695.76 1075.87 697.14 1078.78
  Q 712.44 1111.09 732.59 1152.81
  Q 733.65 1154.99 735.26 1155.46
  C 737.99 1156.24 741.57 1155.78 744.57 1155.30
  Q 746.42 1155.01 747.48 1153.01
  Q 749.94 1148.38 751.62 1144.67
  Q 767.64 1109.29 782.87 1075.97
  C 784.05 1073.39 784.72 1069.00 780.52 1068.77
  Q 775.69 1068.52 769.90 1068.72
  C 764.61 1068.90 761.94 1077.93 760.10 1081.81
  Q 751.28 1100.41 742.68 1118.29
  Q 742.00 1119.70 741.13 1120.79
  A 0.95 0.95 0.0 0 1 739.79 1120.93"
/>
<path stroke="#8d8f9a" vector-effect="non-scaling-stroke" d="
  M 525.82 1075.09
  L 525.70 1149.09
  A 6.98 6.98 0.0 0 0 532.66 1156.08
  L 566.05 1156.14
  A 44.05 43.50 0.1 0 0 610.18 1112.71
  L 610.18 1111.75
  A 44.05 43.50 0.1 0 0 566.21 1068.18
  L 532.82 1068.12
  A 6.98 6.98 0.0 0 0 525.82 1075.09"
/>
<path stroke="#8d8f9a" vector-effect="non-scaling-stroke" d="
  M 830.33 1102.20
  L 830.36 1087.31
  Q 830.36 1086.57 831.10 1086.57
  Q 847.03 1086.51 862.66 1086.44
  C 866.28 1086.42 870.13 1087.16 872.04 1082.97
  C 873.06 1080.74 872.86 1076.98 872.59 1074.51
  Q 871.95 1068.48 865.50 1068.47
  Q 839.79 1068.47 815.94 1068.67
  C 811.60 1068.70 810.23 1071.52 810.22 1075.45
  Q 810.13 1113.05 810.01 1150.17
  C 810.00 1154.89 813.51 1156.26 817.72 1156.26
  Q 841.13 1156.22 865.03 1156.27
  C 867.23 1156.28 869.36 1156.40 870.92 1154.51
  Q 873.24 1151.69 873.58 1148.06
  C 874.01 1143.43 873.13 1138.42 867.37 1138.38
  Q 846.69 1138.24 830.75 1138.42
  Q 830.03 1138.43 830.02 1137.70
  L 829.95 1121.25
  Q 829.95 1120.33 830.87 1120.33
  Q 840.18 1120.36 850.94 1120.29
  C 852.47 1120.28 853.74 1119.57 854.18 1118.02
  C 855.23 1114.26 856.46 1103.78 850.01 1103.11
  Q 841.73 1102.25 831.36 1103.14
  A 0.95 0.94 -2.5 0 1 830.33 1102.20"
/>
<path stroke="#8d8f9a" vector-effect="non-scaling-stroke" d="
  M 675.17 812.17
  Q 676.73 810.00 678.32 807.87
  Q 705.48 771.40 731.81 733.49
  Q 740.20 721.41 744.73 713.59
  C 755.57 694.83 762.45 673.06 763.45 650.58
  C 764.87 618.93 753.78 589.63 731.84 566.87
  C 717.11 551.59 696.43 543.02 675.77 540.89
  Q 667.49 540.04 657.52 540.01
  Q 594.03 539.79 544.75 539.85
  Q 525.42 539.87 509.71 544.67
  Q 492.01 550.07 475.34 560.50
  C 456.29 572.43 441.96 590.53 431.52 610.93
  Q 418.27 636.84 417.67 664.96
  Q 417.23 685.68 417.59 726.99
  Q 417.71 740.00 418.13 746.99
  Q 418.91 759.79 423.20 773.91
  Q 436.91 819.10 471.59 850.75
  C 512.67 888.26 571.89 895.73 620.57 869.60
  C 644.83 856.58 659.56 833.84 675.17 812.17"
/>
<path stroke="#8d8f9a" vector-effect="non-scaling-stroke" d="
  M 965.05 822.19
  C 975.51 836.46 984.54 848.90 997.67 859.51
  C 1017.80 875.78 1045.11 884.18 1070.51 884.74
  Q 1088.68 885.14 1102.58 881.51
  Q 1147.72 869.72 1176.35 835.88
  Q 1181.88 829.34 1188.75 819.56
  Q 1200.56 802.74 1208.76 779.75
  Q 1215.79 760.02 1215.93 738.24
  Q 1216.15 703.02 1216.05 670.90
  Q 1216.02 659.81 1214.79 651.71
  C 1208.31 608.90 1183.92 571.76 1145.07 552.36
  Q 1137.18 548.43 1127.27 545.44
  C 1113.13 541.19 1099.68 539.92 1084.92 539.93
  Q 1034.51 539.96 980.53 539.76
  Q 968.01 539.71 959.73 540.74
  Q 940.94 543.09 922.66 552.85
  C 904.85 562.35 890.84 578.85 881.97 597.08
  Q 878.04 605.15 875.65 615.49
  Q 863.93 666.03 889.60 713.20
  Q 894.19 721.64 899.56 729.52
  Q 931.22 776.02 965.05 822.19"
/>
<path stroke="#dbe8ed" vector-effect="non-scaling-stroke" d="
  M 871.2877 565.7532
  A 1.78 0.38 115.0 0 0 872.3844 564.3006
  A 1.78 0.38 115.0 0 0 872.7923 562.5268
  A 1.78 0.38 115.0 0 0 871.6956 563.9794
  A 1.78 0.38 115.0 0 0 871.2877 565.7532"
/>
<path stroke="#243353" vector-effect="non-scaling-stroke" d="
  M 482.64 607.83
  Q 481.65 608.67 480.57 609.63
  Q 479.63 610.46 478.88 611.43
  Q 471.57 620.93 465.53 632.93
  Q 464.19 635.58 464.67 638.25
  Q 464.83 639.15 463.44 639.54"
/>
<path stroke="#8d8f9a" vector-effect="non-scaling-stroke" d="
  M 463.44 639.54
  Q 459.87 649.30 458.43 660.89
  A 0.67 0.66 3.7 0 0 459.10 661.64
  L 670.34 661.73"
/>
<path stroke="#40597b" vector-effect="non-scaling-stroke" d="
  M 670.34 661.73
  L 652.20 693.34"
/>
<path stroke="#243353" vector-effect="non-scaling-stroke" d="
  M 652.20 693.34
  L 458.52 693.36
  A 0.84 0.84 0.0 0 0 457.68 694.19
  Q 457.41 711.37 457.57 729.05
  Q 457.73 747.33 460.98 759.32
  Q 463.29 767.82 468.15 778.71
  C 473.60 790.89 481.38 802.31 489.94 812.06
  Q 496.72 819.77 507.53 827.15
  Q 513.55 831.25 521.06 834.64
  Q 529.95 838.66 535.75 840.30
  Q 552.48 845.04 571.11 842.63"
/>
<path stroke="#40597b" vector-effect="non-scaling-stroke" d="
  M 571.11 842.63
  Q 590.68 839.49 606.14 829.08
  C 616.62 822.03 624.56 812.26 632.22 802.48
  Q 635.52 798.26 638.81 793.63
  Q 669.41 750.44 703.10 702.25
  Q 713.60 687.23 719.52 668.50
  Q 720.57 665.18 720.97 661.80"
/>
<path stroke="#8d8f9a" vector-effect="non-scaling-stroke" d="
  M 720.97 661.80
  Q 723.31 650.94 722.43 640.05"
/>
<path stroke="#40597b" vector-effect="non-scaling-stroke" d="
  M 722.43 640.05
  Q 720.37 622.74 712.38 607.67"
/>
<path stroke="#8d8f9a" vector-effect="non-scaling-stroke" d="
  M 712.38 607.67
  C 703.22 591.38 686.08 581.18 667.39 581.20
  Q 608.71 581.26 543.07 581.20
  Q 532.61 581.19 526.42 582.39
  C 509.66 585.62 494.14 595.45 482.64 607.83"
/>
<path stroke="#b2c6d4" vector-effect="non-scaling-stroke" d="
  M 712.38 607.67
  L 699.99 607.97"
/>
<path stroke="#96a0ac" vector-effect="non-scaling-stroke" d="
  M 699.99 607.97
  Q 698.81 608.02 698.75 607.95
  Q 592.44 608.10 486.12 608.05
  Q 485.59 608.04 484.39 608.23
  Q 483.01 608.45 482.64 607.83"
/>
<path stroke="#b2c6d4" vector-effect="non-scaling-stroke" d="
  M 722.43 640.05
  L 680.78 639.87"
/>
<path stroke="#49698d" vector-effect="non-scaling-stroke" d="
  M 680.78 639.87
  Q 681.43 639.44 681.99 639.03
  Q 682.56 638.62 682.96 637.96
  Q 691.63 623.45 699.99 607.97"
/>
<path stroke="#96a0ac" vector-effect="non-scaling-stroke" d="
  M 680.78 639.87
  L 463.44 639.54"
/>
<path stroke="#b2c6d4" vector-effect="non-scaling-stroke" d="
  M 720.97 661.80
  L 670.34 661.73"
/>
<path stroke="#49698d" vector-effect="non-scaling-stroke" d="
  M 571.11 842.63
  Q 571.49 839.40 573.24 836.24
  Q 578.51 826.70 583.38 817.25
  C 587.83 808.59 593.44 799.80 598.05 791.13
  C 600.75 786.05 603.82 781.23 606.54 776.07
  Q 618.98 752.56 631.04 731.52
  C 635.29 724.12 639.27 716.59 643.54 709.27
  Q 647.84 701.88 652.20 693.34"
/>
<path stroke="#243353" vector-effect="non-scaling-stroke" d="
  M 922.98 607.49
  C 922.32 607.97 921.70 608.42 921.33 609.19
  Q 914.39 623.55 912.41 639.77"
/>
<path stroke="#8d8f9a" vector-effect="non-scaling-stroke" d="
  M 912.41 639.77
  Q 912.04 648.77 912.92 658.18
  C 913.21 661.21 913.76 661.67 916.75 661.67
  Q 1016.87 661.79 1117.00 661.72
  Q 1120.39 661.72 1124.64 662.35"
/>
<path stroke="#40597b" vector-effect="non-scaling-stroke" d="
  M 1124.64 662.35
  C 1126.45 665.16 1128.94 667.93 1129.39 671.13
  Q 1130.24 677.18 1129.56 683.56
  C 1128.69 691.70 1120.60 692.89 1114.00 692.87
  Q 1067.69 692.71 1025.50 692.67
  Q 1023.66 692.67 1020.02 693.14"
/>
<path stroke="#243353" vector-effect="non-scaling-stroke" d="
  M 1020.02 693.14
  L 927.13 693.15
  A 0.90 0.90 0.0 0 0 926.32 694.43
  Q 927.56 697.08 929.32 699.65
  C 936.40 710.02 944.08 720.66 951.29 731.56
  Q 963.01 749.27 975.03 766.01
  C 984.38 779.05 993.60 793.08 1002.98 805.27
  Q 1008.66 812.67 1018.08 821.83
  Q 1023.55 827.15 1029.17 830.48
  Q 1037.22 835.25 1043.89 838.11
  Q 1052.85 841.95 1063.70 843.05"
/>
<path stroke="#40597b" vector-effect="non-scaling-stroke" d="
  M 1063.70 843.05
  Q 1082.82 844.77 1100.88 838.89
  C 1122.74 831.78 1140.94 818.22 1153.87 799.09
  Q 1168.93 776.80 1174.39 749.28
  Q 1176.16 740.36 1176.23 732.50
  Q 1176.51 703.33 1175.82 668.25
  Q 1175.80 666.97 1175.28 662.13"
/>
<path stroke="#8d8f9a" vector-effect="non-scaling-stroke" d="
  M 1175.28 662.13
  Q 1174.39 652.63 1172.01 643.75
  Q 1171.58 642.15 1170.20 638.96"
/>
<path stroke="#40597b" vector-effect="non-scaling-stroke" d="
  M 1170.20 638.96
  Q 1163.80 620.99 1151.68 607.58"
/>
<path stroke="#8d8f9a" vector-effect="non-scaling-stroke" d="
  M 1151.68 607.58
  C 1139.08 595.27 1125.63 585.75 1108.16 582.36
  Q 1101.50 581.07 1090.02 581.09
  Q 1027.91 581.22 968.92 581.18
  C 950.80 581.17 933.32 590.79 923.54 606.01
  Q 923.08 606.72 922.98 607.49"
/>
<path stroke="#b2c6d4" vector-effect="non-scaling-stroke" d="
  M 1151.68 607.58
  L 1055.41 607.84"
/>
<path stroke="#96a0ac" vector-effect="non-scaling-stroke" d="
  M 1055.41 607.84
  Q 989.46 608.18 924.00 608.09
  Q 923.06 608.09 922.98 607.49"
/>
<path stroke="#b2c6d4" vector-effect="non-scaling-stroke" d="
  M 1170.20 638.96
  L 1168.59 639.93
  A 1.69 1.65 -59.8 0 1 1167.73 640.17
  L 1051.45 639.93"
/>
<path stroke="#49698d" vector-effect="non-scaling-stroke" d="
  M 1051.45 639.93
  Q 1052.21 639.55 1052.66 639.09
  Q 1053.08 638.66 1053.11 637.77
  Q 1053.33 632.63 1053.18 627.50
  Q 1053.01 622.05 1055.41 607.84"
/>
<path stroke="#96a0ac" vector-effect="non-scaling-stroke" d="
  M 1051.45 639.93
  L 912.41 639.77"
/>
<path stroke="#b2c6d4" vector-effect="non-scaling-stroke" d="
  M 1175.28 662.13
  L 1124.64 662.35"
/>
<path stroke="#49698d" vector-effect="non-scaling-stroke" d="
  M 1063.70 843.05
  C 1065.48 837.40 1067.04 832.97 1065.98 826.98
  Q 1064.18 816.80 1059.55 807.21
  Q 1054.62 796.98 1049.45 787.69
  Q 1044.65 779.04 1040.58 771.29
  C 1030.69 752.48 1020.66 732.65 1019.75 711.75
  Q 1019.47 705.34 1020.02 693.14"
/>
<path stroke="#8d8f9a" vector-effect="non-scaling-stroke" d="
  M 1089.81 1112.22
  A 25.88 25.88 0.0 0 0 1063.93 1086.34
  A 25.88 25.88 0.0 0 0 1038.05 1112.22
  A 25.88 25.88 0.0 0 0 1063.93 1138.10
  A 25.88 25.88 0.0 0 0 1089.81 1112.22"
/>
<path stroke="#8d8f9a" vector-effect="non-scaling-stroke" d="
  M 544.89 1088.02
  L 545.15 1136.26
  A 0.68 0.68 0.0 0 0 545.83 1136.93
  L 565.61 1136.83
  A 24.44 23.62 -0.3 0 0 589.93 1113.08
  L 589.91 1110.72
  A 24.44 23.62 -0.3 0 0 565.35 1087.23
  L 545.57 1087.33
  A 0.68 0.68 0.0 0 0 544.89 1088.02"
/>
</g>
<path fill="#fffcf2" d="
  M 448.28 1333.99
  Q 412.69 1311.81 376.37 1282.71
  C 360.88 1270.30 346.40 1256.84 331.39 1243.45
  C 326.78 1239.34 322.88 1234.63 318.63 1230.27
  Q 298.88 1210.06 293.14 1203.07
  C 283.42 1191.22 272.77 1179.11 263.56 1166.86
  Q 240.90 1136.75 225.74 1112.20
  Q 201.03 1072.19 180.21 1023.86
  Q 177.46 1017.47 174.66 1010.24
  C 172.29 1004.11 169.67 998.19 167.46 991.94
  Q 151.23 945.96 140.97 902.25
  C 136.87 884.76 133.27 864.33 130.86 845.12
  Q 127.60 819.08 126.37 802.17
  C 125.82 794.55 125.26 787.11 124.97 779.75
  Q 124.82 776.18 124.56 773.08
  Q 124.27 769.52 124.24 766.34
  Q 124.10 746.20 124.13 734.88
  Q 124.15 728.50 124.49 722.14
  Q 125.82 696.56 128.42 671.04
  Q 132.08 635.23 136.84 610.75
  Q 140.65 591.15 146.54 567.49
  Q 150.87 550.07 155.05 536.06
  Q 157.78 526.93 161.33 517.07
  Q 170.49 491.65 181.60 465.07
  Q 189.03 447.27 195.69 433.91
  Q 214.20 396.79 231.82 367.88
  Q 238.66 356.65 252.31 337.06
  Q 258.18 328.65 264.13 320.87
  Q 289.52 287.71 309.61 266.14
  Q 320.80 254.12 341.42 234.36
  Q 348.44 227.64 356.15 220.79
  Q 379.63 199.94 401.63 183.86
  C 415.16 173.98 429.29 163.69 444.07 154.65
  Q 453.97 148.59 462.52 143.61
  Q 482.46 132.00 503.52 121.34
  C 513.88 116.09 524.94 111.49 535.82 106.59
  Q 542.54 103.56 549.90 100.58
  Q 575.28 90.31 593.88 84.24
  Q 622.22 74.99 645.52 69.70
  C 658.86 66.68 672.20 63.61 685.67 61.21
  Q 699.58 58.72 704.01 58.07
  Q 717.07 56.15 741.18 53.37
  Q 742.97 53.16 744.82 53.14
  C 751.27 53.04 757.70 52.40 763.84 51.79
  Q 769.95 51.18 779.18 51.12
  Q 818.78 50.87 859.40 51.18
  C 869.27 51.26 879.37 52.56 889.25 53.15
  C 898.06 53.68 909.18 54.77 919.06 56.16
  Q 924.29 56.89 929.64 57.54
  Q 940.14 58.83 966.16 63.79
  Q 976.10 65.69 985.71 68.04
  Q 1016.23 75.52 1044.63 85.21
  Q 1065.78 92.43 1085.48 100.61
  Q 1102.70 107.76 1122.05 116.99
  Q 1130.32 120.93 1139.34 125.79
  Q 1162.14 138.05 1184.77 151.59
  Q 1193.37 156.73 1201.57 162.29
  C 1229.32 181.08 1255.01 199.84 1278.56 220.67
  Q 1286.17 227.41 1302.45 243.15
  Q 1309.20 249.67 1316.51 257.38
  Q 1332.73 274.48 1346.54 290.54
  Q 1356.18 301.76 1377.17 329.67
  Q 1390.36 347.21 1409.10 377.31
  Q 1414.09 385.32 1419.20 394.65
  Q 1433.68 421.13 1443.06 440.15
  C 1451.05 456.35 1458.27 475.25 1465.26 493.42
  Q 1478.44 527.69 1486.95 557.69
  Q 1493.12 579.47 1498.59 606.35
  C 1500.40 615.27 1501.90 625.00 1503.34 634.44
  Q 1504.20 640.01 1504.82 645.66
  Q 1506.59 661.64 1508.14 677.63
  Q 1508.72 683.63 1508.85 689.83
  C 1509.13 703.16 1510.51 719.14 1510.72 728.87
  Q 1511.39 759.76 1509.23 792.53
  Q 1508.55 802.84 1507.75 812.67
  Q 1502.70 874.61 1485.35 934.92
  C 1478.49 958.75 1471.59 980.25 1462.87 1001.79
  C 1458.29 1013.10 1453.78 1025.25 1448.94 1035.82
  Q 1432.75 1071.18 1413.36 1104.20
  Q 1409.94 1110.03 1405.81 1116.10
  C 1402.27 1121.30 1399.10 1126.77 1395.58 1131.92
  Q 1384.01 1148.90 1379.68 1154.76
  C 1367.39 1171.44 1354.04 1187.97 1339.97 1203.47
  Q 1320.90 1224.46 1308.24 1237.04
  C 1291.34 1253.83 1272.77 1270.37 1253.20 1285.42
  Q 1224.89 1307.20 1210.83 1316.55
  Q 1197.88 1325.16 1182.69 1334.77
  C 1168.53 1343.75 1153.92 1351.07 1139.52 1358.63
  Q 1124.06 1366.75 1105.09 1375.50
  Q 1094.75 1380.27 1086.83 1383.48
  Q 1047.09 1399.62 1016.59 1408.85
  Q 981.01 1419.61 936.97 1427.58
  Q 915.52 1431.47 895.51 1433.33
  Q 875.07 1435.24 854.28 1437.07
  Q 846.98 1437.71 841.33 1437.77
  Q 820.12 1438.00 795.85 1437.87
  Q 786.55 1437.82 776.83 1437.03
  Q 757.82 1435.47 739.56 1433.92
  Q 729.90 1433.10 720.12 1431.79
  Q 681.39 1426.60 646.66 1418.02
  Q 622.44 1412.03 598.75 1404.39
  Q 555.94 1390.57 524.43 1375.27
  Q 505.95 1366.29 487.15 1356.30
  Q 466.19 1345.15 448.28 1333.99
  Z
  M 689.98 137.32
  L 685.52 137.76
  C 683.68 137.94 682.09 138.91 680.44 139.18
  C 677.82 139.60 675.16 139.51 672.72 140.53
  C 670.49 141.45 668.07 141.47 665.74 142.10
  Q 661.19 143.33 657.00 144.37
  Q 636.26 149.51 616.50 156.25
  C 615.01 156.75 613.55 156.85 612.13 157.60
  Q 610.56 158.43 608.78 158.69
  C 606.67 159.01 605.20 160.38 603.05 160.66
  Q 600.96 160.93 599.08 162.16
  Q 598.65 162.45 598.13 162.49
  Q 596.49 162.60 594.99 163.21
  Q 588.85 165.71 583.42 168.22
  C 582.86 168.48 582.33 168.40 581.77 168.61
  Q 564.14 175.24 547.17 183.35
  Q 543.09 185.29 533.49 190.40
  Q 526.93 193.89 519.76 197.38
  C 518.04 198.21 516.81 199.51 515.11 200.42
  Q 493.52 211.98 473.90 225.32
  Q 460.43 234.48 447.46 243.67
  Q 434.73 252.70 423.60 261.95
  Q 408.94 274.14 396.65 285.36
  Q 373.75 306.28 354.67 328.50
  Q 339.19 346.53 323.29 367.25
  C 317.38 374.94 312.19 382.85 306.64 390.82
  Q 300.30 399.93 295.32 408.09
  Q 272.99 444.62 254.20 484.80
  C 246.88 500.45 240.85 516.08 234.30 533.01
  C 233.86 534.14 233.67 535.23 233.24 536.38
  Q 222.04 566.48 214.93 597.82
  Q 214.39 599.31 214.38 600.79
  L 212.83 605.76
  L 212.32 609.85
  L 210.83 614.76
  L 210.38 620.80
  L 208.83 624.75
  L 208.38 629.85
  L 206.81 635.25
  L 206.40 642.80
  Q 205.08 645.09 204.81 647.25
  L 204.43 654.81
  Q 202.68 657.75 202.81 661.02
  L 202.40 669.78
  Q 200.54 673.31 200.82 677.54
  L 200.39 688.80
  L 198.82 699.79
  L 198.47 719.77
  Q 196.18 739.21 197.26 758.75
  Q 197.48 762.79 198.40 770.88
  L 198.78 791.22
  Q 198.52 797.88 200.40 804.21
  L 200.83 814.26
  L 202.34 821.22
  L 202.84 831.22
  Q 203.09 833.77 204.33 836.22
  L 204.84 843.75
  L 206.38 848.26
  L 206.89 854.73
  L 208.29 859.86
  L 208.86 864.11
  Q 216.51 899.90 223.32 921.50
  C 225.70 929.02 227.93 936.68 229.89 942.51
  Q 238.07 966.84 247.96 990.50
  C 250.24 995.93 253.19 1001.63 255.78 1007.26
  C 266.01 1029.50 278.02 1051.08 290.65 1072.09
  C 298.05 1084.42 306.62 1096.25 314.89 1108.09
  Q 321.73 1117.87 331.37 1129.77
  Q 350.41 1153.27 370.37 1174.41
  Q 376.90 1181.34 384.35 1188.52
  Q 399.43 1203.05 410.76 1212.58
  Q 433.18 1231.45 459.20 1249.79
  Q 476.93 1262.29 509.68 1282.02
  Q 517.49 1286.72 527.19 1291.78
  Q 543.71 1300.40 557.80 1306.99
  Q 579.99 1317.38 602.29 1325.48
  Q 609.84 1328.23 618.29 1330.91
  Q 626.63 1333.57 634.14 1335.96
  Q 642.92 1338.75 651.89 1341.46
  Q 653.68 1342.01 655.18 1342.27
  C 657.73 1342.71 660.07 1343.70 662.56 1344.38
  Q 664.61 1344.93 666.75 1345.43
  Q 686.05 1349.92 713.49 1354.74
  C 716.85 1355.33 720.24 1355.57 723.51 1356.31
  Q 727.31 1357.17 731.00 1357.51
  C 734.29 1357.81 737.36 1358.84 740.63 1359.09
  Q 742.60 1359.25 744.43 1359.32
  L 747.58 1359.50
  Q 751.02 1359.56 754.41 1360.25
  Q 758.59 1361.09 761.17 1361.17
  Q 770.81 1361.48 780.31 1362.04
  C 782.02 1362.14 783.78 1362.96 785.76 1363.02
  Q 822.50 1364.17 847.68 1362.87
  Q 849.14 1362.79 850.77 1362.57
  Q 859.15 1361.42 866.69 1361.34
  Q 871.01 1361.29 877.19 1360.30
  Q 882.28 1359.48 887.79 1359.29
  C 892.41 1359.14 896.84 1358.04 901.45 1357.54
  C 906.06 1357.04 910.58 1355.90 915.28 1355.35
  C 919.54 1354.86 923.94 1353.92 928.25 1353.15
  C 950.87 1349.08 971.84 1344.12 992.86 1337.32
  Q 1004.66 1333.51 1018.76 1328.83
  Q 1020.12 1328.38 1021.55 1327.91
  Q 1057.13 1316.24 1098.19 1295.10
  C 1112.49 1287.74 1126.37 1280.13 1140.19 1271.64
  Q 1157.34 1261.11 1182.75 1243.34
  Q 1213.93 1221.54 1245.60 1191.89
  Q 1263.26 1175.36 1277.42 1159.74
  Q 1296.52 1138.66 1314.66 1114.50
  C 1322.42 1104.18 1329.28 1092.78 1336.61 1082.00
  Q 1343.54 1071.82 1347.46 1065.21
  C 1356.36 1050.20 1364.43 1034.53 1372.68 1018.99
  Q 1376.51 1011.78 1380.29 1003.52
  Q 1387.50 987.75 1392.30 975.47
  Q 1396.93 963.61 1400.99 951.97
  Q 1401.42 950.75 1401.87 949.54
  Q 1409.60 928.97 1414.50 910.54
  Q 1416.04 904.75 1417.47 899.45
  Q 1422.84 879.55 1425.67 865.69
  Q 1426.66 860.82 1427.60 856.51
  Q 1428.19 853.79 1428.33 851.34
  C 1428.55 847.45 1430.29 844.04 1430.34 840.25
  Q 1430.39 836.28 1431.36 832.99
  Q 1432.25 829.98 1432.36 826.73
  Q 1432.49 822.74 1433.19 820.50
  Q 1434.56 816.14 1434.25 811.65
  L 1434.48 805.21
  Q 1436.09 801.32 1436.11 799.76
  Q 1436.29 788.04 1437.13 776.10
  C 1437.24 774.57 1437.95 773.09 1438.00 771.34
  Q 1438.62 747.78 1438.19 723.89
  Q 1438.08 717.38 1437.27 709.83
  Q 1436.44 702.15 1436.37 694.76
  Q 1436.32 689.56 1435.40 684.00
  Q 1434.34 677.60 1434.24 670.39
  Q 1434.21 668.77 1433.60 667.24
  C 1432.29 664.00 1432.37 659.48 1432.21 655.95
  C 1432.09 653.28 1430.62 651.03 1430.52 648.19
  C 1430.36 643.79 1428.79 639.77 1428.40 635.37
  C 1428.11 632.22 1426.93 629.22 1426.52 626.05
  Q 1426.23 623.79 1425.71 621.45
  Q 1418.92 590.62 1409.51 560.67
  Q 1408.91 558.77 1408.29 557.14
  C 1407.41 554.83 1407.22 552.52 1406.01 550.35
  C 1405.31 549.09 1405.45 547.64 1404.88 546.31
  Q 1403.55 543.22 1402.11 540.28
  C 1401.31 538.63 1401.42 536.91 1400.48 535.22
  C 1399.57 533.60 1399.44 531.94 1398.77 530.23
  C 1396.07 523.36 1393.75 516.30 1390.94 509.48
  Q 1371.65 462.73 1349.98 426.34
  Q 1329.03 391.18 1308.12 363.85
  Q 1296.44 348.58 1281.17 330.68
  C 1272.37 320.35 1262.71 310.65 1253.41 300.85
  Q 1244.41 291.36 1229.52 278.72
  C 1223.11 273.29 1217.14 267.71 1210.63 262.57
  Q 1201.25 255.16 1191.94 248.05
  Q 1185.39 243.04 1164.61 228.57
  C 1136.07 208.67 1105.34 191.78 1072.99 177.43
  Q 1071.83 176.92 1070.57 176.38
  Q 1046.17 165.99 1021.06 157.07
  Q 1019.81 156.62 1018.51 156.17
  Q 994.07 147.73 967.97 141.80
  Q 960.73 140.15 953.98 138.65
  C 950.25 137.82 946.61 137.48 942.97 136.42
  C 939.92 135.54 936.87 135.54 933.82 134.72
  Q 930.25 133.76 926.75 133.54
  C 922.93 133.30 919.46 131.87 915.64 131.66
  C 910.74 131.40 906.27 129.97 901.37 129.65
  C 894.70 129.21 888.38 127.58 881.32 127.66
  L 874.12 127.31
  L 863.72 125.88
  L 847.23 125.60
  Q 824.69 123.67 818.00 124.04
  Q 807.40 124.61 795.01 125.17
  Q 793.54 125.24 792.24 125.29
  Q 785.35 125.53 777.91 125.74
  Q 770.97 125.93 763.83 126.92
  C 757.67 127.78 751.23 127.40 744.99 128.67
  Q 741.07 129.48 736.96 129.63
  C 731.15 129.85 725.59 131.59 719.66 131.78
  C 715.80 131.91 712.32 133.54 708.35 133.66
  Q 706.02 133.73 703.75 134.51
  Q 700.69 135.56 697.09 135.62
  C 694.59 135.66 692.36 136.62 689.98 137.32
  Z"
/>
<path fill="#1b2241" d="
  M 847.23 125.60
  L 863.72 125.88
  L 874.12 127.31
  L 881.32 127.66
  C 888.38 127.58 894.70 129.21 901.37 129.65
  C 906.27 129.97 910.74 131.40 915.64 131.66
  C 919.46 131.87 922.93 133.30 926.75 133.54
  Q 930.25 133.76 933.82 134.72
  C 936.87 135.54 939.92 135.54 942.97 136.42
  C 946.61 137.48 950.25 137.82 953.98 138.65
  Q 960.73 140.15 967.97 141.80
  Q 994.07 147.73 1018.51 156.17
  Q 1019.81 156.62 1021.06 157.07
  Q 1046.17 165.99 1070.57 176.38
  Q 1071.83 176.92 1072.99 177.43
  C 1105.34 191.78 1136.07 208.67 1164.61 228.57
  Q 1185.39 243.04 1191.94 248.05
  Q 1201.25 255.16 1210.63 262.57
  C 1217.14 267.71 1223.11 273.29 1229.52 278.72
  Q 1244.41 291.36 1253.41 300.85
  C 1262.71 310.65 1272.37 320.35 1281.17 330.68
  Q 1296.44 348.58 1308.12 363.85
  Q 1329.03 391.18 1349.98 426.34
  Q 1371.65 462.73 1390.94 509.48
  C 1393.75 516.30 1396.07 523.36 1398.77 530.23
  C 1399.44 531.94 1399.57 533.60 1400.48 535.22
  C 1401.42 536.91 1401.31 538.63 1402.11 540.28
  Q 1403.55 543.22 1404.88 546.31
  C 1405.45 547.64 1405.31 549.09 1406.01 550.35
  C 1407.22 552.52 1407.41 554.83 1408.29 557.14
  Q 1408.91 558.77 1409.51 560.67
  Q 1418.92 590.62 1425.71 621.45
  Q 1426.23 623.79 1426.52 626.05
  C 1426.93 629.22 1428.11 632.22 1428.40 635.37
  C 1428.79 639.77 1430.36 643.79 1430.52 648.19
  C 1430.62 651.03 1432.09 653.28 1432.21 655.95
  C 1432.37 659.48 1432.29 664.00 1433.60 667.24
  Q 1434.21 668.77 1434.24 670.39
  Q 1434.34 677.60 1435.40 684.00
  Q 1436.32 689.56 1436.37 694.76
  Q 1436.44 702.15 1437.27 709.83
  Q 1438.08 717.38 1438.19 723.89
  Q 1438.62 747.78 1438.00 771.34
  C 1437.95 773.09 1437.24 774.57 1437.13 776.10
  Q 1436.29 788.04 1436.11 799.76
  Q 1436.09 801.32 1434.48 805.21
  Q 1433.69 808.29 1434.25 811.65
  Q 1434.56 816.14 1433.19 820.50
  Q 1432.49 822.74 1432.36 826.73
  Q 1432.25 829.98 1431.36 832.99
  Q 1430.39 836.28 1430.34 840.25
  C 1430.29 844.04 1428.55 847.45 1428.33 851.34
  Q 1428.19 853.79 1427.60 856.51
  Q 1426.66 860.82 1425.67 865.69
  Q 1422.84 879.55 1417.47 899.45
  Q 1416.04 904.75 1414.50 910.54
  Q 1409.60 928.97 1401.87 949.54
  Q 1401.42 950.75 1400.99 951.97
  Q 1396.93 963.61 1392.30 975.47
  Q 1387.50 987.75 1380.29 1003.52
  Q 1376.51 1011.78 1372.68 1018.99
  C 1364.43 1034.53 1356.36 1050.20 1347.46 1065.21
  Q 1343.54 1071.82 1336.61 1082.00
  C 1329.28 1092.78 1322.42 1104.18 1314.66 1114.50
  Q 1296.52 1138.66 1277.42 1159.74
  Q 1263.26 1175.36 1245.60 1191.89
  Q 1213.93 1221.54 1182.75 1243.34
  Q 1157.34 1261.11 1140.19 1271.64
  C 1126.37 1280.13 1112.49 1287.74 1098.19 1295.10
  Q 1057.13 1316.24 1021.55 1327.91
  Q 1020.12 1328.38 1018.76 1328.83
  Q 1004.66 1333.51 992.86 1337.32
  C 971.84 1344.12 950.87 1349.08 928.25 1353.15
  C 923.94 1353.92 919.54 1354.86 915.28 1355.35
  C 910.58 1355.90 906.06 1357.04 901.45 1357.54
  C 896.84 1358.04 892.41 1359.14 887.79 1359.29
  Q 882.28 1359.48 877.19 1360.30
  Q 871.01 1361.29 866.69 1361.34
  Q 859.15 1361.42 850.77 1362.57
  Q 849.14 1362.79 847.68 1362.87
  Q 822.50 1364.17 785.76 1363.02
  C 783.78 1362.96 782.02 1362.14 780.31 1362.04
  Q 770.81 1361.48 761.17 1361.17
  Q 758.59 1361.09 754.41 1360.25
  Q 751.02 1359.56 747.58 1359.50
  Q 746.18 1358.54 744.43 1359.32
  Q 742.60 1359.25 740.63 1359.09
  C 737.36 1358.84 734.29 1357.81 731.00 1357.51
  Q 727.31 1357.17 723.51 1356.31
  C 720.24 1355.57 716.85 1355.33 713.49 1354.74
  Q 686.05 1349.92 666.75 1345.43
  Q 664.61 1344.93 662.56 1344.38
  C 660.07 1343.70 657.73 1342.71 655.18 1342.27
  Q 653.68 1342.01 651.89 1341.46
  Q 642.92 1338.75 634.14 1335.96
  Q 626.63 1333.57 618.29 1330.91
  Q 609.84 1328.23 602.29 1325.48
  Q 579.99 1317.38 557.80 1306.99
  Q 543.71 1300.40 527.19 1291.78
  Q 517.49 1286.72 509.68 1282.02
  Q 476.93 1262.29 459.20 1249.79
  Q 433.18 1231.45 410.76 1212.58
  Q 399.43 1203.05 384.35 1188.52
  Q 376.90 1181.34 370.37 1174.41
  Q 350.41 1153.27 331.37 1129.77
  Q 321.73 1117.87 314.89 1108.09
  C 306.62 1096.25 298.05 1084.42 290.65 1072.09
  C 278.02 1051.08 266.01 1029.50 255.78 1007.26
  C 253.19 1001.63 250.24 995.93 247.96 990.50
  Q 238.07 966.84 229.89 942.51
  C 227.93 936.68 225.70 929.02 223.32 921.50
  Q 216.51 899.90 208.86 864.11
  Q 209.24 861.78 208.29 859.86
  L 206.89 854.73
  L 206.38 848.26
  L 204.84 843.75
  Q 205.27 839.61 204.33 836.22
  Q 203.09 833.77 202.84 831.22
  Q 203.30 825.86 202.34 821.22
  L 200.83 814.26
  L 200.40 804.21
  Q 198.52 797.88 198.78 791.22
  Q 199.39 780.82 198.40 770.88
  Q 197.48 762.79 197.26 758.75
  Q 196.18 739.21 198.47 719.77
  L 198.82 699.79
  L 200.39 688.80
  Q 201.33 683.45 200.82 677.54
  Q 200.54 673.31 202.40 669.78
  Q 203.35 665.80 202.81 661.02
  Q 202.68 657.75 204.43 654.81
  Q 205.33 651.50 204.81 647.25
  Q 205.08 645.09 206.40 642.80
  Q 207.33 639.46 206.81 635.25
  L 208.38 629.85
  Q 209.32 628.09 208.83 624.75
  L 210.38 620.80
  Q 211.32 618.34 210.83 614.76
  L 212.32 609.85
  Q 213.35 608.86 212.83 605.76
  L 214.38 600.79
  Q 215.14 600.42 214.93 597.82
  Q 222.04 566.48 233.24 536.38
  C 233.67 535.23 233.86 534.14 234.30 533.01
  C 240.85 516.08 246.88 500.45 254.20 484.80
  Q 272.99 444.62 295.32 408.09
  Q 300.30 399.93 306.64 390.82
  C 312.19 382.85 317.38 374.94 323.29 367.25
  Q 339.19 346.53 354.67 328.50
  Q 373.75 306.28 396.65 285.36
  Q 408.94 274.14 423.60 261.95
  Q 434.73 252.70 447.46 243.67
  Q 460.43 234.48 473.90 225.32
  Q 493.52 211.98 515.11 200.42
  C 516.81 199.51 518.04 198.21 519.76 197.38
  Q 526.93 193.89 533.49 190.40
  Q 543.09 185.29 547.17 183.35
  Q 564.14 175.24 581.77 168.61
  C 582.33 168.40 582.86 168.48 583.42 168.22
  Q 588.85 165.71 594.99 163.21
  Q 596.49 162.60 598.13 162.49
  Q 598.65 162.45 599.08 162.16
  Q 600.96 160.93 603.05 160.66
  C 605.20 160.38 606.67 159.01 608.78 158.69
  Q 610.56 158.43 612.13 157.60
  C 613.55 156.85 615.01 156.75 616.50 156.25
  Q 636.26 149.51 657.00 144.37
  Q 661.19 143.33 665.74 142.10
  C 668.07 141.47 670.49 141.45 672.72 140.53
  C 675.16 139.51 677.82 139.60 680.44 139.18
  C 682.09 138.91 683.68 137.94 685.52 137.76
  Q 687.96 138.31 689.98 137.32
  C 692.36 136.62 694.59 135.66 697.09 135.62
  Q 700.69 135.56 703.75 134.51
  Q 706.02 133.73 708.35 133.66
  C 712.32 133.54 715.80 131.91 719.66 131.78
  C 725.59 131.59 731.15 129.85 736.96 129.63
  Q 741.07 129.48 744.99 128.67
  C 751.23 127.40 757.67 127.78 763.83 126.92
  Q 770.97 125.93 777.91 125.74
  Q 785.35 125.53 792.24 125.29
  Q 793.54 125.24 795.01 125.17
  Q 807.40 124.61 818.00 124.04
  Q 824.69 123.67 847.23 125.60
  Z
  M 1242.01 833.96
  Q 1253.59 812.29 1259.74 792.03
  Q 1265.73 772.31 1267.57 750.50
  Q 1268.21 742.87 1268.26 730.00
  Q 1268.34 705.51 1268.23 683.25
  Q 1268.15 665.92 1268.05 663.25
  C 1266.74 625.84 1254.52 588.16 1231.62 558.12
  C 1212.74 533.34 1188.57 513.65 1160.49 501.34
  C 1136.17 490.67 1110.09 484.82 1083.37 481.71
  Q 1056.10 478.53 1028.95 476.57
  Q 958.77 471.50 888.99 469.01
  Q 878.87 468.65 868.99 468.59
  Q 800.62 468.17 778.69 468.48
  Q 694.61 469.68 606.10 476.87
  Q 602.10 477.19 586.15 478.39
  Q 559.81 480.37 534.01 483.89
  Q 510.65 487.08 486.77 495.69
  Q 458.97 505.71 437.21 523.44
  Q 423.86 534.31 415.18 543.42
  C 395.53 564.03 380.46 589.82 373.07 617.98
  Q 366.82 641.77 366.61 659.23
  Q 366.25 688.51 366.31 730.69
  Q 366.32 741.45 367.05 750.33
  Q 370.54 792.68 390.16 830.72
  Q 412.63 874.27 453.24 901.86
  Q 461.37 907.39 470.24 912.53
  C 503.95 932.09 542.60 940.45 581.31 935.43
  C 615.77 930.97 646.69 915.79 672.24 892.38
  C 682.27 883.19 692.46 871.02 700.49 859.95
  Q 723.05 828.81 746.19 796.56
  C 766.47 768.29 793.54 747.10 829.93 754.51
  Q 844.36 757.45 855.43 764.95
  C 872.05 776.21 886.08 794.12 897.75 811.11
  Q 913.07 833.41 928.20 853.67
  C 941.31 871.24 954.13 887.49 971.20 900.98
  C 983.15 910.43 996.62 919.07 1010.50 924.69
  Q 1058.94 944.27 1110.75 932.67
  Q 1132.04 927.90 1156.18 916.28
  Q 1164.73 912.15 1173.58 906.34
  Q 1189.39 895.93 1200.53 885.92
  C 1217.17 870.97 1231.55 853.52 1242.01 833.96
  Z
  M 260.5481 746.8300
  A 2.33 0.26 89.8 0 0 260.8000 744.4991
  A 2.33 0.26 89.8 0 0 260.5319 742.1700
  A 2.33 0.26 89.8 0 0 260.2800 744.5009
  A 2.33 0.26 89.8 0 0 260.5481 746.8300
  Z
  M 779.02 840.79
  Q 774.30 846.97 773.01 848.99
  Q 763.85 863.29 755.59 876.32
  Q 751.35 883.01 747.28 890.58
  Q 744.33 896.08 744.68 900.18
  C 746.25 918.83 757.26 935.48 772.92 946.00
  Q 794.29 960.37 820.47 959.47
  C 839.50 958.82 856.88 951.01 870.55 937.82
  Q 881.32 927.41 886.38 911.73
  C 888.55 905.00 890.29 896.67 886.86 890.29
  Q 882.40 879.64 876.06 870.19
  Q 863.72 851.83 845.89 824.04
  Q 841.51 817.21 835.78 811.01
  Q 827.53 802.08 814.03 803.54
  Q 802.62 804.77 795.36 815.58
  Q 783.49 833.24 779.02 840.79
  Z
  M 967.96 1127.28
  Q 967.63 1130.29 966.86 1133.33
  C 965.81 1137.45 956.48 1138.56 952.98 1138.67
  C 941.38 1139.06 932.04 1134.58 926.17 1124.24
  C 922.12 1117.10 921.57 1107.81 925.36 1100.47
  C 934.47 1082.83 955.27 1082.52 969.87 1093.37
  A 1.74 1.73 49.5 0 0 971.72 1093.52
  C 976.01 1091.31 983.70 1086.45 979.90 1080.55
  C 975.76 1074.11 966.87 1070.05 959.10 1068.26
  Q 942.79 1064.52 927.34 1072.03
  C 905.54 1082.64 896.52 1110.45 907.57 1132.12
  Q 914.71 1146.12 928.73 1152.55
  Q 948.87 1161.77 968.57 1152.53
  Q 969.16 1152.25 969.64 1152.68
  Q 974.64 1157.06 981.56 1154.71
  C 985.18 1153.48 985.55 1148.81 985.57 1145.39
  Q 985.66 1127.68 985.65 1112.21
  Q 985.65 1111.71 985.28 1111.35
  Q 983.19 1109.35 980.44 1109.30
  Q 969.87 1109.12 959.59 1109.26
  C 956.04 1109.31 953.75 1109.08 950.84 1111.43
  Q 950.09 1112.04 950.03 1113.07
  Q 949.62 1119.78 950.43 1125.19
  A 1.59 1.58 85.5 0 0 951.99 1126.53
  L 967.29 1126.53
  A 0.68 0.67 -86.9 0 1 967.96 1127.28
  Z
  M 1109.9030 1107.5211
  A 46.30 45.15 -5.8 0 0 1059.2773 1067.2811
  A 46.30 45.15 -5.8 0 0 1017.7770 1116.8789
  A 46.30 45.15 -5.8 0 0 1068.4027 1157.1189
  A 46.30 45.15 -5.8 0 0 1109.9030 1107.5211
  Z
  M 667.6592 1075.8607
  A 7.77 7.77 0.0 0 0 659.8487 1068.1315
  L 656.3687 1068.1497
  A 7.77 7.77 0.0 0 0 648.6395 1075.9603
  L 649.0208 1148.7793
  A 7.77 7.77 0.0 0 0 656.8313 1156.5085
  L 660.3113 1156.4903
  A 7.77 7.77 0.0 0 0 668.0405 1148.6797
  L 667.6592 1075.8607
  Z
  M 739.79 1120.93
  Q 737.97 1119.43 736.92 1117.38
  Q 727.97 1100.00 718.35 1078.06
  Q 716.34 1073.48 713.82 1070.25
  C 711.27 1066.99 702.19 1067.98 698.83 1069.33
  C 694.95 1070.89 695.76 1075.87 697.14 1078.78
  Q 712.44 1111.09 732.59 1152.81
  Q 733.65 1154.99 735.26 1155.46
  C 737.99 1156.24 741.57 1155.78 744.57 1155.30
  Q 746.42 1155.01 747.48 1153.01
  Q 749.94 1148.38 751.62 1144.67
  Q 767.64 1109.29 782.87 1075.97
  C 784.05 1073.39 784.72 1069.00 780.52 1068.77
  Q 775.69 1068.52 769.90 1068.72
  C 764.61 1068.90 761.94 1077.93 760.10 1081.81
  Q 751.28 1100.41 742.68 1118.29
  Q 742.00 1119.70 741.13 1120.79
  A 0.95 0.95 0.0 0 1 739.79 1120.93
  Z
  M 525.82 1075.09
  L 525.70 1149.09
  A 6.98 6.98 0.0 0 0 532.66 1156.08
  L 566.05 1156.14
  A 44.05 43.50 0.1 0 0 610.18 1112.71
  L 610.18 1111.75
  A 44.05 43.50 0.1 0 0 566.21 1068.18
  L 532.82 1068.12
  A 6.98 6.98 0.0 0 0 525.82 1075.09
  Z
  M 830.33 1102.20
  L 830.36 1087.31
  Q 830.36 1086.57 831.10 1086.57
  Q 847.03 1086.51 862.66 1086.44
  C 866.28 1086.42 870.13 1087.16 872.04 1082.97
  C 873.06 1080.74 872.86 1076.98 872.59 1074.51
  Q 871.95 1068.48 865.50 1068.47
  Q 839.79 1068.47 815.94 1068.67
  C 811.60 1068.70 810.23 1071.52 810.22 1075.45
  Q 810.13 1113.05 810.01 1150.17
  C 810.00 1154.89 813.51 1156.26 817.72 1156.26
  Q 841.13 1156.22 865.03 1156.27
  C 867.23 1156.28 869.36 1156.40 870.92 1154.51
  Q 873.24 1151.69 873.58 1148.06
  C 874.01 1143.43 873.13 1138.42 867.37 1138.38
  Q 846.69 1138.24 830.75 1138.42
  Q 830.03 1138.43 830.02 1137.70
  L 829.95 1121.25
  Q 829.95 1120.33 830.87 1120.33
  Q 840.18 1120.36 850.94 1120.29
  C 852.47 1120.28 853.74 1119.57 854.18 1118.02
  C 855.23 1114.26 856.46 1103.78 850.01 1103.11
  Q 841.73 1102.25 831.36 1103.14
  A 0.95 0.94 -2.5 0 1 830.33 1102.20
  Z"
/>
<path fill="#fffcf2" d="
  M 1242.01 833.96
  C 1231.55 853.52 1217.17 870.97 1200.53 885.92
  Q 1189.39 895.93 1173.58 906.34
  Q 1164.73 912.15 1156.18 916.28
  Q 1132.04 927.90 1110.75 932.67
  Q 1058.94 944.27 1010.50 924.69
  C 996.62 919.07 983.15 910.43 971.20 900.98
  C 954.13 887.49 941.31 871.24 928.20 853.67
  Q 913.07 833.41 897.75 811.11
  C 886.08 794.12 872.05 776.21 855.43 764.95
  Q 844.36 757.45 829.93 754.51
  C 793.54 747.10 766.47 768.29 746.19 796.56
  Q 723.05 828.81 700.49 859.95
  C 692.46 871.02 682.27 883.19 672.24 892.38
  C 646.69 915.79 615.77 930.97 581.31 935.43
  C 542.60 940.45 503.95 932.09 470.24 912.53
  Q 461.37 907.39 453.24 901.86
  Q 412.63 874.27 390.16 830.72
  Q 370.54 792.68 367.05 750.33
  Q 366.32 741.45 366.31 730.69
  Q 366.25 688.51 366.61 659.23
  Q 366.82 641.77 373.07 617.98
  C 380.46 589.82 395.53 564.03 415.18 543.42
  Q 423.86 534.31 437.21 523.44
  Q 458.97 505.71 486.77 495.69
  Q 510.65 487.08 534.01 483.89
  Q 559.81 480.37 586.15 478.39
  Q 602.10 477.19 606.10 476.87
  Q 694.61 469.68 778.69 468.48
  Q 800.62 468.17 868.99 468.59
  Q 878.87 468.65 888.99 469.01
  Q 958.77 471.50 1028.95 476.57
  Q 1056.10 478.53 1083.37 481.71
  C 1110.09 484.82 1136.17 490.67 1160.49 501.34
  C 1188.57 513.65 1212.74 533.34 1231.62 558.12
  C 1254.52 588.16 1266.74 625.84 1268.05 663.25
  Q 1268.15 665.92 1268.23 683.25
  Q 1268.34 705.51 1268.26 730.00
  Q 1268.21 742.87 1267.57 750.50
  Q 1265.73 772.31 1259.74 792.03
  Q 1253.59 812.29 1242.01 833.96
  Z
  M 675.17 812.17
  Q 676.73 810.00 678.32 807.87
  Q 705.48 771.40 731.81 733.49
  Q 740.20 721.41 744.73 713.59
  C 755.57 694.83 762.45 673.06 763.45 650.58
  C 764.87 618.93 753.78 589.63 731.84 566.87
  C 717.11 551.59 696.43 543.02 675.77 540.89
  Q 667.49 540.04 657.52 540.01
  Q 594.03 539.79 544.75 539.85
  Q 525.42 539.87 509.71 544.67
  Q 492.01 550.07 475.34 560.50
  C 456.29 572.43 441.96 590.53 431.52 610.93
  Q 418.27 636.84 417.67 664.96
  Q 417.23 685.68 417.59 726.99
  Q 417.71 740.00 418.13 746.99
  Q 418.91 759.79 423.20 773.91
  Q 436.91 819.10 471.59 850.75
  C 512.67 888.26 571.89 895.73 620.57 869.60
  C 644.83 856.58 659.56 833.84 675.17 812.17
  Z
  M 965.05 822.19
  C 975.51 836.46 984.54 848.90 997.67 859.51
  C 1017.80 875.78 1045.11 884.18 1070.51 884.74
  Q 1088.68 885.14 1102.58 881.51
  Q 1147.72 869.72 1176.35 835.88
  Q 1181.88 829.34 1188.75 819.56
  Q 1200.56 802.74 1208.76 779.75
  Q 1215.79 760.02 1215.93 738.24
  Q 1216.15 703.02 1216.05 670.90
  Q 1216.02 659.81 1214.79 651.71
  C 1208.31 608.90 1183.92 571.76 1145.07 552.36
  Q 1137.18 548.43 1127.27 545.44
  C 1113.13 541.19 1099.68 539.92 1084.92 539.93
  Q 1034.51 539.96 980.53 539.76
  Q 968.01 539.71 959.73 540.74
  Q 940.94 543.09 922.66 552.85
  C 904.85 562.35 890.84 578.85 881.97 597.08
  Q 878.04 605.15 875.65 615.49
  Q 863.93 666.03 889.60 713.20
  Q 894.19 721.64 899.56 729.52
  Q 931.22 776.02 965.05 822.19
  Z
  M 871.2877 565.7532
  A 1.78 0.38 115.0 0 0 872.3844 564.3006
  A 1.78 0.38 115.0 0 0 872.7923 562.5268
  A 1.78 0.38 115.0 0 0 871.6956 563.9794
  A 1.78 0.38 115.0 0 0 871.2877 565.7532
  Z"
/>
<path fill="#1b2241" d="
  M 675.17 812.17
  C 659.56 833.84 644.83 856.58 620.57 869.60
  C 571.89 895.73 512.67 888.26 471.59 850.75
  Q 436.91 819.10 423.20 773.91
  Q 418.91 759.79 418.13 746.99
  Q 417.71 740.00 417.59 726.99
  Q 417.23 685.68 417.67 664.96
  Q 418.27 636.84 431.52 610.93
  C 441.96 590.53 456.29 572.43 475.34 560.50
  Q 492.01 550.07 509.71 544.67
  Q 525.42 539.87 544.75 539.85
  Q 594.03 539.79 657.52 540.01
  Q 667.49 540.04 675.77 540.89
  C 696.43 543.02 717.11 551.59 731.84 566.87
  C 753.78 589.63 764.87 618.93 763.45 650.58
  C 762.45 673.06 755.57 694.83 744.73 713.59
  Q 740.20 721.41 731.81 733.49
  Q 705.48 771.40 678.32 807.87
  Q 676.73 810.00 675.17 812.17
  Z
  M 482.64 607.83
  Q 481.65 608.67 480.57 609.63
  Q 479.63 610.46 478.88 611.43
  Q 471.57 620.93 465.53 632.93
  Q 464.19 635.58 464.67 638.25
  Q 464.83 639.15 463.44 639.54
  Q 459.87 649.30 458.43 660.89
  A 0.67 0.66 3.7 0 0 459.10 661.64
  L 670.34 661.73
  L 652.20 693.34
  L 458.52 693.36
  A 0.84 0.84 0.0 0 0 457.68 694.19
  Q 457.41 711.37 457.57 729.05
  Q 457.73 747.33 460.98 759.32
  Q 463.29 767.82 468.15 778.71
  C 473.60 790.89 481.38 802.31 489.94 812.06
  Q 496.72 819.77 507.53 827.15
  Q 513.55 831.25 521.06 834.64
  Q 529.95 838.66 535.75 840.30
  Q 552.48 845.04 571.11 842.63
  Q 590.68 839.49 606.14 829.08
  C 616.62 822.03 624.56 812.26 632.22 802.48
  Q 635.52 798.26 638.81 793.63
  Q 669.41 750.44 703.10 702.25
  Q 713.60 687.23 719.52 668.50
  Q 720.57 665.18 720.97 661.80
  Q 723.31 650.94 722.43 640.05
  Q 720.37 622.74 712.38 607.67
  C 703.22 591.38 686.08 581.18 667.39 581.20
  Q 608.71 581.26 543.07 581.20
  Q 532.61 581.19 526.42 582.39
  C 509.66 585.62 494.14 595.45 482.64 607.83
  Z"
/>
<path fill="#1b2241" d="
  M 965.05 822.19
  Q 931.22 776.02 899.56 729.52
  Q 894.19 721.64 889.60 713.20
  Q 863.93 666.03 875.65 615.49
  Q 878.04 605.15 881.97 597.08
  C 890.84 578.85 904.85 562.35 922.66 552.85
  Q 940.94 543.09 959.73 540.74
  Q 968.01 539.71 980.53 539.76
  Q 1034.51 539.96 1084.92 539.93
  C 1099.68 539.92 1113.13 541.19 1127.27 545.44
  Q 1137.18 548.43 1145.07 552.36
  C 1183.92 571.76 1208.31 608.90 1214.79 651.71
  Q 1216.02 659.81 1216.05 670.90
  Q 1216.15 703.02 1215.93 738.24
  Q 1215.79 760.02 1208.76 779.75
  Q 1200.56 802.74 1188.75 819.56
  Q 1181.88 829.34 1176.35 835.88
  Q 1147.72 869.72 1102.58 881.51
  Q 1088.68 885.14 1070.51 884.74
  C 1045.11 884.18 1017.80 875.78 997.67 859.51
  C 984.54 848.90 975.51 836.46 965.05 822.19
  Z
  M 922.98 607.49
  C 922.32 607.97 921.70 608.42 921.33 609.19
  Q 914.39 623.55 912.41 639.77
  Q 912.04 648.77 912.92 658.18
  C 913.21 661.21 913.76 661.67 916.75 661.67
  Q 1016.87 661.79 1117.00 661.72
  Q 1120.39 661.72 1124.64 662.35
  C 1126.45 665.16 1128.94 667.93 1129.39 671.13
  Q 1130.24 677.18 1129.56 683.56
  C 1128.69 691.70 1120.60 692.89 1114.00 692.87
  Q 1067.69 692.71 1025.50 692.67
  Q 1023.66 692.67 1020.02 693.14
  L 927.13 693.15
  A 0.90 0.90 0.0 0 0 926.32 694.43
  Q 927.56 697.08 929.32 699.65
  C 936.40 710.02 944.08 720.66 951.29 731.56
  Q 963.01 749.27 975.03 766.01
  C 984.38 779.05 993.60 793.08 1002.98 805.27
  Q 1008.66 812.67 1018.08 821.83
  Q 1023.55 827.15 1029.17 830.48
  Q 1037.22 835.25 1043.89 838.11
  Q 1052.85 841.95 1063.70 843.05
  Q 1082.82 844.77 1100.88 838.89
  C 1122.74 831.78 1140.94 818.22 1153.87 799.09
  Q 1168.93 776.80 1174.39 749.28
  Q 1176.16 740.36 1176.23 732.50
  Q 1176.51 703.33 1175.82 668.25
  Q 1175.80 666.97 1175.28 662.13
  Q 1174.39 652.63 1172.01 643.75
  Q 1171.58 642.15 1170.20 638.96
  Q 1163.80 620.99 1151.68 607.58
  C 1139.08 595.27 1125.63 585.75 1108.16 582.36
  Q 1101.50 581.07 1090.02 581.09
  Q 1027.91 581.22 968.92 581.18
  C 950.80 581.17 933.32 590.79 923.54 606.01
  Q 923.08 606.72 922.98 607.49
  Z"
/>
<ellipse fill="#b7d3e8" cx="0.00" cy="0.00" transform="translate(872.04,564.14) rotate(115.0)" rx="1.78" ry="0.38"/>
<path fill="#fffcf2" d="
  M 1151.68 607.58
  L 1055.41 607.84
  Q 989.46 608.18 924.00 608.09
  Q 923.06 608.09 922.98 607.49
  Q 923.08 606.72 923.54 606.01
  C 933.32 590.79 950.80 581.17 968.92 581.18
  Q 1027.91 581.22 1090.02 581.09
  Q 1101.50 581.07 1108.16 582.36
  C 1125.63 585.75 1139.08 595.27 1151.68 607.58
  Z"
/>
<path fill="#fffcf2" d="
  M 712.38 607.67
  L 699.99 607.97
  Q 698.81 608.02 698.75 607.95
  Q 592.44 608.10 486.12 608.05
  Q 485.59 608.04 484.39 608.23
  Q 483.01 608.45 482.64 607.83
  C 494.14 595.45 509.66 585.62 526.42 582.39
  Q 532.61 581.19 543.07 581.20
  Q 608.71 581.26 667.39 581.20
  C 686.08 581.18 703.22 591.38 712.38 607.67
  Z"
/>
<path fill="#658fb5" d="
  M 1151.68 607.58
  Q 1163.80 620.99 1170.20 638.96
  L 1168.59 639.93
  A 1.69 1.65 -59.8 0 1 1167.73 640.17
  L 1051.45 639.93
  Q 1052.21 639.55 1052.66 639.09
  Q 1053.08 638.66 1053.11 637.77
  Q 1053.33 632.63 1053.18 627.50
  Q 1053.01 622.05 1055.41 607.84
  L 1151.68 607.58
  Z"
/>
<path fill="#658fb5" d="
  M 712.38 607.67
  Q 720.37 622.74 722.43 640.05
  L 680.78 639.87
  Q 681.43 639.44 681.99 639.03
  Q 682.56 638.62 682.96 637.96
  Q 691.63 623.45 699.99 607.97
  L 712.38 607.67
  Z"
/>
<path fill="#2d4365" d="
  M 922.98 607.49
  Q 923.06 608.09 924.00 608.09
  Q 989.46 608.18 1055.41 607.84
  Q 1053.01 622.05 1053.18 627.50
  Q 1053.33 632.63 1053.11 637.77
  Q 1053.08 638.66 1052.66 639.09
  Q 1052.21 639.55 1051.45 639.93
  L 912.41 639.77
  Q 914.39 623.55 921.33 609.19
  C 921.70 608.42 922.32 607.97 922.98 607.49
  Z"
/>
<path fill="#2d4365" d="
  M 482.64 607.83
  Q 483.01 608.45 484.39 608.23
  Q 485.59 608.04 486.12 608.05
  Q 592.44 608.10 698.75 607.95
  Q 698.81 608.02 699.99 607.97
  Q 691.63 623.45 682.96 637.96
  Q 682.56 638.62 681.99 639.03
  Q 681.43 639.44 680.78 639.87
  L 463.44 639.54
  Q 464.83 639.15 464.67 638.25
  Q 464.19 635.58 465.53 632.93
  Q 471.57 620.93 478.88 611.43
  Q 479.63 610.46 480.57 609.63
  Q 481.65 608.67 482.64 607.83
  Z"
/>
<path fill="#fffcf2" d="
  M 1170.20 638.96
  Q 1171.58 642.15 1172.01 643.75
  Q 1174.39 652.63 1175.28 662.13
  L 1124.64 662.35
  Q 1120.39 661.72 1117.00 661.72
  Q 1016.87 661.79 916.75 661.67
  C 913.76 661.67 913.21 661.21 912.92 658.18
  Q 912.04 648.77 912.41 639.77
  L 1051.45 639.93
  L 1167.73 640.17
  A 1.69 1.65 -59.8 0 0 1168.59 639.93
  L 1170.20 638.96
  Z"
/>
<path fill="#fffcf2" d="
  M 463.44 639.54
  L 680.78 639.87
  L 722.43 640.05
  Q 723.31 650.94 720.97 661.80
  L 670.34 661.73
  L 459.10 661.64
  A 0.67 0.66 3.7 0 1 458.43 660.89
  Q 459.87 649.30 463.44 639.54
  Z"
/>
<path fill="#658fb5" d="
  M 720.97 661.80
  Q 720.57 665.18 719.52 668.50
  Q 713.60 687.23 703.10 702.25
  Q 669.41 750.44 638.81 793.63
  Q 635.52 798.26 632.22 802.48
  C 624.56 812.26 616.62 822.03 606.14 829.08
  Q 590.68 839.49 571.11 842.63
  Q 571.49 839.40 573.24 836.24
  Q 578.51 826.70 583.38 817.25
  C 587.83 808.59 593.44 799.80 598.05 791.13
  C 600.75 786.05 603.82 781.23 606.54 776.07
  Q 618.98 752.56 631.04 731.52
  C 635.29 724.12 639.27 716.59 643.54 709.27
  Q 647.84 701.88 652.20 693.34
  L 670.34 661.73
  L 720.97 661.80
  Z"
/>
<path fill="#658fb5" d="
  M 1175.28 662.13
  Q 1175.80 666.97 1175.82 668.25
  Q 1176.51 703.33 1176.23 732.50
  Q 1176.16 740.36 1174.39 749.28
  Q 1168.93 776.80 1153.87 799.09
  C 1140.94 818.22 1122.74 831.78 1100.88 838.89
  Q 1082.82 844.77 1063.70 843.05
  C 1065.48 837.40 1067.04 832.97 1065.98 826.98
  Q 1064.18 816.80 1059.55 807.21
  Q 1054.62 796.98 1049.45 787.69
  Q 1044.65 779.04 1040.58 771.29
  C 1030.69 752.48 1020.66 732.65 1019.75 711.75
  Q 1019.47 705.34 1020.02 693.14
  Q 1023.66 692.67 1025.50 692.67
  Q 1067.69 692.71 1114.00 692.87
  C 1120.60 692.89 1128.69 691.70 1129.56 683.56
  Q 1130.24 677.18 1129.39 671.13
  C 1128.94 667.93 1126.45 665.16 1124.64 662.35
  L 1175.28 662.13
  Z"
/>
<path fill="#2d4365" d="
  M 1020.02 693.14
  Q 1019.47 705.34 1019.75 711.75
  C 1020.66 732.65 1030.69 752.48 1040.58 771.29
  Q 1044.65 779.04 1049.45 787.69
  Q 1054.62 796.98 1059.55 807.21
  Q 1064.18 816.80 1065.98 826.98
  C 1067.04 832.97 1065.48 837.40 1063.70 843.05
  Q 1052.85 841.95 1043.89 838.11
  Q 1037.22 835.25 1029.17 830.48
  Q 1023.55 827.15 1018.08 821.83
  Q 1008.66 812.67 1002.98 805.27
  C 993.60 793.08 984.38 779.05 975.03 766.01
  Q 963.01 749.27 951.29 731.56
  C 944.08 720.66 936.40 710.02 929.32 699.65
  Q 927.56 697.08 926.32 694.43
  A 0.90 0.90 0.0 0 1 927.13 693.15
  L 1020.02 693.14
  Z"
/>
<path fill="#2d4365" d="
  M 652.20 693.34
  Q 647.84 701.88 643.54 709.27
  C 639.27 716.59 635.29 724.12 631.04 731.52
  Q 618.98 752.56 606.54 776.07
  C 603.82 781.23 600.75 786.05 598.05 791.13
  C 593.44 799.80 587.83 808.59 583.38 817.25
  Q 578.51 826.70 573.24 836.24
  Q 571.49 839.40 571.11 842.63
  Q 552.48 845.04 535.75 840.30
  Q 529.95 838.66 521.06 834.64
  Q 513.55 831.25 507.53 827.15
  Q 496.72 819.77 489.94 812.06
  C 481.38 802.31 473.60 790.89 468.15 778.71
  Q 463.29 767.82 460.98 759.32
  Q 457.73 747.33 457.57 729.05
  Q 457.41 711.37 457.68 694.19
  A 0.84 0.84 0.0 0 1 458.52 693.36
  L 652.20 693.34
  Z"
/>
<ellipse fill="#658fb5" cx="0.00" cy="0.00" transform="translate(260.54,744.50) rotate(89.8)" rx="2.33" ry="0.26"/>
<path fill="#fffcf2" d="
  M 886.86 890.29
  Q 884.42 894.69 882.11 899.25
  Q 879.32 904.75 876.75 907.88
  C 872.49 913.07 867.75 917.84 861.82 921.33
  Q 855.96 924.78 851.61 926.57
  Q 837.39 932.39 820.26 930.61
  Q 809.35 929.47 800.19 923.79
  Q 790.57 917.83 784.64 909.61
  Q 780.36 903.69 777.71 893.70
  Q 776.42 888.83 775.85 881.71
  C 775.25 874.12 775.47 867.54 776.11 860.21
  Q 776.47 856.10 777.61 850.54
  Q 778.59 845.77 779.02 840.79
  Q 783.49 833.24 795.36 815.58
  Q 802.62 804.77 814.03 803.54
  Q 827.53 802.08 835.78 811.01
  Q 841.51 817.21 845.89 824.04
  Q 863.72 851.83 876.06 870.19
  Q 882.40 879.64 886.86 890.29
  Z"
/>
<path fill="#b7d3e8" d="
  M 779.02 840.79
  Q 778.59 845.77 777.61 850.54
  Q 776.47 856.10 776.11 860.21
  C 775.47 867.54 775.25 874.12 775.85 881.71
  Q 776.42 888.83 777.71 893.70
  Q 780.36 903.69 784.64 909.61
  Q 790.57 917.83 800.19 923.79
  Q 809.35 929.47 820.26 930.61
  Q 837.39 932.39 851.61 926.57
  Q 855.96 924.78 861.82 921.33
  C 867.75 917.84 872.49 913.07 876.75 907.88
  Q 879.32 904.75 882.11 899.25
  Q 884.42 894.69 886.86 890.29
  C 890.29 896.67 888.55 905.00 886.38 911.73
  Q 881.32 927.41 870.55 937.82
  C 856.88 951.01 839.50 958.82 820.47 959.47
  Q 794.29 960.37 772.92 946.00
  C 757.26 935.48 746.25 918.83 744.68 900.18
  Q 744.33 896.08 747.28 890.58
  Q 751.35 883.01 755.59 876.32
  Q 763.85 863.29 773.01 848.99
  Q 774.30 846.97 779.02 840.79
  Z"
/>
<path fill="#fffcf2" d="
  M 967.96 1127.28
  A 0.68 0.67 -86.9 0 0 967.29 1126.53
  L 951.99 1126.53
  A 1.59 1.58 85.5 0 1 950.43 1125.19
  Q 949.62 1119.78 950.03 1113.07
  Q 950.09 1112.04 950.84 1111.43
  C 953.75 1109.08 956.04 1109.31 959.59 1109.26
  Q 969.87 1109.12 980.44 1109.30
  Q 983.19 1109.35 985.28 1111.35
  Q 985.65 1111.71 985.65 1112.21
  Q 985.66 1127.68 985.57 1145.39
  C 985.55 1148.81 985.18 1153.48 981.56 1154.71
  Q 974.64 1157.06 969.64 1152.68
  Q 969.16 1152.25 968.57 1152.53
  Q 948.87 1161.77 928.73 1152.55
  Q 914.71 1146.12 907.57 1132.12
  C 896.52 1110.45 905.54 1082.64 927.34 1072.03
  Q 942.79 1064.52 959.10 1068.26
  C 966.87 1070.05 975.76 1074.11 979.90 1080.55
  C 983.70 1086.45 976.01 1091.31 971.72 1093.52
  A 1.74 1.73 49.5 0 1 969.87 1093.37
  C 955.27 1082.52 934.47 1082.83 925.36 1100.47
  C 921.57 1107.81 922.12 1117.10 926.17 1124.24
  C 932.04 1134.58 941.38 1139.06 952.98 1138.67
  C 956.48 1138.56 965.81 1137.45 966.86 1133.33
  Q 967.63 1130.29 967.96 1127.28
  Z"
/>
<path fill="#fffcf2" d="
  M 1109.9030 1107.5211
  A 46.30 45.15 -5.8 0 1 1068.4027 1157.1189
  A 46.30 45.15 -5.8 0 1 1017.7770 1116.8789
  A 46.30 45.15 -5.8 0 1 1059.2773 1067.2811
  A 46.30 45.15 -5.8 0 1 1109.9030 1107.5211
  Z
  M 1089.81 1112.22
  A 25.88 25.88 0.0 0 0 1063.93 1086.34
  A 25.88 25.88 0.0 0 0 1038.05 1112.22
  A 25.88 25.88 0.0 0 0 1063.93 1138.10
  A 25.88 25.88 0.0 0 0 1089.81 1112.22
  Z"
/>
<rect fill="#fffcf2" x="-9.51" y="-44.18" transform="translate(658.34,1112.32) rotate(-0.3)" width="19.02" height="88.36" rx="7.77"/>
<path fill="#fffcf2" d="
  M 741.13 1120.79
  Q 742.00 1119.70 742.68 1118.29
  Q 751.28 1100.41 760.10 1081.81
  C 761.94 1077.93 764.61 1068.90 769.90 1068.72
  Q 775.69 1068.52 780.52 1068.77
  C 784.72 1069.00 784.05 1073.39 782.87 1075.97
  Q 767.64 1109.29 751.62 1144.67
  Q 749.94 1148.38 747.48 1153.01
  Q 746.42 1155.01 744.57 1155.30
  C 741.57 1155.78 737.99 1156.24 735.26 1155.46
  Q 733.65 1154.99 732.59 1152.81
  Q 712.44 1111.09 697.14 1078.78
  C 695.76 1075.87 694.95 1070.89 698.83 1069.33
  C 702.19 1067.98 711.27 1066.99 713.82 1070.25
  Q 716.34 1073.48 718.35 1078.06
  Q 727.97 1100.00 736.92 1117.38
  Q 737.97 1119.43 739.79 1120.93
  A 0.95 0.95 0.0 0 0 741.13 1120.79
  Z"
/>
<path fill="#fffcf2" d="
  M 525.82 1075.09
  A 6.98 6.98 0.0 0 1 532.82 1068.12
  L 566.21 1068.18
  A 44.05 43.50 0.1 0 1 610.18 1111.75
  L 610.18 1112.71
  A 44.05 43.50 0.1 0 1 566.05 1156.14
  L 532.66 1156.08
  A 6.98 6.98 0.0 0 1 525.70 1149.09
  L 525.82 1075.09
  Z
  M 544.89 1088.02
  L 545.15 1136.26
  A 0.68 0.68 0.0 0 0 545.83 1136.93
  L 565.61 1136.83
  A 24.44 23.62 -0.3 0 0 589.93 1113.08
  L 589.91 1110.72
  A 24.44 23.62 -0.3 0 0 565.35 1087.23
  L 545.57 1087.33
  A 0.68 0.68 0.0 0 0 544.89 1088.02
  Z"
/>
<path fill="#fffcf2" d="
  M 830.33 1102.20
  A 0.95 0.94 -2.5 0 0 831.36 1103.14
  Q 841.73 1102.25 850.01 1103.11
  C 856.46 1103.78 855.23 1114.26 854.18 1118.02
  C 853.74 1119.57 852.47 1120.28 850.94 1120.29
  Q 840.18 1120.36 830.87 1120.33
  Q 829.95 1120.33 829.95 1121.25
  L 830.02 1137.70
  Q 830.03 1138.43 830.75 1138.42
  Q 846.69 1138.24 867.37 1138.38
  C 873.13 1138.42 874.01 1143.43 873.58 1148.06
  Q 873.24 1151.69 870.92 1154.51
  C 869.36 1156.40 867.23 1156.28 865.03 1156.27
  Q 841.13 1156.22 817.72 1156.26
  C 813.51 1156.26 810.00 1154.89 810.01 1150.17
  Q 810.13 1113.05 810.22 1075.45
  C 810.23 1071.52 811.60 1068.70 815.94 1068.67
  Q 839.79 1068.47 865.50 1068.47
  Q 871.95 1068.48 872.59 1074.51
  C 872.86 1076.98 873.06 1080.74 872.04 1082.97
  C 870.13 1087.16 866.28 1086.42 862.66 1086.44
  Q 847.03 1086.51 831.10 1086.57
  Q 830.36 1086.57 830.36 1087.31
  L 830.33 1102.20
  Z"
/>
<circle fill="#1b2241" cx="1063.93" cy="1112.22" r="25.88"/>
<path fill="#1b2241" d="
  M 544.89 1088.02
  A 0.68 0.68 0.0 0 1 545.57 1087.33
  L 565.35 1087.23
  A 24.44 23.62 -0.3 0 1 589.91 1110.72
  L 589.93 1113.08
  A 24.44 23.62 -0.3 0 1 565.61 1136.83
  L 545.83 1136.93
  A 0.68 0.68 0.0 0 1 545.15 1136.26
  L 544.89 1088.02
  Z"
/>
</svg>
