<?xml version="1.0" encoding="UTF-8" standalone="no"?>
<!DOCTYPE svg PUBLIC "-//W3C//DTD SVG 1.1//EN" "http://www.w3.org/Graphics/SVG/1.1/DTD/svg11.dtd">
<svg xmlns="http://www.w3.org/2000/svg" version="1.1" viewBox="0.00 0.00 1670.00 1470.00">
<g stroke-width="2.00" fill="none" stroke-linecap="butt">
<path stroke="#8d8f9a" vector-effect="non-scaling-stroke" d="
  M 685.52 137.76
  C 683.72 137.91 682.19 138.87 680.60 139.15
  C 677.90 139.61 675.23 139.49 672.68 140.55
  C 670.48 141.46 668.06 141.46 665.76 142.09
  Q 661.32 143.32 656.92 144.40
  Q 636.20 149.48 616.58 156.23
  C 615.08 156.74 613.59 156.83 612.14 157.59
  Q 610.54 158.43 608.78 158.69
  C 606.67 159.00 605.20 160.38 603.04 160.66
  Q 600.97 160.93 599.10 162.15
  Q 598.65 162.44 598.10 162.48
  Q 596.49 162.61 595.00 163.21
  Q 588.84 165.71 583.45 168.21
  C 582.88 168.47 582.34 168.39 581.77 168.61
  Q 564.14 175.24 547.17 183.35
  Q 543.09 185.29 533.49 190.40
  Q 526.94 193.89 519.76 197.37
  C 518.13 198.17 516.94 199.43 515.38 200.26
  Q 494.32 211.53 474.17 225.14
  Q 461.43 233.76 447.45 243.68
  Q 434.65 252.76 423.65 261.91
  Q 409.89 273.36 396.57 285.32
  C 372.18 307.23 349.56 333.45 327.74 361.47
  C 317.81 374.23 308.80 387.34 299.91 400.84
  Q 295.47 407.58 291.46 414.34
  Q 276.94 438.80 262.02 468.50
  Q 257.25 477.99 253.43 486.48
  Q 243.13 509.38 233.70 535.01
  Q 222.06 566.64 214.92 597.81"
/>
<path stroke="#8d8f9a" vector-effect="non-scaling-stroke" d="
  M 214.37 600.78
  L 212.83 605.77"
/>
<path stroke="#8d8f9a" vector-effect="non-scaling-stroke" d="
  M 212.31 609.85
  L 210.83 614.76"
/>
<path stroke="#8d8f9a" vector-effect="non-scaling-stroke" d="
  M 210.38 620.81
  L 208.84 624.75"
/>
<path stroke="#8d8f9a" vector-effect="non-scaling-stroke" d="
  M 208.38 629.85
  L 206.81 635.25"
/>
<path stroke="#8d8f9a" vector-effect="non-scaling-stroke" d="
  M 206.40 642.80
  Q 205.07 645.09 204.81 647.25"
/>
<path stroke="#8d8f9a" vector-effect="non-scaling-stroke" d="
  M 204.43 654.80
  Q 202.68 657.76 202.81 661.02"
/>
<path stroke="#8d8f9a" vector-effect="non-scaling-stroke" d="
  M 202.40 669.78
  Q 200.54 673.30 200.82 677.54"
/>
<path stroke="#8d8f9a" vector-effect="non-scaling-stroke" d="
  M 200.39 688.80
  L 198.82 699.79"
/>
<path stroke="#8d8f9a" vector-effect="non-scaling-stroke" d="
  M 198.47 719.78
  Q 196.25 738.70 197.19 757.75
  Q 197.38 761.56 198.40 770.88"
/>
<path stroke="#8d8f9a" vector-effect="non-scaling-stroke" d="
  M 198.78 791.22
  Q 198.53 797.89 200.40 804.21"
/>
<path stroke="#8d8f9a" vector-effect="non-scaling-stroke" d="
  M 200.83 814.26
  L 202.34 821.22"
/>
<path stroke="#8d8f9a" vector-effect="non-scaling-stroke" d="
  M 202.84 831.22
  Q 203.09 833.77 204.33 836.22"
/>
<path stroke="#8d8f9a" vector-effect="non-scaling-stroke" d="
  M 204.84 843.75
  L 206.38 848.26"
/>
<path stroke="#8d8f9a" vector-effect="non-scaling-stroke" d="
  M 206.89 854.73
  L 208.29 859.86"
/>
<path stroke="#8d8f9a" vector-effect="non-scaling-stroke" d="
  M 208.86 864.11
  Q 216.51 899.90 223.32 921.50
  C 225.70 929.02 227.93 936.68 229.89 942.51
  Q 238.06 966.83 247.97 990.51
  C 250.24 995.93 253.23 1001.71 255.77 1007.25
  Q 259.63 1015.67 261.70 1019.75
  Q 275.58 1047.12 291.60 1073.71
  Q 295.81 1080.70 300.45 1087.29
  C 307.47 1097.24 314.08 1107.46 321.36 1116.95
  Q 335.79 1135.75 350.18 1152.18
  Q 364.92 1169.01 377.02 1181.29
  Q 387.49 1191.92 403.66 1206.46
  Q 410.82 1212.90 418.94 1219.39
  Q 444.66 1239.97 464.49 1253.44
  Q 484.14 1266.79 510.72 1282.61
  Q 519.04 1287.56 528.95 1292.69
  Q 546.09 1301.56 558.30 1307.24
  Q 580.72 1317.66 602.11 1325.43
  Q 609.57 1328.14 618.29 1330.89
  Q 625.75 1333.24 634.16 1335.92
  Q 642.99 1338.73 651.89 1341.47
  Q 653.54 1341.98 655.19 1342.28
  C 657.74 1342.73 660.07 1343.70 662.56 1344.38
  Q 664.76 1344.97 666.76 1345.43
  Q 686.03 1349.91 713.49 1354.75
  C 716.84 1355.34 720.24 1355.56 723.50 1356.31
  Q 727.32 1357.18 730.88 1357.49
  C 734.20 1357.79 737.32 1358.84 740.63 1359.09
  Q 742.60 1359.25 744.43 1359.32"
/>
<path stroke="#8d8f9a" vector-effect="non-scaling-stroke" d="
  M 747.58 1359.50
  Q 751.02 1359.56 754.41 1360.25
  Q 758.59 1361.09 761.17 1361.17
  Q 770.81 1361.48 780.31 1362.04
  C 782.02 1362.14 783.78 1362.96 785.76 1363.02
  Q 822.50 1364.17 847.68 1362.87
  Q 849.14 1362.79 850.77 1362.57
  Q 859.15 1361.42 866.69 1361.34
  Q 871.01 1361.29 877.19 1360.30
  Q 882.28 1359.48 887.79 1359.29
  C 892.41 1359.14 896.84 1358.04 901.45 1357.54
  C 906.06 1357.04 910.58 1355.90 915.28 1355.35
  C 919.55 1354.86 924.00 1353.91 928.25 1353.15
  C 950.82 1349.10 971.88 1344.15 992.86 1337.34
  Q 1005.80 1333.13 1018.76 1328.83
  Q 1020.13 1328.38 1021.56 1327.91
  Q 1056.82 1316.42 1098.19 1295.10
  C 1112.73 1287.60 1127.07 1279.88 1140.94 1271.15
  Q 1161.35 1258.31 1182.56 1243.48
  Q 1214.11 1221.41 1245.41 1192.06
  Q 1263.64 1174.97 1277.54 1159.60
  Q 1297.10 1138.00 1314.85 1114.26
  C 1322.48 1104.04 1329.34 1092.69 1336.61 1082.00
  Q 1343.54 1071.82 1347.46 1065.21
  C 1356.37 1050.19 1364.43 1034.53 1372.68 1018.99
  Q 1376.46 1011.88 1380.28 1003.52
  Q 1387.53 987.64 1392.28 975.49
  Q 1396.85 963.84 1400.99 951.95
  Q 1401.42 950.72 1401.86 949.54
  Q 1409.29 930.00 1414.51 910.54
  Q 1417.45 899.57 1417.48 899.45
  Q 1423.06 878.65 1425.68 865.71
  Q 1426.67 860.81 1427.58 856.53
  C 1428.38 852.82 1428.24 849.04 1429.44 845.51
  C 1430.83 841.41 1430.17 837.00 1431.36 832.98
  Q 1432.26 829.95 1432.36 826.74
  Q 1432.48 822.76 1433.19 820.50
  Q 1434.56 816.14 1434.25 811.65"
/>
<path stroke="#8d8f9a" vector-effect="non-scaling-stroke" d="
  M 1434.48 805.21
  Q 1436.09 801.32 1436.11 799.76
  Q 1436.29 788.07 1437.12 776.10
  C 1437.24 774.48 1437.95 773.11 1438.00 771.35
  Q 1438.63 748.23 1438.19 724.08
  Q 1438.07 717.01 1437.27 709.88
  Q 1436.45 702.59 1436.37 694.78
  Q 1436.32 689.52 1435.45 684.36
  Q 1434.34 677.75 1434.24 670.36
  C 1434.20 668.13 1433.03 666.15 1432.79 663.96
  Q 1432.38 660.04 1432.21 655.97
  C 1432.09 653.28 1430.61 651.02 1430.52 648.16
  Q 1430.41 644.59 1429.35 640.68
  C 1428.45 637.35 1428.45 633.97 1427.48 630.58
  C 1426.63 627.58 1426.35 624.53 1425.68 621.47
  Q 1418.96 590.61 1409.50 560.70
  Q 1408.84 558.61 1408.32 557.18
  C 1407.49 554.85 1407.17 552.53 1406.02 550.35
  C 1405.33 549.04 1405.44 547.62 1404.85 546.26
  Q 1403.54 543.21 1402.17 540.40
  C 1401.31 538.62 1401.41 536.74 1400.34 534.96
  C 1399.48 533.53 1399.44 531.86 1398.81 530.31
  C 1396.00 523.30 1393.70 516.16 1390.75 509.03
  Q 1371.12 461.65 1349.70 425.86
  Q 1329.26 391.70 1308.33 364.11
  Q 1297.53 349.87 1281.10 330.61
  C 1272.20 320.17 1262.84 310.74 1253.20 300.68
  Q 1244.66 291.78 1234.49 283.00
  C 1227.87 277.29 1221.28 271.43 1214.61 265.92
  C 1198.00 252.20 1182.04 240.60 1164.63 228.52
  Q 1155.57 222.24 1147.99 217.44
  Q 1111.62 194.43 1072.93 177.47
  Q 1071.73 176.94 1070.48 176.41
  Q 1042.25 164.41 1021.07 157.05
  Q 1019.79 156.61 1018.52 156.17
  Q 993.85 147.68 967.98 141.80
  Q 961.58 140.35 953.98 138.65
  C 950.24 137.82 946.63 137.48 942.97 136.43
  C 939.90 135.55 936.88 135.55 933.83 134.72
  Q 930.25 133.75 926.74 133.53
  C 922.91 133.30 919.46 131.87 915.63 131.66
  C 910.75 131.40 906.29 129.98 901.41 129.65
  C 894.72 129.21 888.38 127.58 881.32 127.66"
/>
<path stroke="#8d8f9a" vector-effect="non-scaling-stroke" d="
  M 874.12 127.31
  L 863.72 125.88"
/>
<path stroke="#8d8f9a" vector-effect="non-scaling-stroke" d="
  M 847.23 125.60
  Q 824.69 123.67 818.00 124.04
  Q 807.40 124.61 795.01 125.17
  Q 793.54 125.24 792.24 125.29
  Q 785.35 125.53 777.91 125.74
  Q 770.97 125.93 763.83 126.92
  C 757.67 127.78 751.23 127.40 744.99 128.67
  Q 741.07 129.48 736.96 129.63
  C 731.13 129.85 725.58 131.61 719.66 131.78
  C 715.85 131.89 712.39 133.56 708.51 133.65
  Q 706.13 133.71 703.72 134.53
  Q 700.69 135.55 697.12 135.62
  C 694.59 135.66 692.37 136.62 689.98 137.32"
/>
<path stroke="#8d8f9a" vector-effect="non-scaling-stroke" d="
  M 1244.35 491.91
  C 1222.93 457.03 1192.06 430.61 1154.30 415.92
  C 1129.93 406.44 1104.72 401.58 1078.53 398.87
  Q 1054.74 396.41 1043.99 395.58
  Q 965.64 389.57 887.24 386.93
  Q 877.25 386.59 867.18 386.52
  Q 798.82 386.01 761.72 386.82
  Q 688.06 388.44 607.21 394.95
  C 585.06 396.73 563.30 398.33 540.37 401.27
  C 505.70 405.71 471.08 416.94 443.52 438.12
  Q 427.42 450.50 416.46 462.19
  Q 398.68 481.17 386.75 504.74
  C 377.31 523.40 371.73 544.94 369.45 565.27
  Q 368.54 573.32 368.45 584.37
  Q 368.10 625.57 368.47 654.95
  Q 369.15 708.40 396.45 756.50
  Q 417.11 792.89 451.97 817.56
  Q 460.02 823.26 469.76 829.07
  Q 496.38 844.95 525.56 851.16
  C 562.07 858.92 602.01 854.76 635.53 837.31
  C 651.68 828.90 666.29 818.77 678.77 805.98
  Q 691.69 792.75 701.98 778.61
  Q 718.61 755.79 747.60 715.34
  C 756.76 702.56 767.88 689.98 781.29 681.68
  C 802.69 668.43 828.02 667.72 850.33 678.79
  Q 860.48 683.83 871.12 694.12
  C 881.99 704.65 891.38 716.97 899.67 729.02
  Q 913.90 749.71 929.89 771.26
  Q 940.01 784.91 949.90 796.55
  Q 962.69 811.61 980.15 824.26
  Q 999.24 838.09 1017.85 844.77
  C 1042.04 853.44 1067.47 856.84 1092.80 853.97
  Q 1115.78 851.37 1136.96 843.38
  Q 1153.05 837.31 1163.71 831.40
  Q 1201.30 810.54 1227.55 777.19
  Q 1240.08 761.28 1250.45 739.17
  Q 1267.21 703.44 1269.63 667.31
  Q 1270.30 657.35 1270.29 647.26
  Q 1270.27 619.45 1270.20 590.75
  Q 1270.18 579.25 1269.46 571.26
  Q 1266.57 539.05 1253.41 509.40
  Q 1249.03 499.53 1244.35 491.91"
/>
<path stroke="#697b95" vector-effect="non-scaling-stroke" d="
  M 782.05 757.27
  Q 776.75 764.24 772.58 770.79
  Q 764.01 784.25 755.47 797.76
  Q 750.93 804.95 747.69 812.13
  Q 746.41 814.96 746.64 817.76
  C 748.11 836.14 758.54 852.50 773.74 863.20
  C 790.63 875.10 812.09 879.99 832.61 876.45
  Q 852.82 872.98 869.54 858.60
  Q 885.49 844.89 890.12 823.00
  C 890.98 818.91 891.40 813.20 889.28 809.48"
/>
<path stroke="#8d8f9a" vector-effect="non-scaling-stroke" d="
  M 889.28 809.48
  Q 884.83 798.24 878.06 788.18
  Q 862.84 765.57 848.94 743.51
  Q 844.80 736.94 838.67 729.95
  Q 831.87 722.19 822.35 721.41
  Q 808.10 720.26 799.34 730.85
  Q 792.77 738.78 782.05 757.27"
/>
<path stroke="#dbe8ed" vector-effect="non-scaling-stroke" d="
  M 889.28 809.48
  Q 887.25 810.54 886.11 813.02
  C 884.31 816.90 882.72 820.91 880.12 824.20
  C 875.59 829.94 870.31 835.52 863.93 839.24
  C 856.86 843.36 850.48 846.35 842.15 848.00
  C 835.87 849.25 828.64 849.23 822.35 848.65
  Q 812.14 847.71 802.29 841.86
  Q 795.17 837.64 788.60 830.22
  C 784.07 825.10 780.63 816.60 779.34 810.28
  Q 777.63 801.93 777.41 789.81
  C 777.34 785.66 777.95 781.48 778.20 777.28
  Q 778.43 773.50 779.74 768.04
  Q 780.98 762.83 782.05 757.27"
/>
<path stroke="#8d91a0" vector-effect="non-scaling-stroke" d="
  M 1002.08 1124.63
  Q 1002.34 1134.41 1001.11 1144.51
  C 1000.43 1150.11 996.70 1156.82 990.52 1157.10
  Q 986.04 1157.31 981.27 1157.20
  Q 979.12 1157.15 979.09 1159.30
  Q 978.99 1166.41 979.04 1174.14
  Q 979.05 1175.97 980.68 1176.89
  C 996.25 1185.63 1011.76 1178.92 1020.10 1164.28
  Q 1025.57 1154.70 1025.73 1145.39
  Q 1025.89 1135.52 1026.22 1126.51
  Q 1026.59 1116.43 1026.62 1107.49
  Q 1026.72 1073.74 1026.68 1040.00
  Q 1026.68 1038.39 1026.16 1037.63
  C 1025.68 1036.93 1024.44 1036.99 1023.67 1036.46
  Q 1023.26 1036.18 1022.77 1036.18
  Q 1002.54 1036.15 983.11 1036.37
  C 981.56 1036.38 980.15 1036.92 978.59 1036.94
  Q 973.07 1037.01 967.02 1037.12
  A 1.93 1.93 0.0 0 0 965.12 1039.05
  L 965.08 1058.95
  A 1.91 1.90 0.2 0 0 966.98 1060.85
  Q 982.27 1060.97 997.37 1060.94
  Q 999.59 1060.93 1001.58 1061.99
  Q 1002.03 1062.24 1002.19 1062.73
  C 1002.58 1063.97 1003.06 1064.88 1003.07 1066.24
  Q 1003.10 1078.80 1003.01 1088.93
  C 1002.98 1092.17 1002.69 1095.12 999.26 1096.55
  Q 993.77 1098.84 988.27 1100.35
  C 976.37 1103.62 961.67 1098.73 951.11 1092.36
  C 936.10 1083.31 925.88 1065.20 926.74 1047.81
  C 926.92 1044.31 926.73 1041.41 927.77 1037.89
  C 929.58 1031.74 931.00 1026.16 934.60 1020.68
  Q 946.50 1002.59 966.48 998.01
  C 973.62 996.37 982.44 996.30 989.27 997.23
  Q 993.89 997.86 1000.82 1000.34
  C 1005.09 1001.87 1008.44 1004.44 1012.27 1006.59
  A 1.59 1.59 0.0 0 0 1014.19 1006.31
  Q 1021.49 998.87 1027.90 990.28
  A 0.68 0.68 0.0 0 0 1027.86 989.41
  C 1024.65 985.91 1021.23 982.73 1017.12 980.25
  C 1008.11 974.81 998.11 971.59 987.81 971.25
  Q 981.52 971.04 975.32 970.96
  C 954.55 970.72 936.84 979.65 921.99 994.59
  C 909.70 1006.97 901.34 1024.78 900.77 1042.65
  Q 900.50 1050.92 901.30 1058.39
  Q 903.34 1077.48 915.27 1094.10
  Q 930.98 1115.98 956.65 1124.11
  C 959.16 1124.90 961.75 1125.12 964.31 1125.84
  Q 967.12 1126.64 970.27 1126.78
  C 977.80 1127.13 985.04 1127.05 992.36 1125.44
  Q 996.77 1124.46 1000.83 1123.64
  Q 1002.05 1123.39 1002.08 1124.63"
/>
<path stroke="#8d91a0" vector-effect="non-scaling-stroke" d="
  M 1193.27 1011.90
  Q 1189.24 1003.76 1182.45 995.99
  Q 1169.19 980.80 1150.12 974.78
  C 1145.17 973.22 1139.84 972.39 1134.77 971.71
  Q 1129.49 971.01 1122.24 971.33
  C 1118.85 971.48 1116.04 972.57 1112.76 972.92
  Q 1108.14 973.42 1103.47 975.13
  Q 1082.65 982.72 1069.95 998.13
  C 1062.01 1007.77 1055.33 1019.33 1053.75 1031.13
  Q 1052.97 1036.90 1052.59 1043.20
  C 1052.17 1050.02 1052.72 1056.55 1053.56 1063.14
  Q 1055.48 1078.16 1065.71 1093.04
  Q 1081.69 1116.26 1108.98 1124.17
  C 1111.38 1124.86 1113.76 1124.76 1116.10 1125.56
  Q 1118.63 1126.43 1121.52 1126.63
  Q 1151.83 1128.76 1174.81 1110.46
  Q 1183.01 1103.94 1188.44 1095.83
  C 1194.72 1086.48 1199.58 1075.38 1201.11 1064.30
  C 1202.12 1057.03 1203.18 1050.27 1202.29 1042.94
  Q 1201.47 1036.10 1200.16 1029.58
  C 1198.95 1023.51 1196.02 1017.44 1193.27 1011.90"
/>
<path stroke="#8d91a0" vector-effect="non-scaling-stroke" d="
  M 489.05 976.07
  L 489.05 1122.09
  A 3.87 3.87 0.0 0 0 492.92 1125.96
  L 535.42 1125.96
  A 76.63 75.56 0.0 0 0 612.05 1050.40
  L 612.05 1047.76
  A 76.63 75.56 -0.0 0 0 535.42 972.20
  L 492.92 972.20
  A 3.87 3.87 0.0 0 0 489.05 976.07"
/>
<path stroke="#8d91a0" vector-effect="non-scaling-stroke" d="
  M 668.82 976.05
  A 3.95 3.95 0.0 0 0 664.87 972.10
  L 648.05 972.10
  A 3.95 3.95 0.0 0 0 644.10 976.05
  L 644.10 1121.95
  A 3.95 3.95 0.0 0 0 648.05 1125.90
  L 664.87 1125.90
  A 3.95 3.95 0.0 0 0 668.82 1121.95
  L 668.82 976.05"
/>
<path stroke="#8d91a0" vector-effect="non-scaling-stroke" d="
  M 856.41 1099.07
  Q 855.71 1098.99 855.71 1098.29
  L 855.72 1064.80
  A 2.99 2.99 0.0 0 1 858.70 1061.81
  L 865.58 1061.78
  A 3.37 3.37 0.0 0 0 868.93 1058.42
  L 868.97 1037.09
  A 1.89 1.88 0.2 0 0 867.09 1035.21
  L 856.74 1035.16
  A 0.91 0.91 0.0 0 1 855.83 1034.27
  C 855.73 1030.84 854.93 1027.54 855.30 1024.08
  Q 856.26 1014.93 855.25 1006.98
  C 854.94 1004.48 855.97 1002.46 855.77 999.96
  A 1.08 1.08 0.0 0 1 856.05 999.14
  Q 857.21 997.83 859.11 997.84
  Q 874.27 997.95 890.47 997.75
  C 893.67 997.71 894.52 994.06 894.58 991.73
  Q 894.78 983.71 894.71 975.90
  A 3.76 3.75 -0.2 0 0 890.95 972.18
  L 834.46 972.18
  A 3.36 3.35 -90.0 0 0 831.11 975.54
  L 831.10 1122.79
  A 2.18 2.17 88.0 0 0 833.42 1124.97
  C 837.06 1124.72 840.59 1125.60 844.23 1125.64
  Q 870.14 1125.93 893.24 1125.96
  A 3.45 3.45 0.0 0 0 896.70 1122.51
  L 896.75 1103.00
  A 1.95 1.95 0.0 0 0 895.58 1101.21
  C 894.38 1100.69 893.16 1100.17 891.79 1100.17
  Q 876.70 1100.06 861.86 1100.06
  C 859.91 1100.06 858.32 1099.28 856.41 1099.07"
/>
<path stroke="#8d91a0" vector-effect="non-scaling-stroke" d="
  M 751.45 1063.89
  C 749.02 1057.70 746.03 1051.69 743.50 1045.35
  Q 740.82 1038.65 737.64 1031.29
  C 734.70 1024.50 732.06 1017.69 729.32 1010.88
  Q 726.57 1004.03 723.38 995.49
  Q 720.20 986.99 716.48 978.76
  C 715.42 976.41 713.30 972.37 710.46 972.57
  Q 700.74 973.25 691.99 972.66
  Q 690.17 972.54 688.73 973.62
  A 1.79 1.79 0.0 0 0 688.17 975.79
  Q 696.91 995.27 705.26 1015.75
  Q 727.09 1069.30 745.69 1112.56
  C 747.28 1116.27 749.09 1121.35 752.22 1123.72
  Q 753.35 1124.57 754.00 1123.33
  C 760.39 1111.26 765.71 1098.50 771.25 1085.89
  Q 775.07 1077.18 778.34 1068.95
  C 789.67 1040.47 800.82 1011.59 812.30 983.77
  Q 814.17 979.26 815.59 974.89
  A 1.36 1.36 0.0 0 0 814.33 973.11
  Q 803.14 972.85 793.63 973.01
  Q 791.92 973.04 791.14 974.54
  Q 787.85 980.83 785.13 987.97
  C 782.45 995.02 779.20 1001.97 776.39 1008.94
  Q 768.55 1028.35 755.55 1061.26
  Q 754.43 1064.10 752.03 1064.26
  Q 751.61 1064.28 751.45 1063.89"
/>
<path stroke="#8d8f9a" vector-effect="non-scaling-stroke" d="
  M 717.14 675.15
  C 727.14 660.92 738.18 646.41 746.75 631.55
  C 758.56 611.09 765.49 587.59 765.52 563.03
  C 765.57 532.43 753.47 503.84 731.63 482.66
  C 714.47 466.02 689.11 458.12 665.49 458.05
  Q 611.69 457.89 554.67 457.75
  Q 542.61 457.73 532.82 458.57
  C 512.80 460.30 493.28 468.35 476.32 479.15
  C 457.11 491.37 443.12 510.08 432.89 530.14
  Q 423.72 548.10 420.60 570.29
  Q 419.50 578.06 419.49 589.33
  Q 419.47 625.05 419.72 655.75
  Q 419.86 673.31 424.46 689.37
  Q 438.38 737.89 476.11 770.98
  Q 499.18 791.22 529.62 799.15
  C 544.91 803.14 561.97 803.84 577.36 802.19
  Q 590.10 800.82 607.91 794.28
  Q 632.30 785.32 650.14 765.61
  Q 656.42 758.67 660.54 753.00
  C 679.42 727.01 699.29 700.53 717.14 675.15"
/>
<path stroke="#8d8f9a" vector-effect="non-scaling-stroke" d="
  M 1163.71 768.82
  C 1175.99 758.26 1186.26 744.67 1195.06 730.97
  Q 1203.97 717.10 1210.95 697.03
  Q 1217.52 678.14 1217.75 661.37
  Q 1218.19 630.45 1218.07 592.99
  Q 1218.04 580.73 1217.23 573.02
  C 1215.37 555.22 1209.07 537.19 1200.32 521.18
  Q 1195.49 512.35 1188.94 504.26
  Q 1153.81 460.90 1097.24 458.10
  Q 1093.64 457.93 1077.25 457.92
  Q 1030.37 457.92 983.00 457.83
  Q 969.39 457.81 963.03 458.58
  Q 943.56 460.95 925.81 470.24
  C 903.11 482.14 884.38 506.07 878.17 531.40
  Q 870.26 563.68 877.25 593.82
  C 881.60 612.56 889.65 629.81 900.53 645.94
  Q 933.05 694.12 973.77 749.25
  C 983.52 762.44 994.19 774.78 1008.00 783.49
  Q 1034.19 800.01 1065.62 802.36
  Q 1083.28 803.67 1096.80 801.11
  Q 1134.48 793.97 1163.71 768.82"
/>
<path stroke="#dbe8ed" vector-effect="non-scaling-stroke" d="
  M 873.3020 483.6009
  A 1.44 0.35 116.3 0 0 874.2538 482.4651
  A 1.44 0.35 116.3 0 0 874.5780 481.0191
  A 1.44 0.35 116.3 0 0 873.6262 482.1549
  A 1.44 0.35 116.3 0 0 873.3020 483.6009"
/>
<path stroke="#243253" vector-effect="non-scaling-stroke" d="
  M 484.46 526.09
  Q 483.35 526.46 482.82 527.10
  Q 474.37 537.36 467.54 550.80
  Q 466.35 553.15 466.73 555.17
  Q 466.81 555.59 467.12 555.88
  Q 467.44 556.19 467.44 556.67
  Q 467.44 557.13 466.98 557.20
  Q 466.66 557.24 466.45 557.44"
/>
<path stroke="#8d8f9a" vector-effect="non-scaling-stroke" d="
  M 466.45 557.44
  Q 465.20 557.30 464.93 558.23
  Q 462.19 567.47 460.46 578.41
  Q 460.28 579.50 461.39 579.50
  L 672.38 579.73"
/>
<path stroke="#41597b" vector-effect="non-scaling-stroke" d="
  M 672.38 579.73
  L 654.40 611.24"
/>
<path stroke="#243253" vector-effect="non-scaling-stroke" d="
  M 654.40 611.24
  L 460.50 611.34
  A 0.80 0.80 0.0 0 0 459.70 612.12
  Q 459.16 633.61 459.80 654.78
  C 460.10 664.60 461.50 674.39 464.92 683.56
  Q 466.63 688.12 468.17 692.08
  Q 473.05 704.62 481.73 717.05
  C 488.09 726.17 494.78 734.15 503.80 740.98
  C 508.04 744.19 512.85 747.66 517.60 750.00
  Q 530.01 756.11 538.08 758.39
  Q 554.40 762.98 573.13 760.77"
/>
<path stroke="#41597b" vector-effect="non-scaling-stroke" d="
  M 573.13 760.77
  Q 577.08 759.69 580.62 758.93
  C 595.99 755.59 609.82 747.79 620.54 736.54
  Q 629.48 727.15 636.30 717.77
  Q 647.92 701.77 657.76 687.74
  Q 680.07 655.91 705.05 620.36
  Q 715.91 604.90 721.84 585.37
  Q 722.68 582.59 722.93 579.79"
/>
<path stroke="#8d8f9a" vector-effect="non-scaling-stroke" d="
  M 722.93 579.79
  Q 725.42 568.93 724.36 558.03"
/>
<path stroke="#41597b" vector-effect="non-scaling-stroke" d="
  M 724.36 558.03
  Q 723.94 552.34 722.45 546.74
  Q 719.47 535.49 714.47 525.68"
/>
<path stroke="#8d8f9a" vector-effect="non-scaling-stroke" d="
  M 714.47 525.68
  C 706.37 511.47 692.44 501.99 676.73 499.75
  Q 672.72 499.18 656.74 499.18
  Q 601.24 499.17 545.74 499.26
  Q 535.36 499.28 530.78 499.98
  C 513.04 502.68 496.56 512.93 484.46 526.09"
/>
<path stroke="#b3c6d4" vector-effect="non-scaling-stroke" d="
  M 714.47 525.68
  L 701.90 525.90"
/>
<path stroke="#969fab" vector-effect="non-scaling-stroke" d="
  M 701.90 525.90
  L 484.46 526.09"
/>
<path stroke="#969fab" vector-effect="non-scaling-stroke" d="
  M 683.19 557.90
  L 466.45 557.44"
/>
<path stroke="#b3c6d4" vector-effect="non-scaling-stroke" d="
  M 724.36 558.03
  L 683.19 557.90"
/>
<path stroke="#4a698d" vector-effect="non-scaling-stroke" d="
  M 683.19 557.90
  Q 684.13 556.91 684.62 556.20
  C 688.36 550.79 691.75 544.18 694.63 539.32
  Q 698.43 532.90 701.90 525.90"
/>
<path stroke="#b3c6d4" vector-effect="non-scaling-stroke" d="
  M 722.93 579.79
  L 672.38 579.73"
/>
<path stroke="#4a698d" vector-effect="non-scaling-stroke" d="
  M 573.13 760.77
  Q 573.68 756.97 575.21 754.22
  C 580.62 744.48 585.50 734.78 590.60 725.83
  C 603.65 702.96 616.41 679.71 628.29 657.78
  C 631.50 651.85 635.18 645.94 638.52 639.80
  C 643.78 630.11 649.19 621.01 654.40 611.24"
/>
<path stroke="#243253" vector-effect="non-scaling-stroke" d="
  M 924.97 525.47
  C 922.33 527.64 920.26 533.92 919.12 537.12
  Q 915.69 546.79 914.36 557.76"
/>
<path stroke="#8d8f9a" vector-effect="non-scaling-stroke" d="
  M 914.36 557.76
  Q 913.97 567.45 915.11 577.69
  A 2.24 2.23 86.8 0 0 917.33 579.68
  Q 1015.75 579.82 1114.25 579.71
  Q 1122.06 579.70 1126.71 580.45"
/>
<path stroke="#41597b" vector-effect="non-scaling-stroke" d="
  M 1126.71 580.45
  Q 1130.60 585.68 1131.22 587.99
  Q 1132.13 591.38 1131.71 600.17
  C 1131.33 608.22 1124.98 610.84 1118.00 610.82
  Q 1073.75 610.69 1027.50 610.75
  Q 1024.61 610.76 1022.12 611.16"
/>
<path stroke="#243253" vector-effect="non-scaling-stroke" d="
  M 1022.12 611.16
  L 929.08 611.14
  A 0.89 0.89 0.0 0 0 928.29 612.43
  Q 929.45 614.70 930.93 616.95
  C 937.80 627.36 945.38 637.50 952.12 647.74
  Q 965.62 668.27 979.91 688.06
  C 988.05 699.35 995.68 711.18 1004.01 721.96
  Q 1012.24 732.62 1022.76 742.27
  Q 1026.90 746.07 1032.83 749.43
  Q 1041.07 754.08 1045.73 756.10
  Q 1054.66 759.95 1065.82 761.13"
/>
<path stroke="#41597b" vector-effect="non-scaling-stroke" d="
  M 1065.82 761.13
  Q 1081.01 762.25 1093.76 759.37
  C 1113.68 754.88 1132.44 744.57 1146.24 729.23
  Q 1152.40 722.38 1156.41 716.34
  Q 1167.25 700.00 1173.26 680.03
  Q 1178.10 663.96 1178.29 649.75
  Q 1178.59 626.77 1177.56 584.75
  Q 1177.49 582.05 1177.22 580.05"
/>
<path stroke="#8d8f9a" vector-effect="non-scaling-stroke" d="
  M 1177.22 580.05
  Q 1176.39 568.03 1172.35 557.22"
/>
<path stroke="#41597b" vector-effect="non-scaling-stroke" d="
  M 1172.35 557.22
  Q 1165.87 539.06 1153.69 525.60"
/>
<path stroke="#8d8f9a" vector-effect="non-scaling-stroke" d="
  M 1153.69 525.60
  C 1139.90 511.97 1124.62 501.84 1105.23 499.58
  Q 1099.96 498.96 1087.18 499.00
  Q 1030.61 499.18 970.55 499.17
  C 952.66 499.16 935.22 509.02 925.51 523.98
  Q 925.21 524.45 924.97 525.47"
/>
<path stroke="#b3c6d4" vector-effect="non-scaling-stroke" d="
  M 1153.69 525.60
  L 1056.53 525.83"
/>
<path stroke="#969fab" vector-effect="non-scaling-stroke" d="
  M 1056.53 525.83
  Q 1005.71 526.13 926.00 526.02
  Q 925.03 526.02 924.97 525.47"
/>
<path stroke="#b3c6d4" vector-effect="non-scaling-stroke" d="
  M 1172.35 557.22
  Q 1171.40 557.39 1170.69 557.90
  Q 1170.28 558.19 1169.78 558.19
  L 1054.68 557.92"
/>
<path stroke="#4a698d" vector-effect="non-scaling-stroke" d="
  M 1054.68 557.92
  Q 1055.08 555.21 1055.50 552.64
  Q 1055.91 550.13 1055.77 547.34
  Q 1055.25 537.10 1057.16 528.25
  Q 1057.50 526.67 1056.53 525.83"
/>
<path stroke="#969fab" vector-effect="non-scaling-stroke" d="
  M 1054.68 557.92
  L 914.36 557.76"
/>
<path stroke="#b3c6d4" vector-effect="non-scaling-stroke" d="
  M 1177.22 580.05
  L 1126.71 580.45"
/>
<path stroke="#4a698d" vector-effect="non-scaling-stroke" d="
  M 1065.82 761.13
  Q 1069.11 752.80 1067.86 744.76
  Q 1066.73 737.53 1064.34 731.76
  Q 1059.09 719.10 1050.32 703.60
  C 1044.53 693.37 1039.10 682.87 1034.17 672.60
  Q 1025.95 655.50 1023.25 642.26
  Q 1020.56 629.01 1022.12 611.16"
/>
<path stroke="#8d91a0" vector-effect="non-scaling-stroke" d="
  M 1111.72 999.57
  C 1095.39 1004.76 1085.18 1018.43 1080.28 1034.24
  Q 1078.76 1039.15 1078.63 1045.00
  Q 1078.41 1055.00 1078.97 1057.90
  Q 1084.30 1085.56 1109.11 1096.12
  Q 1114.72 1098.50 1122.40 1100.02
  Q 1128.54 1101.24 1133.81 1100.24
  C 1154.75 1096.29 1169.73 1083.74 1174.71 1062.22
  Q 1176.53 1054.32 1176.64 1049.00
  Q 1177.04 1029.98 1163.80 1014.37
  C 1155.63 1004.74 1143.83 999.03 1131.16 997.18
  C 1124.44 996.19 1118.00 997.57 1111.72 999.57"
/>
<path stroke="#8d91a0" vector-effect="non-scaling-stroke" d="
  M 574.98 1018.04
  C 565.46 1004.63 547.65 998.68 531.30 998.88
  Q 523.95 998.97 517.64 998.91
  Q 514.99 998.88 514.99 1001.53
  Q 514.97 1013.80 515.07 1025.76
  C 515.09 1028.19 515.71 1030.50 515.73 1032.96
  Q 515.80 1050.54 515.73 1069.02
  C 515.71 1074.97 514.93 1080.69 515.04 1086.63
  C 515.12 1090.76 514.82 1094.70 515.97 1098.59
  A 0.51 0.50 -6.9 0 0 516.45 1098.96
  Q 524.00 1099.14 533.94 1099.14
  C 549.68 1099.15 566.56 1093.63 575.63 1080.19
  Q 581.79 1071.06 583.99 1064.10
  C 589.05 1048.08 584.50 1031.44 574.98 1018.04"
/>
</g>
<path fill="#fffcf2" d="
  M 448.28 1333.99
  Q 412.69 1311.81 376.37 1282.71
  C 360.88 1270.30 346.40 1256.84 331.39 1243.45
  C 326.78 1239.34 322.88 1234.63 318.63 1230.27
  Q 298.88 1210.06 293.14 1203.07
  C 283.42 1191.22 272.77 1179.11 263.56 1166.86
  Q 240.90 1136.75 225.74 1112.20
  Q 201.03 1072.19 180.21 1023.86
  Q 177.46 1017.47 174.66 1010.24
  C 172.29 1004.11 169.67 998.19 167.46 991.94
  Q 151.23 945.96 140.97 902.25
  C 136.87 884.76 133.27 864.33 130.86 845.12
  Q 127.60 819.08 126.37 802.17
  C 125.82 794.55 125.26 787.11 124.97 779.75
  Q 124.82 776.18 124.56 773.08
  Q 124.27 769.52 124.24 766.34
  Q 124.10 746.20 124.13 734.88
  Q 124.15 728.50 124.49 722.14
  Q 125.82 696.56 128.42 671.04
  Q 132.08 635.23 136.84 610.75
  Q 140.65 591.15 146.54 567.49
  Q 150.87 550.07 155.05 536.06
  Q 157.78 526.93 161.33 517.07
  Q 170.49 491.65 181.60 465.07
  Q 189.03 447.27 195.69 433.91
  Q 214.20 396.79 231.82 367.88
  Q 238.66 356.65 252.31 337.06
  Q 258.18 328.65 264.13 320.87
  Q 289.52 287.71 309.61 266.14
  Q 320.80 254.12 341.42 234.36
  Q 348.44 227.64 356.15 220.79
  Q 379.63 199.94 401.63 183.86
  C 415.16 173.98 429.29 163.69 444.07 154.65
  Q 453.97 148.59 462.52 143.61
  Q 482.46 132.00 503.52 121.34
  C 513.88 116.09 524.94 111.49 535.82 106.59
  Q 542.54 103.56 549.90 100.58
  Q 575.28 90.31 593.88 84.24
  Q 622.22 74.99 645.52 69.70
  C 658.86 66.68 672.20 63.61 685.67 61.21
  Q 699.58 58.72 704.01 58.07
  Q 717.07 56.15 741.18 53.37
  Q 742.97 53.16 744.82 53.14
  C 751.27 53.04 757.70 52.40 763.84 51.79
  Q 769.95 51.18 779.18 51.12
  Q 818.78 50.87 859.40 51.18
  C 869.27 51.26 879.37 52.56 889.25 53.15
  C 898.06 53.68 909.18 54.77 919.06 56.16
  Q 924.29 56.89 929.64 57.54
  Q 940.14 58.83 966.16 63.79
  Q 976.10 65.69 985.71 68.04
  Q 1016.23 75.52 1044.63 85.21
  Q 1065.78 92.43 1085.48 100.61
  Q 1102.70 107.76 1122.05 116.99
  Q 1130.32 120.93 1139.34 125.79
  Q 1162.14 138.05 1184.77 151.59
  Q 1193.37 156.73 1201.57 162.29
  C 1229.32 181.08 1255.01 199.84 1278.56 220.67
  Q 1286.17 227.41 1302.45 243.15
  Q 1309.20 249.67 1316.51 257.38
  Q 1332.73 274.48 1346.54 290.54
  Q 1356.18 301.76 1377.17 329.67
  Q 1390.36 347.21 1409.10 377.31
  Q 1414.09 385.32 1419.20 394.65
  Q 1433.68 421.13 1443.06 440.15
  C 1451.05 456.35 1458.27 475.25 1465.26 493.42
  Q 1478.44 527.69 1486.95 557.69
  Q 1493.12 579.47 1498.59 606.35
  C 1500.40 615.27 1501.90 625.00 1503.34 634.44
  Q 1504.20 640.01 1504.82 645.66
  Q 1506.59 661.64 1508.14 677.63
  Q 1508.72 683.63 1508.85 689.83
  C 1509.13 703.16 1510.51 719.14 1510.72 728.87
  Q 1511.39 759.76 1509.23 792.53
  Q 1508.55 802.84 1507.75 812.67
  Q 1502.70 874.61 1485.35 934.92
  C 1478.49 958.75 1471.59 980.25 1462.87 1001.79
  C 1458.29 1013.10 1453.78 1025.25 1448.94 1035.82
  Q 1432.75 1071.18 1413.36 1104.20
  Q 1409.94 1110.03 1405.81 1116.10
  C 1402.27 1121.30 1399.10 1126.77 1395.58 1131.92
  Q 1384.01 1148.90 1379.68 1154.76
  C 1367.39 1171.44 1354.04 1187.97 1339.97 1203.47
  Q 1320.90 1224.46 1308.24 1237.04
  C 1291.34 1253.83 1272.77 1270.37 1253.20 1285.42
  Q 1224.89 1307.20 1210.83 1316.55
  Q 1197.88 1325.16 1182.69 1334.77
  C 1168.53 1343.75 1153.92 1351.07 1139.52 1358.63
  Q 1124.06 1366.75 1105.09 1375.50
  Q 1094.75 1380.27 1086.83 1383.48
  Q 1047.09 1399.62 1016.59 1408.85
  Q 981.01 1419.61 936.97 1427.58
  Q 915.52 1431.47 895.51 1433.33
  Q 875.07 1435.24 854.28 1437.07
  Q 846.98 1437.71 841.33 1437.77
  Q 820.12 1438.00 795.85 1437.87
  Q 786.55 1437.82 776.83 1437.03
  Q 757.82 1435.47 739.56 1433.92
  Q 729.90 1433.10 720.12 1431.79
  Q 681.39 1426.60 646.66 1418.02
  Q 622.44 1412.03 598.75 1404.39
  Q 555.94 1390.57 524.43 1375.27
  Q 505.95 1366.29 487.15 1356.30
  Q 466.19 1345.15 448.28 1333.99
  Z
  M 689.98 137.32
  L 685.52 137.76
  C 683.72 137.91 682.19 138.87 680.60 139.15
  C 677.90 139.61 675.23 139.49 672.68 140.55
  C 670.48 141.46 668.06 141.46 665.76 142.09
  Q 661.32 143.32 656.92 144.40
  Q 636.20 149.48 616.58 156.23
  C 615.08 156.74 613.59 156.83 612.14 157.59
  Q 610.54 158.43 608.78 158.69
  C 606.67 159.00 605.20 160.38 603.04 160.66
  Q 600.97 160.93 599.10 162.15
  Q 598.65 162.44 598.10 162.48
  Q 596.49 162.61 595.00 163.21
  Q 588.84 165.71 583.45 168.21
  C 582.88 168.47 582.34 168.39 581.77 168.61
  Q 564.14 175.24 547.17 183.35
  Q 543.09 185.29 533.49 190.40
  Q 526.94 193.89 519.76 197.37
  C 518.13 198.17 516.94 199.43 515.38 200.26
  Q 494.32 211.53 474.17 225.14
  Q 461.43 233.76 447.45 243.68
  Q 434.65 252.76 423.65 261.91
  Q 409.89 273.36 396.57 285.32
  C 372.18 307.23 349.56 333.45 327.74 361.47
  C 317.81 374.23 308.80 387.34 299.91 400.84
  Q 295.47 407.58 291.46 414.34
  Q 276.94 438.80 262.02 468.50
  Q 257.25 477.99 253.43 486.48
  Q 243.13 509.38 233.70 535.01
  Q 222.06 566.64 214.92 597.81
  L 214.37 600.78
  L 212.83 605.77
  L 212.31 609.85
  L 210.83 614.76
  L 210.38 620.81
  L 208.84 624.75
  L 208.38 629.85
  L 206.81 635.25
  L 206.40 642.80
  Q 205.07 645.09 204.81 647.25
  L 204.43 654.80
  Q 202.68 657.76 202.81 661.02
  L 202.40 669.78
  Q 200.54 673.30 200.82 677.54
  L 200.39 688.80
  L 198.82 699.79
  L 198.47 719.78
  Q 196.25 738.70 197.19 757.75
  Q 197.38 761.56 198.40 770.88
  L 198.78 791.22
  Q 198.53 797.89 200.40 804.21
  L 200.83 814.26
  L 202.34 821.22
  L 202.84 831.22
  Q 203.09 833.77 204.33 836.22
  L 204.84 843.75
  L 206.38 848.26
  L 206.89 854.73
  L 208.29 859.86
  L 208.86 864.11
  Q 216.51 899.90 223.32 921.50
  C 225.70 929.02 227.93 936.68 229.89 942.51
  Q 238.06 966.83 247.97 990.51
  C 250.24 995.93 253.23 1001.71 255.77 1007.25
  Q 259.63 1015.67 261.70 1019.75
  Q 275.58 1047.12 291.60 1073.71
  Q 295.81 1080.70 300.45 1087.29
  C 307.47 1097.24 314.08 1107.46 321.36 1116.95
  Q 335.79 1135.75 350.18 1152.18
  Q 364.92 1169.01 377.02 1181.29
  Q 387.49 1191.92 403.66 1206.46
  Q 410.82 1212.90 418.94 1219.39
  Q 444.66 1239.97 464.49 1253.44
  Q 484.14 1266.79 510.72 1282.61
  Q 519.04 1287.56 528.95 1292.69
  Q 546.09 1301.56 558.30 1307.24
  Q 580.72 1317.66 602.11 1325.43
  Q 609.57 1328.14 618.29 1330.89
  Q 625.75 1333.24 634.16 1335.92
  Q 642.99 1338.73 651.89 1341.47
  Q 653.54 1341.98 655.19 1342.28
  C 657.74 1342.73 660.07 1343.70 662.56 1344.38
  Q 664.76 1344.97 666.76 1345.43
  Q 686.03 1349.91 713.49 1354.75
  C 716.84 1355.34 720.24 1355.56 723.50 1356.31
  Q 727.32 1357.18 730.88 1357.49
  C 734.20 1357.79 737.32 1358.84 740.63 1359.09
  Q 742.60 1359.25 744.43 1359.32
  L 747.58 1359.50
  Q 751.02 1359.56 754.41 1360.25
  Q 758.59 1361.09 761.17 1361.17
  Q 770.81 1361.48 780.31 1362.04
  C 782.02 1362.14 783.78 1362.96 785.76 1363.02
  Q 822.50 1364.17 847.68 1362.87
  Q 849.14 1362.79 850.77 1362.57
  Q 859.15 1361.42 866.69 1361.34
  Q 871.01 1361.29 877.19 1360.30
  Q 882.28 1359.48 887.79 1359.29
  C 892.41 1359.14 896.84 1358.04 901.45 1357.54
  C 906.06 1357.04 910.58 1355.90 915.28 1355.35
  C 919.55 1354.86 924.00 1353.91 928.25 1353.15
  C 950.82 1349.10 971.88 1344.15 992.86 1337.34
  Q 1005.80 1333.13 1018.76 1328.83
  Q 1020.13 1328.38 1021.56 1327.91
  Q 1056.82 1316.42 1098.19 1295.10
  C 1112.73 1287.60 1127.07 1279.88 1140.94 1271.15
  Q 1161.35 1258.31 1182.56 1243.48
  Q 1214.11 1221.41 1245.41 1192.06
  Q 1263.64 1174.97 1277.54 1159.60
  Q 1297.10 1138.00 1314.85 1114.26
  C 1322.48 1104.04 1329.34 1092.69 1336.61 1082.00
  Q 1343.54 1071.82 1347.46 1065.21
  C 1356.37 1050.19 1364.43 1034.53 1372.68 1018.99
  Q 1376.46 1011.88 1380.28 1003.52
  Q 1387.53 987.64 1392.28 975.49
  Q 1396.85 963.84 1400.99 951.95
  Q 1401.42 950.72 1401.86 949.54
  Q 1409.29 930.00 1414.51 910.54
  Q 1417.45 899.57 1417.48 899.45
  Q 1423.06 878.65 1425.68 865.71
  Q 1426.67 860.81 1427.58 856.53
  C 1428.38 852.82 1428.24 849.04 1429.44 845.51
  C 1430.83 841.41 1430.17 837.00 1431.36 832.98
  Q 1432.26 829.95 1432.36 826.74
  Q 1432.48 822.76 1433.19 820.50
  Q 1434.56 816.14 1434.25 811.65
  L 1434.48 805.21
  Q 1436.09 801.32 1436.11 799.76
  Q 1436.29 788.07 1437.12 776.10
  C 1437.24 774.48 1437.95 773.11 1438.00 771.35
  Q 1438.63 748.23 1438.19 724.08
  Q 1438.07 717.01 1437.27 709.88
  Q 1436.45 702.59 1436.37 694.78
  Q 1436.32 689.52 1435.45 684.36
  Q 1434.34 677.75 1434.24 670.36
  C 1434.20 668.13 1433.03 666.15 1432.79 663.96
  Q 1432.38 660.04 1432.21 655.97
  C 1432.09 653.28 1430.61 651.02 1430.52 648.16
  Q 1430.41 644.59 1429.35 640.68
  C 1428.45 637.35 1428.45 633.97 1427.48 630.58
  C 1426.63 627.58 1426.35 624.53 1425.68 621.47
  Q 1418.96 590.61 1409.50 560.70
  Q 1408.84 558.61 1408.32 557.18
  C 1407.49 554.85 1407.17 552.53 1406.02 550.35
  C 1405.33 549.04 1405.44 547.62 1404.85 546.26
  Q 1403.54 543.21 1402.17 540.40
  C 1401.31 538.62 1401.41 536.74 1400.34 534.96
  C 1399.48 533.53 1399.44 531.86 1398.81 530.31
  C 1396.00 523.30 1393.70 516.16 1390.75 509.03
  Q 1371.12 461.65 1349.70 425.86
  Q 1329.26 391.70 1308.33 364.11
  Q 1297.53 349.87 1281.10 330.61
  C 1272.20 320.17 1262.84 310.74 1253.20 300.68
  Q 1244.66 291.78 1234.49 283.00
  C 1227.87 277.29 1221.28 271.43 1214.61 265.92
  C 1198.00 252.20 1182.04 240.60 1164.63 228.52
  Q 1155.57 222.24 1147.99 217.44
  Q 1111.62 194.43 1072.93 177.47
  Q 1071.73 176.94 1070.48 176.41
  Q 1042.25 164.41 1021.07 157.05
  Q 1019.79 156.61 1018.52 156.17
  Q 993.85 147.68 967.98 141.80
  Q 961.58 140.35 953.98 138.65
  C 950.24 137.82 946.63 137.48 942.97 136.43
  C 939.90 135.55 936.88 135.55 933.83 134.72
  Q 930.25 133.75 926.74 133.53
  C 922.91 133.30 919.46 131.87 915.63 131.66
  C 910.75 131.40 906.29 129.98 901.41 129.65
  C 894.72 129.21 888.38 127.58 881.32 127.66
  L 874.12 127.31
  L 863.72 125.88
  L 847.23 125.60
  Q 824.69 123.67 818.00 124.04
  Q 807.40 124.61 795.01 125.17
  Q 793.54 125.24 792.24 125.29
  Q 785.35 125.53 777.91 125.74
  Q 770.97 125.93 763.83 126.92
  C 757.67 127.78 751.23 127.40 744.99 128.67
  Q 741.07 129.48 736.96 129.63
  C 731.13 129.85 725.58 131.61 719.66 131.78
  C 715.85 131.89 712.39 133.56 708.51 133.65
  Q 706.13 133.71 703.72 134.53
  Q 700.69 135.55 697.12 135.62
  C 694.59 135.66 692.37 136.62 689.98 137.32
  Z"
/>
<path fill="#1b2241" d="
  M 847.23 125.60
  L 863.72 125.88
  L 874.12 127.31
  L 881.32 127.66
  C 888.38 127.58 894.72 129.21 901.41 129.65
  C 906.29 129.98 910.75 131.40 915.63 131.66
  C 919.46 131.87 922.91 133.30 926.74 133.53
  Q 930.25 133.75 933.83 134.72
  C 936.88 135.55 939.90 135.55 942.97 136.43
  C 946.63 137.48 950.24 137.82 953.98 138.65
  Q 961.58 140.35 967.98 141.80
  Q 993.85 147.68 1018.52 156.17
  Q 1019.79 156.61 1021.07 157.05
  Q 1042.25 164.41 1070.48 176.41
  Q 1071.73 176.94 1072.93 177.47
  Q 1111.62 194.43 1147.99 217.44
  Q 1155.57 222.24 1164.63 228.52
  C 1182.04 240.60 1198.00 252.20 1214.61 265.92
  C 1221.28 271.43 1227.87 277.29 1234.49 283.00
  Q 1244.66 291.78 1253.20 300.68
  C 1262.84 310.74 1272.20 320.17 1281.10 330.61
  Q 1297.53 349.87 1308.33 364.11
  Q 1329.26 391.70 1349.70 425.86
  Q 1371.12 461.65 1390.75 509.03
  C 1393.70 516.16 1396.00 523.30 1398.81 530.31
  C 1399.44 531.86 1399.48 533.53 1400.34 534.96
  C 1401.41 536.74 1401.31 538.62 1402.17 540.40
  Q 1403.54 543.21 1404.85 546.26
  C 1405.44 547.62 1405.33 549.04 1406.02 550.35
  C 1407.17 552.53 1407.49 554.85 1408.32 557.18
  Q 1408.84 558.61 1409.50 560.70
  Q 1418.96 590.61 1425.68 621.47
  C 1426.35 624.53 1426.63 627.58 1427.48 630.58
  C 1428.45 633.97 1428.45 637.35 1429.35 640.68
  Q 1430.41 644.59 1430.52 648.16
  C 1430.61 651.02 1432.09 653.28 1432.21 655.97
  Q 1432.38 660.04 1432.79 663.96
  C 1433.03 666.15 1434.20 668.13 1434.24 670.36
  Q 1434.34 677.75 1435.45 684.36
  Q 1436.32 689.52 1436.37 694.78
  Q 1436.45 702.59 1437.27 709.88
  Q 1438.07 717.01 1438.19 724.08
  Q 1438.63 748.23 1438.00 771.35
  C 1437.95 773.11 1437.24 774.48 1437.12 776.10
  Q 1436.29 788.07 1436.11 799.76
  Q 1436.09 801.32 1434.48 805.21
  Q 1433.69 808.29 1434.25 811.65
  Q 1434.56 816.14 1433.19 820.50
  Q 1432.48 822.76 1432.36 826.74
  Q 1432.26 829.95 1431.36 832.98
  C 1430.17 837.00 1430.83 841.41 1429.44 845.51
  C 1428.24 849.04 1428.38 852.82 1427.58 856.53
  Q 1426.67 860.81 1425.68 865.71
  Q 1423.06 878.65 1417.48 899.45
  Q 1417.45 899.57 1414.51 910.54
  Q 1409.29 930.00 1401.86 949.54
  Q 1401.42 950.72 1400.99 951.95
  Q 1396.85 963.84 1392.28 975.49
  Q 1387.53 987.64 1380.28 1003.52
  Q 1376.46 1011.88 1372.68 1018.99
  C 1364.43 1034.53 1356.37 1050.19 1347.46 1065.21
  Q 1343.54 1071.82 1336.61 1082.00
  C 1329.34 1092.69 1322.48 1104.04 1314.85 1114.26
  Q 1297.10 1138.00 1277.54 1159.60
  Q 1263.64 1174.97 1245.41 1192.06
  Q 1214.11 1221.41 1182.56 1243.48
  Q 1161.35 1258.31 1140.94 1271.15
  C 1127.07 1279.88 1112.73 1287.60 1098.19 1295.10
  Q 1056.82 1316.42 1021.56 1327.91
  Q 1020.13 1328.38 1018.76 1328.83
  Q 1005.80 1333.13 992.86 1337.34
  C 971.88 1344.15 950.82 1349.10 928.25 1353.15
  C 924.00 1353.91 919.55 1354.86 915.28 1355.35
  C 910.58 1355.90 906.06 1357.04 901.45 1357.54
  C 896.84 1358.04 892.41 1359.14 887.79 1359.29
  Q 882.28 1359.48 877.19 1360.30
  Q 871.01 1361.29 866.69 1361.34
  Q 859.15 1361.42 850.77 1362.57
  Q 849.14 1362.79 847.68 1362.87
  Q 822.50 1364.17 785.76 1363.02
  C 783.78 1362.96 782.02 1362.14 780.31 1362.04
  Q 770.81 1361.48 761.17 1361.17
  Q 758.59 1361.09 754.41 1360.25
  Q 751.02 1359.56 747.58 1359.50
  Q 746.18 1358.54 744.43 1359.32
  Q 742.60 1359.25 740.63 1359.09
  C 737.32 1358.84 734.20 1357.79 730.88 1357.49
  Q 727.32 1357.18 723.50 1356.31
  C 720.24 1355.56 716.84 1355.34 713.49 1354.75
  Q 686.03 1349.91 666.76 1345.43
  Q 664.76 1344.97 662.56 1344.38
  C 660.07 1343.70 657.74 1342.73 655.19 1342.28
  Q 653.54 1341.98 651.89 1341.47
  Q 642.99 1338.73 634.16 1335.92
  Q 625.75 1333.24 618.29 1330.89
  Q 609.57 1328.14 602.11 1325.43
  Q 580.72 1317.66 558.30 1307.24
  Q 546.09 1301.56 528.95 1292.69
  Q 519.04 1287.56 510.72 1282.61
  Q 484.14 1266.79 464.49 1253.44
  Q 444.66 1239.97 418.94 1219.39
  Q 410.82 1212.90 403.66 1206.46
  Q 387.49 1191.92 377.02 1181.29
  Q 364.92 1169.01 350.18 1152.18
  Q 335.79 1135.75 321.36 1116.95
  C 314.08 1107.46 307.47 1097.24 300.45 1087.29
  Q 295.81 1080.70 291.60 1073.71
  Q 275.58 1047.12 261.70 1019.75
  Q 259.63 1015.67 255.77 1007.25
  C 253.23 1001.71 250.24 995.93 247.97 990.51
  Q 238.06 966.83 229.89 942.51
  C 227.93 936.68 225.70 929.02 223.32 921.50
  Q 216.51 899.90 208.86 864.11
  Q 209.24 861.79 208.29 859.86
  L 206.89 854.73
  L 206.38 848.26
  L 204.84 843.75
  Q 205.27 839.61 204.33 836.22
  Q 203.09 833.77 202.84 831.22
  Q 203.30 825.86 202.34 821.22
  L 200.83 814.26
  L 200.40 804.21
  Q 198.53 797.89 198.78 791.22
  Q 199.40 780.82 198.40 770.88
  Q 197.38 761.56 197.19 757.75
  Q 196.25 738.70 198.47 719.78
  L 198.82 699.79
  L 200.39 688.80
  Q 201.33 683.45 200.82 677.54
  Q 200.54 673.30 202.40 669.78
  Q 203.36 665.80 202.81 661.02
  Q 202.68 657.76 204.43 654.80
  Q 205.32 651.50 204.81 647.25
  Q 205.07 645.09 206.40 642.80
  Q 207.32 639.46 206.81 635.25
  L 208.38 629.85
  Q 209.32 628.09 208.84 624.75
  L 210.38 620.81
  Q 211.32 618.34 210.83 614.76
  L 212.31 609.85
  Q 213.35 608.86 212.83 605.77
  L 214.37 600.78
  Q 215.16 600.43 214.92 597.81
  Q 222.06 566.64 233.70 535.01
  Q 243.13 509.38 253.43 486.48
  Q 257.25 477.99 262.02 468.50
  Q 276.94 438.80 291.46 414.34
  Q 295.47 407.58 299.91 400.84
  C 308.80 387.34 317.81 374.23 327.74 361.47
  C 349.56 333.45 372.18 307.23 396.57 285.32
  Q 409.89 273.36 423.65 261.91
  Q 434.65 252.76 447.45 243.68
  Q 461.43 233.76 474.17 225.14
  Q 494.32 211.53 515.38 200.26
  C 516.94 199.43 518.13 198.17 519.76 197.37
  Q 526.94 193.89 533.49 190.40
  Q 543.09 185.29 547.17 183.35
  Q 564.14 175.24 581.77 168.61
  C 582.34 168.39 582.88 168.47 583.45 168.21
  Q 588.84 165.71 595.00 163.21
  Q 596.49 162.61 598.10 162.48
  Q 598.65 162.44 599.10 162.15
  Q 600.97 160.93 603.04 160.66
  C 605.20 160.38 606.67 159.00 608.78 158.69
  Q 610.54 158.43 612.14 157.59
  C 613.59 156.83 615.08 156.74 616.58 156.23
  Q 636.20 149.48 656.92 144.40
  Q 661.32 143.32 665.76 142.09
  C 668.06 141.46 670.48 141.46 672.68 140.55
  C 675.23 139.49 677.90 139.61 680.60 139.15
  C 682.19 138.87 683.72 137.91 685.52 137.76
  Q 687.96 138.31 689.98 137.32
  C 692.37 136.62 694.59 135.66 697.12 135.62
  Q 700.69 135.55 703.72 134.53
  Q 706.13 133.71 708.51 133.65
  C 712.39 133.56 715.85 131.89 719.66 131.78
  C 725.58 131.61 731.13 129.85 736.96 129.63
  Q 741.07 129.48 744.99 128.67
  C 751.23 127.40 757.67 127.78 763.83 126.92
  Q 770.97 125.93 777.91 125.74
  Q 785.35 125.53 792.24 125.29
  Q 793.54 125.24 795.01 125.17
  Q 807.40 124.61 818.00 124.04
  Q 824.69 123.67 847.23 125.60
  Z
  M 1244.35 491.91
  C 1222.93 457.03 1192.06 430.61 1154.30 415.92
  C 1129.93 406.44 1104.72 401.58 1078.53 398.87
  Q 1054.74 396.41 1043.99 395.58
  Q 965.64 389.57 887.24 386.93
  Q 877.25 386.59 867.18 386.52
  Q 798.82 386.01 761.72 386.82
  Q 688.06 388.44 607.21 394.95
  C 585.06 396.73 563.30 398.33 540.37 401.27
  C 505.70 405.71 471.08 416.94 443.52 438.12
  Q 427.42 450.50 416.46 462.19
  Q 398.68 481.17 386.75 504.74
  C 377.31 523.40 371.73 544.94 369.45 565.27
  Q 368.54 573.32 368.45 584.37
  Q 368.10 625.57 368.47 654.95
  Q 369.15 708.40 396.45 756.50
  Q 417.11 792.89 451.97 817.56
  Q 460.02 823.26 469.76 829.07
  Q 496.38 844.95 525.56 851.16
  C 562.07 858.92 602.01 854.76 635.53 837.31
  C 651.68 828.90 666.29 818.77 678.77 805.98
  Q 691.69 792.75 701.98 778.61
  Q 718.61 755.79 747.60 715.34
  C 756.76 702.56 767.88 689.98 781.29 681.68
  C 802.69 668.43 828.02 667.72 850.33 678.79
  Q 860.48 683.83 871.12 694.12
  C 881.99 704.65 891.38 716.97 899.67 729.02
  Q 913.90 749.71 929.89 771.26
  Q 940.01 784.91 949.90 796.55
  Q 962.69 811.61 980.15 824.26
  Q 999.24 838.09 1017.85 844.77
  C 1042.04 853.44 1067.47 856.84 1092.80 853.97
  Q 1115.78 851.37 1136.96 843.38
  Q 1153.05 837.31 1163.71 831.40
  Q 1201.30 810.54 1227.55 777.19
  Q 1240.08 761.28 1250.45 739.17
  Q 1267.21 703.44 1269.63 667.31
  Q 1270.30 657.35 1270.29 647.26
  Q 1270.27 619.45 1270.20 590.75
  Q 1270.18 579.25 1269.46 571.26
  Q 1266.57 539.05 1253.41 509.40
  Q 1249.03 499.53 1244.35 491.91
  Z
  M 782.05 757.27
  Q 776.75 764.24 772.58 770.79
  Q 764.01 784.25 755.47 797.76
  Q 750.93 804.95 747.69 812.13
  Q 746.41 814.96 746.64 817.76
  C 748.11 836.14 758.54 852.50 773.74 863.20
  C 790.63 875.10 812.09 879.99 832.61 876.45
  Q 852.82 872.98 869.54 858.60
  Q 885.49 844.89 890.12 823.00
  C 890.98 818.91 891.40 813.20 889.28 809.48
  Q 884.83 798.24 878.06 788.18
  Q 862.84 765.57 848.94 743.51
  Q 844.80 736.94 838.67 729.95
  Q 831.87 722.19 822.35 721.41
  Q 808.10 720.26 799.34 730.85
  Q 792.77 738.78 782.05 757.27
  Z
  M 1002.08 1124.63
  Q 1002.34 1134.41 1001.11 1144.51
  C 1000.43 1150.11 996.70 1156.82 990.52 1157.10
  Q 986.04 1157.31 981.27 1157.20
  Q 979.12 1157.15 979.09 1159.30
  Q 978.99 1166.41 979.04 1174.14
  Q 979.05 1175.97 980.68 1176.89
  C 996.25 1185.63 1011.76 1178.92 1020.10 1164.28
  Q 1025.57 1154.70 1025.73 1145.39
  Q 1025.89 1135.52 1026.22 1126.51
  Q 1026.59 1116.43 1026.62 1107.49
  Q 1026.72 1073.74 1026.68 1040.00
  Q 1026.68 1038.39 1026.16 1037.63
  C 1025.68 1036.93 1024.44 1036.99 1023.67 1036.46
  Q 1023.26 1036.18 1022.77 1036.18
  Q 1002.54 1036.15 983.11 1036.37
  C 981.56 1036.38 980.15 1036.92 978.59 1036.94
  Q 973.07 1037.01 967.02 1037.12
  A 1.93 1.93 0.0 0 0 965.12 1039.05
  L 965.08 1058.95
  A 1.91 1.90 0.2 0 0 966.98 1060.85
  Q 982.27 1060.97 997.37 1060.94
  Q 999.59 1060.93 1001.58 1061.99
  Q 1002.03 1062.24 1002.19 1062.73
  C 1002.58 1063.97 1003.06 1064.88 1003.07 1066.24
  Q 1003.10 1078.80 1003.01 1088.93
  C 1002.98 1092.17 1002.69 1095.12 999.26 1096.55
  Q 993.77 1098.84 988.27 1100.35
  C 976.37 1103.62 961.67 1098.73 951.11 1092.36
  C 936.10 1083.31 925.88 1065.20 926.74 1047.81
  C 926.92 1044.31 926.73 1041.41 927.77 1037.89
  C 929.58 1031.74 931.00 1026.16 934.60 1020.68
  Q 946.50 1002.59 966.48 998.01
  C 973.62 996.37 982.44 996.30 989.27 997.23
  Q 993.89 997.86 1000.82 1000.34
  C 1005.09 1001.87 1008.44 1004.44 1012.27 1006.59
  A 1.59 1.59 0.0 0 0 1014.19 1006.31
  Q 1021.49 998.87 1027.90 990.28
  A 0.68 0.68 0.0 0 0 1027.86 989.41
  C 1024.65 985.91 1021.23 982.73 1017.12 980.25
  C 1008.11 974.81 998.11 971.59 987.81 971.25
  Q 981.52 971.04 975.32 970.96
  C 954.55 970.72 936.84 979.65 921.99 994.59
  C 909.70 1006.97 901.34 1024.78 900.77 1042.65
  Q 900.50 1050.92 901.30 1058.39
  Q 903.34 1077.48 915.27 1094.10
  Q 930.98 1115.98 956.65 1124.11
  C 959.16 1124.90 961.75 1125.12 964.31 1125.84
  Q 967.12 1126.64 970.27 1126.78
  C 977.80 1127.13 985.04 1127.05 992.36 1125.44
  Q 996.77 1124.46 1000.83 1123.64
  Q 1002.05 1123.39 1002.08 1124.63
  Z
  M 1193.27 1011.90
  Q 1189.24 1003.76 1182.45 995.99
  Q 1169.19 980.80 1150.12 974.78
  C 1145.17 973.22 1139.84 972.39 1134.77 971.71
  Q 1129.49 971.01 1122.24 971.33
  C 1118.85 971.48 1116.04 972.57 1112.76 972.92
  Q 1108.14 973.42 1103.47 975.13
  Q 1082.65 982.72 1069.95 998.13
  C 1062.01 1007.77 1055.33 1019.33 1053.75 1031.13
  Q 1052.97 1036.90 1052.59 1043.20
  C 1052.17 1050.02 1052.72 1056.55 1053.56 1063.14
  Q 1055.48 1078.16 1065.71 1093.04
  Q 1081.69 1116.26 1108.98 1124.17
  C 1111.38 1124.86 1113.76 1124.76 1116.10 1125.56
  Q 1118.63 1126.43 1121.52 1126.63
  Q 1151.83 1128.76 1174.81 1110.46
  Q 1183.01 1103.94 1188.44 1095.83
  C 1194.72 1086.48 1199.58 1075.38 1201.11 1064.30
  C 1202.12 1057.03 1203.18 1050.27 1202.29 1042.94
  Q 1201.47 1036.10 1200.16 1029.58
  C 1198.95 1023.51 1196.02 1017.44 1193.27 1011.90
  Z
  M 489.05 976.07
  L 489.05 1122.09
  A 3.87 3.87 0.0 0 0 492.92 1125.96
  L 535.42 1125.96
  A 76.63 75.56 0.0 0 0 612.05 1050.40
  L 612.05 1047.76
  A 76.63 75.56 -0.0 0 0 535.42 972.20
  L 492.92 972.20
  A 3.87 3.87 0.0 0 0 489.05 976.07
  Z
  M 668.82 976.05
  A 3.95 3.95 0.0 0 0 664.87 972.10
  L 648.05 972.10
  A 3.95 3.95 0.0 0 0 644.10 976.05
  L 644.10 1121.95
  A 3.95 3.95 0.0 0 0 648.05 1125.90
  L 664.87 1125.90
  A 3.95 3.95 0.0 0 0 668.82 1121.95
  L 668.82 976.05
  Z
  M 856.41 1099.07
  Q 855.71 1098.99 855.71 1098.29
  L 855.72 1064.80
  A 2.99 2.99 0.0 0 1 858.70 1061.81
  L 865.58 1061.78
  A 3.37 3.37 0.0 0 0 868.93 1058.42
  L 868.97 1037.09
  A 1.89 1.88 0.2 0 0 867.09 1035.21
  L 856.74 1035.16
  A 0.91 0.91 0.0 0 1 855.83 1034.27
  C 855.73 1030.84 854.93 1027.54 855.30 1024.08
  Q 856.26 1014.93 855.25 1006.98
  C 854.94 1004.48 855.97 1002.46 855.77 999.96
  A 1.08 1.08 0.0 0 1 856.05 999.14
  Q 857.21 997.83 859.11 997.84
  Q 874.27 997.95 890.47 997.75
  C 893.67 997.71 894.52 994.06 894.58 991.73
  Q 894.78 983.71 894.71 975.90
  A 3.76 3.75 -0.2 0 0 890.95 972.18
  L 834.46 972.18
  A 3.36 3.35 -90.0 0 0 831.11 975.54
  L 831.10 1122.79
  A 2.18 2.17 88.0 0 0 833.42 1124.97
  C 837.06 1124.72 840.59 1125.60 844.23 1125.64
  Q 870.14 1125.93 893.24 1125.96
  A 3.45 3.45 0.0 0 0 896.70 1122.51
  L 896.75 1103.00
  A 1.95 1.95 0.0 0 0 895.58 1101.21
  C 894.38 1100.69 893.16 1100.17 891.79 1100.17
  Q 876.70 1100.06 861.86 1100.06
  C 859.91 1100.06 858.32 1099.28 856.41 1099.07
  Z
  M 751.45 1063.89
  C 749.02 1057.70 746.03 1051.69 743.50 1045.35
  Q 740.82 1038.65 737.64 1031.29
  C 734.70 1024.50 732.06 1017.69 729.32 1010.88
  Q 726.57 1004.03 723.38 995.49
  Q 720.20 986.99 716.48 978.76
  C 715.42 976.41 713.30 972.37 710.46 972.57
  Q 700.74 973.25 691.99 972.66
  Q 690.17 972.54 688.73 973.62
  A 1.79 1.79 0.0 0 0 688.17 975.79
  Q 696.91 995.27 705.26 1015.75
  Q 727.09 1069.30 745.69 1112.56
  C 747.28 1116.27 749.09 1121.35 752.22 1123.72
  Q 753.35 1124.57 754.00 1123.33
  C 760.39 1111.26 765.71 1098.50 771.25 1085.89
  Q 775.07 1077.18 778.34 1068.95
  C 789.67 1040.47 800.82 1011.59 812.30 983.77
  Q 814.17 979.26 815.59 974.89
  A 1.36 1.36 0.0 0 0 814.33 973.11
  Q 803.14 972.85 793.63 973.01
  Q 791.92 973.04 791.14 974.54
  Q 787.85 980.83 785.13 987.97
  C 782.45 995.02 779.20 1001.97 776.39 1008.94
  Q 768.55 1028.35 755.55 1061.26
  Q 754.43 1064.10 752.03 1064.26
  Q 751.61 1064.28 751.45 1063.89
  Z"
/>
<path fill="#fffcf2" d="
  M 1253.41 509.40
  Q 1266.57 539.05 1269.46 571.26
  Q 1270.18 579.25 1270.20 590.75
  Q 1270.27 619.45 1270.29 647.26
  Q 1270.30 657.35 1269.63 667.31
  Q 1267.21 703.44 1250.45 739.17
  Q 1240.08 761.28 1227.55 777.19
  Q 1201.30 810.54 1163.71 831.40
  Q 1153.05 837.31 1136.96 843.38
  Q 1115.78 851.37 1092.80 853.97
  C 1067.47 856.84 1042.04 853.44 1017.85 844.77
  Q 999.24 838.09 980.15 824.26
  Q 962.69 811.61 949.90 796.55
  Q 940.01 784.91 929.89 771.26
  Q 913.90 749.71 899.67 729.02
  C 891.38 716.97 881.99 704.65 871.12 694.12
  Q 860.48 683.83 850.33 678.79
  C 828.02 667.72 802.69 668.43 781.29 681.68
  C 767.88 689.98 756.76 702.56 747.60 715.34
  Q 718.61 755.79 701.98 778.61
  Q 691.69 792.75 678.77 805.98
  C 666.29 818.77 651.68 828.90 635.53 837.31
  C 602.01 854.76 562.07 858.92 525.56 851.16
  Q 496.38 844.95 469.76 829.07
  Q 460.02 823.26 451.97 817.56
  Q 417.11 792.89 396.45 756.50
  Q 369.15 708.40 368.47 654.95
  Q 368.10 625.57 368.45 584.37
  Q 368.54 573.32 369.45 565.27
  C 371.73 544.94 377.31 523.40 386.75 504.74
  Q 398.68 481.17 416.46 462.19
  Q 427.42 450.50 443.52 438.12
  C 471.08 416.94 505.70 405.71 540.37 401.27
  C 563.30 398.33 585.06 396.73 607.21 394.95
  Q 688.06 388.44 761.72 386.82
  Q 798.82 386.01 867.18 386.52
  Q 877.25 386.59 887.24 386.93
  Q 965.64 389.57 1043.99 395.58
  Q 1054.74 396.41 1078.53 398.87
  C 1104.72 401.58 1129.93 406.44 1154.30 415.92
  C 1192.06 430.61 1222.93 457.03 1244.35 491.91
  Q 1249.03 499.53 1253.41 509.40
  Z
  M 717.14 675.15
  C 727.14 660.92 738.18 646.41 746.75 631.55
  C 758.56 611.09 765.49 587.59 765.52 563.03
  C 765.57 532.43 753.47 503.84 731.63 482.66
  C 714.47 466.02 689.11 458.12 665.49 458.05
  Q 611.69 457.89 554.67 457.75
  Q 542.61 457.73 532.82 458.57
  C 512.80 460.30 493.28 468.35 476.32 479.15
  C 457.11 491.37 443.12 510.08 432.89 530.14
  Q 423.72 548.10 420.60 570.29
  Q 419.50 578.06 419.49 589.33
  Q 419.47 625.05 419.72 655.75
  Q 419.86 673.31 424.46 689.37
  Q 438.38 737.89 476.11 770.98
  Q 499.18 791.22 529.62 799.15
  C 544.91 803.14 561.97 803.84 577.36 802.19
  Q 590.10 800.82 607.91 794.28
  Q 632.30 785.32 650.14 765.61
  Q 656.42 758.67 660.54 753.00
  C 679.42 727.01 699.29 700.53 717.14 675.15
  Z
  M 1163.71 768.82
  C 1175.99 758.26 1186.26 744.67 1195.06 730.97
  Q 1203.97 717.10 1210.95 697.03
  Q 1217.52 678.14 1217.75 661.37
  Q 1218.19 630.45 1218.07 592.99
  Q 1218.04 580.73 1217.23 573.02
  C 1215.37 555.22 1209.07 537.19 1200.32 521.18
  Q 1195.49 512.35 1188.94 504.26
  Q 1153.81 460.90 1097.24 458.10
  Q 1093.64 457.93 1077.25 457.92
  Q 1030.37 457.92 983.00 457.83
  Q 969.39 457.81 963.03 458.58
  Q 943.56 460.95 925.81 470.24
  C 903.11 482.14 884.38 506.07 878.17 531.40
  Q 870.26 563.68 877.25 593.82
  C 881.60 612.56 889.65 629.81 900.53 645.94
  Q 933.05 694.12 973.77 749.25
  C 983.52 762.44 994.19 774.78 1008.00 783.49
  Q 1034.19 800.01 1065.62 802.36
  Q 1083.28 803.67 1096.80 801.11
  Q 1134.48 793.97 1163.71 768.82
  Z
  M 873.3020 483.6009
  A 1.44 0.35 116.3 0 0 874.2538 482.4651
  A 1.44 0.35 116.3 0 0 874.5780 481.0191
  A 1.44 0.35 116.3 0 0 873.6262 482.1549
  A 1.44 0.35 116.3 0 0 873.3020 483.6009
  Z"
/>
<path fill="#1b2241" d="
  M 717.14 675.15
  C 699.29 700.53 679.42 727.01 660.54 753.00
  Q 656.42 758.67 650.14 765.61
  Q 632.30 785.32 607.91 794.28
  Q 590.10 800.82 577.36 802.19
  C 561.97 803.84 544.91 803.14 529.62 799.15
  Q 499.18 791.22 476.11 770.98
  Q 438.38 737.89 424.46 689.37
  Q 419.86 673.31 419.72 655.75
  Q 419.47 625.05 419.49 589.33
  Q 419.50 578.06 420.60 570.29
  Q 423.72 548.10 432.89 530.14
  C 443.12 510.08 457.11 491.37 476.32 479.15
  C 493.28 468.35 512.80 460.30 532.82 458.57
  Q 542.61 457.73 554.67 457.75
  Q 611.69 457.89 665.49 458.05
  C 689.11 458.12 714.47 466.02 731.63 482.66
  C 753.47 503.84 765.57 532.43 765.52 563.03
  C 765.49 587.59 758.56 611.09 746.75 631.55
  C 738.18 646.41 727.14 660.92 717.14 675.15
  Z
  M 484.46 526.09
  Q 483.35 526.46 482.82 527.10
  Q 474.37 537.36 467.54 550.80
  Q 466.35 553.15 466.73 555.17
  Q 466.81 555.59 467.12 555.88
  Q 467.44 556.19 467.44 556.67
  Q 467.44 557.13 466.98 557.20
  Q 466.66 557.24 466.45 557.44
  Q 465.20 557.30 464.93 558.23
  Q 462.19 567.47 460.46 578.41
  Q 460.28 579.50 461.39 579.50
  L 672.38 579.73
  L 654.40 611.24
  L 460.50 611.34
  A 0.80 0.80 0.0 0 0 459.70 612.12
  Q 459.16 633.61 459.80 654.78
  C 460.10 664.60 461.50 674.39 464.92 683.56
  Q 466.63 688.12 468.17 692.08
  Q 473.05 704.62 481.73 717.05
  C 488.09 726.17 494.78 734.15 503.80 740.98
  C 508.04 744.19 512.85 747.66 517.60 750.00
  Q 530.01 756.11 538.08 758.39
  Q 554.40 762.98 573.13 760.77
  Q 577.08 759.69 580.62 758.93
  C 595.99 755.59 609.82 747.79 620.54 736.54
  Q 629.48 727.15 636.30 717.77
  Q 647.92 701.77 657.76 687.74
  Q 680.07 655.91 705.05 620.36
  Q 715.91 604.90 721.84 585.37
  Q 722.68 582.59 722.93 579.79
  Q 725.42 568.93 724.36 558.03
  Q 723.94 552.34 722.45 546.74
  Q 719.47 535.49 714.47 525.68
  C 706.37 511.47 692.44 501.99 676.73 499.75
  Q 672.72 499.18 656.74 499.18
  Q 601.24 499.17 545.74 499.26
  Q 535.36 499.28 530.78 499.98
  C 513.04 502.68 496.56 512.93 484.46 526.09
  Z"
/>
<path fill="#1b2241" d="
  M 1195.06 730.97
  C 1186.26 744.67 1175.99 758.26 1163.71 768.82
  Q 1134.48 793.97 1096.80 801.11
  Q 1083.28 803.67 1065.62 802.36
  Q 1034.19 800.01 1008.00 783.49
  C 994.19 774.78 983.52 762.44 973.77 749.25
  Q 933.05 694.12 900.53 645.94
  C 889.65 629.81 881.60 612.56 877.25 593.82
  Q 870.26 563.68 878.17 531.40
  C 884.38 506.07 903.11 482.14 925.81 470.24
  Q 943.56 460.95 963.03 458.58
  Q 969.39 457.81 983.00 457.83
  Q 1030.37 457.92 1077.25 457.92
  Q 1093.64 457.93 1097.24 458.10
  Q 1153.81 460.90 1188.94 504.26
  Q 1195.49 512.35 1200.32 521.18
  C 1209.07 537.19 1215.37 555.22 1217.23 573.02
  Q 1218.04 580.73 1218.07 592.99
  Q 1218.19 630.45 1217.75 661.37
  Q 1217.52 678.14 1210.95 697.03
  Q 1203.97 717.10 1195.06 730.97
  Z
  M 924.97 525.47
  C 922.33 527.64 920.26 533.92 919.12 537.12
  Q 915.69 546.79 914.36 557.76
  Q 913.97 567.45 915.11 577.69
  A 2.24 2.23 86.8 0 0 917.33 579.68
  Q 1015.75 579.82 1114.25 579.71
  Q 1122.06 579.70 1126.71 580.45
  Q 1130.60 585.68 1131.22 587.99
  Q 1132.13 591.38 1131.71 600.17
  C 1131.33 608.22 1124.98 610.84 1118.00 610.82
  Q 1073.75 610.69 1027.50 610.75
  Q 1024.61 610.76 1022.12 611.16
  L 929.08 611.14
  A 0.89 0.89 0.0 0 0 928.29 612.43
  Q 929.45 614.70 930.93 616.95
  C 937.80 627.36 945.38 637.50 952.12 647.74
  Q 965.62 668.27 979.91 688.06
  C 988.05 699.35 995.68 711.18 1004.01 721.96
  Q 1012.24 732.62 1022.76 742.27
  Q 1026.90 746.07 1032.83 749.43
  Q 1041.07 754.08 1045.73 756.10
  Q 1054.66 759.95 1065.82 761.13
  Q 1081.01 762.25 1093.76 759.37
  C 1113.68 754.88 1132.44 744.57 1146.24 729.23
  Q 1152.40 722.38 1156.41 716.34
  Q 1167.25 700.00 1173.26 680.03
  Q 1178.10 663.96 1178.29 649.75
  Q 1178.59 626.77 1177.56 584.75
  Q 1177.49 582.05 1177.22 580.05
  Q 1176.39 568.03 1172.35 557.22
  Q 1165.87 539.06 1153.69 525.60
  C 1139.90 511.97 1124.62 501.84 1105.23 499.58
  Q 1099.96 498.96 1087.18 499.00
  Q 1030.61 499.18 970.55 499.17
  C 952.66 499.16 935.22 509.02 925.51 523.98
  Q 925.21 524.45 924.97 525.47
  Z"
/>
<ellipse fill="#b7d3e8" cx="0.00" cy="0.00" transform="translate(873.94,482.31) rotate(116.3)" rx="1.44" ry="0.35"/>
<path fill="#fffcf2" d="
  M 1153.69 525.60
  L 1056.53 525.83
  Q 1005.71 526.13 926.00 526.02
  Q 925.03 526.02 924.97 525.47
  Q 925.21 524.45 925.51 523.98
  C 935.22 509.02 952.66 499.16 970.55 499.17
  Q 1030.61 499.18 1087.18 499.00
  Q 1099.96 498.96 1105.23 499.58
  C 1124.62 501.84 1139.90 511.97 1153.69 525.60
  Z"
/>
<path fill="#fffcf2" d="
  M 714.47 525.68
  L 701.90 525.90
  L 484.46 526.09
  C 496.56 512.93 513.04 502.68 530.78 499.98
  Q 535.36 499.28 545.74 499.26
  Q 601.24 499.17 656.74 499.18
  Q 672.72 499.18 676.73 499.75
  C 692.44 501.99 706.37 511.47 714.47 525.68
  Z"
/>
<path fill="#668fb5" d="
  M 1153.69 525.60
  Q 1165.87 539.06 1172.35 557.22
  Q 1171.40 557.39 1170.69 557.90
  Q 1170.28 558.19 1169.78 558.19
  L 1054.68 557.92
  Q 1055.08 555.21 1055.50 552.64
  Q 1055.91 550.13 1055.77 547.34
  Q 1055.25 537.10 1057.16 528.25
  Q 1057.50 526.67 1056.53 525.83
  L 1153.69 525.60
  Z"
/>
<path fill="#668fb5" d="
  M 714.47 525.68
  Q 719.47 535.49 722.45 546.74
  Q 723.94 552.34 724.36 558.03
  L 683.19 557.90
  Q 684.13 556.91 684.62 556.20
  C 688.36 550.79 691.75 544.18 694.63 539.32
  Q 698.43 532.90 701.90 525.90
  L 714.47 525.68
  Z"
/>
<path fill="#2d4264" d="
  M 924.97 525.47
  Q 925.03 526.02 926.00 526.02
  Q 1005.71 526.13 1056.53 525.83
  Q 1057.50 526.67 1057.16 528.25
  Q 1055.25 537.10 1055.77 547.34
  Q 1055.91 550.13 1055.50 552.64
  Q 1055.08 555.21 1054.68 557.92
  L 914.36 557.76
  Q 915.69 546.79 919.12 537.12
  C 920.26 533.92 922.33 527.64 924.97 525.47
  Z"
/>
<path fill="#2d4264" d="
  M 701.90 525.90
  Q 698.43 532.90 694.63 539.32
  C 691.75 544.18 688.36 550.79 684.62 556.20
  Q 684.13 556.91 683.19 557.90
  L 466.45 557.44
  Q 466.66 557.24 466.98 557.20
  Q 467.44 557.13 467.44 556.67
  Q 467.44 556.19 467.12 555.88
  Q 466.81 555.59 466.73 555.17
  Q 466.35 553.15 467.54 550.80
  Q 474.37 537.36 482.82 527.10
  Q 483.35 526.46 484.46 526.09
  L 701.90 525.90
  Z"
/>
<path fill="#fffcf2" d="
  M 914.36 557.76
  L 1054.68 557.92
  L 1169.78 558.19
  Q 1170.28 558.19 1170.69 557.90
  Q 1171.40 557.39 1172.35 557.22
  Q 1176.39 568.03 1177.22 580.05
  L 1126.71 580.45
  Q 1122.06 579.70 1114.25 579.71
  Q 1015.75 579.82 917.33 579.68
  A 2.24 2.23 86.8 0 1 915.11 577.69
  Q 913.97 567.45 914.36 557.76
  Z"
/>
<path fill="#fffcf2" d="
  M 466.45 557.44
  L 683.19 557.90
  L 724.36 558.03
  Q 725.42 568.93 722.93 579.79
  L 672.38 579.73
  L 461.39 579.50
  Q 460.28 579.50 460.46 578.41
  Q 462.19 567.47 464.93 558.23
  Q 465.20 557.30 466.45 557.44
  Z"
/>
<path fill="#668fb5" d="
  M 672.38 579.73
  L 722.93 579.79
  Q 722.68 582.59 721.84 585.37
  Q 715.91 604.90 705.05 620.36
  Q 680.07 655.91 657.76 687.74
  Q 647.92 701.77 636.30 717.77
  Q 629.48 727.15 620.54 736.54
  C 609.82 747.79 595.99 755.59 580.62 758.93
  Q 577.08 759.69 573.13 760.77
  Q 573.68 756.97 575.21 754.22
  C 580.62 744.48 585.50 734.78 590.60 725.83
  C 603.65 702.96 616.41 679.71 628.29 657.78
  C 631.50 651.85 635.18 645.94 638.52 639.80
  C 643.78 630.11 649.19 621.01 654.40 611.24
  L 672.38 579.73
  Z"
/>
<path fill="#668fb5" d="
  M 1177.22 580.05
  Q 1177.49 582.05 1177.56 584.75
  Q 1178.59 626.77 1178.29 649.75
  Q 1178.10 663.96 1173.26 680.03
  Q 1167.25 700.00 1156.41 716.34
  Q 1152.40 722.38 1146.24 729.23
  C 1132.44 744.57 1113.68 754.88 1093.76 759.37
  Q 1081.01 762.25 1065.82 761.13
  Q 1069.11 752.80 1067.86 744.76
  Q 1066.73 737.53 1064.34 731.76
  Q 1059.09 719.10 1050.32 703.60
  C 1044.53 693.37 1039.10 682.87 1034.17 672.60
  Q 1025.95 655.50 1023.25 642.26
  Q 1020.56 629.01 1022.12 611.16
  Q 1024.61 610.76 1027.50 610.75
  Q 1073.75 610.69 1118.00 610.82
  C 1124.98 610.84 1131.33 608.22 1131.71 600.17
  Q 1132.13 591.38 1131.22 587.99
  Q 1130.60 585.68 1126.71 580.45
  L 1177.22 580.05
  Z"
/>
<path fill="#2d4264" d="
  M 654.40 611.24
  C 649.19 621.01 643.78 630.11 638.52 639.80
  C 635.18 645.94 631.50 651.85 628.29 657.78
  C 616.41 679.71 603.65 702.96 590.60 725.83
  C 585.50 734.78 580.62 744.48 575.21 754.22
  Q 573.68 756.97 573.13 760.77
  Q 554.40 762.98 538.08 758.39
  Q 530.01 756.11 517.60 750.00
  C 512.85 747.66 508.04 744.19 503.80 740.98
  C 494.78 734.15 488.09 726.17 481.73 717.05
  Q 473.05 704.62 468.17 692.08
  Q 466.63 688.12 464.92 683.56
  C 461.50 674.39 460.10 664.60 459.80 654.78
  Q 459.16 633.61 459.70 612.12
  A 0.80 0.80 0.0 0 1 460.50 611.34
  L 654.40 611.24
  Z"
/>
<path fill="#2d4264" d="
  M 1022.12 611.16
  Q 1020.56 629.01 1023.25 642.26
  Q 1025.95 655.50 1034.17 672.60
  C 1039.10 682.87 1044.53 693.37 1050.32 703.60
  Q 1059.09 719.10 1064.34 731.76
  Q 1066.73 737.53 1067.86 744.76
  Q 1069.11 752.80 1065.82 761.13
  Q 1054.66 759.95 1045.73 756.10
  Q 1041.07 754.08 1032.83 749.43
  Q 1026.90 746.07 1022.76 742.27
  Q 1012.24 732.62 1004.01 721.96
  C 995.68 711.18 988.05 699.35 979.91 688.06
  Q 965.62 668.27 952.12 647.74
  C 945.38 637.50 937.80 627.36 930.93 616.95
  Q 929.45 614.70 928.29 612.43
  A 0.89 0.89 0.0 0 1 929.08 611.14
  L 1022.12 611.16
  Z"
/>
<path fill="#fffcf2" d="
  M 889.28 809.48
  Q 887.25 810.54 886.11 813.02
  C 884.31 816.90 882.72 820.91 880.12 824.20
  C 875.59 829.94 870.31 835.52 863.93 839.24
  C 856.86 843.36 850.48 846.35 842.15 848.00
  C 835.87 849.25 828.64 849.23 822.35 848.65
  Q 812.14 847.71 802.29 841.86
  Q 795.17 837.64 788.60 830.22
  C 784.07 825.10 780.63 816.60 779.34 810.28
  Q 777.63 801.93 777.41 789.81
  C 777.34 785.66 777.95 781.48 778.20 777.28
  Q 778.43 773.50 779.74 768.04
  Q 780.98 762.83 782.05 757.27
  Q 792.77 738.78 799.34 730.85
  Q 808.10 720.26 822.35 721.41
  Q 831.87 722.19 838.67 729.95
  Q 844.80 736.94 848.94 743.51
  Q 862.84 765.57 878.06 788.18
  Q 884.83 798.24 889.28 809.48
  Z"
/>
<path fill="#b7d3e8" d="
  M 782.05 757.27
  Q 780.98 762.83 779.74 768.04
  Q 778.43 773.50 778.20 777.28
  C 777.95 781.48 777.34 785.66 777.41 789.81
  Q 777.63 801.93 779.34 810.28
  C 780.63 816.60 784.07 825.10 788.60 830.22
  Q 795.17 837.64 802.29 841.86
  Q 812.14 847.71 822.35 848.65
  C 828.64 849.23 835.87 849.25 842.15 848.00
  C 850.48 846.35 856.86 843.36 863.93 839.24
  C 870.31 835.52 875.59 829.94 880.12 824.20
  C 882.72 820.91 884.31 816.90 886.11 813.02
  Q 887.25 810.54 889.28 809.48
  C 891.40 813.20 890.98 818.91 890.12 823.00
  Q 885.49 844.89 869.54 858.60
  Q 852.82 872.98 832.61 876.45
  C 812.09 879.99 790.63 875.10 773.74 863.20
  C 758.54 852.50 748.11 836.14 746.64 817.76
  Q 746.41 814.96 747.69 812.13
  Q 750.93 804.95 755.47 797.76
  Q 764.01 784.25 772.58 770.79
  Q 776.75 764.24 782.05 757.27
  Z"
/>
<path fill="#ffffff" d="
  M 1002.08 1124.63
  Q 1002.05 1123.39 1000.83 1123.64
  Q 996.77 1124.46 992.36 1125.44
  C 985.04 1127.05 977.80 1127.13 970.27 1126.78
  Q 967.12 1126.64 964.31 1125.84
  C 961.75 1125.12 959.16 1124.90 956.65 1124.11
  Q 930.98 1115.98 915.27 1094.10
  Q 903.34 1077.48 901.30 1058.39
  Q 900.50 1050.92 900.77 1042.65
  C 901.34 1024.78 909.70 1006.97 921.99 994.59
  C 936.84 979.65 954.55 970.72 975.32 970.96
  Q 981.52 971.04 987.81 971.25
  C 998.11 971.59 1008.11 974.81 1017.12 980.25
  C 1021.23 982.73 1024.65 985.91 1027.86 989.41
  A 0.68 0.68 0.0 0 1 1027.90 990.28
  Q 1021.49 998.87 1014.19 1006.31
  A 1.59 1.59 0.0 0 1 1012.27 1006.59
  C 1008.44 1004.44 1005.09 1001.87 1000.82 1000.34
  Q 993.89 997.86 989.27 997.23
  C 982.44 996.30 973.62 996.37 966.48 998.01
  Q 946.50 1002.59 934.60 1020.68
  C 931.00 1026.16 929.58 1031.74 927.77 1037.89
  C 926.73 1041.41 926.92 1044.31 926.74 1047.81
  C 925.88 1065.20 936.10 1083.31 951.11 1092.36
  C 961.67 1098.73 976.37 1103.62 988.27 1100.35
  Q 993.77 1098.84 999.26 1096.55
  C 1002.69 1095.12 1002.98 1092.17 1003.01 1088.93
  Q 1003.10 1078.80 1003.07 1066.24
  C 1003.06 1064.88 1002.58 1063.97 1002.19 1062.73
  Q 1002.03 1062.24 1001.58 1061.99
  Q 999.59 1060.93 997.37 1060.94
  Q 982.27 1060.97 966.98 1060.85
  A 1.91 1.90 0.2 0 1 965.08 1058.95
  L 965.12 1039.05
  A 1.93 1.93 0.0 0 1 967.02 1037.12
  Q 973.07 1037.01 978.59 1036.94
  C 980.15 1036.92 981.56 1036.38 983.11 1036.37
  Q 1002.54 1036.15 1022.77 1036.18
  Q 1023.26 1036.18 1023.67 1036.46
  C 1024.44 1036.99 1025.68 1036.93 1026.16 1037.63
  Q 1026.68 1038.39 1026.68 1040.00
  Q 1026.72 1073.74 1026.62 1107.49
  Q 1026.59 1116.43 1026.22 1126.51
  Q 1025.89 1135.52 1025.73 1145.39
  Q 1025.57 1154.70 1020.10 1164.28
  C 1011.76 1178.92 996.25 1185.63 980.68 1176.89
  Q 979.05 1175.97 979.04 1174.14
  Q 978.99 1166.41 979.09 1159.30
  Q 979.12 1157.15 981.27 1157.20
  Q 986.04 1157.31 990.52 1157.10
  C 996.70 1156.82 1000.43 1150.11 1001.11 1144.51
  Q 1002.34 1134.41 1002.08 1124.63
  Z"
/>
<path fill="#ffffff" d="
  M 1193.27 1011.90
  C 1196.02 1017.44 1198.95 1023.51 1200.16 1029.58
  Q 1201.47 1036.10 1202.29 1042.94
  C 1203.18 1050.27 1202.12 1057.03 1201.11 1064.30
  C 1199.58 1075.38 1194.72 1086.48 1188.44 1095.83
  Q 1183.01 1103.94 1174.81 1110.46
  Q 1151.83 1128.76 1121.52 1126.63
  Q 1118.63 1126.43 1116.10 1125.56
  C 1113.76 1124.76 1111.38 1124.86 1108.98 1124.17
  Q 1081.69 1116.26 1065.71 1093.04
  Q 1055.48 1078.16 1053.56 1063.14
  C 1052.72 1056.55 1052.17 1050.02 1052.59 1043.20
  Q 1052.97 1036.90 1053.75 1031.13
  C 1055.33 1019.33 1062.01 1007.77 1069.95 998.13
  Q 1082.65 982.72 1103.47 975.13
  Q 1108.14 973.42 1112.76 972.92
  C 1116.04 972.57 1118.85 971.48 1122.24 971.33
  Q 1129.49 971.01 1134.77 971.71
  C 1139.84 972.39 1145.17 973.22 1150.12 974.78
  Q 1169.19 980.80 1182.45 995.99
  Q 1189.24 1003.76 1193.27 1011.90
  Z
  M 1111.72 999.57
  C 1095.39 1004.76 1085.18 1018.43 1080.28 1034.24
  Q 1078.76 1039.15 1078.63 1045.00
  Q 1078.41 1055.00 1078.97 1057.90
  Q 1084.30 1085.56 1109.11 1096.12
  Q 1114.72 1098.50 1122.40 1100.02
  Q 1128.54 1101.24 1133.81 1100.24
  C 1154.75 1096.29 1169.73 1083.74 1174.71 1062.22
  Q 1176.53 1054.32 1176.64 1049.00
  Q 1177.04 1029.98 1163.80 1014.37
  C 1155.63 1004.74 1143.83 999.03 1131.16 997.18
  C 1124.44 996.19 1118.00 997.57 1111.72 999.57
  Z"
/>
<path fill="#ffffff" d="
  M 489.05 976.07
  A 3.87 3.87 0.0 0 1 492.92 972.20
  L 535.42 972.20
  A 76.63 75.56 -0.0 0 1 612.05 1047.76
  L 612.05 1050.40
  A 76.63 75.56 -0.0 0 1 535.42 1125.96
  L 492.92 1125.96
  A 3.87 3.87 0.0 0 1 489.05 1122.09
  L 489.05 976.07
  Z
  M 574.98 1018.04
  C 565.46 1004.63 547.65 998.68 531.30 998.88
  Q 523.95 998.97 517.64 998.91
  Q 514.99 998.88 514.99 1001.53
  Q 514.97 1013.80 515.07 1025.76
  C 515.09 1028.19 515.71 1030.50 515.73 1032.96
  Q 515.80 1050.54 515.73 1069.02
  C 515.71 1074.97 514.93 1080.69 515.04 1086.63
  C 515.12 1090.76 514.82 1094.70 515.97 1098.59
  A 0.51 0.50 -6.9 0 0 516.45 1098.96
  Q 524.00 1099.14 533.94 1099.14
  C 549.68 1099.15 566.56 1093.63 575.63 1080.19
  Q 581.79 1071.06 583.99 1064.10
  C 589.05 1048.08 584.50 1031.44 574.98 1018.04
  Z"
/>
<rect fill="#ffffff" x="644.10" y="972.10" width="24.72" height="153.80" rx="3.95"/>
<path fill="#ffffff" d="
  M 856.41 1099.07
  C 858.32 1099.28 859.91 1100.06 861.86 1100.06
  Q 876.70 1100.06 891.79 1100.17
  C 893.16 1100.17 894.38 1100.69 895.58 1101.21
  A 1.95 1.95 0.0 0 1 896.75 1103.00
  L 896.70 1122.51
  A 3.45 3.45 0.0 0 1 893.24 1125.96
  Q 870.14 1125.93 844.23 1125.64
  C 840.59 1125.60 837.06 1124.72 833.42 1124.97
  A 2.18 2.17 88.0 0 1 831.10 1122.79
  L 831.11 975.54
  A 3.36 3.35 90.0 0 1 834.46 972.18
  L 890.95 972.18
  A 3.76 3.75 -0.2 0 1 894.71 975.90
  Q 894.78 983.71 894.58 991.73
  C 894.52 994.06 893.67 997.71 890.47 997.75
  Q 874.27 997.95 859.11 997.84
  Q 857.21 997.83 856.05 999.14
  A 1.08 1.08 0.0 0 0 855.77 999.96
  C 855.97 1002.46 854.94 1004.48 855.25 1006.98
  Q 856.26 1014.93 855.30 1024.08
  C 854.93 1027.54 855.73 1030.84 855.83 1034.27
  A 0.91 0.91 0.0 0 0 856.74 1035.16
  L 867.09 1035.21
  A 1.89 1.88 0.2 0 1 868.97 1037.09
  L 868.93 1058.42
  A 3.37 3.37 0.0 0 1 865.58 1061.78
  L 858.70 1061.81
  A 2.99 2.99 0.0 0 0 855.72 1064.80
  L 855.71 1098.29
  Q 855.71 1098.99 856.41 1099.07
  Z"
/>
<path fill="#ffffff" d="
  M 752.03 1064.26
  Q 754.43 1064.10 755.55 1061.26
  Q 768.55 1028.35 776.39 1008.94
  C 779.20 1001.97 782.45 995.02 785.13 987.97
  Q 787.85 980.83 791.14 974.54
  Q 791.92 973.04 793.63 973.01
  Q 803.14 972.85 814.33 973.11
  A 1.36 1.36 0.0 0 1 815.59 974.89
  Q 814.17 979.26 812.30 983.77
  C 800.82 1011.59 789.67 1040.47 778.34 1068.95
  Q 775.07 1077.18 771.25 1085.89
  C 765.71 1098.50 760.39 1111.26 754.00 1123.33
  Q 753.35 1124.57 752.22 1123.72
  C 749.09 1121.35 747.28 1116.27 745.69 1112.56
  Q 727.09 1069.30 705.26 1015.75
  Q 696.91 995.27 688.17 975.79
  A 1.79 1.79 0.0 0 1 688.73 973.62
  Q 690.17 972.54 691.99 972.66
  Q 700.74 973.25 710.46 972.57
  C 713.30 972.37 715.42 976.41 716.48 978.76
  Q 720.20 986.99 723.38 995.49
  Q 726.57 1004.03 729.32 1010.88
  C 732.06 1017.69 734.70 1024.50 737.64 1031.29
  Q 740.82 1038.65 743.50 1045.35
  C 746.03 1051.69 749.02 1057.70 751.45 1063.89
  Q 751.61 1064.28 752.03 1064.26
  Z"
/>
<path fill="#1b2241" d="
  M 1080.28 1034.24
  C 1085.18 1018.43 1095.39 1004.76 1111.72 999.57
  C 1118.00 997.57 1124.44 996.19 1131.16 997.18
  C 1143.83 999.03 1155.63 1004.74 1163.80 1014.37
  Q 1177.04 1029.98 1176.64 1049.00
  Q 1176.53 1054.32 1174.71 1062.22
  C 1169.73 1083.74 1154.75 1096.29 1133.81 1100.24
  Q 1128.54 1101.24 1122.40 1100.02
  Q 1114.72 1098.50 1109.11 1096.12
  Q 1084.30 1085.56 1078.97 1057.90
  Q 1078.41 1055.00 1078.63 1045.00
  Q 1078.76 1039.15 1080.28 1034.24
  Z"
/>
<path fill="#1b2241" d="
  M 574.98 1018.04
  C 584.50 1031.44 589.05 1048.08 583.99 1064.10
  Q 581.79 1071.06 575.63 1080.19
  C 566.56 1093.63 549.68 1099.15 533.94 1099.14
  Q 524.00 1099.14 516.45 1098.96
  A 0.51 0.50 -6.9 0 1 515.97 1098.59
  C 514.82 1094.70 515.12 1090.76 515.04 1086.63
  C 514.93 1080.69 515.71 1074.97 515.73 1069.02
  Q 515.80 1050.54 515.73 1032.96
  C 515.71 1030.50 515.09 1028.19 515.07 1025.76
  Q 514.97 1013.80 514.99 1001.53
  Q 514.99 998.88 517.64 998.91
  Q 523.95 998.97 531.30 998.88
  C 547.65 998.68 565.46 1004.63 574.98 1018.04
  Z"
/>
</svg>
