<?xml version="1.0" encoding="UTF-8" standalone="no"?>
<!DOCTYPE svg PUBLIC "-//W3C//DTD SVG 1.1//EN" "http://www.w3.org/Graphics/SVG/1.1/DTD/svg11.dtd">
<svg xmlns="http://www.w3.org/2000/svg" version="1.1" viewBox="0.00 0.00 1094.00 1366.00">
<path d="
  M 251.89 340.33
  C 252.02 339.05 252.74 338.42 253.04 337.20
  Q 253.69 334.51 254.41 331.87
  Q 266.49 287.63 281.31 240.68
  Q 281.46 240.19 282.31 236.77
  Q 282.80 234.79 283.66 232.93
  Q 283.86 232.48 283.86 231.98
  Q 283.85 231.19 284.14 230.49
  Q 284.46 229.72 284.71 228.89
  Q 288.74 215.57 292.53 202.84
  Q 293.50 199.57 294.08 196.79
  C 294.24 196.01 294.75 195.62 294.96 194.80
  Q 295.58 192.44 296.41 190.09
  C 297.21 187.78 297.12 185.39 298.34 183.26
  Q 298.96 182.16 299.16 180.89
  Q 299.44 179.06 300.23 177.28
  Q 300.88 175.80 301.36 174.03
  Q 303.05 167.76 305.43 161.54
  Q 305.85 160.44 305.94 159.34
  C 306.03 158.25 306.73 157.59 307.06 156.53
  Q 311.32 142.90 313.92 136.25
  Q 315.70 131.70 318.94 126.80
  Q 321.95 122.25 325.60 118.10
  Q 336.89 105.23 353.02 100.43
  Q 357.20 99.19 360.78 98.92
  Q 362.73 98.77 364.66 98.33
  Q 366.95 97.80 369.13 98.29
  Q 370.54 98.61 372.01 98.80
  C 374.05 99.06 375.95 99.52 377.94 99.78
  Q 379.93 100.05 381.98 100.76
  Q 383.98 101.46 385.98 102.11
  Q 393.99 104.72 401.26 110.31
  Q 416.03 121.68 423.32 138.89
  Q 425.79 144.73 427.79 152.17
  C 428.16 153.54 428.01 154.84 428.68 156.15
  C 429.28 157.33 428.84 158.69 429.29 159.57
  C 429.46 159.89 429.69 160.15 429.78 160.50
  Q 431.76 168.67 434.31 177.04
  Q 434.71 178.34 435.42 181.68
  C 435.85 183.69 436.83 185.59 437.16 187.64
  Q 437.71 191.14 438.58 193.90
  Q 439.69 197.47 440.07 200.74
  C 440.25 202.29 441.08 203.44 441.10 204.87
  Q 441.11 205.74 441.33 206.60
  Q 443.14 213.60 444.28 220.75
  C 444.38 221.36 444.87 221.94 444.95 222.61
  Q 445.22 225.17 445.95 228.09
  Q 446.68 231.00 447.27 233.88
  Q 447.83 236.59 448.62 239.55
  Q 450.30 245.83 452.06 254.44
  Q 452.54 256.73 453.16 259.02
  C 453.79 261.37 453.77 264.09 454.77 266.30
  C 455.30 267.46 454.98 268.64 455.37 269.90
  Q 455.92 271.69 456.04 273.54
  C 456.16 275.56 457.33 276.88 457.13 279.02
  A 1.29 1.28 -60.7 0 0 457.38 279.92
  Q 457.64 280.27 457.66 280.71
  C 457.79 283.34 458.62 285.59 459.10 288.11
  Q 459.70 291.26 460.25 294.51
  C 460.49 295.94 461.23 297.10 461.13 298.62
  Q 461.07 299.52 461.26 300.42
  Q 463.89 312.94 466.29 325.65
  Q 466.49 326.72 466.89 327.75
  C 467.24 328.64 467.03 329.69 467.24 330.67
  Q 469.02 339.14 470.14 347.16
  Q 470.31 348.41 470.85 349.68
  C 471.31 350.75 471.00 352.18 471.22 353.39
  Q 472.07 358.13 472.28 362.01
  Q 472.30 362.35 472.49 362.60
  Q 472.80 362.99 472.87 363.49
  Q 473.58 368.23 474.16 373.21
  C 474.35 374.87 475.19 376.29 475.14 377.93
  Q 475.11 378.83 475.37 379.80
  Q 475.91 381.87 476.16 384.00
  Q 476.35 385.54 476.82 386.95
  C 477.28 388.30 476.95 389.53 477.35 390.92
  Q 478.12 393.62 478.26 396.77
  Q 478.29 397.30 478.56 397.75
  C 479.31 399.00 478.99 400.33 479.30 401.71
  C 479.90 404.37 479.94 407.08 480.85 409.67
  C 481.29 410.92 481.02 412.34 481.32 413.75
  Q 482.09 417.33 482.30 421.00
  Q 482.32 421.35 482.50 421.65
  Q 482.74 422.03 482.81 422.48
  Q 483.82 428.47 484.36 434.20
  Q 484.39 434.54 484.60 434.82
  Q 484.90 435.23 484.96 435.75
  Q 485.60 441.73 486.14 447.85
  Q 486.33 449.90 486.89 452.06
  C 487.35 453.87 486.96 455.94 487.31 457.95
  C 487.93 461.41 487.91 464.88 488.81 468.28
  C 489.28 470.06 488.99 471.92 489.30 473.81
  C 489.87 477.29 489.80 481.24 490.84 484.63
  Q 491.18 485.75 491.11 487.02
  Q 491.05 488.18 491.21 489.43
  Q 491.88 494.77 492.29 499.90
  Q 492.40 501.24 492.84 502.53
  C 493.21 503.62 493.03 504.90 493.20 506.09
  Q 493.92 511.44 494.31 517.04
  Q 494.39 518.22 494.79 519.31
  C 495.41 520.97 494.89 523.11 495.16 524.87
  Q 495.60 527.59 495.60 527.67
  Q 496.11 533.03 496.38 538.24
  Q 496.39 538.47 496.67 538.91
  Q 496.84 539.18 496.86 539.52
  Q 497.62 550.92 498.28 561.53
  C 498.39 563.34 498.81 564.94 498.90 566.74
  Q 500.09 591.72 500.50 618.75
  C 500.52 619.89 501.05 620.83 501.05 622.08
  Q 501.19 785.46 501.01 1112.89
  C 501.01 1114.25 500.50 1115.37 500.45 1116.63
  Q 500.12 1124.71 499.65 1132.97
  Q 499.62 1133.54 499.32 1134.04
  Q 499.05 1134.50 499.10 1135.03
  C 499.36 1137.58 498.30 1139.57 498.13 1142.00
  Q 497.98 1144.25 497.48 1146.41
  C 495.12 1156.65 492.56 1166.85 488.37 1176.32
  Q 485.73 1182.29 482.66 1188.69
  Q 482.52 1188.98 482.19 1188.98
  L 212.01 1189.00
  A 1.01 1.01 0.0 0 1 211.00 1187.99
  Q 211.02 852.75 210.99 517.57
  C 210.99 515.29 211.76 513.58 211.94 511.43
  Q 212.03 510.28 212.43 509.12
  Q 213.69 505.42 214.02 501.50
  C 214.06 501.02 214.59 500.54 214.71 499.94
  Q 215.57 495.69 216.21 491.40
  Q 216.23 491.22 216.37 491.11
  Q 216.47 491.03 216.56 490.93
  Q 216.62 490.86 216.64 490.77
  Q 217.94 483.57 219.64 476.13
  C 219.93 474.85 219.74 473.22 220.20 472.19
  C 221.08 470.25 221.33 467.32 221.73 465.11
  Q 222.29 462.02 223.01 458.99
  Q 223.50 456.98 223.84 454.84
  C 224.46 450.98 225.77 447.50 226.05 443.60
  Q 226.07 443.25 226.25 442.96
  Q 226.46 442.63 226.54 442.23
  Q 228.03 434.74 229.60 429.51
  C 229.99 428.25 229.92 427.19 230.32 425.87
  Q 231.38 422.40 232.04 418.53
  Q 232.24 417.34 232.62 416.02
  Q 233.01 414.69 233.19 413.48
  Q 233.62 410.61 234.43 407.93
  Q 235.16 405.53 235.64 402.99
  Q 236.02 401.03 236.61 399.12
  Q 237.23 397.12 237.63 394.99
  Q 238.04 392.78 238.81 390.64
  Q 239.38 389.07 239.68 387.48
  Q 239.96 386.01 240.42 384.65
  Q 241.22 382.30 241.67 379.76
  Q 241.98 377.98 242.60 376.39
  Q 243.34 374.50 243.66 372.61
  Q 243.91 371.16 244.39 369.89
  C 245.17 367.84 245.36 365.81 246.02 363.73
  Q 246.58 361.99 247.00 360.20
  Q 249.09 351.43 251.42 342.83
  Q 251.77 341.51 251.89 340.33
  Z
  M 291.73 352.64
  C 290.76 353.08 290.19 354.24 289.76 355.16
  Q 288.24 358.44 287.88 361.99
  Q 287.83 362.47 287.61 362.91
  Q 287.29 363.55 287.11 364.24
  Q 282.07 384.00 278.83 402.02
  Q 273.72 430.47 269.39 459.07
  C 269.07 461.20 269.07 463.37 268.53 465.41
  C 267.87 467.91 268.36 470.39 267.61 472.78
  Q 267.16 474.25 267.14 475.79
  Q 267.08 479.50 266.44 483.13
  C 265.97 485.71 265.96 488.34 265.85 490.97
  Q 265.83 491.47 265.55 491.90
  Q 265.10 492.59 265.11 492.99
  Q 265.31 498.09 264.53 503.11
  C 264.06 506.10 264.09 508.75 263.96 511.69
  C 263.87 513.78 263.10 515.62 263.12 517.75
  Q 263.15 522.08 262.85 526.76
  C 262.20 537.06 262.42 547.42 262.28 557.75
  Q 262.13 568.97 262.13 577.75
  Q 262.11 862.15 262.03 1146.54
  C 262.03 1150.81 262.59 1153.96 267.50 1153.96
  Q 352.88 1153.97 438.27 1154.03
  Q 438.83 1154.03 439.22 1153.63
  Q 439.89 1152.95 440.88 1152.91
  Q 441.63 1152.88 441.33 1152.20
  Q 440.99 1151.44 441.76 1151.11
  Q 442.31 1150.88 442.33 1150.28
  C 442.54 1141.98 442.17 1131.83 442.15 1125.57
  C 442.09 1103.41 442.16 1081.06 442.24 1058.51
  Q 442.81 899.58 442.48 718.50
  Q 442.46 708.34 442.48 698.50
  Q 442.78 589.75 443.08 481.00
  Q 443.11 470.86 442.11 460.04
  Q 441.73 455.90 441.75 449.91
  Q 441.75 449.49 441.54 449.14
  Q 441.45 448.99 441.37 448.85
  Q 441.18 448.52 441.17 448.14
  C 441.00 443.18 441.17 438.41 440.34 433.45
  Q 439.73 429.86 439.75 425.94
  Q 439.76 425.42 439.47 424.92
  Q 439.23 424.49 439.19 424.00
  C 438.99 420.83 439.11 417.70 438.42 414.52
  Q 437.90 412.06 437.83 409.56
  C 437.79 407.68 437.10 406.09 437.00 404.17
  Q 436.90 402.20 436.51 400.09
  C 435.51 394.70 434.76 389.37 433.60 384.00
  Q 430.83 371.20 427.81 358.25
  Q 427.57 357.20 426.39 353.97
  C 425.80 352.35 424.85 351.64 423.24 351.33
  Q 419.42 350.59 415.94 352.05
  Q 415.51 352.23 415.26 352.63
  Q 413.77 355.08 413.78 357.79
  C 413.79 358.47 413.53 358.77 413.31 359.35
  Q 413.16 359.73 413.17 360.14
  Q 413.19 361.80 412.63 364.46
  Q 410.57 374.25 406.81 382.54
  Q 400.86 395.69 389.51 404.79
  C 384.55 408.76 378.92 411.28 372.87 412.80
  Q 371.33 413.19 369.84 413.58
  C 367.69 414.15 365.78 413.96 363.76 414.60
  C 361.30 415.39 358.31 415.13 355.71 415.09
  Q 353.26 415.05 350.85 414.47
  Q 348.56 413.92 346.32 413.55
  Q 344.30 413.21 342.05 412.34
  C 329.99 407.63 318.56 397.51 312.06 386.27
  Q 308.87 380.75 306.50 374.74
  Q 305.97 373.38 305.61 371.44
  Q 305.30 369.77 304.81 368.04
  Q 304.06 365.43 303.81 362.98
  Q 303.38 358.75 302.45 354.44
  A 2.92 2.91 -85.8 0 0 300.64 352.34
  Q 296.12 350.61 291.73 352.64
  Z"
/>
<path d="
  M 848.82 497.26
  C 848.85 497.61 849.03 497.96 849.28 498.20
  A 1.13 1.12 -71.4 0 1 849.60 498.85
  Q 850.25 503.78 850.78 505.75
  Q 852.14 510.76 852.66 515.73
  Q 852.82 517.21 853.39 518.51
  Q 854.00 519.90 854.00 521.38
  Q 854.00 854.90 853.99 1188.07
  A 0.93 0.93 0.0 0 1 853.06 1189.00
  L 580.23 1188.99
  A 0.91 0.88 -12.4 0 1 579.42 1188.49
  Q 576.26 1181.86 573.63 1174.50
  Q 571.03 1167.23 569.80 1162.21
  Q 565.80 1145.90 565.24 1140.72
  Q 564.60 1134.79 563.81 1128.43
  Q 563.18 1123.31 563.12 1118.96
  Q 563.04 1114.21 563.03 1109.71
  Q 563.03 1109.29 562.91 1108.90
  Q 562.79 1108.53 562.79 1108.18
  Q 562.64 922.78 562.61 759.40
  Q 562.60 699.10 562.94 646.41
  Q 563.04 630.75 563.46 615.76
  C 563.48 614.97 563.82 614.54 563.82 613.76
  C 563.79 607.17 563.77 600.83 564.22 594.17
  Q 564.71 586.93 564.69 579.04
  Q 564.69 578.60 564.85 578.19
  Q 565.03 577.71 565.04 577.19
  Q 565.13 568.17 566.11 559.11
  C 566.48 555.67 566.47 552.31 566.83 548.91
  Q 567.15 545.96 567.25 543.09
  Q 567.34 540.54 567.63 537.93
  Q 568.64 528.99 569.16 520.10
  Q 569.38 516.24 569.97 512.08
  Q 570.50 508.30 570.91 504.16
  Q 572.79 485.17 576.27 460.27
  C 576.76 456.73 576.99 453.14 577.65 449.61
  Q 578.52 444.96 579.03 440.54
  Q 579.43 437.02 580.06 433.50
  Q 580.69 430.01 581.06 426.31
  Q 581.38 423.11 582.04 420.24
  C 582.64 417.62 582.67 414.92 583.07 412.23
  Q 585.11 398.41 587.34 384.77
  Q 588.07 380.30 588.72 376.05
  Q 589.21 372.87 589.83 370.32
  Q 590.53 367.41 590.94 364.61
  Q 591.71 359.42 593.10 353.63
  Q 593.23 353.08 593.34 352.53
  Q 594.52 346.85 595.33 341.51
  Q 595.37 341.27 595.53 341.02
  Q 595.67 340.79 595.72 340.53
  Q 599.06 321.48 602.57 300.67
  Q 604.94 286.61 607.72 273.89
  Q 608.14 271.95 608.46 270.07
  Q 608.73 268.48 609.15 266.94
  Q 609.58 265.35 609.94 263.76
  Q 612.56 252.31 614.98 241.74
  Q 617.20 232.01 619.64 221.06
  Q 623.06 205.72 626.53 191.52
  Q 626.58 191.31 626.70 191.17
  Q 626.82 191.02 626.87 190.84
  Q 630.24 177.31 632.95 164.47
  Q 633.13 163.61 633.32 162.77
  Q 635.54 152.90 637.93 143.86
  Q 638.17 142.98 638.55 142.26
  Q 638.94 141.51 639.19 140.71
  Q 640.79 135.55 643.86 130.24
  Q 655.66 109.81 676.51 101.78
  Q 677.75 101.30 678.85 101.19
  C 679.93 101.08 680.32 100.38 681.44 100.14
  Q 685.30 99.33 689.05 99.10
  Q 689.54 99.07 689.93 98.84
  Q 690.18 98.68 690.44 98.54
  Q 690.65 98.42 690.91 98.40
  Q 695.95 97.87 701.20 98.42
  Q 701.49 98.45 701.71 98.60
  Q 701.83 98.69 701.95 98.79
  Q 702.24 99.02 702.61 99.07
  Q 706.00 99.45 709.55 99.99
  C 711.44 100.28 712.81 101.29 714.70 101.63
  Q 715.83 101.83 716.88 102.26
  Q 720.02 103.55 722.53 104.87
  Q 728.93 108.25 735.96 115.68
  Q 737.36 117.16 738.44 118.63
  Q 739.57 120.17 740.76 121.69
  Q 748.18 131.21 751.91 142.73
  Q 754.01 149.20 755.90 155.74
  Q 758.37 164.26 761.31 173.91
  Q 763.89 182.38 766.67 190.18
  Q 769.70 198.70 771.88 206.50
  Q 775.45 219.24 779.13 231.84
  Q 780.94 238.02 782.79 243.58
  Q 784.75 249.47 786.44 255.31
  Q 789.26 265.05 792.05 275.38
  Q 793.11 279.33 794.28 283.03
  Q 795.50 286.86 796.31 290.74
  Q 796.63 292.29 797.31 293.73
  C 797.93 295.05 797.83 296.33 798.36 297.70
  Q 799.41 300.48 800.19 303.31
  C 800.73 305.30 801.60 306.97 802.08 308.96
  Q 803.80 316.21 805.86 323.15
  Q 807.86 329.88 809.51 335.89
  Q 811.34 342.59 813.09 348.70
  Q 813.70 350.80 814.16 352.87
  C 814.59 354.79 815.39 356.56 815.83 358.44
  Q 816.38 360.80 817.10 362.83
  Q 817.65 364.41 818.16 367.07
  Q 818.59 369.34 819.58 371.26
  Q 819.84 371.76 819.81 372.31
  Q 819.72 373.83 820.23 375.14
  C 820.82 376.67 820.56 378.23 821.32 379.64
  C 822.55 381.93 822.38 385.16 823.28 387.69
  Q 824.40 390.86 824.83 394.25
  Q 824.93 395.06 825.37 395.72
  Q 825.65 396.12 825.75 396.60
  Q 827.32 404.24 829.31 411.85
  Q 829.79 413.71 830.09 415.64
  Q 830.39 417.60 831.06 419.48
  Q 831.76 421.48 832.22 423.62
  Q 832.69 425.81 833.38 427.78
  Q 833.81 429.00 833.99 430.33
  C 834.17 431.74 834.59 433.14 834.67 434.54
  C 834.73 435.71 835.45 436.16 835.69 437.21
  Q 836.13 439.14 836.44 441.07
  Q 836.74 442.90 837.33 444.85
  Q 838.02 447.10 838.38 449.43
  Q 838.75 451.84 839.37 454.00
  Q 840.51 457.94 840.81 462.06
  Q 840.84 462.55 841.14 462.95
  Q 841.67 463.63 841.79 464.50
  Q 842.14 467.00 842.55 469.57
  Q 842.68 470.38 843.89 474.58
  Q 844.58 476.97 844.75 479.66
  Q 844.79 480.28 845.10 480.81
  Q 845.51 481.50 845.62 482.31
  Q 846.34 487.31 847.31 490.22
  Q 848.48 493.70 848.82 497.26
  Z
  M 620.79 1150.95
  C 620.98 1152.89 622.71 1152.94 624.04 1153.74
  Q 624.47 1153.99 624.98 1153.99
  Q 709.59 1154.01 795.09 1153.98
  Q 798.17 1153.98 799.36 1151.59
  Q 799.99 1150.34 799.97 1147.34
  Q 799.82 1124.00 800.06 1100.49
  Q 800.16 1090.25 800.15 1080.49
  Q 799.79 816.27 799.99 550.97
  Q 800.00 530.49 799.26 510.94
  Q 799.24 510.16 798.97 509.10
  Q 798.73 508.15 798.64 507.23
  Q 797.71 497.25 796.80 487.27
  Q 796.73 486.50 796.67 485.74
  Q 795.88 476.29 795.02 466.56
  Q 794.99 466.21 794.78 465.94
  Q 794.69 465.83 794.63 465.69
  Q 794.52 465.46 794.49 465.22
  Q 793.66 458.01 793.07 450.76
  Q 793.03 450.25 792.72 449.86
  Q 792.47 449.55 792.44 449.17
  Q 791.76 440.95 790.43 433.57
  Q 789.63 429.15 789.14 424.03
  Q 789.09 423.52 788.84 423.07
  Q 788.43 422.33 788.34 421.52
  Q 787.74 416.52 787.02 411.42
  Q 787.00 411.25 786.90 411.12
  Q 786.78 410.95 786.67 410.79
  Q 786.49 410.52 786.44 410.20
  Q 785.67 405.19 785.00 400.48
  Q 784.97 400.22 784.82 400.00
  Q 784.70 399.81 784.57 399.63
  Q 784.39 399.36 784.33 399.02
  Q 783.62 394.68 783.03 390.58
  Q 782.97 390.22 782.72 389.96
  L 782.52 389.77
  Q 782.08 389.33 782.17 388.72
  C 782.41 387.05 781.40 386.02 781.32 384.40
  Q 781.23 382.50 781.10 380.69
  Q 781.09 380.48 780.98 380.31
  Q 780.79 380.02 780.46 379.87
  A 0.51 0.49 -82.8 0 1 780.17 379.48
  L 778.99 372.32
  Q 778.96 372.16 778.83 372.06
  Q 778.72 371.98 778.62 371.88
  Q 778.39 371.65 778.31 371.33
  Q 777.43 367.76 777.12 363.73
  A 1.04 1.02 21.5 0 0 776.85 363.12
  L 776.57 362.82
  A 1.73 1.69 -73.1 0 1 776.17 362.05
  Q 775.05 357.08 773.09 352.60
  C 771.76 349.55 766.09 349.96 763.82 350.81
  Q 762.25 351.40 761.34 353.10
  Q 760.23 355.20 759.93 357.43
  Q 758.58 367.66 754.98 377.91
  Q 753.93 380.92 752.38 383.39
  Q 751.30 385.10 750.47 386.81
  C 747.38 393.13 741.71 399.17 736.21 403.88
  Q 730.85 408.47 724.12 410.83
  C 722.16 411.52 720.17 412.50 718.18 412.89
  C 714.07 413.68 710.07 414.76 705.76 414.87
  Q 701.24 414.99 699.75 414.63
  Q 695.15 413.52 691.07 412.70
  Q 689.10 412.31 683.93 410.05
  Q 680.32 408.47 677.54 406.41
  Q 671.70 402.07 667.20 397.50
  C 665.57 395.85 664.43 393.90 662.89 392.17
  Q 661.26 390.32 660.02 388.17
  Q 655.09 379.64 652.71 369.80
  Q 651.07 363.04 649.58 354.91
  C 648.77 350.50 639.32 350.24 637.65 354.44
  C 636.89 356.34 636.00 358.25 635.56 360.26
  Q 634.84 363.57 633.53 366.68
  C 632.90 368.17 633.03 369.65 632.49 371.17
  Q 631.94 372.72 631.66 374.45
  Q 631.12 377.72 630.32 380.99
  Q 629.34 384.99 628.55 392.33
  Q 628.53 392.51 628.43 392.66
  Q 628.35 392.77 628.26 392.88
  Q 627.97 393.24 627.94 393.71
  Q 627.55 400.55 626.68 407.09
  C 626.56 407.96 626.83 408.91 626.36 409.66
  Q 626.08 410.10 626.04 410.63
  Q 625.39 418.47 624.47 426.43
  Q 624.44 426.67 624.29 426.85
  Q 624.06 427.12 624.03 427.48
  Q 623.30 436.41 622.51 445.34
  Q 622.50 445.52 622.39 445.67
  Q 622.30 445.80 622.21 445.92
  A 1.10 1.09 -24.6 0 0 621.94 446.64
  Q 621.87 452.47 621.39 458.05
  Q 620.56 467.49 620.61 476.80
  A 1.66 1.64 -30.0 0 1 620.38 477.64
  C 620.09 478.14 619.91 478.36 619.91 478.98
  Q 619.90 539.99 619.90 601.00
  Q 619.90 880.98 619.82 1149.54
  Q 619.82 1149.70 619.92 1149.82
  Q 620.03 1149.94 620.16 1150.01
  Q 620.73 1150.31 620.79 1150.95
  Z"
/>
</svg>
