<?xml version="1.0" encoding="UTF-8" standalone="no"?>
<!DOCTYPE svg PUBLIC "-//W3C//DTD SVG 1.1//EN" "http://www.w3.org/Graphics/SVG/1.1/DTD/svg11.dtd">
<svg xmlns="http://www.w3.org/2000/svg" version="1.1" viewBox="0.00 0.00 700.00 914.00">
<g stroke-width="2.00" fill="none" stroke-linecap="butt">
<path vector-effect="non-scaling-stroke" d="
  M 642.20 409.72
  Q 642.11 409.50 642.11 409.32
  Q 642.10 408.83 642.58 408.83
  Q 643.37 408.81 644.05 408.57"
/>
<path vector-effect="non-scaling-stroke" d="
  M 644.05 408.57
  L 684.64 408.60
  A 1.60 1.60 0.0 0 0 686.24 407.04
  Q 686.64 386.18 686.56 364.96
  Q 686.54 358.13 686.20 353.04
  Q 685.79 346.83 684.94 341.17
  Q 684.78 340.09 684.58 338.98
  Q 681.53 322.08 676.24 308.94
  Q 669.70 292.71 660.51 279.09
  Q 654.85 270.70 647.70 262.99
  Q 640.57 255.29 633.20 248.89
  Q 622.13 239.28 608.54 231.43
  Q 603.61 228.58 597.60 225.91
  Q 591.91 223.39 586.71 221.18
  Q 581.28 218.88 575.83 217.76
  A 2.86 2.85 5.8 0 1 573.55 214.97
  L 573.59 170.55
  A 1.45 1.43 8.1 0 0 572.54 169.17
  C 569.99 168.44 567.21 168.27 564.75 167.24
  Q 563.23 166.61 561.66 166.15
  A 1.82 1.82 0.0 0 1 560.37 164.41
  Q 560.36 147.05 560.52 132.50
  Q 560.54 130.03 562.63 129.42
  C 564.37 128.92 566.20 129.57 567.80 129.50
  Q 579.50 129.02 584.00 129.41
  Q 595.24 130.38 605.00 129.85
  C 606.25 129.79 607.38 130.10 607.85 131.31
  Q 609.71 136.17 612.70 140.40
  Q 613.93 142.15 615.45 143.34
  Q 616.95 144.51 619.18 144.65
  Q 624.81 145.01 630.08 144.87
  Q 635.52 144.74 640.90 144.84
  Q 646.94 144.95 652.60 144.92
  Q 653.17 144.92 653.56 144.50
  L 657.10 140.73
  Q 657.46 140.35 657.41 139.83
  Q 657.22 138.01 657.53 136.19
  Q 657.88 134.23 657.88 132.29
  Q 657.87 102.40 657.90 72.50
  Q 657.90 67.33 653.91 64.14
  Q 653.28 63.63 652.48 63.71
  Q 652.08 63.75 651.91 63.42
  Q 651.65 62.90 651.08 62.89
  Q 645.43 62.72 640.25 63.22
  Q 632.16 64.00 624.23 63.77
  Q 620.33 63.66 617.66 64.76
  Q 614.34 66.13 612.19 69.19
  Q 609.85 72.52 608.45 76.12"
/>
<path vector-effect="non-scaling-stroke" d="
  M 608.45 76.12
  Q 607.73 78.50 606.45 80.09
  A 1.49 1.47 15.0 0 1 605.48 80.64
  Q 599.88 81.40 593.68 81.06
  Q 593.23 81.03 592.87 81.32
  Q 576.96 81.83 562.79 81.07
  Q 561.75 81.01 560.84 80.18
  Q 560.46 79.83 560.36 80.34
  L 560.02 82.10"
/>
<path vector-effect="non-scaling-stroke" d="
  M 560.02 82.10
  L 560.01 127.57
  A 2.26 2.25 87.0 0 1 557.99 129.82
  C 556.91 129.94 556.38 130.34 555.23 130.35
  Q 523.42 130.39 495.99 130.37
  A 2.90 2.90 0.0 0 1 493.09 127.47
  L 493.10 81.76
  A 1.20 1.19 -12.5 0 0 491.40 80.68
  Q 491.12 80.81 490.89 81.03
  Q 490.54 81.38 490.04 81.38
  L 447.02 81.60
  A 2.02 2.02 0.0 0 1 445.14 80.35
  Q 443.94 77.47 443.26 74.13
  Q 442.63 71.03 441.46 68.11
  Q 434.93 51.81 426.04 40.78
  Q 421.12 34.67 413.55 27.69
  C 411.81 26.09 409.99 25.14 408.04 23.87
  C 407.11 23.25 406.92 22.31 405.58 22.21
  Q 405.06 22.17 404.75 21.76
  Q 404.14 20.97 403.34 20.50
  Q 400.11 18.56 396.83 16.36
  Q 396.10 15.87 395.30 15.58
  Q 394.32 15.23 393.69 14.43
  Q 393.29 13.92 392.64 13.89
  Q 391.44 13.82 390.52 13.06
  C 389.23 12.00 387.56 11.53 386.08 10.73
  C 384.30 9.78 382.42 9.65 380.57 8.75
  Q 378.99 7.98 377.29 7.76
  Q 375.49 7.54 373.82 6.42
  Q 373.36 6.11 372.80 6.08
  Q 370.15 5.96 367.43 5.13
  Q 364.77 4.31 362.17 4.16
  Q 347.32 3.31 332.17 3.96
  Q 328.77 4.11 326.14 4.90
  Q 323.19 5.78 320.25 6.12
  Q 318.64 6.30 317.32 7.01
  C 315.44 8.03 313.49 7.80 311.69 8.80
  Q 310.74 9.32 309.70 9.71
  Q 305.41 11.32 300.37 13.87
  Q 283.49 22.43 271.43 35.86
  Q 269.60 37.89 268.21 40.28
  Q 266.76 42.75 265.15 44.76
  Q 262.80 47.70 261.09 50.64"
/>
<path vector-effect="non-scaling-stroke" d="
  M 261.09 50.64
  L 255.72 60.62"
/>
<path vector-effect="non-scaling-stroke" d="
  M 255.72 60.62
  Q 252.61 66.73 250.74 73.70
  Q 249.78 77.26 248.72 80.81
  Q 248.57 81.31 248.06 81.45
  L 247.56 81.58"
/>
<path vector-effect="non-scaling-stroke" d="
  M 247.56 81.58
  L 203.34 81.68"
/>
<path vector-effect="non-scaling-stroke" d="
  M 203.34 81.68
  Q 201.93 80.42 201.94 79.25
  Q 202.09 64.58 201.84 50.66
  A 1.88 1.87 4.9 0 0 200.30 48.84
  Q 197.66 48.36 194.50 48.37
  Q 165.65 48.42 137.16 48.21
  A 0.85 0.85 0.0 0 0 136.31 49.06
  L 136.37 78.91"
/>
<path vector-effect="non-scaling-stroke" d="
  M 136.37 78.91
  L 134.21 81.64"
/>
<path vector-effect="non-scaling-stroke" d="
  M 134.21 81.64
  L 94.57 81.63
  A 2.76 2.76 0.0 0 1 91.81 78.81
  Q 92.06 67.03 91.60 56.24
  Q 91.53 54.71 91.34 53.18
  Q 91.26 52.50 90.82 51.98
  Q 90.17 51.21 90.12 50.16
  A 2.21 2.15 27.5 0 0 89.76 49.07
  Q 88.51 47.13 86.94 45.95
  Q 86.39 45.53 85.77 45.23
  Q 84.97 44.84 83.96 44.61
  Q 83.01 44.39 82.03 44.39
  Q 54.68 44.25 27.57 44.37
  Q 26.62 44.38 26.09 45.15
  Q 25.60 45.86 24.70 45.80
  Q 24.17 45.77 23.86 46.21
  C 23.11 47.31 22.07 47.56 21.36 48.67
  Q 20.38 50.22 19.69 51.92
  Q 19.35 52.77 19.37 53.62
  C 19.41 55.10 19.08 56.48 19.09 58.01
  Q 19.37 94.90 19.23 122.72
  Q 19.17 134.64 18.80 148.79
  Q 18.68 153.65 19.99 156.64
  Q 21.64 160.40 25.45 162.83
  Q 27.13 163.91 29.01 163.88
  Q 54.61 163.54 79.57 163.75
  Q 81.92 163.77 84.19 162.60
  Q 86.99 161.14 88.84 159.10
  Q 90.13 157.67 91.31 154.49"
/>
<path vector-effect="non-scaling-stroke" d="
  M 91.31 154.49
  Q 92.65 147.14 91.95 143.50
  Q 91.51 141.22 91.91 137.25
  Q 92.17 134.70 91.49 130.02"
/>
<path vector-effect="non-scaling-stroke" d="
  M 91.49 130.02
  Q 92.61 127.93 94.19 128.21"
/>
<path vector-effect="non-scaling-stroke" d="
  M 94.19 128.21
  Q 108.16 128.96 122.08 128.21"
/>
<path vector-effect="non-scaling-stroke" d="
  M 122.08 128.21
  L 134.66 128.22
  A 1.70 1.70 0.0 0 1 136.36 129.92
  L 136.35 165.30
  Q 136.35 167.24 134.41 167.23
  Q 130.49 167.21 126.78 167.25
  C 124.98 167.28 123.65 168.50 121.93 168.96
  Q 121.40 169.10 121.15 169.60
  Q 120.48 170.91 120.52 172.48
  Q 121.00 193.56 120.91 215.43
  Q 120.90 216.71 119.66 217.07
  Q 104.17 221.51 90.26 229.06
  Q 87.16 230.74 84.34 232.36
  Q 81.19 234.17 78.48 236.14
  Q 69.71 242.50 64.26 247.22
  Q 55.57 254.73 48.35 263.43
  Q 40.80 272.51 32.93 285.46
  Q 30.93 288.75 29.94 292.04
  Q 29.85 292.36 29.52 292.42
  Q 29.19 292.49 29.08 292.80
  Q 28.48 294.64 27.38 296.10
  A 1.68 1.66 64.9 0 0 27.04 297.05
  Q 27.00 297.88 26.37 298.29
  Q 25.97 298.55 25.94 299.02
  Q 25.82 300.52 24.76 301.79
  Q 23.88 302.85 23.39 304.08
  Q 21.30 309.35 19.19 315.02
  Q 17.68 319.11 15.59 327.92
  Q 14.87 330.97 14.39 334.15
  Q 13.92 337.24 13.38 340.34
  Q 12.65 344.48 12.45 349.71
  Q 12.24 355.18 11.86 360.58"
/>
<path vector-effect="non-scaling-stroke" d="
  M 11.86 360.58
  Q 10.65 384.84 11.38 408.99"
/>
<path vector-effect="non-scaling-stroke" d="
  M 560.02 82.10
  L 604.01 81.96
  Q 604.54 81.95 604.87 81.54
  Q 605.16 81.18 605.62 81.08
  C 607.78 80.61 608.80 78.12 608.45 76.12"
/>
<path vector-effect="non-scaling-stroke" d="
  M 644.05 408.57
  L 609.55 408.37"
/>
<path vector-effect="non-scaling-stroke" d="
  M 609.55 408.37
  L 374.19 408.08
  A 0.80 0.80 0.0 0 1 373.39 407.29
  Q 373.25 380.51 373.49 350.62
  Q 373.53 345.29 375.08 335.55
  C 375.59 332.35 376.70 328.86 377.23 325.47
  Q 377.58 323.23 378.41 321.26
  Q 379.26 319.22 379.59 316.97
  C 379.87 315.14 381.05 313.76 381.38 311.86
  Q 381.69 310.06 382.57 308.31
  Q 384.14 305.19 385.07 301.86
  A 10.99 8.51 -73.9 0 1 385.57 300.39
  Q 389.07 291.88 393.83 284.30
  Q 395.12 282.23 396.45 280.08
  Q 397.84 277.83 399.29 275.89
  Q 408.44 263.70 418.62 253.24
  Q 426.98 244.64 435.09 238.92
  Q 440.86 234.86 447.15 230.75
  Q 447.25 230.68 447.37 230.64
  Q 447.52 230.60 447.69 230.60
  Q 447.96 230.60 448.20 230.46
  Q 450.89 228.88 453.53 227.39
  C 454.21 227.01 454.99 227.02 455.55 226.58
  Q 456.11 226.16 456.71 225.85
  Q 463.89 222.28 471.58 219.83
  Q 474.95 218.76 478.32 218.32
  A 2.66 2.66 0.0 0 0 480.63 215.73
  L 481.41 170.25
  Q 481.42 169.60 481.92 169.41
  C 484.48 168.39 486.79 168.34 489.43 168.24
  A 3.05 3.05 0.0 0 0 492.35 165.12
  Q 491.94 146.91 492.16 132.46
  Q 492.22 128.98 488.74 128.97
  L 447.80 128.84
  A 3.60 3.60 0.0 0 0 444.38 131.27
  Q 442.88 135.60 441.40 139.71
  Q 440.21 143.00 438.32 146.39
  Q 436.37 149.88 434.63 153.59
  Q 432.76 157.60 430.40 160.99
  Q 428.14 164.25 426.21 167.24
  Q 424.32 170.18 421.80 172.36
  Q 420.42 173.55 419.38 175.19
  Q 418.44 176.68 417.04 178.23
  Q 410.92 185.00 404.60 189.89
  Q 401.61 192.21 397.35 194.35
  Q 393.43 196.31 389.65 198.12
  Q 389.19 198.34 388.67 198.34
  Q 388.25 198.34 387.94 198.60
  C 387.09 199.31 385.48 199.69 384.43 199.99
  Q 383.14 200.37 381.69 201.03
  Q 380.56 201.55 379.25 201.84
  Q 377.75 202.17 376.33 202.73
  Q 373.22 203.95 369.42 204.23
  Q 368.89 204.27 368.44 204.57
  Q 367.73 205.04 366.88 205.19
  Q 354.48 207.39 341.15 206.38
  Q 340.82 206.36 340.52 206.52
  Q 340.35 206.62 340.15 206.61
  Q 333.09 206.23 326.68 205.12
  Q 325.77 204.96 324.92 204.56
  Q 324.30 204.27 323.65 204.15
  Q 317.95 203.18 312.20 200.96
  Q 310.53 200.31 308.73 200.05
  Q 307.11 199.82 305.75 198.58
  Q 305.15 198.04 304.34 198.06
  Q 303.52 198.08 302.77 197.82
  Q 299.92 196.81 295.79 194.10
  Q 290.84 190.86 286.02 187.73
  Q 280.34 184.02 271.82 174.53"
/>
<path vector-effect="non-scaling-stroke" d="
  M 271.82 174.53
  Q 268.91 169.25 264.79 165.16"
/>
<path vector-effect="non-scaling-stroke" d="
  M 264.79 165.16
  Q 262.85 162.29 260.93 159.31
  Q 259.42 156.99 257.94 153.96
  Q 256.59 151.20 255.16 148.49
  Q 253.94 146.18 252.88 142.48
  Q 252.51 141.20 251.89 140.15
  C 250.71 138.15 251.14 136.16 250.18 134.12
  Q 249.34 132.30 248.92 130.16
  A 1.74 1.74 0.0 0 0 247.22 128.75
  L 204.21 128.63
  Q 202.04 128.62 202.04 130.79
  L 202.04 165.12
  A 1.71 1.70 3.6 0 0 203.53 166.81
  Q 207.35 167.31 211.52 168.35
  Q 211.64 168.38 214.04 168.70
  Q 217.03 169.10 216.94 172.75
  Q 216.43 193.37 216.60 213.26
  Q 216.64 217.12 220.34 218.14
  C 232.36 221.43 244.13 227.21 254.66 233.74
  Q 263.31 239.11 271.12 245.22
  Q 291.37 261.06 304.95 283.56
  C 312.54 296.14 318.40 308.33 322.22 322.65
  Q 324.09 329.65 325.89 337.87
  Q 326.42 340.33 326.63 342.58
  Q 326.86 345.11 327.40 347.49
  Q 328.18 350.99 328.26 354.62
  C 328.68 372.19 328.45 389.73 328.47 407.29"
/>
<path vector-effect="non-scaling-stroke" d="
  M 328.47 407.29
  Q 328.06 408.47 326.50 408.47
  Q 291.46 408.52 266.24 408.16
  Q 255.90 408.00 246.24 407.99
  Q 129.79 407.84 13.07 407.96
  A 0.86 0.86 0.0 0 1 12.21 407.11
  L 11.86 360.58"
/>
<path vector-effect="non-scaling-stroke" d="
  M 122.08 128.21
  Q 108.15 127.50 94.19 128.21"
/>
<path vector-effect="non-scaling-stroke" d="
  M 91.49 130.02
  L 91.31 154.49"
/>
<path vector-effect="non-scaling-stroke" d="
  M 134.21 81.64
  Q 136.09 81.71 136.38 80.63
  Q 136.53 80.06 136.37 78.91"
/>
<path vector-effect="non-scaling-stroke" d="
  M 203.34 81.68
  Q 203.71 82.06 204.47 82.06
  Q 225.34 81.88 246.22 81.89
  Q 246.72 81.89 247.56 81.58"
/>
<path vector-effect="non-scaling-stroke" d="
  M 255.72 60.62
  Q 257.30 57.92 258.89 55.88
  Q 259.76 54.77 261.09 50.64"
/>
<path vector-effect="non-scaling-stroke" d="
  M 625.21 409.69
  Q 625.70 408.99 624.73 408.94
  Q 620.43 408.70 610.76 408.96
  Q 610.15 408.98 609.92 409.39"
/>
<path vector-effect="non-scaling-stroke" d="
  M 264.79 165.16
  L 271.82 174.53"
/>
<path vector-effect="non-scaling-stroke" d="
  M 609.55 408.37
  Q 606.65 408.11 606.43 408.94"
/>
<path vector-effect="non-scaling-stroke" d="
  M 328.90 407.53
  L 328.47 407.29"
/>
<path vector-effect="non-scaling-stroke" d="
  M 249.03 633.95
  L 255.87 633.49"
/>
<path vector-effect="non-scaling-stroke" d="
  M 255.87 633.49
  L 325.39 633.51
  Q 328.54 633.51 328.54 630.36
  Q 328.66 541.94 328.62 454.77
  Q 328.62 453.71 328.93 452.67
  Q 329.34 451.30 328.56 449.80
  Q 328.31 449.32 327.77 449.32
  L 13.00 449.36
  Q 11.93 449.36 11.94 450.44
  L 12.13 474.18"
/>
<path vector-effect="non-scaling-stroke" d="
  M 12.13 474.18
  L 11.68 552.05
  Q 11.68 552.53 11.33 552.87
  Q 10.89 553.30 11.35 553.87
  Q 11.52 588.97 11.37 624.07
  C 11.36 626.16 11.65 628.57 11.70 630.82"
/>
<path vector-effect="non-scaling-stroke" d="
  M 11.70 630.82
  Q 11.07 633.54 13.50 633.54
  Q 71.64 633.50 129.75 633.51"
/>
<path vector-effect="non-scaling-stroke" d="
  M 129.75 633.51
  Q 130.01 633.67 130.21 633.97"
/>
<path vector-effect="non-scaling-stroke" d="
  M 255.87 633.49
  Q 249.06 633.13 246.75 633.13
  Q 190.62 633.07 134.50 633.18
  Q 132.09 633.18 129.75 633.51"
/>
<path vector-effect="non-scaling-stroke" d="
  M 11.70 630.82
  C 12.26 626.60 12.14 622.40 12.36 618.07
  Q 12.49 615.45 12.35 612.85
  C 11.82 603.46 12.11 593.95 12.13 584.73
  Q 12.13 584.34 12.26 583.98
  Q 12.34 583.74 12.34 583.49
  Q 12.42 568.25 12.35 553.02
  Q 12.34 552.52 12.14 552.06
  Q 12.00 551.74 12.00 551.50
  Q 11.91 537.99 11.98 524.62
  C 11.98 523.31 12.71 522.35 12.71 521.25
  Q 12.82 497.73 12.13 474.18"
/>
<path vector-effect="non-scaling-stroke" d="
  M 592.53 634.02
  Q 594.41 633.77 595.03 633.31"
/>
<path vector-effect="non-scaling-stroke" d="
  M 595.03 633.31
  L 685.47 633.54
  A 1.28 1.28 0.0 0 0 686.75 632.26
  Q 686.80 560.13 687.01 487.37
  Q 687.07 468.59 686.74 450.26
  Q 686.72 449.47 685.93 449.47
  L 374.77 449.20
  Q 373.48 449.20 373.48 450.49
  L 373.49 621.93"
/>
<path vector-effect="non-scaling-stroke" d="
  M 373.49 621.93
  Q 372.60 626.75 373.41 631.56"
/>
<path vector-effect="non-scaling-stroke" d="
  M 373.41 631.56
  L 373.36 632.17
  A 1.17 1.16 -87.7 0 0 374.52 633.43
  L 387.69 633.43"
/>
<path vector-effect="non-scaling-stroke" d="
  M 387.69 633.43
  L 390.21 633.99"
/>
<path vector-effect="non-scaling-stroke" d="
  M 595.03 633.31
  L 387.69 633.43"
/>
<path vector-effect="non-scaling-stroke" d="
  M 373.41 631.56
  L 373.49 621.93"
/>
<path vector-effect="non-scaling-stroke" d="
  M 89.34 674.10
  L 12.95 674.10
  A 1.53 1.53 0.0 0 0 11.51 675.12
  C 10.68 677.51 11.39 681.10 11.38 682.97
  Q 11.37 699.98 11.38 716.99
  Q 11.38 718.54 11.77 720.97
  Q 12.09 722.94 12.14 724.99"
/>
<path vector-effect="non-scaling-stroke" d="
  M 12.14 724.99
  C 12.12 748.15 12.43 771.33 12.19 794.49
  Q 11.98 814.65 12.80 824.48
  Q 13.48 832.66 17.16 845.78
  A 1.11 1.08 14.6 0 0 17.46 846.28
  Q 17.83 846.64 17.86 847.15
  Q 17.94 848.53 18.66 849.70
  Q 19.56 851.17 20.10 852.86
  Q 20.57 854.34 21.33 855.80
  Q 30.58 873.63 44.22 885.81
  Q 46.24 887.62 48.17 889.34
  C 51.06 891.93 54.32 893.90 57.51 895.95
  Q 57.74 896.09 58.00 896.14
  C 58.45 896.21 58.81 896.30 59.15 896.61
  Q 60.40 897.77 62.06 898.14
  Q 63.47 898.46 64.77 899.16
  Q 68.14 900.98 72.09 902.11
  Q 73.90 902.62 75.53 903.12
  C 78.91 904.16 82.52 904.18 85.99 905.07
  Q 89.36 905.94 92.93 905.94
  Q 169.90 906.01 248.26 905.78
  Q 252.15 905.77 255.86 904.97
  Q 259.90 904.11 263.76 903.45
  Q 264.41 903.34 264.99 903.04
  C 266.14 902.45 267.73 902.29 268.54 902.01
  Q 289.98 894.59 304.86 877.69
  Q 306.99 875.27 308.88 872.60
  Q 311.57 868.80 312.36 867.13
  Q 316.44 858.48 320.42 848.98
  Q 321.52 846.35 321.87 844.57
  Q 321.95 844.17 322.21 843.84
  Q 322.89 842.97 323.20 842.02
  Q 324.62 837.61 326.16 832.47
  Q 326.92 829.96 327.02 827.37
  Q 327.14 824.51 327.63 821.75
  Q 328.30 818.03 328.33 813.31
  Q 328.68 744.76 328.64 675.92"
/>
<path vector-effect="non-scaling-stroke" d="
  M 328.64 675.92
  Q 327.44 674.18 324.50 674.21
  Q 289.31 674.56 231.94 674.09"
/>
<path vector-effect="non-scaling-stroke" d="
  M 167.43 673.94
  L 177.56 673.95"
/>
<path vector-effect="non-scaling-stroke" d="
  M 328.64 675.92
  Q 257.86 675.78 237.50 675.93
  Q 234.20 675.96 231.82 675.78
  Q 226.80 675.40 226.16 675.39
  Q 214.42 675.21 210.25 675.48
  Q 200.45 676.10 190.63 675.85
  Q 190.38 675.84 190.26 675.63
  Q 190.18 675.51 190.05 675.50
  Q 184.66 675.15 179.55 675.49
  Q 174.16 675.85 169.27 675.66
  Q 162.78 675.40 156.17 675.39
  Q 150.89 675.38 145.36 675.76
  Q 140.25 676.11 134.50 675.61
  Q 128.65 675.11 122.24 675.22
  Q 120.68 675.25 113.48 675.80
  Q 108.49 676.18 104.70 675.74
  Q 98.92 675.06 94.26 675.58
  Q 89.58 676.09 85.65 675.98
  Q 79.11 675.78 73.26 675.76
  Q 45.78 675.63 19.29 675.89
  C 17.28 675.91 15.30 675.62 13.37 675.39
  Q 12.21 675.26 12.21 676.43
  L 12.14 724.99"
/>
<path vector-effect="non-scaling-stroke" d="
  M 493.96 17.47
  Q 493.84 17.41 493.69 17.54
  Q 493.60 17.62 493.55 17.74
  Q 492.27 21.15 492.19 25.45
  Q 491.93 39.02 492.30 49.27
  Q 492.81 63.69 492.59 76.16
  A 2.18 2.18 0.0 0 0 494.56 78.37
  Q 495.89 78.50 497.08 78.51
  Q 510.05 78.62 523.02 78.82
  Q 523.16 78.83 523.25 78.73
  Q 523.37 78.62 523.50 78.62
  Q 541.25 78.65 559.00 78.61
  Q 559.56 78.61 559.53 78.03"
/>
<path vector-effect="non-scaling-stroke" d="
  M 559.53 78.03
  L 560.00 77.64
  Q 560.37 77.33 560.37 76.84
  Q 560.44 49.72 560.21 22.61
  C 560.18 19.12 558.90 16.98 556.48 14.67
  Q 555.96 14.18 555.26 14.05
  C 554.14 13.83 553.21 13.41 552.07 13.40
  Q 525.17 13.31 500.27 13.46
  Q 498.98 13.46 497.49 13.69
  Q 496.98 13.76 496.65 14.16
  L 493.96 17.47"
/>
<path vector-effect="non-scaling-stroke" d="
  M 559.53 78.03
  L 495.11 77.78
  A 1.68 1.68 0.0 0 1 493.43 76.09
  L 493.67 18.79
  Q 493.67 18.38 493.95 18.08
  Q 494.24 17.77 493.96 17.47"
/>
<path vector-effect="non-scaling-stroke" d="
  M 367.27 167.12
  Q 368.49 167.17 369.26 166.81
  C 371.73 165.68 374.32 164.87 376.80 163.68
  Q 391.90 156.48 401.20 141.41
  Q 408.65 129.32 411.15 116.37
  Q 412.26 110.60 411.73 99.59
  Q 411.40 92.54 409.31 86.42
  Q 406.86 79.24 403.42 73.91
  Q 399.22 67.40 394.06 61.82
  Q 390.29 57.74 385.57 54.40
  Q 380.17 50.58 374.44 47.79
  Q 374.44 47.79 374.43 47.78
  Q 367.37 44.51 358.77 42.05
  Q 356.29 41.34 353.83 41.31
  Q 346.00 41.21 339.15 41.87
  Q 334.34 42.33 329.03 43.57
  C 327.36 43.95 325.86 44.81 324.21 45.29
  Q 322.66 45.74 321.17 46.38
  Q 307.52 52.23 297.60 62.78
  Q 286.48 74.62 283.09 90.31
  C 282.80 91.62 283.04 92.86 282.60 94.11
  Q 282.07 95.61 282.01 97.16
  Q 281.72 104.71 282.07 112.80
  Q 282.34 119.16 284.50 124.78
  Q 289.32 137.32 295.28 145.25
  Q 301.10 152.99 308.21 157.98
  Q 311.30 160.16 315.28 162.26
  Q 318.98 164.21 322.74 165.63
  Q 326.97 167.23 330.55 168.21
  Q 347.97 172.99 367.01 167.50
  Q 367.15 167.47 367.13 167.33
  Q 367.13 167.30 367.12 167.26
  Q 367.11 167.11 367.27 167.12"
/>
<path vector-effect="non-scaling-stroke" d="
  M 478.84 287.81
  Q 480.81 286.60 482.76 285.32
  Q 487.60 282.13 494.66 279.40
  Q 495.74 278.98 496.86 278.63
  Q 498.13 278.22 499.26 277.75
  Q 500.99 277.02 504.86 276.61
  Q 505.97 276.49 506.86 275.93
  Q 507.91 275.26 509.24 274.98
  Q 510.73 274.67 512.07 273.68
  Q 515.19 271.38 517.35 268.52
  C 519.97 265.08 519.83 261.49 519.76 257.49
  Q 519.72 254.99 517.79 252.57
  Q 515.47 249.66 512.58 247.76
  Q 509.72 245.87 506.77 245.92
  Q 503.02 245.98 498.98 246.07
  Q 495.48 246.15 491.25 247.99
  Q 485.77 250.37 480.45 252.60
  Q 479.34 253.06 478.24 253.46
  Q 476.27 254.16 474.72 255.27
  Q 471.41 257.63 467.50 259.38
  Q 465.18 260.42 463.21 262.15
  Q 460.66 264.39 457.73 266.20
  C 456.11 267.20 454.86 268.69 453.22 269.75
  Q 451.52 270.85 450.11 272.28
  Q 448.66 273.73 446.75 275.10
  C 444.94 276.41 443.43 278.13 441.68 279.57
  Q 440.29 280.70 439.20 282.38
  Q 438.15 283.99 436.90 284.98
  Q 435.04 286.46 433.33 289.20
  Q 421.95 307.51 416.18 320.81
  Q 415.35 322.73 414.89 324.64
  Q 414.44 326.48 413.74 328.41
  Q 412.94 330.62 412.94 333.00
  Q 412.93 335.17 412.45 337.50
  Q 411.46 342.29 411.24 346.28
  Q 410.76 355.39 410.83 366.35
  Q 410.85 368.97 411.49 371.04
  Q 412.18 373.32 413.48 375.76
  Q 416.34 381.17 420.51 382.69
  Q 422.54 383.44 424.92 383.56
  C 427.12 383.67 429.46 384.13 431.61 383.31
  Q 432.71 382.89 433.53 382.12
  C 434.42 381.27 435.63 380.76 436.43 379.79
  Q 439.13 376.53 440.48 372.36
  Q 441.51 369.19 441.41 365.54
  Q 441.11 353.66 441.61 340.99
  Q 441.68 339.41 442.16 337.99
  Q 443.02 335.50 443.67 332.64
  C 444.01 331.13 444.86 330.13 445.24 328.76
  Q 445.68 327.23 446.38 325.88
  Q 448.56 321.71 450.73 317.63
  Q 451.90 315.43 453.54 313.75
  Q 455.33 311.90 456.64 309.74
  Q 458.38 306.87 460.43 304.68
  Q 462.74 302.23 465.01 299.99
  Q 465.36 299.65 465.47 299.18
  Q 465.53 298.94 465.73 298.76
  Q 470.17 294.73 475.16 290.46
  Q 476.77 289.08 478.84 287.81"
/>
<path vector-effect="non-scaling-stroke" d="
  M 339.90 115.03
  C 341.73 116.33 345.16 115.90 347.52 115.93
  Q 350.01 115.96 352.29 114.69
  Q 356.50 112.34 358.20 108.06
  Q 359.28 105.36 359.24 100.15
  Q 359.07 76.41 359.17 54.06
  C 359.18 51.20 357.11 50.34 354.97 49.16
  Q 353.35 48.26 351.47 48.19
  Q 345.29 47.96 340.07 48.23
  C 338.07 48.34 336.41 49.32 334.75 50.32
  A 2.96 2.94 -15.9 0 0 333.32 52.86
  Q 333.37 79.79 333.26 103.40
  C 333.26 105.08 332.87 106.58 333.56 108.23
  Q 334.96 111.52 338.11 113.76
  Q 339.00 114.39 339.90 115.03"
/>
<path vector-effect="non-scaling-stroke" d="
  M 48.12 493.07
  Q 46.88 500.45 47.58 509.25
  Q 47.74 511.28 47.73 517.97"
/>
<path vector-effect="non-scaling-stroke" d="
  M 47.73 517.97
  Q 47.67 531.69 47.76 545.41
  Q 47.82 554.97 48.17 556.54
  Q 49.49 562.40 55.40 565.82
  C 58.25 567.46 64.08 568.68 67.66 567.20
  Q 68.82 566.72 69.97 566.30
  Q 71.51 565.73 73.11 564.57
  Q 78.78 560.48 78.84 552.34
  Q 78.99 528.85 78.82 505.31
  Q 78.80 503.54 78.85 501.76
  Q 79.00 495.34 76.29 490.32
  Q 73.58 485.28 67.82 483.09
  C 65.75 482.30 63.41 482.75 61.23 482.83
  Q 59.07 482.90 56.76 484.07
  Q 50.73 487.11 48.12 493.07"
/>
<path vector-effect="non-scaling-stroke" d="
  M 47.73 517.97
  L 48.12 493.07"
/>
<path vector-effect="non-scaling-stroke" d="
  M 373.17 690.55
  L 373.22 740.68"
/>
<path vector-effect="non-scaling-stroke" d="
  M 373.22 740.68
  Q 372.91 781.05 372.88 821.35
  Q 372.88 822.45 373.40 824.05
  Q 373.84 825.37 373.94 826.83"
/>
<path vector-effect="non-scaling-stroke" d="
  M 373.94 826.83
  Q 374.58 829.91 374.94 833.08
  Q 375.13 834.78 375.71 836.29
  Q 376.34 837.94 376.70 839.66
  Q 377.21 842.06 378.15 844.33
  Q 379.91 848.62 381.56 852.55
  Q 381.63 852.72 381.80 852.76
  Q 381.94 852.79 382.03 852.89
  Q 382.14 853.00 382.20 853.15
  Q 384.48 858.63 388.10 864.42
  Q 392.11 870.83 396.48 876.43
  Q 401.05 882.28 406.29 886.65
  Q 417.36 895.89 430.22 901.26
  Q 431.64 901.86 433.32 902.23
  Q 434.78 902.55 436.51 903.12
  Q 441.43 904.74 446.45 905.30
  Q 451.09 905.82 456.18 905.83
  Q 530.05 906.05 605.35 905.96
  Q 607.90 905.96 610.48 905.70
  Q 612.86 905.46 615.22 904.92
  Q 617.47 904.41 619.75 904.11
  Q 624.69 903.47 633.37 899.64"
/>
<path vector-effect="non-scaling-stroke" d="
  M 633.37 899.64
  Q 635.56 899.11 637.50 897.68"
/>
<path vector-effect="non-scaling-stroke" d="
  M 637.50 897.68
  Q 641.31 896.21 644.68 893.45
  Q 646.26 892.15 647.99 891.15
  Q 649.45 890.30 650.42 889.35"
/>
<path vector-effect="non-scaling-stroke" d="
  M 650.42 889.35
  Q 655.94 886.01 659.88 880.65"
/>
<path vector-effect="non-scaling-stroke" d="
  M 659.88 880.65
  Q 662.26 878.80 663.62 876.82
  Q 667.01 871.86 672.25 862.91
  Q 673.04 861.55 673.37 859.89
  Q 673.84 857.47 674.23 856.73
  Q 680.16 845.55 682.71 837.99
  C 685.41 829.96 686.51 820.99 686.54 812.75
  Q 686.65 780.49 686.62 680.97"
/>
<path vector-effect="non-scaling-stroke" d="
  M 686.62 680.97
  L 687.01 676.60
  A 2.22 2.21 2.7 0 0 684.80 674.18
  L 441.70 674.31
  A 2.11 2.10 89.6 0 0 439.60 676.45
  L 439.74 687.98"
/>
<path vector-effect="non-scaling-stroke" d="
  M 439.74 687.98
  Q 440.02 694.93 439.76 701.88
  Q 439.63 705.22 438.58 707.42
  Q 437.22 710.24 434.87 711.92
  Q 431.08 714.62 428.42 715.48
  Q 424.73 716.68 420.65 715.12
  Q 420.61 715.10 420.62 715.04
  Q 420.63 715.02 420.63 714.99
  Q 420.64 714.87 420.52 714.85
  Q 411.43 712.82 409.59 703.62
  Q 408.77 699.53 408.82 688.98"
/>
<path vector-effect="non-scaling-stroke" d="
  M 408.82 688.98
  Q 408.91 685.20 408.91 681.45
  C 408.91 677.56 409.31 674.20 404.61 674.17
  Q 389.85 674.08 374.68 674.13
  A 1.51 1.50 90.0 0 0 373.18 675.64
  L 373.17 690.55"
/>
<path vector-effect="non-scaling-stroke" d="
  M 408.82 688.98
  L 408.13 678.88
  Q 407.93 675.92 404.96 675.90
  L 374.18 675.60
  Q 373.64 675.60 373.62 676.14
  L 373.17 690.55"
/>
<path vector-effect="non-scaling-stroke" d="
  M 659.88 880.65
  L 650.42 889.35"
/>
<path vector-effect="non-scaling-stroke" d="
  M 637.50 897.68
  Q 634.96 897.71 633.37 899.64"
/>
<path vector-effect="non-scaling-stroke" d="
  M 373.94 826.83
  Q 374.30 824.53 373.64 821.00
  Q 373.11 818.21 373.26 811.50
  Q 374.07 776.11 373.22 740.68"
/>
<path vector-effect="non-scaling-stroke" d="
  M 686.62 680.97
  L 686.42 677.62
  A 2.45 2.45 0.0 0 0 684.03 675.31
  C 682.54 675.28 680.96 675.58 679.37 675.59
  Q 639.13 675.76 596.25 675.89
  Q 521.95 676.12 442.30 675.62
  A 2.42 2.42 0.0 0 0 439.87 678.01
  L 439.74 687.98"
/>
<path vector-effect="non-scaling-stroke" d="
  M 425.45 775.22
  Q 434.13 774.07 438.67 767.44
  C 442.89 761.28 442.15 753.48 437.27 747.72
  Q 433.65 743.46 427.46 741.76
  Q 423.08 740.56 418.53 742.59
  Q 413.17 744.99 410.54 749.77
  Q 409.45 751.75 408.84 754.73
  C 407.26 762.53 409.84 769.50 416.69 773.56
  Q 420.57 775.86 425.45 775.22"
/>
</g>
<path d="
  M 642.20 409.72
  Q 642.11 409.50 642.11 409.32
  Q 642.10 408.83 642.58 408.83
  Q 643.37 408.81 644.05 408.57
  L 684.64 408.60
  A 1.60 1.60 0.0 0 0 686.24 407.04
  Q 686.64 386.18 686.56 364.96
  Q 686.54 358.13 686.20 353.04
  Q 685.79 346.83 684.94 341.17
  Q 684.78 340.09 684.58 338.98
  Q 681.53 322.08 676.24 308.94
  Q 669.70 292.71 660.51 279.09
  Q 654.85 270.70 647.70 262.99
  Q 640.57 255.29 633.20 248.89
  Q 622.13 239.28 608.54 231.43
  Q 603.61 228.58 597.60 225.91
  Q 591.91 223.39 586.71 221.18
  Q 581.28 218.88 575.83 217.76
  A 2.86 2.85 5.8 0 1 573.55 214.97
  L 573.59 170.55
  A 1.45 1.43 8.1 0 0 572.54 169.17
  C 569.99 168.44 567.21 168.27 564.75 167.24
  Q 563.23 166.61 561.66 166.15
  A 1.82 1.82 0.0 0 1 560.37 164.41
  Q 560.36 147.05 560.52 132.50
  Q 560.54 130.03 562.63 129.42
  C 564.37 128.92 566.20 129.57 567.80 129.50
  Q 579.50 129.02 584.00 129.41
  Q 595.24 130.38 605.00 129.85
  C 606.25 129.79 607.38 130.10 607.85 131.31
  Q 609.71 136.17 612.70 140.40
  Q 613.93 142.15 615.45 143.34
  Q 616.95 144.51 619.18 144.65
  Q 624.81 145.01 630.08 144.87
  Q 635.52 144.74 640.90 144.84
  Q 646.94 144.95 652.60 144.92
  Q 653.17 144.92 653.56 144.50
  L 657.10 140.73
  Q 657.46 140.35 657.41 139.83
  Q 657.22 138.01 657.53 136.19
  Q 657.88 134.23 657.88 132.29
  Q 657.87 102.40 657.90 72.50
  Q 657.90 67.33 653.91 64.14
  Q 653.28 63.63 652.48 63.71
  Q 652.08 63.75 651.91 63.42
  Q 651.65 62.90 651.08 62.89
  Q 645.43 62.72 640.25 63.22
  Q 632.16 64.00 624.23 63.77
  Q 620.33 63.66 617.66 64.76
  Q 614.34 66.13 612.19 69.19
  Q 609.85 72.52 608.45 76.12
  Q 607.73 78.50 606.45 80.09
  A 1.49 1.47 15.0 0 1 605.48 80.64
  Q 599.88 81.40 593.68 81.06
  Q 593.23 81.03 592.87 81.32
  Q 576.96 81.83 562.79 81.07
  Q 561.75 81.01 560.84 80.18
  Q 560.46 79.83 560.36 80.34
  L 560.02 82.10
  L 560.01 127.57
  A 2.26 2.25 87.0 0 1 557.99 129.82
  C 556.91 129.94 556.38 130.34 555.23 130.35
  Q 523.42 130.39 495.99 130.37
  A 2.90 2.90 0.0 0 1 493.09 127.47
  L 493.10 81.76
  A 1.20 1.19 -12.5 0 0 491.40 80.68
  Q 491.12 80.81 490.89 81.03
  Q 490.54 81.38 490.04 81.38
  L 447.02 81.60
  A 2.02 2.02 0.0 0 1 445.14 80.35
  Q 443.94 77.47 443.26 74.13
  Q 442.63 71.03 441.46 68.11
  Q 434.93 51.81 426.04 40.78
  Q 421.12 34.67 413.55 27.69
  C 411.81 26.09 409.99 25.14 408.04 23.87
  C 407.11 23.25 406.92 22.31 405.58 22.21
  Q 405.06 22.17 404.75 21.76
  Q 404.14 20.97 403.34 20.50
  Q 400.11 18.56 396.83 16.36
  Q 396.10 15.87 395.30 15.58
  Q 394.32 15.23 393.69 14.43
  Q 393.29 13.92 392.64 13.89
  Q 391.44 13.82 390.52 13.06
  C 389.23 12.00 387.56 11.53 386.08 10.73
  C 384.30 9.78 382.42 9.65 380.57 8.75
  Q 378.99 7.98 377.29 7.76
  Q 375.49 7.54 373.82 6.42
  Q 373.36 6.11 372.80 6.08
  Q 370.15 5.96 367.43 5.13
  Q 364.77 4.31 362.17 4.16
  Q 347.32 3.31 332.17 3.96
  Q 328.77 4.11 326.14 4.90
  Q 323.19 5.78 320.25 6.12
  Q 318.64 6.30 317.32 7.01
  C 315.44 8.03 313.49 7.80 311.69 8.80
  Q 310.74 9.32 309.70 9.71
  Q 305.41 11.32 300.37 13.87
  Q 283.49 22.43 271.43 35.86
  Q 269.60 37.89 268.21 40.28
  Q 266.76 42.75 265.15 44.76
  Q 262.80 47.70 261.09 50.64
  L 255.72 60.62
  Q 252.61 66.73 250.74 73.70
  Q 249.78 77.26 248.72 80.81
  Q 248.57 81.31 248.06 81.45
  L 247.56 81.58
  L 203.34 81.68
  Q 201.93 80.42 201.94 79.25
  Q 202.09 64.58 201.84 50.66
  A 1.88 1.87 4.9 0 0 200.30 48.84
  Q 197.66 48.36 194.50 48.37
  Q 165.65 48.42 137.16 48.21
  A 0.85 0.85 0.0 0 0 136.31 49.06
  L 136.37 78.91
  L 134.21 81.64
  L 94.57 81.63
  A 2.76 2.76 0.0 0 1 91.81 78.81
  Q 92.06 67.03 91.60 56.24
  Q 91.53 54.71 91.34 53.18
  Q 91.26 52.50 90.82 51.98
  Q 90.17 51.21 90.12 50.16
  A 2.21 2.15 27.5 0 0 89.76 49.07
  Q 88.51 47.13 86.94 45.95
  Q 86.39 45.53 85.77 45.23
  Q 84.97 44.84 83.96 44.61
  Q 83.01 44.39 82.03 44.39
  Q 54.68 44.25 27.57 44.37
  Q 26.62 44.38 26.09 45.15
  Q 25.60 45.86 24.70 45.80
  Q 24.17 45.77 23.86 46.21
  C 23.11 47.31 22.07 47.56 21.36 48.67
  Q 20.38 50.22 19.69 51.92
  Q 19.35 52.77 19.37 53.62
  C 19.41 55.10 19.08 56.48 19.09 58.01
  Q 19.37 94.90 19.23 122.72
  Q 19.17 134.64 18.80 148.79
  Q 18.68 153.65 19.99 156.64
  Q 21.64 160.40 25.45 162.83
  Q 27.13 163.91 29.01 163.88
  Q 54.61 163.54 79.57 163.75
  Q 81.92 163.77 84.19 162.60
  Q 86.99 161.14 88.84 159.10
  Q 90.13 157.67 91.31 154.49
  Q 92.65 147.14 91.95 143.50
  Q 91.51 141.22 91.91 137.25
  Q 92.17 134.70 91.49 130.02
  Q 92.61 127.93 94.19 128.21
  Q 108.16 128.96 122.08 128.21
  L 134.66 128.22
  A 1.70 1.70 0.0 0 1 136.36 129.92
  L 136.35 165.30
  Q 136.35 167.24 134.41 167.23
  Q 130.49 167.21 126.78 167.25
  C 124.98 167.28 123.65 168.50 121.93 168.96
  Q 121.40 169.10 121.15 169.60
  Q 120.48 170.91 120.52 172.48
  Q 121.00 193.56 120.91 215.43
  Q 120.90 216.71 119.66 217.07
  Q 104.17 221.51 90.26 229.06
  Q 87.16 230.74 84.34 232.36
  Q 81.19 234.17 78.48 236.14
  Q 69.71 242.50 64.26 247.22
  Q 55.57 254.73 48.35 263.43
  Q 40.80 272.51 32.93 285.46
  Q 30.93 288.75 29.94 292.04
  Q 29.85 292.36 29.52 292.42
  Q 29.19 292.49 29.08 292.80
  Q 28.48 294.64 27.38 296.10
  A 1.68 1.66 64.9 0 0 27.04 297.05
  Q 27.00 297.88 26.37 298.29
  Q 25.97 298.55 25.94 299.02
  Q 25.82 300.52 24.76 301.79
  Q 23.88 302.85 23.39 304.08
  Q 21.30 309.35 19.19 315.02
  Q 17.68 319.11 15.59 327.92
  Q 14.87 330.97 14.39 334.15
  Q 13.92 337.24 13.38 340.34
  Q 12.65 344.48 12.45 349.71
  Q 12.24 355.18 11.86 360.58
  Q 10.65 384.84 11.38 408.99
  L 10.53 408.94
  Q 10.01 408.91 10.01 408.38
  Q 10.02 382.02 10.00 355.63
  Q 10.00 354.58 10.62 353.72
  Q 10.94 353.27 10.93 352.71
  Q 10.76 346.48 11.87 339.37
  Q 15.61 315.55 25.31 296.52
  Q 30.84 285.67 38.91 273.76
  Q 52.37 253.91 72.51 238.87
  Q 84.36 230.02 96.11 224.50
  Q 105.84 219.93 116.48 216.39
  C 117.64 216.00 118.25 216.01 119.47 216.01
  Q 120.05 216.01 120.05 215.42
  Q 120.01 199.59 120.06 182.75
  Q 120.07 179.37 119.14 175.88
  C 118.50 173.47 119.98 171.16 120.04 168.72
  A 0.69 0.68 -87.9 0 1 120.75 168.05
  Q 122.78 168.12 124.09 166.47
  Q 124.45 166.03 125.01 166.03
  L 132.73 166.03
  A 2.26 2.26 0.0 0 0 135.00 163.77
  L 135.00 132.25
  A 2.25 2.25 0.0 0 0 132.75 130.00
  L 93.52 130.00
  Q 93.04 130.00 93.03 130.48
  Q 92.87 138.47 93.08 146.85
  Q 93.24 153.01 91.89 156.44
  Q 89.93 161.41 84.17 163.93
  Q 83.43 164.26 82.78 164.73
  Q 82.36 165.04 81.83 165.04
  Q 54.94 164.93 28.71 165.05
  Q 26.42 165.06 24.67 163.92
  Q 21.79 162.02 20.24 159.47
  Q 19.43 158.12 18.70 156.52
  Q 18.04 155.05 18.04 153.60
  Q 18.05 103.13 18.03 51.77
  A 0.87 0.86 75.0 0 1 18.46 51.02
  Q 18.99 50.70 18.99 50.08
  Q 18.99 49.53 19.38 49.14
  L 23.14 45.39
  Q 23.52 45.01 24.06 45.02
  Q 24.76 45.03 25.07 44.42
  A 0.72 0.72 0.0 0 1 25.85 44.03
  Q 26.64 44.16 27.02 43.50
  Q 27.30 43.02 27.85 43.02
  Q 54.98 42.96 82.14 43.03
  Q 83.30 43.04 84.40 43.54
  C 85.44 44.01 86.52 44.03 87.42 44.81
  Q 93.03 49.63 93.02 56.37
  Q 92.99 68.05 92.99 79.44
  Q 92.99 80.00 93.55 80.00
  L 132.73 80.00
  A 2.29 2.29 0.0 0 0 135.02 77.73
  Q 135.06 72.43 134.97 66.32
  C 134.95 65.17 134.07 64.87 134.04 63.78
  C 133.97 60.97 133.59 56.96 134.61 54.33
  Q 135.33 52.45 134.47 50.81
  Q 134.24 50.37 134.63 50.07
  Q 134.74 49.98 134.82 49.88
  Q 134.96 49.71 134.94 49.50
  C 134.87 48.28 135.88 47.04 137.18 47.04
  Q 167.77 47.00 199.81 46.98
  Q 200.41 46.98 200.85 47.39
  Q 201.45 47.96 202.17 47.93
  Q 202.99 47.91 202.99 48.73
  L 203.00 79.37
  Q 203.00 80.00 203.62 80.00
  L 247.48 80.00
  Q 248.13 80.00 248.01 79.36
  Q 247.70 77.85 248.31 76.62
  Q 248.76 75.68 249.04 74.78
  Q 256.41 50.66 273.27 32.25
  Q 276.58 28.63 281.33 24.91
  C 285.38 21.74 289.39 18.53 293.73 16.06
  Q 300.98 11.95 309.56 8.32
  Q 311.44 7.52 313.12 7.11
  Q 315.33 6.56 317.00 5.71
  C 318.99 4.69 321.20 5.08 323.37 4.30
  Q 327.87 2.67 332.75 2.97
  Q 333.52 3.02 334.08 2.49
  Q 334.56 2.04 335.21 2.04
  L 356.25 2.00
  Q 356.69 2.00 356.91 2.39
  L 357.05 2.65
  Q 357.26 3.03 357.70 3.03
  L 365.72 2.99
  Q 366.35 2.98 366.79 3.43
  Q 367.62 4.27 368.84 4.00
  Q 369.51 3.85 369.90 4.42
  Q 370.10 4.70 370.39 4.85
  C 371.57 5.46 373.25 4.62 374.78 5.46
  Q 376.48 6.39 378.18 6.73
  Q 379.78 7.06 381.32 7.63
  Q 422.91 22.99 441.38 63.75
  Q 444.55 70.73 446.26 79.80
  A 0.29 0.28 -4.8 0 0 446.54 80.03
  L 489.69 80.02
  A 2.37 2.34 17.2 0 0 491.63 79.01
  Q 492.58 77.63 491.61 77.09
  Q 491.00 76.75 491.00 76.06
  L 491.00 71.56
  Q 491.00 71.16 491.32 70.92
  Q 491.44 70.83 491.53 70.72
  Q 491.73 70.50 491.51 70.29
  L 491.22 70.02
  Q 491.00 69.81 491.00 69.51
  L 491.00 20.99
  Q 491.00 20.40 491.47 20.05
  Q 492.11 19.56 492.01 18.76
  Q 491.96 18.28 492.38 18.06
  Q 493.00 17.72 493.00 17.04
  Q 492.99 16.52 493.36 16.15
  L 496.08 13.45
  Q 496.48 13.05 497.03 13.04
  Q 497.67 13.02 497.99 12.45
  Q 498.25 12.00 498.78 12.00
  L 553.01 12.00
  Q 553.57 12.00 553.92 12.43
  Q 554.61 13.26 555.71 12.97
  Q 556.32 12.82 556.75 13.26
  Q 558.23 14.78 559.66 16.20
  Q 559.94 16.48 560.03 16.84
  Q 560.07 17.00 560.06 17.17
  Q 560.02 17.69 560.45 17.98
  Q 561.03 18.38 561.03 19.06
  Q 561.03 19.60 561.44 19.94
  L 561.76 20.20
  Q 562.00 20.40 562.00 20.71
  L 562.00 77.21
  Q 562.00 77.91 561.30 78.01
  Q 561.13 78.03 561.06 78.28
  A 0.43 0.42 30.9 0 0 561.17 78.70
  L 562.09 79.65
  A 1.16 1.15 -22.0 0 0 562.92 80.00
  L 604.03 80.00
  Q 604.67 80.00 605.09 79.52
  Q 605.55 78.98 606.26 78.99
  Q 607.00 79.00 607.00 78.26
  L 607.02 76.26
  A 1.30 1.26 -25.7 0 1 607.32 75.44
  Q 608.41 74.11 609.05 72.41
  Q 611.22 66.65 617.59 63.23
  A 1.79 1.73 -54.1 0 1 618.66 63.04
  Q 620.25 63.29 621.15 62.36
  Q 621.51 61.98 622.04 61.98
  L 652.03 62.04
  Q 652.68 62.04 653.04 62.58
  Q 653.30 62.99 653.79 62.99
  Q 654.48 62.99 654.96 63.48
  L 657.60 66.13
  A 1.52 1.51 28.3 0 1 658.01 67.48
  Q 657.57 69.62 658.65 71.14
  Q 659.00 71.63 659.00 72.24
  L 659.00 135.25
  Q 659.00 135.80 658.48 135.98
  Q 658.29 136.04 658.17 136.19
  A 1.37 0.97 71.3 0 0 657.93 137.00
  L 657.98 140.96
  Q 657.99 141.46 657.63 141.82
  L 653.86 145.62
  Q 653.50 145.98 652.99 145.98
  L 617.03 145.98
  A 1.32 1.31 -24.5 0 1 616.17 145.66
  Q 611.92 142.01 609.11 137.24
  Q 609.00 137.06 608.98 136.56
  Q 608.96 136.08 608.75 135.63
  L 606.79 131.47
  Q 606.55 130.94 605.97 130.95
  C 598.33 131.00 590.92 131.16 583.09 130.32
  Q 576.92 129.66 569.70 130.02
  Q 569.32 130.04 569.11 130.35
  Q 568.46 131.29 567.01 131.05
  Q 566.50 130.97 566.14 130.63
  Q 564.22 128.83 562.33 131.05
  Q 562.00 131.44 562.00 131.94
  L 562.00 164.47
  Q 562.00 165.21 562.72 165.00
  Q 563.62 164.74 564.00 165.55
  A 0.99 0.98 68.6 0 0 565.18 166.07
  Q 567.00 165.53 568.18 166.67
  A 1.27 1.27 0.0 0 0 569.40 166.99
  Q 570.44 166.72 571.04 167.61
  Q 571.33 168.03 571.85 168.02
  L 573.25 167.99
  Q 573.90 167.98 573.97 168.63
  Q 574.06 169.52 574.63 170.22
  Q 575.01 170.68 575.01 171.27
  L 574.98 215.35
  Q 574.98 215.97 575.60 215.97
  L 575.96 215.97
  Q 576.54 215.98 576.89 216.44
  Q 577.55 217.33 578.67 216.99
  A 1.06 1.05 60.2 0 1 579.75 217.29
  Q 580.61 218.21 582.08 218.04
  Q 582.67 217.97 583.21 218.20
  Q 587.44 220.03 592.02 221.81
  Q 593.53 222.39 594.87 223.21
  C 596.15 223.98 597.58 224.25 598.94 224.90
  Q 612.12 231.23 621.55 237.86
  Q 639.40 250.40 654.07 267.90
  C 658.54 273.23 662.73 279.62 666.31 285.56
  Q 683.02 313.30 687.02 344.55
  Q 688.10 352.95 688.02 364.41
  Q 687.88 385.83 688.03 406.83
  A 2.47 2.09 -3.6 0 1 685.81 408.96
  Q 685.21 409.02 684.96 409.55
  Q 684.73 410.00 684.23 410.00
  L 642.67 410.00
  Q 642.51 410.00 642.40 409.90
  Q 642.28 409.79 642.20 409.72
  Z
  M 493.96 17.47
  Q 493.84 17.41 493.69 17.54
  Q 493.60 17.62 493.55 17.74
  Q 492.27 21.15 492.19 25.45
  Q 491.93 39.02 492.30 49.27
  Q 492.81 63.69 492.59 76.16
  A 2.18 2.18 0.0 0 0 494.56 78.37
  Q 495.89 78.50 497.08 78.51
  Q 510.05 78.62 523.02 78.82
  Q 523.16 78.83 523.25 78.73
  Q 523.37 78.62 523.50 78.62
  Q 541.25 78.65 559.00 78.61
  Q 559.56 78.61 559.53 78.03
  L 560.00 77.64
  Q 560.37 77.33 560.37 76.84
  Q 560.44 49.72 560.21 22.61
  C 560.18 19.12 558.90 16.98 556.48 14.67
  Q 555.96 14.18 555.26 14.05
  C 554.14 13.83 553.21 13.41 552.07 13.40
  Q 525.17 13.31 500.27 13.46
  Q 498.98 13.46 497.49 13.69
  Q 496.98 13.76 496.65 14.16
  L 493.96 17.47
  Z
  M 557.99 127.98
  L 558.38 127.99
  Q 559.01 128.00 559.01 127.37
  L 559.01 80.38
  A 0.38 0.38 0.0 0 0 558.63 80.00
  L 494.24 80.00
  A 0.27 0.26 -0.0 0 0 493.97 80.26
  L 493.95 126.72
  A 2.28 2.28 0.0 0 0 496.23 129.00
  L 556.18 129.00
  Q 556.51 129.00 556.78 128.81
  Q 556.91 128.73 556.97 128.60
  Q 557.28 127.96 557.99 127.98
  Z"
/>
<path d="
  M 560.02 82.10
  L 604.01 81.96
  Q 604.54 81.95 604.87 81.54
  Q 605.16 81.18 605.62 81.08
  C 607.78 80.61 608.80 78.12 608.45 76.12
  Q 609.85 72.52 612.19 69.19
  Q 614.34 66.13 617.66 64.76
  Q 620.33 63.66 624.23 63.77
  Q 632.16 64.00 640.25 63.22
  Q 645.43 62.72 651.08 62.89
  Q 651.65 62.90 651.91 63.42
  Q 652.08 63.75 652.48 63.71
  Q 653.28 63.63 653.91 64.14
  Q 657.90 67.33 657.90 72.50
  Q 657.87 102.40 657.88 132.29
  Q 657.88 134.23 657.53 136.19
  Q 657.22 138.01 657.41 139.83
  Q 657.46 140.35 657.10 140.73
  L 653.56 144.50
  Q 653.17 144.92 652.60 144.92
  Q 646.94 144.95 640.90 144.84
  Q 635.52 144.74 630.08 144.87
  Q 624.81 145.01 619.18 144.65
  Q 616.95 144.51 615.45 143.34
  Q 613.93 142.15 612.70 140.40
  Q 609.71 136.17 607.85 131.31
  C 607.38 130.10 606.25 129.79 605.00 129.85
  Q 595.24 130.38 584.00 129.41
  Q 579.50 129.02 567.80 129.50
  C 566.20 129.57 564.37 128.92 562.63 129.42
  Q 560.54 130.03 560.52 132.50
  Q 560.36 147.05 560.37 164.41
  A 1.82 1.82 0.0 0 0 561.66 166.15
  Q 563.23 166.61 564.75 167.24
  C 567.21 168.27 569.99 168.44 572.54 169.17
  A 1.45 1.43 8.1 0 1 573.59 170.55
  L 573.55 214.97
  A 2.86 2.85 5.8 0 0 575.83 217.76
  Q 581.28 218.88 586.71 221.18
  Q 591.91 223.39 597.60 225.91
  Q 603.61 228.58 608.54 231.43
  Q 622.13 239.28 633.20 248.89
  Q 640.57 255.29 647.70 262.99
  Q 654.85 270.70 660.51 279.09
  Q 669.70 292.71 676.24 308.94
  Q 681.53 322.08 684.58 338.98
  Q 684.78 340.09 684.94 341.17
  Q 685.79 346.83 686.20 353.04
  Q 686.54 358.13 686.56 364.96
  Q 686.64 386.18 686.24 407.04
  A 1.60 1.60 0.0 0 1 684.64 408.60
  L 644.05 408.57
  L 609.55 408.37
  L 374.19 408.08
  A 0.80 0.80 0.0 0 1 373.39 407.29
  Q 373.25 380.51 373.49 350.62
  Q 373.53 345.29 375.08 335.55
  C 375.59 332.35 376.70 328.86 377.23 325.47
  Q 377.58 323.23 378.41 321.26
  Q 379.26 319.22 379.59 316.97
  C 379.87 315.14 381.05 313.76 381.38 311.86
  Q 381.69 310.06 382.57 308.31
  Q 384.14 305.19 385.07 301.86
  A 10.99 8.51 -73.9 0 1 385.57 300.39
  Q 389.07 291.88 393.83 284.30
  Q 395.12 282.23 396.45 280.08
  Q 397.84 277.83 399.29 275.89
  Q 408.44 263.70 418.62 253.24
  Q 426.98 244.64 435.09 238.92
  Q 440.86 234.86 447.15 230.75
  Q 447.25 230.68 447.37 230.64
  Q 447.52 230.60 447.69 230.60
  Q 447.96 230.60 448.20 230.46
  Q 450.89 228.88 453.53 227.39
  C 454.21 227.01 454.99 227.02 455.55 226.58
  Q 456.11 226.16 456.71 225.85
  Q 463.89 222.28 471.58 219.83
  Q 474.95 218.76 478.32 218.32
  A 2.66 2.66 0.0 0 0 480.63 215.73
  L 481.41 170.25
  Q 481.42 169.60 481.92 169.41
  C 484.48 168.39 486.79 168.34 489.43 168.24
  A 3.05 3.05 0.0 0 0 492.35 165.12
  Q 491.94 146.91 492.16 132.46
  Q 492.22 128.98 488.74 128.97
  L 447.80 128.84
  A 3.60 3.60 0.0 0 0 444.38 131.27
  Q 442.88 135.60 441.40 139.71
  Q 440.21 143.00 438.32 146.39
  Q 436.37 149.88 434.63 153.59
  Q 432.76 157.60 430.40 160.99
  Q 428.14 164.25 426.21 167.24
  Q 424.32 170.18 421.80 172.36
  Q 420.42 173.55 419.38 175.19
  Q 418.44 176.68 417.04 178.23
  Q 410.92 185.00 404.60 189.89
  Q 401.61 192.21 397.35 194.35
  Q 393.43 196.31 389.65 198.12
  Q 389.19 198.34 388.67 198.34
  Q 388.25 198.34 387.94 198.60
  C 387.09 199.31 385.48 199.69 384.43 199.99
  Q 383.14 200.37 381.69 201.03
  Q 380.56 201.55 379.25 201.84
  Q 377.75 202.17 376.33 202.73
  Q 373.22 203.95 369.42 204.23
  Q 368.89 204.27 368.44 204.57
  Q 367.73 205.04 366.88 205.19
  Q 354.48 207.39 341.15 206.38
  Q 340.82 206.36 340.52 206.52
  Q 340.35 206.62 340.15 206.61
  Q 333.09 206.23 326.68 205.12
  Q 325.77 204.96 324.92 204.56
  Q 324.30 204.27 323.65 204.15
  Q 317.95 203.18 312.20 200.96
  Q 310.53 200.31 308.73 200.05
  Q 307.11 199.82 305.75 198.58
  Q 305.15 198.04 304.34 198.06
  Q 303.52 198.08 302.77 197.82
  Q 299.92 196.81 295.79 194.10
  Q 290.84 190.86 286.02 187.73
  Q 280.34 184.02 271.82 174.53
  Q 268.91 169.25 264.79 165.16
  Q 262.85 162.29 260.93 159.31
  Q 259.42 156.99 257.94 153.96
  Q 256.59 151.20 255.16 148.49
  Q 253.94 146.18 252.88 142.48
  Q 252.51 141.20 251.89 140.15
  C 250.71 138.15 251.14 136.16 250.18 134.12
  Q 249.34 132.30 248.92 130.16
  A 1.74 1.74 0.0 0 0 247.22 128.75
  L 204.21 128.63
  Q 202.04 128.62 202.04 130.79
  L 202.04 165.12
  A 1.71 1.70 3.6 0 0 203.53 166.81
  Q 207.35 167.31 211.52 168.35
  Q 211.64 168.38 214.04 168.70
  Q 217.03 169.10 216.94 172.75
  Q 216.43 193.37 216.60 213.26
  Q 216.64 217.12 220.34 218.14
  C 232.36 221.43 244.13 227.21 254.66 233.74
  Q 263.31 239.11 271.12 245.22
  Q 291.37 261.06 304.95 283.56
  C 312.54 296.14 318.40 308.33 322.22 322.65
  Q 324.09 329.65 325.89 337.87
  Q 326.42 340.33 326.63 342.58
  Q 326.86 345.11 327.40 347.49
  Q 328.18 350.99 328.26 354.62
  C 328.68 372.19 328.45 389.73 328.47 407.29
  Q 328.06 408.47 326.50 408.47
  Q 291.46 408.52 266.24 408.16
  Q 255.90 408.00 246.24 407.99
  Q 129.79 407.84 13.07 407.96
  A 0.86 0.86 0.0 0 1 12.21 407.11
  L 11.86 360.58
  Q 12.24 355.18 12.45 349.71
  Q 12.65 344.48 13.38 340.34
  Q 13.92 337.24 14.39 334.15
  Q 14.87 330.97 15.59 327.92
  Q 17.68 319.11 19.19 315.02
  Q 21.30 309.35 23.39 304.08
  Q 23.88 302.85 24.76 301.79
  Q 25.82 300.52 25.94 299.02
  Q 25.97 298.55 26.37 298.29
  Q 27.00 297.88 27.04 297.05
  A 1.68 1.66 64.9 0 1 27.38 296.10
  Q 28.48 294.64 29.08 292.80
  Q 29.19 292.49 29.52 292.42
  Q 29.85 292.36 29.94 292.04
  Q 30.93 288.75 32.93 285.46
  Q 40.80 272.51 48.35 263.43
  Q 55.57 254.73 64.26 247.22
  Q 69.71 242.50 78.48 236.14
  Q 81.19 234.17 84.34 232.36
  Q 87.16 230.74 90.26 229.06
  Q 104.17 221.51 119.66 217.07
  Q 120.90 216.71 120.91 215.43
  Q 121.00 193.56 120.52 172.48
  Q 120.48 170.91 121.15 169.60
  Q 121.40 169.10 121.93 168.96
  C 123.65 168.50 124.98 167.28 126.78 167.25
  Q 130.49 167.21 134.41 167.23
  Q 136.35 167.24 136.35 165.30
  L 136.36 129.92
  A 1.70 1.70 0.0 0 0 134.66 128.22
  L 122.08 128.21
  Q 108.15 127.50 94.19 128.21
  Q 92.61 127.93 91.49 130.02
  L 91.31 154.49
  Q 90.13 157.67 88.84 159.10
  Q 86.99 161.14 84.19 162.60
  Q 81.92 163.77 79.57 163.75
  Q 54.61 163.54 29.01 163.88
  Q 27.13 163.91 25.45 162.83
  Q 21.64 160.40 19.99 156.64
  Q 18.68 153.65 18.80 148.79
  Q 19.17 134.64 19.23 122.72
  Q 19.37 94.90 19.09 58.01
  C 19.08 56.48 19.41 55.10 19.37 53.62
  Q 19.35 52.77 19.69 51.92
  Q 20.38 50.22 21.36 48.67
  C 22.07 47.56 23.11 47.31 23.86 46.21
  Q 24.17 45.77 24.70 45.80
  Q 25.60 45.86 26.09 45.15
  Q 26.62 44.38 27.57 44.37
  Q 54.68 44.25 82.03 44.39
  Q 83.01 44.39 83.96 44.61
  Q 84.97 44.84 85.77 45.23
  Q 86.39 45.53 86.94 45.95
  Q 88.51 47.13 89.76 49.07
  A 2.21 2.15 27.5 0 1 90.12 50.16
  Q 90.17 51.21 90.82 51.98
  Q 91.26 52.50 91.34 53.18
  Q 91.53 54.71 91.60 56.24
  Q 92.06 67.03 91.81 78.81
  A 2.76 2.76 0.0 0 0 94.57 81.63
  L 134.21 81.64
  Q 136.09 81.71 136.38 80.63
  Q 136.53 80.06 136.37 78.91
  L 136.31 49.06
  A 0.85 0.85 0.0 0 1 137.16 48.21
  Q 165.65 48.42 194.50 48.37
  Q 197.66 48.36 200.30 48.84
  A 1.88 1.87 4.9 0 1 201.84 50.66
  Q 202.09 64.58 201.94 79.25
  Q 201.93 80.42 203.34 81.68
  Q 203.71 82.06 204.47 82.06
  Q 225.34 81.88 246.22 81.89
  Q 246.72 81.89 247.56 81.58
  L 248.06 81.45
  Q 248.57 81.31 248.72 80.81
  Q 249.78 77.26 250.74 73.70
  Q 252.61 66.73 255.72 60.62
  Q 257.30 57.92 258.89 55.88
  Q 259.76 54.77 261.09 50.64
  Q 262.80 47.70 265.15 44.76
  Q 266.76 42.75 268.21 40.28
  Q 269.60 37.89 271.43 35.86
  Q 283.49 22.43 300.37 13.87
  Q 305.41 11.32 309.70 9.71
  Q 310.74 9.32 311.69 8.80
  C 313.49 7.80 315.44 8.03 317.32 7.01
  Q 318.64 6.30 320.25 6.12
  Q 323.19 5.78 326.14 4.90
  Q 328.77 4.11 332.17 3.96
  Q 347.32 3.31 362.17 4.16
  Q 364.77 4.31 367.43 5.13
  Q 370.15 5.96 372.80 6.08
  Q 373.36 6.11 373.82 6.42
  Q 375.49 7.54 377.29 7.76
  Q 378.99 7.98 380.57 8.75
  C 382.42 9.65 384.30 9.78 386.08 10.73
  C 387.56 11.53 389.23 12.00 390.52 13.06
  Q 391.44 13.82 392.64 13.89
  Q 393.29 13.92 393.69 14.43
  Q 394.32 15.23 395.30 15.58
  Q 396.10 15.87 396.83 16.36
  Q 400.11 18.56 403.34 20.50
  Q 404.14 20.97 404.75 21.76
  Q 405.06 22.17 405.58 22.21
  C 406.92 22.31 407.11 23.25 408.04 23.87
  C 409.99 25.14 411.81 26.09 413.55 27.69
  Q 421.12 34.67 426.04 40.78
  Q 434.93 51.81 441.46 68.11
  Q 442.63 71.03 443.26 74.13
  Q 443.94 77.47 445.14 80.35
  A 2.02 2.02 0.0 0 0 447.02 81.60
  L 490.04 81.38
  Q 490.54 81.38 490.89 81.03
  Q 491.12 80.81 491.40 80.68
  A 1.20 1.19 -12.5 0 1 493.10 81.76
  L 493.09 127.47
  A 2.90 2.90 0.0 0 0 495.99 130.37
  Q 523.42 130.39 555.23 130.35
  C 556.38 130.34 556.91 129.94 557.99 129.82
  A 2.26 2.25 87.0 0 0 560.01 127.57
  L 560.02 82.10
  Z
  M 367.27 167.12
  Q 368.49 167.17 369.26 166.81
  C 371.73 165.68 374.32 164.87 376.80 163.68
  Q 391.90 156.48 401.20 141.41
  Q 408.65 129.32 411.15 116.37
  Q 412.26 110.60 411.73 99.59
  Q 411.40 92.54 409.31 86.42
  Q 406.86 79.24 403.42 73.91
  Q 399.22 67.40 394.06 61.82
  Q 390.29 57.74 385.57 54.40
  Q 380.17 50.58 374.44 47.79
  Q 374.44 47.79 374.43 47.78
  Q 367.37 44.51 358.77 42.05
  Q 356.29 41.34 353.83 41.31
  Q 346.00 41.21 339.15 41.87
  Q 334.34 42.33 329.03 43.57
  C 327.36 43.95 325.86 44.81 324.21 45.29
  Q 322.66 45.74 321.17 46.38
  Q 307.52 52.23 297.60 62.78
  Q 286.48 74.62 283.09 90.31
  C 282.80 91.62 283.04 92.86 282.60 94.11
  Q 282.07 95.61 282.01 97.16
  Q 281.72 104.71 282.07 112.80
  Q 282.34 119.16 284.50 124.78
  Q 289.32 137.32 295.28 145.25
  Q 301.10 152.99 308.21 157.98
  Q 311.30 160.16 315.28 162.26
  Q 318.98 164.21 322.74 165.63
  Q 326.97 167.23 330.55 168.21
  Q 347.97 172.99 367.01 167.50
  Q 367.15 167.47 367.13 167.33
  Q 367.13 167.30 367.12 167.26
  Q 367.11 167.11 367.27 167.12
  Z
  M 478.84 287.81
  Q 480.81 286.60 482.76 285.32
  Q 487.60 282.13 494.66 279.40
  Q 495.74 278.98 496.86 278.63
  Q 498.13 278.22 499.26 277.75
  Q 500.99 277.02 504.86 276.61
  Q 505.97 276.49 506.86 275.93
  Q 507.91 275.26 509.24 274.98
  Q 510.73 274.67 512.07 273.68
  Q 515.19 271.38 517.35 268.52
  C 519.97 265.08 519.83 261.49 519.76 257.49
  Q 519.72 254.99 517.79 252.57
  Q 515.47 249.66 512.58 247.76
  Q 509.72 245.87 506.77 245.92
  Q 503.02 245.98 498.98 246.07
  Q 495.48 246.15 491.25 247.99
  Q 485.77 250.37 480.45 252.60
  Q 479.34 253.06 478.24 253.46
  Q 476.27 254.16 474.72 255.27
  Q 471.41 257.63 467.50 259.38
  Q 465.18 260.42 463.21 262.15
  Q 460.66 264.39 457.73 266.20
  C 456.11 267.20 454.86 268.69 453.22 269.75
  Q 451.52 270.85 450.11 272.28
  Q 448.66 273.73 446.75 275.10
  C 444.94 276.41 443.43 278.13 441.68 279.57
  Q 440.29 280.70 439.20 282.38
  Q 438.15 283.99 436.90 284.98
  Q 435.04 286.46 433.33 289.20
  Q 421.95 307.51 416.18 320.81
  Q 415.35 322.73 414.89 324.64
  Q 414.44 326.48 413.74 328.41
  Q 412.94 330.62 412.94 333.00
  Q 412.93 335.17 412.45 337.50
  Q 411.46 342.29 411.24 346.28
  Q 410.76 355.39 410.83 366.35
  Q 410.85 368.97 411.49 371.04
  Q 412.18 373.32 413.48 375.76
  Q 416.34 381.17 420.51 382.69
  Q 422.54 383.44 424.92 383.56
  C 427.12 383.67 429.46 384.13 431.61 383.31
  Q 432.71 382.89 433.53 382.12
  C 434.42 381.27 435.63 380.76 436.43 379.79
  Q 439.13 376.53 440.48 372.36
  Q 441.51 369.19 441.41 365.54
  Q 441.11 353.66 441.61 340.99
  Q 441.68 339.41 442.16 337.99
  Q 443.02 335.50 443.67 332.64
  C 444.01 331.13 444.86 330.13 445.24 328.76
  Q 445.68 327.23 446.38 325.88
  Q 448.56 321.71 450.73 317.63
  Q 451.90 315.43 453.54 313.75
  Q 455.33 311.90 456.64 309.74
  Q 458.38 306.87 460.43 304.68
  Q 462.74 302.23 465.01 299.99
  Q 465.36 299.65 465.47 299.18
  Q 465.53 298.94 465.73 298.76
  Q 470.17 294.73 475.16 290.46
  Q 476.77 289.08 478.84 287.81
  Z"
/>
<path d="
  M 559.53 78.03
  L 495.11 77.78
  A 1.68 1.68 0.0 0 1 493.43 76.09
  L 493.67 18.79
  Q 493.67 18.38 493.95 18.08
  Q 494.24 17.77 493.96 17.47
  L 496.65 14.16
  Q 496.98 13.76 497.49 13.69
  Q 498.98 13.46 500.27 13.46
  Q 525.17 13.31 552.07 13.40
  C 553.21 13.41 554.14 13.83 555.26 14.05
  Q 555.96 14.18 556.48 14.67
  C 558.90 16.98 560.18 19.12 560.21 22.61
  Q 560.44 49.72 560.37 76.84
  Q 560.37 77.33 560.00 77.64
  L 559.53 78.03
  Z"
/>
<path d="
  M 493.96 17.47
  Q 494.24 17.77 493.95 18.08
  Q 493.67 18.38 493.67 18.79
  L 493.43 76.09
  A 1.68 1.68 0.0 0 0 495.11 77.78
  L 559.53 78.03
  Q 559.56 78.61 559.00 78.61
  Q 541.25 78.65 523.50 78.62
  Q 523.37 78.62 523.25 78.73
  Q 523.16 78.83 523.02 78.82
  Q 510.05 78.62 497.08 78.51
  Q 495.89 78.50 494.56 78.37
  A 2.18 2.18 0.0 0 1 492.59 76.16
  Q 492.81 63.69 492.30 49.27
  Q 491.93 39.02 492.19 25.45
  Q 492.27 21.15 493.55 17.74
  Q 493.60 17.62 493.69 17.54
  Q 493.84 17.41 493.96 17.47
  Z"
/>
<path d="
  M 367.12 167.26
  Q 367.13 167.30 367.13 167.33
  Q 367.15 167.47 367.01 167.50
  Q 347.97 172.99 330.55 168.21
  Q 326.97 167.23 322.74 165.63
  Q 318.98 164.21 315.28 162.26
  Q 311.30 160.16 308.21 157.98
  Q 301.10 152.99 295.28 145.25
  Q 289.32 137.32 284.50 124.78
  Q 282.34 119.16 282.07 112.80
  Q 281.72 104.71 282.01 97.16
  Q 282.07 95.61 282.60 94.11
  C 283.04 92.86 282.80 91.62 283.09 90.31
  Q 286.48 74.62 297.60 62.78
  Q 307.52 52.23 321.17 46.38
  Q 322.66 45.74 324.21 45.29
  C 325.86 44.81 327.36 43.95 329.03 43.57
  Q 334.34 42.33 339.15 41.87
  Q 346.00 41.21 353.83 41.31
  Q 356.29 41.34 358.77 42.05
  Q 367.37 44.51 374.43 47.78
  Q 374.44 47.79 374.44 47.79
  Q 380.17 50.58 385.57 54.40
  Q 390.29 57.74 394.06 61.82
  Q 399.22 67.40 403.42 73.91
  Q 406.86 79.24 409.31 86.42
  Q 411.40 92.54 411.73 99.59
  Q 412.26 110.60 411.15 116.37
  Q 408.65 129.32 401.20 141.41
  Q 391.90 156.48 376.80 163.68
  C 374.32 164.87 371.73 165.68 369.26 166.81
  Q 368.49 167.17 367.27 167.12
  Q 367.11 167.11 367.12 167.26
  Z
  M 317.53 49.46
  Q 316.55 49.98 315.56 50.54
  Q 297.66 60.66 288.32 78.76
  C 287.37 80.60 286.83 82.60 286.14 84.55
  Q 285.36 86.72 284.99 89.03
  C 284.46 92.28 283.36 95.28 283.18 98.67
  Q 282.81 105.79 283.23 112.76
  C 283.40 115.63 284.28 118.24 284.89 121.01
  Q 285.54 123.94 286.88 126.96
  Q 289.62 133.16 292.04 137.31
  Q 305.92 161.11 332.44 167.16
  Q 352.40 171.71 372.20 164.22
  Q 385.63 159.14 394.41 148.60
  Q 404.22 136.80 408.72 120.47
  Q 411.51 110.34 410.67 100.83
  Q 409.38 86.09 402.71 75.23
  Q 389.93 54.39 367.89 46.29
  Q 363.06 44.52 357.34 43.64
  Q 351.96 42.82 347.14 42.62
  Q 342.90 42.44 332.74 44.06
  Q 330.36 44.44 328.35 45.17
  Q 326.24 45.94 324.30 46.58
  Q 320.92 47.68 317.53 49.46
  Z"
/>
<path d="
  M 358.08 110.98
  Q 355.06 115.84 349.47 116.84
  Q 338.58 118.79 333.28 110.60
  Q 331.97 108.56 331.97 106.25
  Q 332.02 78.90 332.00 52.24
  Q 332.00 51.69 332.32 51.23
  Q 335.03 47.39 339.10 47.17
  Q 344.63 46.86 350.68 46.99
  Q 354.92 47.08 358.51 49.92
  C 360.51 51.49 361.10 54.04 361.09 56.45
  Q 360.98 77.79 360.97 101.09
  Q 360.97 106.33 358.08 110.98
  Z
  M 339.90 115.03
  C 341.73 116.33 345.16 115.90 347.52 115.93
  Q 350.01 115.96 352.29 114.69
  Q 356.50 112.34 358.20 108.06
  Q 359.28 105.36 359.24 100.15
  Q 359.07 76.41 359.17 54.06
  C 359.18 51.20 357.11 50.34 354.97 49.16
  Q 353.35 48.26 351.47 48.19
  Q 345.29 47.96 340.07 48.23
  C 338.07 48.34 336.41 49.32 334.75 50.32
  A 2.96 2.94 -15.9 0 0 333.32 52.86
  Q 333.37 79.79 333.26 103.40
  C 333.26 105.08 332.87 106.58 333.56 108.23
  Q 334.96 111.52 338.11 113.76
  Q 339.00 114.39 339.90 115.03
  Z"
/>
<path d="
  M 338.11 113.76
  Q 334.96 111.52 333.56 108.23
  C 332.87 106.58 333.26 105.08 333.26 103.40
  Q 333.37 79.79 333.32 52.86
  A 2.96 2.94 -15.9 0 1 334.75 50.32
  C 336.41 49.32 338.07 48.34 340.07 48.23
  Q 345.29 47.96 351.47 48.19
  Q 353.35 48.26 354.97 49.16
  C 357.11 50.34 359.18 51.20 359.17 54.06
  Q 359.07 76.41 359.24 100.15
  Q 359.28 105.36 358.20 108.06
  Q 356.50 112.34 352.29 114.69
  Q 350.01 115.96 347.52 115.93
  C 345.16 115.90 341.73 116.33 339.90 115.03
  Q 339.00 114.39 338.11 113.76
  Z"
/>
<path d="
  M 261.09 50.64
  Q 259.76 54.77 258.89 55.88
  Q 257.30 57.92 255.72 60.62
  L 261.09 50.64
  Z"
/>
<path d="
  M 608.45 76.12
  C 608.80 78.12 607.78 80.61 605.62 81.08
  Q 605.16 81.18 604.87 81.54
  Q 604.54 81.95 604.01 81.96
  L 560.02 82.10
  L 560.36 80.34
  Q 560.46 79.83 560.84 80.18
  Q 561.75 81.01 562.79 81.07
  Q 576.96 81.83 592.87 81.32
  Q 593.23 81.03 593.68 81.06
  Q 599.88 81.40 605.48 80.64
  A 1.49 1.47 15.0 0 0 606.45 80.09
  Q 607.73 78.50 608.45 76.12
  Z"
/>
<path d="
  M 136.37 78.91
  Q 136.53 80.06 136.38 80.63
  Q 136.09 81.71 134.21 81.64
  L 136.37 78.91
  Z"
/>
<path d="
  M 203.34 81.68
  L 247.56 81.58
  Q 246.72 81.89 246.22 81.89
  Q 225.34 81.88 204.47 82.06
  Q 203.71 82.06 203.34 81.68
  Z"
/>
<path d="
  M 122.08 128.21
  Q 108.16 128.96 94.19 128.21
  Q 108.15 127.50 122.08 128.21
  Z"
/>
<path d="
  M 264.79 165.16
  L 271.82 174.53
  Q 280.34 184.02 286.02 187.73
  Q 290.84 190.86 295.79 194.10
  Q 299.92 196.81 302.77 197.82
  Q 303.52 198.08 304.34 198.06
  Q 305.15 198.04 305.75 198.58
  Q 307.11 199.82 308.73 200.05
  Q 310.53 200.31 312.20 200.96
  Q 317.95 203.18 323.65 204.15
  Q 324.30 204.27 324.92 204.56
  Q 325.77 204.96 326.68 205.12
  Q 333.09 206.23 340.15 206.61
  Q 340.35 206.62 340.52 206.52
  Q 340.82 206.36 341.15 206.38
  Q 354.48 207.39 366.88 205.19
  Q 367.73 205.04 368.44 204.57
  Q 368.89 204.27 369.42 204.23
  Q 373.22 203.95 376.33 202.73
  Q 377.75 202.17 379.25 201.84
  Q 380.56 201.55 381.69 201.03
  Q 383.14 200.37 384.43 199.99
  C 385.48 199.69 387.09 199.31 387.94 198.60
  Q 388.25 198.34 388.67 198.34
  Q 389.19 198.34 389.65 198.12
  Q 393.43 196.31 397.35 194.35
  Q 401.61 192.21 404.60 189.89
  Q 410.92 185.00 417.04 178.23
  Q 418.44 176.68 419.38 175.19
  Q 420.42 173.55 421.80 172.36
  Q 424.32 170.18 426.21 167.24
  Q 428.14 164.25 430.40 160.99
  Q 432.76 157.60 434.63 153.59
  Q 436.37 149.88 438.32 146.39
  Q 440.21 143.00 441.40 139.71
  Q 442.88 135.60 444.38 131.27
  A 3.60 3.60 0.0 0 1 447.80 128.84
  L 488.74 128.97
  Q 492.22 128.98 492.16 132.46
  Q 491.94 146.91 492.35 165.12
  A 3.05 3.05 0.0 0 1 489.43 168.24
  C 486.79 168.34 484.48 168.39 481.92 169.41
  Q 481.42 169.60 481.41 170.25
  L 480.63 215.73
  A 2.66 2.66 0.0 0 1 478.32 218.32
  Q 474.95 218.76 471.58 219.83
  Q 463.89 222.28 456.71 225.85
  Q 456.11 226.16 455.55 226.58
  C 454.99 227.02 454.21 227.01 453.53 227.39
  Q 450.89 228.88 448.20 230.46
  Q 447.96 230.60 447.69 230.60
  Q 447.52 230.60 447.37 230.64
  Q 447.25 230.68 447.15 230.75
  Q 440.86 234.86 435.09 238.92
  Q 426.98 244.64 418.62 253.24
  Q 408.44 263.70 399.29 275.89
  Q 397.84 277.83 396.45 280.08
  Q 395.12 282.23 393.83 284.30
  Q 389.07 291.88 385.57 300.39
  A 10.99 8.51 -73.9 0 0 385.07 301.86
  Q 384.14 305.19 382.57 308.31
  Q 381.69 310.06 381.38 311.86
  C 381.05 313.76 379.87 315.14 379.59 316.97
  Q 379.26 319.22 378.41 321.26
  Q 377.58 323.23 377.23 325.47
  C 376.70 328.86 375.59 332.35 375.08 335.55
  Q 373.53 345.29 373.49 350.62
  Q 373.25 380.51 373.39 407.29
  A 0.80 0.80 0.0 0 0 374.19 408.08
  L 609.55 408.37
  Q 606.65 408.11 606.43 408.94
  L 374.19 408.94
  A 2.19 2.19 0.0 0 1 372.00 406.75
  Q 371.99 377.96 372.01 348.46
  C 372.01 347.56 372.47 346.71 372.52 345.80
  Q 373.02 336.79 375.10 328.49
  Q 376.26 323.82 377.55 319.47
  Q 379.36 313.33 381.45 307.34
  Q 387.98 288.65 399.66 273.19
  Q 408.12 262.00 418.99 251.16
  C 432.46 237.72 447.98 227.54 465.78 220.42
  C 467.34 219.80 469.02 219.85 470.48 218.95
  Q 472.21 217.88 474.52 217.93
  Q 475.27 217.95 475.88 217.51
  Q 476.89 216.79 478.14 217.02
  Q 479.00 217.18 479.00 216.30
  L 479.00 171.98
  Q 479.00 171.40 479.45 171.04
  Q 479.90 170.69 479.98 170.13
  A 2.50 2.48 -81.4 0 1 482.85 168.00
  Q 483.57 168.12 483.96 167.53
  A 1.19 1.18 16.6 0 1 484.95 167.00
  L 488.02 167.00
  Q 488.71 166.99 489.11 166.43
  Q 489.58 165.79 490.37 165.99
  A 0.51 0.51 0.0 0 0 491.01 165.50
  L 491.00 132.48
  A 2.52 2.52 0.0 0 0 488.48 129.96
  L 448.26 129.97
  A 2.17 2.17 0.0 0 0 446.29 131.23
  C 445.40 133.14 444.48 134.85 444.12 136.98
  Q 443.40 141.13 441.04 145.74
  Q 431.46 164.47 418.66 178.79
  Q 417.86 179.68 416.93 180.38
  C 416.12 180.98 415.82 181.97 415.04 182.69
  Q 408.75 188.48 404.84 191.31
  Q 398.78 195.69 391.86 198.49
  Q 378.97 203.71 374.22 204.65
  Q 371.45 205.20 369.17 205.88
  Q 366.52 206.67 363.72 207.08
  Q 358.80 207.79 353.88 208.58
  C 346.67 209.73 338.89 208.35 331.59 207.53
  C 323.10 206.57 315.31 203.63 307.14 200.73
  Q 300.10 198.24 294.58 194.80
  Q 279.72 185.54 271.15 175.43
  Q 264.72 167.82 259.11 158.57
  Q 255.65 152.87 250.73 140.58
  Q 250.07 138.94 249.76 137.17
  Q 249.46 135.44 248.34 133.86
  Q 248.05 133.46 248.05 132.96
  L 248.03 130.49
  Q 248.03 129.95 247.49 129.95
  L 203.26 129.96
  Q 202.98 129.96 202.99 130.24
  L 203.00 165.52
  A 0.52 0.52 0.0 0 0 203.53 166.04
  L 209.75 165.98
  Q 210.38 165.97 210.84 166.41
  Q 211.55 167.07 212.53 167.05
  Q 213.07 167.03 213.57 167.22
  L 216.29 168.21
  A 1.30 1.25 84.6 0 1 216.94 168.77
  C 217.66 170.08 218.83 170.94 218.93 172.55
  Q 219.27 177.74 218.75 182.20
  Q 217.98 188.90 217.97 191.29
  Q 217.94 202.00 218.00 212.71
  Q 218.00 213.23 218.15 213.64
  Q 218.25 213.93 218.49 214.12
  Q 218.85 214.39 218.95 214.84
  Q 219.37 216.74 221.18 217.05
  Q 221.66 217.14 222.00 217.49
  L 222.25 217.74
  Q 222.46 217.95 222.76 217.96
  L 225.69 218.06
  Q 226.22 218.08 226.66 218.40
  C 228.67 219.89 231.09 220.24 233.39 221.19
  Q 259.97 232.25 282.20 252.74
  Q 289.26 259.25 295.46 267.35
  Q 310.29 286.74 318.15 305.77
  Q 324.42 320.94 328.00 340.54
  C 328.99 345.93 329.17 351.32 329.70 356.77
  Q 330.01 359.90 330.01 363.23
  Q 329.99 384.29 330.00 406.21
  Q 330.00 406.69 329.57 406.92
  Q 329.08 407.17 328.90 407.53
  L 328.47 407.29
  C 328.45 389.73 328.68 372.19 328.26 354.62
  Q 328.18 350.99 327.40 347.49
  Q 326.86 345.11 326.63 342.58
  Q 326.42 340.33 325.89 337.87
  Q 324.09 329.65 322.22 322.65
  C 318.40 308.33 312.54 296.14 304.95 283.56
  Q 291.37 261.06 271.12 245.22
  Q 263.31 239.11 254.66 233.74
  C 244.13 227.21 232.36 221.43 220.34 218.14
  Q 216.64 217.12 216.60 213.26
  Q 216.43 193.37 216.94 172.75
  Q 217.03 169.10 214.04 168.70
  Q 211.64 168.38 211.52 168.35
  Q 207.35 167.31 203.53 166.81
  A 1.71 1.70 3.6 0 1 202.04 165.12
  L 202.04 130.79
  Q 202.04 128.62 204.21 128.63
  L 247.22 128.75
  A 1.74 1.74 0.0 0 1 248.92 130.16
  Q 249.34 132.30 250.18 134.12
  C 251.14 136.16 250.71 138.15 251.89 140.15
  Q 252.51 141.20 252.88 142.48
  Q 253.94 146.18 255.16 148.49
  Q 256.59 151.20 257.94 153.96
  Q 259.42 156.99 260.93 159.31
  Q 262.85 162.29 264.79 165.16
  Z"
/>
<path d="
  M 91.49 130.02
  Q 92.17 134.70 91.91 137.25
  Q 91.51 141.22 91.95 143.50
  Q 92.65 147.14 91.31 154.49
  L 91.49 130.02
  Z"
/>
<path d="
  M 264.79 165.16
  Q 268.91 169.25 271.82 174.53
  L 264.79 165.16
  Z"
/>
<path d="
  M 475.16 290.46
  Q 470.17 294.73 465.73 298.76
  Q 465.53 298.94 465.47 299.18
  Q 465.36 299.65 465.01 299.99
  Q 462.74 302.23 460.43 304.68
  Q 458.38 306.87 456.64 309.74
  Q 455.33 311.90 453.54 313.75
  Q 451.90 315.43 450.73 317.63
  Q 448.56 321.71 446.38 325.88
  Q 445.68 327.23 445.24 328.76
  C 444.86 330.13 444.01 331.13 443.67 332.64
  Q 443.02 335.50 442.16 337.99
  Q 441.68 339.41 441.61 340.99
  Q 441.11 353.66 441.41 365.54
  Q 441.51 369.19 440.48 372.36
  Q 439.13 376.53 436.43 379.79
  C 435.63 380.76 434.42 381.27 433.53 382.12
  Q 432.71 382.89 431.61 383.31
  C 429.46 384.13 427.12 383.67 424.92 383.56
  Q 422.54 383.44 420.51 382.69
  Q 416.34 381.17 413.48 375.76
  Q 412.18 373.32 411.49 371.04
  Q 410.85 368.97 410.83 366.35
  Q 410.76 355.39 411.24 346.28
  Q 411.46 342.29 412.45 337.50
  Q 412.93 335.17 412.94 333.00
  Q 412.94 330.62 413.74 328.41
  Q 414.44 326.48 414.89 324.64
  Q 415.35 322.73 416.18 320.81
  Q 421.95 307.51 433.33 289.20
  Q 435.04 286.46 436.90 284.98
  Q 438.15 283.99 439.20 282.38
  Q 440.29 280.70 441.68 279.57
  C 443.43 278.13 444.94 276.41 446.75 275.10
  Q 448.66 273.73 450.11 272.28
  Q 451.52 270.85 453.22 269.75
  C 454.86 268.69 456.11 267.20 457.73 266.20
  Q 460.66 264.39 463.21 262.15
  Q 465.18 260.42 467.50 259.38
  Q 471.41 257.63 474.72 255.27
  Q 476.27 254.16 478.24 253.46
  Q 479.34 253.06 480.45 252.60
  Q 485.77 250.37 491.25 247.99
  Q 495.48 246.15 498.98 246.07
  Q 503.02 245.98 506.77 245.92
  Q 509.72 245.87 512.58 247.76
  Q 515.47 249.66 517.79 252.57
  Q 519.72 254.99 519.76 257.49
  C 519.83 261.49 519.97 265.08 517.35 268.52
  Q 515.19 271.38 512.07 273.68
  Q 510.73 274.67 509.24 274.98
  Q 507.91 275.26 506.86 275.93
  Q 505.97 276.49 504.86 276.61
  Q 500.99 277.02 499.26 277.75
  Q 498.13 278.22 496.86 278.63
  Q 495.74 278.98 494.66 279.40
  Q 487.60 282.13 482.76 285.32
  Q 480.81 286.60 478.84 287.81
  Q 476.77 289.08 475.16 290.46
  Z
  M 485.42 282.42
  C 490.47 279.73 495.93 277.11 501.48 276.10
  Q 505.98 275.29 509.44 273.70
  Q 514.68 271.29 517.74 264.80
  C 519.62 260.81 519.18 256.89 516.54 253.40
  Q 513.08 248.80 507.48 247.17
  Q 505.56 246.61 500.29 246.98
  Q 496.60 247.25 493.52 248.56
  Q 490.52 249.84 487.50 250.91
  Q 484.97 251.81 482.15 253.22
  Q 469.87 259.34 467.01 261.36
  C 459.10 266.96 451.40 272.68 444.53 279.25
  Q 438.38 285.12 433.92 291.75
  C 428.87 299.28 424.63 307.16 420.32 315.13
  Q 417.81 319.78 416.63 323.75
  C 413.15 335.39 412.42 347.53 411.97 360.02
  C 411.69 368.00 412.37 374.03 418.22 379.84
  Q 420.17 381.78 422.69 382.07
  Q 425.48 382.39 428.24 382.23
  C 433.35 381.93 436.85 378.93 438.31 374.19
  Q 440.71 366.40 439.52 358.77
  Q 438.92 354.92 439.20 351.37
  Q 439.73 344.80 441.10 337.07
  C 441.47 335.02 442.19 333.21 442.86 331.25
  Q 443.57 329.15 444.63 327.04
  C 446.68 322.94 448.63 318.48 451.06 314.82
  Q 462.62 297.43 479.04 286.23
  Q 481.81 284.35 485.42 282.42
  Z"
/>
<path d="
  M 11.86 360.58
  L 12.21 407.11
  A 0.86 0.86 0.0 0 0 13.07 407.96
  Q 129.79 407.84 246.24 407.99
  Q 255.90 408.00 266.24 408.16
  Q 291.46 408.52 326.50 408.47
  Q 328.06 408.47 328.47 407.29
  L 328.90 407.53
  Q 329.05 407.99 329.01 408.48
  Q 328.97 409.02 328.43 409.01
  L 327.79 409.00
  Q 327.28 409.00 327.02 409.43
  Q 326.67 410.00 326.02 410.00
  Q 303.16 409.99 280.97 410.02
  Q 280.39 410.02 280.04 409.56
  Q 279.60 408.97 278.75 408.97
  Q 145.48 409.00 11.38 408.99
  Q 10.65 384.84 11.86 360.58
  Z"
/>
<path d="
  M 644.05 408.57
  Q 643.37 408.81 642.58 408.83
  Q 642.10 408.83 642.11 409.32
  Q 642.11 409.50 642.20 409.72
  Q 642.00 409.44 641.76 409.26
  Q 641.55 409.10 641.19 409.07
  Q 633.13 408.54 625.21 409.69
  Q 625.70 408.99 624.73 408.94
  Q 620.43 408.70 610.76 408.96
  Q 610.15 408.98 609.92 409.39
  L 606.43 408.94
  Q 606.65 408.11 609.55 408.37
  L 644.05 408.57
  Z"
/>
<path d="
  M 625.21 409.69
  Q 618.01 410.23 610.67 409.89
  Q 610.13 409.87 609.92 409.39
  Q 610.15 408.98 610.76 408.96
  Q 620.43 408.70 624.73 408.94
  Q 625.70 408.99 625.21 409.69
  Z"
/>
<path d="
  M 249.03 633.95
  L 255.87 633.49
  L 325.39 633.51
  Q 328.54 633.51 328.54 630.36
  Q 328.66 541.94 328.62 454.77
  Q 328.62 453.71 328.93 452.67
  Q 329.34 451.30 328.56 449.80
  Q 328.31 449.32 327.77 449.32
  L 13.00 449.36
  Q 11.93 449.36 11.94 450.44
  L 12.13 474.18
  L 11.68 552.05
  Q 11.68 552.53 11.33 552.87
  Q 10.89 553.30 11.35 553.87
  Q 11.52 588.97 11.37 624.07
  C 11.36 626.16 11.65 628.57 11.70 630.82
  Q 11.07 633.54 13.50 633.54
  Q 71.64 633.50 129.75 633.51
  Q 130.01 633.67 130.21 633.97
  C 124.22 633.76 117.93 634.99 112.58 634.99
  Q 63.29 635.02 14.00 635.00
  Q 13.43 635.00 13.03 634.61
  Q 12.44 634.05 11.64 633.85
  A 2.15 2.15 0.0 0 1 10.00 631.76
  L 10.00 553.75
  Q 10.00 553.14 10.58 552.96
  Q 10.74 552.92 10.83 552.78
  Q 11.04 552.46 11.04 552.06
  Q 11.05 538.86 11.03 524.22
  Q 11.03 523.74 10.79 523.30
  Q 10.67 523.08 10.45 522.96
  Q 10.02 522.71 10.02 522.22
  L 9.99 451.74
  A 3.71 3.71 0.0 0 1 13.70 448.03
  Q 177.11 447.99 327.73 448.04
  C 329.02 448.04 330.05 449.27 330.07 450.47
  Q 330.08 450.85 330.42 451.02
  Q 331.20 451.40 331.02 452.38
  A 0.67 0.66 -2.9 0 1 330.53 452.91
  Q 330.22 452.99 330.09 453.26
  Q 329.98 453.49 329.98 453.76
  Q 330.03 541.79 329.97 629.80
  Q 329.97 630.31 329.68 630.74
  Q 328.86 631.97 328.93 633.46
  A 0.57 0.57 0.0 0 1 328.30 634.05
  Q 325.16 633.70 322.11 634.35
  Q 319.27 634.95 316.23 634.97
  Q 306.51 635.04 296.75 635.00
  Q 290.34 634.97 277.27 634.32
  Q 263.19 633.62 249.03 633.95
  Z"
/>
<path d="
  M 592.53 634.02
  Q 594.41 633.77 595.03 633.31
  L 685.47 633.54
  A 1.28 1.28 0.0 0 0 686.75 632.26
  Q 686.80 560.13 687.01 487.37
  Q 687.07 468.59 686.74 450.26
  Q 686.72 449.47 685.93 449.47
  L 374.77 449.20
  Q 373.48 449.20 373.48 450.49
  L 373.49 621.93
  Q 372.60 626.75 373.41 631.56
  L 373.36 632.17
  A 1.17 1.16 -87.7 0 0 374.52 633.43
  L 387.69 633.43
  L 390.21 633.99
  Q 385.85 634.16 381.49 634.71
  C 378.50 635.09 374.51 635.36 372.40 633.05
  Q 372.01 632.62 372.01 632.04
  L 372.01 450.24
  A 2.25 2.24 -0.0 0 1 374.26 448.00
  L 687.47 448.00
  Q 688.25 448.00 687.98 448.73
  Q 687.63 449.72 688.54 450.12
  Q 689.13 450.38 688.67 450.83
  Q 688.47 451.03 688.20 450.99
  A 0.13 0.12 2.2 0 0 688.06 451.11
  Q 687.57 466.29 688.44 478.84
  Q 688.63 481.57 688.58 484.18
  C 688.52 486.56 688.97 488.82 688.99 491.23
  Q 689.12 509.04 688.84 525.61
  C 688.76 530.69 687.98 536.03 687.97 541.05
  Q 687.92 587.26 687.94 633.43
  Q 687.94 634.10 687.28 634.01
  Q 686.55 633.92 686.07 634.50
  A 1.31 1.30 19.1 0 1 685.05 634.99
  Q 660.01 635.01 634.98 635.00
  Q 628.61 635.00 615.04 634.26
  Q 603.81 633.66 592.53 634.02
  Z"
/>
<path d="
  M 255.87 633.49
  Q 249.06 633.13 246.75 633.13
  Q 190.62 633.07 134.50 633.18
  Q 132.09 633.18 129.75 633.51
  Q 71.64 633.50 13.50 633.54
  Q 11.07 633.54 11.70 630.82
  C 12.26 626.60 12.14 622.40 12.36 618.07
  Q 12.49 615.45 12.35 612.85
  C 11.82 603.46 12.11 593.95 12.13 584.73
  Q 12.13 584.34 12.26 583.98
  Q 12.34 583.74 12.34 583.49
  Q 12.42 568.25 12.35 553.02
  Q 12.34 552.52 12.14 552.06
  Q 12.00 551.74 12.00 551.50
  Q 11.91 537.99 11.98 524.62
  C 11.98 523.31 12.71 522.35 12.71 521.25
  Q 12.82 497.73 12.13 474.18
  L 11.94 450.44
  Q 11.93 449.36 13.00 449.36
  L 327.77 449.32
  Q 328.31 449.32 328.56 449.80
  Q 329.34 451.30 328.93 452.67
  Q 328.62 453.71 328.62 454.77
  Q 328.66 541.94 328.54 630.36
  Q 328.54 633.51 325.39 633.51
  L 255.87 633.49
  Z
  M 48.12 493.07
  Q 46.88 500.45 47.58 509.25
  Q 47.74 511.28 47.73 517.97
  Q 47.67 531.69 47.76 545.41
  Q 47.82 554.97 48.17 556.54
  Q 49.49 562.40 55.40 565.82
  C 58.25 567.46 64.08 568.68 67.66 567.20
  Q 68.82 566.72 69.97 566.30
  Q 71.51 565.73 73.11 564.57
  Q 78.78 560.48 78.84 552.34
  Q 78.99 528.85 78.82 505.31
  Q 78.80 503.54 78.85 501.76
  Q 79.00 495.34 76.29 490.32
  Q 73.58 485.28 67.82 483.09
  C 65.75 482.30 63.41 482.75 61.23 482.83
  Q 59.07 482.90 56.76 484.07
  Q 50.73 487.11 48.12 493.07
  Z"
/>
<path d="
  M 595.03 633.31
  L 387.69 633.43
  L 374.52 633.43
  A 1.17 1.16 -87.7 0 1 373.36 632.17
  L 373.41 631.56
  L 373.49 621.93
  L 373.48 450.49
  Q 373.48 449.20 374.77 449.20
  L 685.93 449.47
  Q 686.72 449.47 686.74 450.26
  Q 687.07 468.59 687.01 487.37
  Q 686.80 560.13 686.75 632.26
  A 1.28 1.28 0.0 0 1 685.47 633.54
  L 595.03 633.31
  Z"
/>
<path d="
  M 12.13 474.18
  Q 12.82 497.73 12.71 521.25
  C 12.71 522.35 11.98 523.31 11.98 524.62
  Q 11.91 537.99 12.00 551.50
  Q 12.00 551.74 12.14 552.06
  Q 12.34 552.52 12.35 553.02
  Q 12.42 568.25 12.34 583.49
  Q 12.34 583.74 12.26 583.98
  Q 12.13 584.34 12.13 584.73
  C 12.11 593.95 11.82 603.46 12.35 612.85
  Q 12.49 615.45 12.36 618.07
  C 12.14 622.40 12.26 626.60 11.70 630.82
  C 11.65 628.57 11.36 626.16 11.37 624.07
  Q 11.52 588.97 11.35 553.87
  Q 10.89 553.30 11.33 552.87
  Q 11.68 552.53 11.68 552.05
  L 12.13 474.18
  Z"
/>
<path d="
  M 47.73 517.97
  L 48.12 493.07
  Q 50.73 487.11 56.76 484.07
  Q 59.07 482.90 61.23 482.83
  C 63.41 482.75 65.75 482.30 67.82 483.09
  Q 73.58 485.28 76.29 490.32
  Q 79.00 495.34 78.85 501.76
  Q 78.80 503.54 78.82 505.31
  Q 78.99 528.85 78.84 552.34
  Q 78.78 560.48 73.11 564.57
  Q 71.51 565.73 69.97 566.30
  Q 68.82 566.72 67.66 567.20
  C 64.08 568.68 58.25 567.46 55.40 565.82
  Q 49.49 562.40 48.17 556.54
  Q 47.82 554.97 47.76 545.41
  Q 47.67 531.69 47.73 517.97
  Z
  M 76.12 558.63
  C 77.60 555.20 78.00 551.17 78.01 547.35
  Q 78.10 524.16 78.03 500.44
  C 78.03 497.70 76.55 495.44 75.93 492.84
  C 75.08 489.30 71.62 486.63 68.62 484.81
  C 66.58 483.56 64.73 484.07 62.53 483.96
  C 57.10 483.69 52.15 488.38 49.96 493.00
  Q 49.00 495.00 49.00 498.00
  Q 48.98 524.85 49.08 551.26
  Q 49.12 563.03 59.07 566.03
  Q 63.16 567.26 65.80 566.47
  C 70.09 565.19 74.25 562.97 76.12 558.63
  Z"
/>
<path d="
  M 48.12 493.07
  L 47.73 517.97
  Q 47.74 511.28 47.58 509.25
  Q 46.88 500.45 48.12 493.07
  Z"
/>
<path d="
  M 373.49 621.93
  L 373.41 631.56
  Q 372.60 626.75 373.49 621.93
  Z"
/>
<path d="
  M 255.87 633.49
  L 249.03 633.95
  L 130.21 633.97
  Q 130.01 633.67 129.75 633.51
  Q 132.09 633.18 134.50 633.18
  Q 190.62 633.07 246.75 633.13
  Q 249.06 633.13 255.87 633.49
  Z"
/>
<path d="
  M 595.03 633.31
  Q 594.41 633.77 592.53 634.02
  L 390.21 633.99
  L 387.69 633.43
  L 595.03 633.31
  Z"
/>
<path d="
  M 89.34 674.10
  L 12.95 674.10
  A 1.53 1.53 0.0 0 0 11.51 675.12
  C 10.68 677.51 11.39 681.10 11.38 682.97
  Q 11.37 699.98 11.38 716.99
  Q 11.38 718.54 11.77 720.97
  Q 12.09 722.94 12.14 724.99
  C 12.12 748.15 12.43 771.33 12.19 794.49
  Q 11.98 814.65 12.80 824.48
  Q 13.48 832.66 17.16 845.78
  A 1.11 1.08 14.6 0 0 17.46 846.28
  Q 17.83 846.64 17.86 847.15
  Q 17.94 848.53 18.66 849.70
  Q 19.56 851.17 20.10 852.86
  Q 20.57 854.34 21.33 855.80
  Q 30.58 873.63 44.22 885.81
  Q 46.24 887.62 48.17 889.34
  C 51.06 891.93 54.32 893.90 57.51 895.95
  Q 57.74 896.09 58.00 896.14
  C 58.45 896.21 58.81 896.30 59.15 896.61
  Q 60.40 897.77 62.06 898.14
  Q 63.47 898.46 64.77 899.16
  Q 68.14 900.98 72.09 902.11
  Q 73.90 902.62 75.53 903.12
  C 78.91 904.16 82.52 904.18 85.99 905.07
  Q 89.36 905.94 92.93 905.94
  Q 169.90 906.01 248.26 905.78
  Q 252.15 905.77 255.86 904.97
  Q 259.90 904.11 263.76 903.45
  Q 264.41 903.34 264.99 903.04
  C 266.14 902.45 267.73 902.29 268.54 902.01
  Q 289.98 894.59 304.86 877.69
  Q 306.99 875.27 308.88 872.60
  Q 311.57 868.80 312.36 867.13
  Q 316.44 858.48 320.42 848.98
  Q 321.52 846.35 321.87 844.57
  Q 321.95 844.17 322.21 843.84
  Q 322.89 842.97 323.20 842.02
  Q 324.62 837.61 326.16 832.47
  Q 326.92 829.96 327.02 827.37
  Q 327.14 824.51 327.63 821.75
  Q 328.30 818.03 328.33 813.31
  Q 328.68 744.76 328.64 675.92
  Q 327.44 674.18 324.50 674.21
  Q 289.31 674.56 231.94 674.09
  Q 231.97 673.55 232.19 673.27
  Q 232.38 673.02 232.69 673.02
  Q 279.73 672.96 326.22 673.03
  Q 326.72 673.03 326.95 673.47
  Q 327.36 674.24 328.27 674.05
  Q 329.17 673.86 328.93 674.75
  Q 328.69 675.64 329.48 676.01
  Q 329.98 676.24 329.98 676.79
  Q 329.97 741.01 329.99 805.29
  C 329.99 806.85 329.39 808.10 329.38 809.60
  C 329.34 818.80 329.29 827.61 326.68 836.54
  Q 322.38 851.23 315.60 864.64
  Q 312.11 871.53 307.44 876.98
  Q 289.99 897.33 264.31 904.60
  C 262.57 905.09 260.83 905.13 259.19 905.65
  Q 254.83 907.02 250.63 907.02
  Q 172.40 906.95 91.83 906.99
  C 87.23 907.00 83.25 905.80 78.79 905.15
  Q 75.86 904.73 72.96 903.81
  Q 52.96 897.47 38.63 882.32
  Q 28.81 871.93 21.39 858.72
  C 19.77 855.84 18.67 852.89 17.34 849.88
  Q 16.57 848.12 16.02 846.33
  Q 13.70 838.73 12.13 830.95
  Q 10.95 825.14 10.97 816.94
  Q 11.09 769.87 10.99 722.30
  Q 10.99 721.44 10.35 720.80
  Q 10.00 720.46 10.00 719.97
  L 10.00 674.52
  Q 10.00 673.72 10.76 673.97
  Q 11.62 674.25 11.98 673.49
  Q 12.22 673.00 12.78 673.00
  L 88.18 673.00
  A 0.85 0.85 0.0 0 1 88.90 673.40
  L 89.34 674.10
  Z"
/>
<path d="
  M 167.43 673.94
  L 177.56 673.95
  L 191.30 673.98
  Q 191.72 673.98 191.91 673.61
  L 192.04 673.36
  Q 192.24 672.98 192.67 672.98
  L 196.43 672.99
  Q 196.89 672.99 197.02 673.43
  Q 197.07 673.60 197.19 673.73
  Q 197.44 674.02 197.72 673.75
  Q 199.52 671.99 201.34 673.72
  Q 201.69 674.06 201.91 673.63
  L 202.09 673.27
  Q 202.23 673.00 202.53 673.00
  L 208.05 673.00
  A 1.07 1.07 0.0 0 1 208.89 673.41
  L 209.07 673.63
  Q 209.29 673.91 209.64 673.92
  L 231.94 674.09
  Q 289.31 674.56 324.50 674.21
  Q 327.44 674.18 328.64 675.92
  Q 257.86 675.78 237.50 675.93
  Q 234.20 675.96 231.82 675.78
  Q 226.80 675.40 226.16 675.39
  Q 214.42 675.21 210.25 675.48
  Q 200.45 676.10 190.63 675.85
  Q 190.38 675.84 190.26 675.63
  Q 190.18 675.51 190.05 675.50
  Q 184.66 675.15 179.55 675.49
  Q 174.16 675.85 169.27 675.66
  Q 162.78 675.40 156.17 675.39
  Q 150.89 675.38 145.36 675.76
  Q 140.25 676.11 134.50 675.61
  Q 128.65 675.11 122.24 675.22
  Q 120.68 675.25 113.48 675.80
  Q 108.49 676.18 104.70 675.74
  Q 98.92 675.06 94.26 675.58
  Q 89.58 676.09 85.65 675.98
  Q 79.11 675.78 73.26 675.76
  Q 45.78 675.63 19.29 675.89
  C 17.28 675.91 15.30 675.62 13.37 675.39
  Q 12.21 675.26 12.21 676.43
  L 12.14 724.99
  Q 12.09 722.94 11.77 720.97
  Q 11.38 718.54 11.38 716.99
  Q 11.37 699.98 11.38 682.97
  C 11.39 681.10 10.68 677.51 11.51 675.12
  A 1.53 1.53 0.0 0 1 12.95 674.10
  L 89.34 674.10
  L 103.11 673.98
  Q 103.62 673.98 103.94 673.59
  L 104.11 673.40
  A 1.10 1.10 0.0 0 1 104.96 673.00
  L 112.07 673.00
  A 1.01 1.00 -17.6 0 1 112.89 673.42
  L 113.06 673.67
  Q 113.30 674.00 113.70 674.00
  L 135.23 674.00
  Q 135.78 674.00 135.97 673.48
  Q 136.05 673.29 136.23 673.18
  Q 136.55 672.99 137.00 672.99
  L 144.08 672.98
  Q 144.62 672.98 144.93 673.43
  L 145.08 673.65
  Q 145.29 673.97 145.68 673.97
  L 167.43 673.94
  Z"
/>
<path d="
  M 177.56 673.95
  L 167.43 673.94
  Q 172.52 671.68 177.56 673.95
  Z"
/>
<path d="
  M 409.45 675.99
  Q 410.01 676.20 410.01 676.96
  Q 409.98 685.43 409.97 695.36
  Q 409.97 697.79 410.58 700.17
  C 411.15 702.42 410.67 704.34 411.83 706.52
  Q 416.11 714.55 425.99 713.91
  Q 431.17 713.57 435.14 710.24
  C 436.94 708.73 437.12 706.83 438.29 704.91
  Q 438.99 703.79 438.99 702.41
  Q 439.05 688.67 439.02 675.24
  A 2.23 2.23 0.0 0 1 441.25 673.00
  L 685.00 673.01
  Q 685.61 673.01 685.95 673.51
  Q 686.43 674.22 687.25 674.02
  Q 687.98 673.85 687.98 674.60
  Q 687.85 741.56 688.03 812.61
  Q 688.06 822.73 686.75 829.30
  C 684.50 840.60 679.72 851.27 674.57 861.67
  Q 672.09 866.67 668.61 872.12
  Q 665.08 877.65 661.13 881.68
  Q 655.17 887.75 648.56 892.69
  Q 640.18 898.96 627.88 903.32
  Q 624.27 904.60 620.98 905.08
  C 617.66 905.57 614.62 906.97 611.29 906.98
  Q 532.91 907.00 450.79 906.99
  Q 447.13 906.99 443.94 906.41
  C 430.78 904.05 419.63 898.43 408.44 889.94
  C 396.31 880.74 387.26 867.06 380.63 853.39
  Q 375.68 843.19 373.43 831.99
  C 372.89 829.30 372.85 826.60 372.31 823.94
  Q 371.98 822.29 371.98 820.42
  Q 372.02 745.45 371.99 675.73
  Q 371.99 675.17 372.50 674.95
  Q 373.22 674.64 373.03 673.90
  Q 372.80 673.00 373.73 673.00
  L 406.21 673.00
  A 0.87 0.85 -13.7 0 1 406.97 673.45
  Q 407.40 674.24 408.30 673.97
  Q 409.05 673.75 409.01 674.53
  L 408.96 675.25
  Q 408.93 675.80 409.45 675.99
  Z
  M 373.17 690.55
  L 373.22 740.68
  Q 372.91 781.05 372.88 821.35
  Q 372.88 822.45 373.40 824.05
  Q 373.84 825.37 373.94 826.83
  Q 374.58 829.91 374.94 833.08
  Q 375.13 834.78 375.71 836.29
  Q 376.34 837.94 376.70 839.66
  Q 377.21 842.06 378.15 844.33
  Q 379.91 848.62 381.56 852.55
  Q 381.63 852.72 381.80 852.76
  Q 381.94 852.79 382.03 852.89
  Q 382.14 853.00 382.20 853.15
  Q 384.48 858.63 388.10 864.42
  Q 392.11 870.83 396.48 876.43
  Q 401.05 882.28 406.29 886.65
  Q 417.36 895.89 430.22 901.26
  Q 431.64 901.86 433.32 902.23
  Q 434.78 902.55 436.51 903.12
  Q 441.43 904.74 446.45 905.30
  Q 451.09 905.82 456.18 905.83
  Q 530.05 906.05 605.35 905.96
  Q 607.90 905.96 610.48 905.70
  Q 612.86 905.46 615.22 904.92
  Q 617.47 904.41 619.75 904.11
  Q 624.69 903.47 633.37 899.64
  Q 635.56 899.11 637.50 897.68
  Q 641.31 896.21 644.68 893.45
  Q 646.26 892.15 647.99 891.15
  Q 649.45 890.30 650.42 889.35
  Q 655.94 886.01 659.88 880.65
  Q 662.26 878.80 663.62 876.82
  Q 667.01 871.86 672.25 862.91
  Q 673.04 861.55 673.37 859.89
  Q 673.84 857.47 674.23 856.73
  Q 680.16 845.55 682.71 837.99
  C 685.41 829.96 686.51 820.99 686.54 812.75
  Q 686.65 780.49 686.62 680.97
  L 687.01 676.60
  A 2.22 2.21 2.7 0 0 684.80 674.18
  L 441.70 674.31
  A 2.11 2.10 89.6 0 0 439.60 676.45
  L 439.74 687.98
  Q 440.02 694.93 439.76 701.88
  Q 439.63 705.22 438.58 707.42
  Q 437.22 710.24 434.87 711.92
  Q 431.08 714.62 428.42 715.48
  Q 424.73 716.68 420.65 715.12
  Q 420.61 715.10 420.62 715.04
  Q 420.63 715.02 420.63 714.99
  Q 420.64 714.87 420.52 714.85
  Q 411.43 712.82 409.59 703.62
  Q 408.77 699.53 408.82 688.98
  Q 408.91 685.20 408.91 681.45
  C 408.91 677.56 409.31 674.20 404.61 674.17
  Q 389.85 674.08 374.68 674.13
  A 1.51 1.50 90.0 0 0 373.18 675.64
  L 373.17 690.55
  Z"
/>
<path d="
  M 408.82 688.98
  L 408.13 678.88
  Q 407.93 675.92 404.96 675.90
  L 374.18 675.60
  Q 373.64 675.60 373.62 676.14
  L 373.17 690.55
  L 373.18 675.64
  A 1.51 1.50 -90.0 0 1 374.68 674.13
  Q 389.85 674.08 404.61 674.17
  C 409.31 674.20 408.91 677.56 408.91 681.45
  Q 408.91 685.20 408.82 688.98
  Z"
/>
<path d="
  M 686.62 680.97
  L 686.42 677.62
  A 2.45 2.45 0.0 0 0 684.03 675.31
  C 682.54 675.28 680.96 675.58 679.37 675.59
  Q 639.13 675.76 596.25 675.89
  Q 521.95 676.12 442.30 675.62
  A 2.42 2.42 0.0 0 0 439.87 678.01
  L 439.74 687.98
  L 439.60 676.45
  A 2.11 2.10 89.6 0 1 441.70 674.31
  L 684.80 674.18
  A 2.22 2.21 2.7 0 1 687.01 676.60
  L 686.62 680.97
  Z"
/>
<path d="
  M 328.64 675.92
  Q 328.68 744.76 328.33 813.31
  Q 328.30 818.03 327.63 821.75
  Q 327.14 824.51 327.02 827.37
  Q 326.92 829.96 326.16 832.47
  Q 324.62 837.61 323.20 842.02
  Q 322.89 842.97 322.21 843.84
  Q 321.95 844.17 321.87 844.57
  Q 321.52 846.35 320.42 848.98
  Q 316.44 858.48 312.36 867.13
  Q 311.57 868.80 308.88 872.60
  Q 306.99 875.27 304.86 877.69
  Q 289.98 894.59 268.54 902.01
  C 267.73 902.29 266.14 902.45 264.99 903.04
  Q 264.41 903.34 263.76 903.45
  Q 259.90 904.11 255.86 904.97
  Q 252.15 905.77 248.26 905.78
  Q 169.90 906.01 92.93 905.94
  Q 89.36 905.94 85.99 905.07
  C 82.52 904.18 78.91 904.16 75.53 903.12
  Q 73.90 902.62 72.09 902.11
  Q 68.14 900.98 64.77 899.16
  Q 63.47 898.46 62.06 898.14
  Q 60.40 897.77 59.15 896.61
  C 58.81 896.30 58.45 896.21 58.00 896.14
  Q 57.74 896.09 57.51 895.95
  C 54.32 893.90 51.06 891.93 48.17 889.34
  Q 46.24 887.62 44.22 885.81
  Q 30.58 873.63 21.33 855.80
  Q 20.57 854.34 20.10 852.86
  Q 19.56 851.17 18.66 849.70
  Q 17.94 848.53 17.86 847.15
  Q 17.83 846.64 17.46 846.28
  A 1.11 1.08 14.6 0 1 17.16 845.78
  Q 13.48 832.66 12.80 824.48
  Q 11.98 814.65 12.19 794.49
  C 12.43 771.33 12.12 748.15 12.14 724.99
  L 12.21 676.43
  Q 12.21 675.26 13.37 675.39
  C 15.30 675.62 17.28 675.91 19.29 675.89
  Q 45.78 675.63 73.26 675.76
  Q 79.11 675.78 85.65 675.98
  Q 89.58 676.09 94.26 675.58
  Q 98.92 675.06 104.70 675.74
  Q 108.49 676.18 113.48 675.80
  Q 120.68 675.25 122.24 675.22
  Q 128.65 675.11 134.50 675.61
  Q 140.25 676.11 145.36 675.76
  Q 150.89 675.38 156.17 675.39
  Q 162.78 675.40 169.27 675.66
  Q 174.16 675.85 179.55 675.49
  Q 184.66 675.15 190.05 675.50
  Q 190.18 675.51 190.26 675.63
  Q 190.38 675.84 190.63 675.85
  Q 200.45 676.10 210.25 675.48
  Q 214.42 675.21 226.16 675.39
  Q 226.80 675.40 231.82 675.78
  Q 234.20 675.96 237.50 675.93
  Q 257.86 675.78 328.64 675.92
  Z"
/>
<path d="
  M 686.62 680.97
  Q 686.65 780.49 686.54 812.75
  C 686.51 820.99 685.41 829.96 682.71 837.99
  Q 680.16 845.55 674.23 856.73
  Q 673.84 857.47 673.37 859.89
  Q 673.04 861.55 672.25 862.91
  Q 667.01 871.86 663.62 876.82
  Q 662.26 878.80 659.88 880.65
  L 650.42 889.35
  Q 649.45 890.30 647.99 891.15
  Q 646.26 892.15 644.68 893.45
  Q 641.31 896.21 637.50 897.68
  Q 634.96 897.71 633.37 899.64
  Q 624.69 903.47 619.75 904.11
  Q 617.47 904.41 615.22 904.92
  Q 612.86 905.46 610.48 905.70
  Q 607.90 905.96 605.35 905.96
  Q 530.05 906.05 456.18 905.83
  Q 451.09 905.82 446.45 905.30
  Q 441.43 904.74 436.51 903.12
  Q 434.78 902.55 433.32 902.23
  Q 431.64 901.86 430.22 901.26
  Q 417.36 895.89 406.29 886.65
  Q 401.05 882.28 396.48 876.43
  Q 392.11 870.83 388.10 864.42
  Q 384.48 858.63 382.20 853.15
  Q 382.14 853.00 382.03 852.89
  Q 381.94 852.79 381.80 852.76
  Q 381.63 852.72 381.56 852.55
  Q 379.91 848.62 378.15 844.33
  Q 377.21 842.06 376.70 839.66
  Q 376.34 837.94 375.71 836.29
  Q 375.13 834.78 374.94 833.08
  Q 374.58 829.91 373.94 826.83
  Q 374.30 824.53 373.64 821.00
  Q 373.11 818.21 373.26 811.50
  Q 374.07 776.11 373.22 740.68
  L 373.17 690.55
  L 373.62 676.14
  Q 373.64 675.60 374.18 675.60
  L 404.96 675.90
  Q 407.93 675.92 408.13 678.88
  L 408.82 688.98
  Q 408.77 699.53 409.59 703.62
  Q 411.43 712.82 420.52 714.85
  Q 420.64 714.87 420.63 714.99
  Q 420.63 715.02 420.62 715.04
  Q 420.61 715.10 420.65 715.12
  Q 424.73 716.68 428.42 715.48
  Q 431.08 714.62 434.87 711.92
  Q 437.22 710.24 438.58 707.42
  Q 439.63 705.22 439.76 701.88
  Q 440.02 694.93 439.74 687.98
  L 439.87 678.01
  A 2.42 2.42 0.0 0 1 442.30 675.62
  Q 521.95 676.12 596.25 675.89
  Q 639.13 675.76 679.37 675.59
  C 680.96 675.58 682.54 675.28 684.03 675.31
  A 2.45 2.45 0.0 0 1 686.42 677.62
  L 686.62 680.97
  Z
  M 425.45 775.22
  Q 434.13 774.07 438.67 767.44
  C 442.89 761.28 442.15 753.48 437.27 747.72
  Q 433.65 743.46 427.46 741.76
  Q 423.08 740.56 418.53 742.59
  Q 413.17 744.99 410.54 749.77
  Q 409.45 751.75 408.84 754.73
  C 407.26 762.53 409.84 769.50 416.69 773.56
  Q 420.57 775.86 425.45 775.22
  Z"
/>
<path d="
  M 373.22 740.68
  Q 374.07 776.11 373.26 811.50
  Q 373.11 818.21 373.64 821.00
  Q 374.30 824.53 373.94 826.83
  Q 373.84 825.37 373.40 824.05
  Q 372.88 822.45 372.88 821.35
  Q 372.91 781.05 373.22 740.68
  Z"
/>
<path d="
  M 425.45 775.22
  Q 420.57 775.86 416.69 773.56
  C 409.84 769.50 407.26 762.53 408.84 754.73
  Q 409.45 751.75 410.54 749.77
  Q 413.17 744.99 418.53 742.59
  Q 423.08 740.56 427.46 741.76
  Q 433.65 743.46 437.27 747.72
  C 442.15 753.48 442.89 761.28 438.67 767.44
  Q 434.13 774.07 425.45 775.22
  Z
  M 434.23 746.34
  C 431.91 744.50 425.55 741.29 422.61 742.35
  C 420.22 743.20 417.40 744.19 415.41 745.83
  Q 411.98 748.67 410.47 753.66
  C 409.65 756.38 409.94 759.92 410.09 762.80
  Q 410.20 765.01 411.60 766.87
  C 415.44 771.97 420.83 775.25 427.44 773.63
  Q 435.56 771.63 438.57 764.41
  C 441.24 758.02 439.81 750.78 434.23 746.34
  Z"
/>
<path d="
  M 659.88 880.65
  Q 655.94 886.01 650.42 889.35
  L 659.88 880.65
  Z"
/>
<path d="
  M 637.50 897.68
  Q 635.56 899.11 633.37 899.64
  Q 634.96 897.71 637.50 897.68
  Z"
/>
</svg>
