<?xml version="1.0" encoding="UTF-8" standalone="no"?>
<!DOCTYPE svg PUBLIC "-//W3C//DTD SVG 1.1//EN" "http://www.w3.org/Graphics/SVG/1.1/DTD/svg11.dtd">
<svg xmlns="http://www.w3.org/2000/svg" version="1.1" viewBox="0.00 0.00 830.00 970.00">
<g stroke-width="2.00" fill="none" stroke-linecap="butt">
<path vector-effect="non-scaling-stroke" d="
  M 295.21 17.44
  C 287.57 13.09 277.62 10.44 268.91 10.49
  Q 249.21 10.59 228.64 10.37
  Q 214.22 10.22 208.78 10.98
  Q 196.42 12.70 186.08 19.41
  Q 174.26 27.08 167.40 39.37
  Q 163.61 46.17 161.48 57.19
  Q 159.74 66.26 159.47 75.97
  A 0.96 0.96 0.0 0 0 160.43 76.96
  L 326.26 76.93
  A 0.67 0.67 0.0 0 0 326.93 76.25
  Q 326.76 67.36 324.96 58.67
  Q 319.25 31.14 295.21 17.44"
/>
<path vector-effect="non-scaling-stroke" d="
  M 510.78 76.94
  L 675.14 76.94
  A 0.67 0.67 0.0 0 0 675.81 76.27
  L 675.81 70.38
  A 60.08 58.66 -90.0 0 0 617.15 10.30
  L 568.77 10.30
  A 60.08 58.66 90.0 0 0 510.11 70.38
  L 510.11 76.27
  A 0.67 0.67 0.0 0 0 510.78 76.94"
/>
<path vector-effect="non-scaling-stroke" d="
  M 58.11 553.96
  Q 69.08 539.99 78.83 529.40
  Q 92.38 514.68 113.54 494.68
  C 116.83 491.57 116.81 487.44 116.99 483.29
  Q 117.14 479.79 117.62 476.17
  Q 119.49 461.97 122.08 448.19
  Q 126.40 425.17 133.15 397.84
  Q 140.21 369.24 153.02 335.02
  Q 159.62 317.41 171.16 301.41
  Q 177.28 292.92 184.15 286.76
  Q 193.77 278.12 204.30 272.13
  Q 214.78 266.17 228.48 263.92
  C 254.58 259.65 281.97 268.79 300.68 287.47
  Q 308.03 294.80 312.79 301.34
  C 321.55 313.37 327.46 327.56 332.94 342.81
  Q 336.28 352.11 338.79 361.64
  Q 342.15 374.42 345.46 387.70
  Q 347.89 397.42 349.66 406.68
  Q 353.40 426.18 356.47 445.15
  Q 357.91 454.10 359.11 464.43
  Q 360.40 475.50 361.54 486.77
  Q 362.00 491.25 363.83 492.95
  Q 374.29 502.66 384.59 513.60
  C 387.71 516.91 390.46 520.61 393.96 523.46
  A 1.54 1.54 0.0 0 0 396.47 522.28
  Q 396.87 484.34 394.07 448.29
  Q 394.05 448.01 393.92 447.76
  Q 393.70 447.34 393.67 446.89
  Q 391.46 417.43 386.83 387.41
  Q 382.79 361.20 374.77 325.71
  Q 368.78 299.15 363.50 278.01
  Q 356.85 251.34 350.47 225.96
  Q 347.95 215.94 345.82 206.51
  Q 336.26 164.16 329.19 119.44
  A 0.25 0.24 84.2 0 0 328.95 119.24
  L 157.31 119.27
  A 0.59 0.58 -86.1 0 0 156.73 119.78
  Q 155.48 128.67 154.03 137.58
  C 151.60 152.51 148.15 167.71 144.99 182.72
  Q 142.92 192.55 140.43 202.19
  Q 129.36 245.00 121.60 271.28
  Q 106.22 323.38 89.71 378.39
  Q 86.88 387.81 84.33 397.41
  Q 75.31 431.27 69.35 457.03
  Q 65.38 474.21 61.38 492.02
  C 57.66 508.60 54.80 524.69 51.66 541.35
  Q 50.59 547.01 49.47 552.60
  Q 48.12 559.36 47.30 565.29
  Q 47.23 565.75 47.34 566.30
  Q 47.67 567.98 48.66 566.58
  Q 52.95 560.55 58.11 553.96"
/>
<path vector-effect="non-scaling-stroke" d="
  M 514.86 314.04
  Q 524.56 296.10 538.92 283.74
  Q 559.32 266.18 586.05 263.31
  Q 596.07 262.24 606.43 264.09
  C 618.81 266.31 631.31 271.19 641.70 278.71
  Q 655.53 288.71 665.73 304.09
  Q 672.60 314.46 677.27 325.31
  Q 684.47 342.04 691.33 363.70
  Q 703.54 402.21 712.07 444.15
  Q 713.97 453.49 715.32 462.69
  Q 716.75 472.54 718.08 481.86
  C 718.75 486.51 717.99 491.35 721.80 494.94
  Q 735.09 507.50 747.57 520.81
  Q 748.92 522.24 750.27 523.72
  Q 758.20 532.39 766.02 541.86
  Q 776.10 554.05 786.57 567.74
  A 0.97 0.97 0.0 0 0 787.65 568.08
  Q 788.77 567.70 788.32 566.77
  Q 788.07 566.26 787.97 565.72
  Q 786.61 558.30 784.82 547.90
  Q 782.49 534.40 779.33 518.99
  Q 773.42 490.19 767.46 463.71
  C 763.82 447.48 759.58 432.11 755.44 416.44
  Q 753.30 408.37 751.18 399.82
  Q 749.19 391.83 746.73 383.24
  C 743.09 370.51 739.47 357.82 735.40 344.73
  Q 732.32 334.80 729.52 324.77
  Q 726.80 315.03 723.92 305.57
  Q 717.50 284.45 711.67 264.72
  C 702.12 232.42 694.73 199.58 687.08 166.89
  Q 684.08 154.07 679.93 124.74
  Q 679.58 122.28 679.07 120.06
  A 1.35 1.35 0.0 0 0 677.74 119.01
  L 662.50 119.09
  Q 662.27 119.10 662.08 118.99
  Q 661.91 118.90 661.75 118.90
  Q 636.89 118.83 612.00 119.04
  Q 606.82 119.09 602.00 119.06
  Q 556.04 118.83 507.99 119.23
  A 1.04 1.04 0.0 0 0 506.97 120.13
  C 504.84 135.45 502.04 150.04 499.14 165.24
  Q 496.04 181.46 491.25 201.91
  C 487.17 219.33 483.58 236.21 479.21 253.44
  Q 473.09 277.55 467.06 301.27
  C 463.13 316.76 460.29 332.18 456.56 348.06
  Q 453.74 360.09 451.84 372.44
  Q 448.82 392.09 445.73 412.49
  Q 442.56 433.42 440.90 461.41
  Q 440.21 472.98 439.61 484.26
  C 438.98 496.25 439.13 508.25 438.66 520.42
  Q 438.61 521.71 439.02 523.03
  A 1.33 1.33 0.0 0 0 440.97 523.77
  Q 442.50 522.87 443.68 521.65
  C 451.17 513.92 458.24 506.46 465.95 499.53
  Q 469.32 496.51 472.63 492.79
  Q 473.45 491.88 473.63 490.67
  Q 474.34 485.83 474.53 480.61
  C 474.72 475.33 475.43 469.81 476.30 464.61
  C 476.81 461.55 476.89 458.52 477.29 455.45
  Q 481.75 420.42 490.44 384.76
  Q 496.09 361.61 503.30 340.55
  Q 508.11 326.51 514.86 314.04"
/>
<path vector-effect="non-scaling-stroke" d="
  M 740.39 872.68
  Q 747.52 870.67 753.64 869.25
  Q 764.38 866.76 776.94 865.14
  Q 789.24 863.55 794.41 861.17
  Q 809.87 854.08 809.78 834.30
  Q 809.66 809.46 808.88 790.91
  Q 808.87 790.75 808.98 790.61
  Q 809.19 790.37 809.19 790.05
  C 808.97 779.02 808.82 768.43 808.05 757.01
  C 807.49 748.85 807.41 741.02 806.91 733.00
  Q 806.48 726.04 806.11 718.86
  Q 805.86 714.01 805.32 708.67
  Q 804.80 703.43 804.53 698.44
  C 804.14 690.96 803.12 683.33 802.66 675.65
  Q 802.10 666.33 799.86 658.56
  Q 797.79 651.38 792.09 642.97
  Q 787.21 635.78 782.10 628.52
  Q 770.05 611.40 759.08 598.74
  Q 748.68 586.75 735.97 572.53
  C 734.15 570.49 732.03 568.78 730.04 566.95
  Q 728.68 565.70 727.03 565.27
  C 722.13 564.00 718.56 567.95 718.54 572.69
  Q 718.26 657.11 718.47 744.04
  Q 718.49 748.85 718.42 753.55
  C 718.40 755.30 717.80 757.51 717.24 759.21
  C 714.26 768.29 704.62 772.30 696.11 767.32
  Q 692.52 765.23 690.68 761.28
  Q 688.39 756.38 688.33 752.75
  C 687.54 703.28 687.78 653.99 688.06 600.74
  Q 688.21 572.57 687.27 552.75
  Q 684.87 502.27 674.82 454.72
  Q 669.85 431.14 659.98 398.36
  C 655.24 382.64 649.39 368.21 642.76 352.30
  C 640.13 345.97 635.67 338.69 630.15 335.02
  C 626.56 332.63 621.68 332.34 617.37 332.92
  C 608.82 334.07 604.59 340.82 604.22 349.22
  Q 603.82 358.20 603.87 365.25
  Q 604.29 421.34 603.85 477.13
  C 603.77 487.18 604.08 497.36 604.08 507.29
  Q 604.05 609.15 604.07 719.50
  Q 604.08 789.37 604.15 859.00
  C 604.18 888.83 603.69 919.70 603.77 940.75
  C 603.80 947.84 611.58 956.05 618.55 949.71
  Q 623.25 945.45 628.01 940.68
  Q 657.11 911.53 693.43 891.97
  Q 716.97 879.29 740.39 872.68"
/>
<path vector-effect="non-scaling-stroke" d="
  M 125.54 767.80
  C 117.43 764.05 115.96 755.50 115.93 747.24
  Q 115.68 658.71 115.95 571.77
  C 115.96 568.49 114.70 565.42 111.01 564.86
  Q 108.25 564.44 105.15 566.70
  Q 102.09 568.93 99.29 572.03
  Q 89.55 582.84 80.09 593.62
  C 76.17 598.10 72.36 603.59 68.39 608.66
  Q 53.54 627.59 41.31 645.30
  Q 34.94 654.53 33.68 663.18
  C 31.69 676.85 31.40 691.96 30.21 706.46
  Q 29.43 715.94 28.67 725.83
  Q 28.03 734.20 27.52 745.20
  C 26.83 760.38 25.72 775.41 25.41 790.20
  Q 24.99 810.91 24.49 831.27
  Q 24.30 838.86 25.72 843.81
  Q 29.63 857.48 41.94 861.99
  C 48.36 864.34 56.32 864.99 63.16 865.92
  C 83.29 868.68 102.92 874.22 121.98 882.20
  Q 136.82 888.40 148.85 895.10
  Q 167.61 905.55 184.42 920.03
  Q 197.90 931.65 215.87 949.92
  C 220.58 954.71 226.71 952.67 229.48 947.30
  Q 231.57 943.26 231.50 939.74
  Q 231.32 931.17 231.28 923.00
  Q 230.53 769.04 231.01 612.75
  C 231.15 567.64 230.87 526.16 230.96 485.74
  Q 231.18 395.97 230.95 350.00
  C 230.88 335.85 215.28 327.44 203.84 336.35
  C 200.04 339.31 197.01 344.33 195.04 348.73
  C 185.55 369.85 177.41 392.26 170.86 414.59
  Q 167.37 426.50 163.69 441.59
  C 160.15 456.07 157.67 469.94 155.72 484.48
  Q 153.66 499.88 151.72 514.68
  Q 149.54 531.29 148.18 558.52
  Q 147.64 569.33 147.59 578.73
  Q 147.16 664.01 147.29 748.56
  C 147.30 755.55 146.82 761.72 140.78 766.27
  C 136.26 769.68 130.72 770.20 125.54 767.80"
/>
<path vector-effect="non-scaling-stroke" d="
  M 556.87 356.88
  Q 551.26 355.29 545.84 358.44
  C 542.98 360.10 541.07 363.37 539.76 366.28
  Q 538.10 369.98 536.93 373.88
  Q 529.45 398.70 523.94 421.71
  Q 522.05 429.62 520.63 437.66
  Q 517.67 454.40 514.94 471.76
  C 512.94 484.49 511.63 497.37 510.41 509.94
  Q 508.81 526.50 508.10 544.57
  C 507.81 551.95 507.21 559.46 507.20 566.75
  C 507.18 585.14 506.72 602.86 506.67 621.01
  Q 506.53 678.11 506.53 735.75
  C 506.53 743.36 503.51 751.51 495.95 754.15
  C 488.99 756.57 481.99 753.77 478.12 747.44
  Q 475.18 742.64 475.14 735.75
  Q 474.71 655.06 474.88 571.25
  Q 474.88 568.25 474.49 567.49
  Q 472.99 564.66 469.43 564.98
  C 466.83 565.21 464.76 567.59 463.19 569.52
  Q 455.31 579.25 447.71 588.53
  C 444.57 592.36 440.91 597.04 439.58 601.87
  Q 438.93 604.22 438.93 608.20
  Q 438.89 722.19 438.89 845.50
  Q 438.88 856.21 447.72 864.89
  C 449.99 867.12 453.54 868.96 456.50 870.49
  Q 465.24 875.00 474.25 879.74
  Q 482.04 883.84 494.16 892.04
  Q 500.43 896.28 505.56 900.41
  Q 511.01 904.79 516.45 909.21
  Q 526.10 917.05 534.62 926.11
  C 541.24 933.16 547.21 940.98 553.81 948.19
  Q 555.96 950.54 558.79 951.06
  C 563.87 951.98 566.33 945.50 566.34 941.50
  Q 566.55 889.89 566.33 837.75
  Q 565.77 706.01 565.89 588.25
  C 565.90 577.74 566.29 567.04 566.32 556.86
  Q 566.56 461.58 566.47 372.97
  Q 566.47 366.58 565.01 363.52
  Q 562.64 358.50 556.87 356.88"
/>
<path vector-effect="non-scaling-stroke" d="
  M 302.91 386.56
  Q 299.82 375.35 297.27 368.37
  C 295.78 364.30 293.29 360.68 289.78 358.17
  Q 286.32 355.70 281.06 356.07
  Q 277.06 356.35 273.86 359.03
  Q 269.10 363.01 269.12 371.25
  Q 269.33 444.69 269.14 528.50
  Q 269.11 539.00 269.13 548.50
  Q 269.41 755.42 269.07 937.58
  C 269.06 943.63 269.05 948.30 274.08 951.21
  C 276.99 952.88 279.64 950.28 281.26 948.12
  Q 286.35 941.32 291.39 935.71
  Q 304.64 920.94 322.19 905.58
  C 326.38 901.90 330.90 898.87 335.55 895.55
  C 347.56 886.97 360.39 879.62 373.84 873.11
  Q 379.44 870.40 384.10 867.18
  C 390.19 862.98 396.30 854.59 396.34 847.38
  Q 396.82 750.98 396.30 608.50
  Q 396.27 601.52 392.75 596.52
  C 386.48 587.63 379.22 579.38 372.42 571.10
  C 370.53 568.80 368.91 566.53 366.12 565.48
  Q 363.04 564.33 361.42 567.02
  Q 360.60 568.38 360.59 571.24
  C 360.43 624.58 361.33 678.09 360.81 731.51
  Q 360.77 735.65 360.28 739.80
  C 359.13 749.40 352.14 755.53 342.28 754.41
  Q 335.47 753.63 332.04 747.67
  Q 328.86 742.13 328.80 737.00
  Q 328.56 714.88 328.62 694.25
  Q 328.82 629.96 328.68 566.75
  Q 328.64 550.88 327.63 535.41
  Q 326.52 518.68 325.24 503.78
  Q 323.17 479.79 317.78 450.30
  Q 312.51 421.43 302.91 386.56"
/>
</g>
<path d="
  M 294.60 15.95
  Q 298.10 17.38 301.45 19.88
  Q 320.12 33.83 325.45 54.84
  Q 326.93 60.70 327.54 67.64
  Q 328.10 74.02 328.01 77.43
  Q 328.00 78.04 327.39 78.04
  Q 244.92 77.85 166.81 78.14
  Q 164.01 78.15 160.60 78.29
  A 2.38 2.37 3.0 0 1 158.14 75.57
  Q 158.73 71.51 158.84 67.28
  C 159.02 60.02 161.04 52.42 163.32 45.51
  Q 165.49 38.99 169.57 33.65
  C 175.74 25.56 183.53 18.08 193.28 14.21
  Q 197.28 12.62 202.23 11.03
  Q 204.59 10.26 206.84 9.98
  C 208.97 9.72 210.88 9.01 213.01 9.01
  Q 240.39 9.01 265.10 8.98
  Q 268.64 8.98 271.61 9.57
  Q 273.88 10.01 276.26 10.00
  Q 278.52 10.00 280.77 10.72
  Q 285.93 12.38 290.70 14.06
  C 292.10 14.56 293.21 15.39 294.60 15.95
  Z
  M 295.21 17.44
  C 287.57 13.09 277.62 10.44 268.91 10.49
  Q 249.21 10.59 228.64 10.37
  Q 214.22 10.22 208.78 10.98
  Q 196.42 12.70 186.08 19.41
  Q 174.26 27.08 167.40 39.37
  Q 163.61 46.17 161.48 57.19
  Q 159.74 66.26 159.47 75.97
  A 0.96 0.96 0.0 0 0 160.43 76.96
  L 326.26 76.93
  A 0.67 0.67 0.0 0 0 326.93 76.25
  Q 326.76 67.36 324.96 58.67
  Q 319.25 31.14 295.21 17.44
  Z"
/>
<path d="
  M 562.94 9.54
  Q 563.34 9.01 564.08 9.00
  Q 586.94 8.97 614.22 9.01
  Q 617.84 9.02 621.26 9.59
  Q 623.61 9.98 626.17 10.05
  Q 628.14 10.10 630.93 10.76
  Q 649.64 15.17 663.62 32.13
  Q 668.01 37.46 670.57 43.06
  Q 678.39 60.16 676.78 77.38
  A 1.67 1.66 -71.4 0 1 674.24 78.64
  Q 673.20 77.98 672.00 77.98
  Q 589.53 78.01 511.33 78.00
  A 2.32 2.32 0.0 0 1 509.01 75.69
  C 509.01 71.06 508.62 66.23 509.60 61.67
  C 510.63 56.88 511.31 52.06 513.20 47.42
  Q 523.90 21.13 550.56 11.74
  Q 556.40 9.68 562.08 9.95
  Q 562.62 9.97 562.94 9.54
  Z
  M 510.78 76.94
  L 675.14 76.94
  A 0.67 0.67 0.0 0 0 675.81 76.27
  L 675.81 70.38
  A 60.08 58.66 -90.0 0 0 617.15 10.30
  L 568.77 10.30
  A 60.08 58.66 90.0 0 0 510.11 70.38
  L 510.11 76.27
  A 0.67 0.67 0.0 0 0 510.78 76.94
  Z"
/>
<path d="
  M 268.91 10.49
  C 277.62 10.44 287.57 13.09 295.21 17.44
  Q 319.25 31.14 324.96 58.67
  Q 326.76 67.36 326.93 76.25
  A 0.67 0.67 0.0 0 1 326.26 76.93
  L 160.43 76.96
  A 0.96 0.96 0.0 0 1 159.47 75.97
  Q 159.74 66.26 161.48 57.19
  Q 163.61 46.17 167.40 39.37
  Q 174.26 27.08 186.08 19.41
  Q 196.42 12.70 208.78 10.98
  Q 214.22 10.22 228.64 10.37
  Q 249.21 10.59 268.91 10.49
  Z"
/>
<path d="
  M 510.78 76.94
  A 0.67 0.67 0.0 0 1 510.11 76.27
  L 510.11 70.38
  A 60.08 58.66 90.0 0 1 568.77 10.30
  L 617.15 10.30
  A 60.08 58.66 90.0 0 1 675.81 70.38
  L 675.81 76.27
  A 0.67 0.67 0.0 0 1 675.14 76.94
  L 510.78 76.94
  Z"
/>
<path d="
  M 397.61 489.11
  Q 397.76 489.25 397.85 489.44
  Q 397.99 489.75 397.99 490.09
  Q 398.01 505.49 398.00 522.02
  Q 398.00 522.52 397.63 522.86
  C 396.73 523.69 396.11 524.99 394.73 525.05
  Q 393.76 525.10 393.05 524.52
  Q 389.68 521.76 387.54 518.70
  Q 385.92 516.37 383.68 514.14
  Q 373.98 504.51 364.34 494.89
  C 361.44 492.00 360.57 489.14 360.09 485.40
  C 358.75 475.01 358.04 464.90 356.52 454.52
  Q 353.57 434.48 350.61 418.99
  C 349.19 411.57 348.07 404.26 346.36 396.89
  Q 340.28 370.80 335.13 353.38
  Q 328.34 330.39 317.92 311.26
  Q 312.37 301.07 301.91 290.25
  Q 277.68 265.19 242.48 264.33
  Q 236.17 264.18 226.99 265.52
  Q 217.81 266.86 210.66 270.29
  Q 196.75 276.97 183.70 288.92
  Q 177.48 294.62 171.32 303.37
  Q 163.12 315.04 157.31 327.86
  Q 155.09 332.74 151.86 341.83
  Q 149.32 348.97 146.85 355.98
  Q 144.41 362.88 142.31 370.19
  Q 140.19 377.58 138.17 384.53
  Q 133.02 402.24 130.20 416.01
  Q 129.40 419.88 128.52 423.53
  C 126.62 431.42 125.21 439.45 123.54 447.33
  C 123.15 449.18 123.15 451.12 122.79 453.00
  Q 120.19 466.57 119.04 479.53
  Q 118.71 483.18 117.93 487.29
  C 117.44 489.88 117.02 493.35 115.01 495.21
  Q 98.66 510.35 83.77 525.82
  Q 77.07 532.79 70.50 540.80
  Q 60.35 553.16 50.58 565.86
  Q 49.33 567.48 47.71 568.09
  A 1.31 1.31 0.0 0 1 45.96 566.67
  C 46.53 562.82 46.94 558.91 47.72 555.06
  Q 50.91 539.32 53.71 523.30
  Q 55.07 515.47 57.14 505.12
  Q 58.02 500.74 59.19 496.46
  C 60.25 492.62 60.76 488.67 61.83 484.87
  C 63.20 480.02 63.78 475.04 64.91 470.25
  Q 72.52 438.03 79.84 410.18
  C 80.50 407.69 80.88 405.13 81.54 402.70
  Q 88.10 378.87 95.86 353.66
  Q 96.29 352.26 99.34 341.80
  Q 101.05 335.93 103.07 330.01
  C 104.22 326.63 104.85 322.98 105.95 319.43
  Q 113.42 295.21 120.19 272.17
  Q 120.87 269.85 121.40 267.47
  C 121.89 265.22 122.89 263.08 123.44 260.84
  C 125.07 254.12 127.33 247.44 129.01 240.83
  Q 132.44 227.37 136.07 213.53
  C 136.52 211.81 137.29 210.29 137.65 208.55
  C 138.65 203.76 140.20 199.03 141.15 194.29
  Q 142.41 188.01 143.91 181.90
  C 144.86 178.02 145.23 174.26 146.18 170.50
  Q 147.33 165.93 148.33 161.04
  Q 149.34 156.04 150.35 151.17
  C 152.10 142.75 153.12 134.19 154.63 125.72
  Q 154.65 125.63 154.97 122.25
  Q 155.16 120.27 156.07 118.45
  Q 156.29 118.02 156.78 118.02
  L 328.49 118.02
  Q 330.43 118.02 330.64 119.95
  Q 331.20 125.15 332.11 129.55
  C 333.19 134.73 333.74 140.17 334.83 145.45
  Q 335.89 150.61 336.59 155.29
  Q 337.39 160.68 338.44 165.32
  Q 340.87 176.05 342.83 186.25
  Q 343.81 191.38 344.75 195.69
  Q 345.59 199.58 346.37 203.23
  Q 347.19 207.05 348.07 210.62
  Q 353.51 232.71 358.83 254.35
  Q 361.52 265.26 364.42 275.99
  Q 366.54 283.84 368.65 293.62
  Q 370.32 301.31 372.80 311.28
  Q 376.67 326.85 380.46 345.43
  C 381.12 348.68 381.22 351.91 382.25 355.09
  Q 382.89 357.07 383.28 359.24
  Q 385.58 371.98 387.43 383.08
  Q 392.56 413.81 395.60 453.21
  Q 397.26 474.68 397.07 487.85
  Q 397.06 488.60 397.61 489.11
  Z
  M 58.11 553.96
  Q 69.08 539.99 78.83 529.40
  Q 92.38 514.68 113.54 494.68
  C 116.83 491.57 116.81 487.44 116.99 483.29
  Q 117.14 479.79 117.62 476.17
  Q 119.49 461.97 122.08 448.19
  Q 126.40 425.17 133.15 397.84
  Q 140.21 369.24 153.02 335.02
  Q 159.62 317.41 171.16 301.41
  Q 177.28 292.92 184.15 286.76
  Q 193.77 278.12 204.30 272.13
  Q 214.78 266.17 228.48 263.92
  C 254.58 259.65 281.97 268.79 300.68 287.47
  Q 308.03 294.80 312.79 301.34
  C 321.55 313.37 327.46 327.56 332.94 342.81
  Q 336.28 352.11 338.79 361.64
  Q 342.15 374.42 345.46 387.70
  Q 347.89 397.42 349.66 406.68
  Q 353.40 426.18 356.47 445.15
  Q 357.91 454.10 359.11 464.43
  Q 360.40 475.50 361.54 486.77
  Q 362.00 491.25 363.83 492.95
  Q 374.29 502.66 384.59 513.60
  C 387.71 516.91 390.46 520.61 393.96 523.46
  A 1.54 1.54 0.0 0 0 396.47 522.28
  Q 396.87 484.34 394.07 448.29
  Q 394.05 448.01 393.92 447.76
  Q 393.70 447.34 393.67 446.89
  Q 391.46 417.43 386.83 387.41
  Q 382.79 361.20 374.77 325.71
  Q 368.78 299.15 363.50 278.01
  Q 356.85 251.34 350.47 225.96
  Q 347.95 215.94 345.82 206.51
  Q 336.26 164.16 329.19 119.44
  A 0.25 0.24 84.2 0 0 328.95 119.24
  L 157.31 119.27
  A 0.59 0.58 -86.1 0 0 156.73 119.78
  Q 155.48 128.67 154.03 137.58
  C 151.60 152.51 148.15 167.71 144.99 182.72
  Q 142.92 192.55 140.43 202.19
  Q 129.36 245.00 121.60 271.28
  Q 106.22 323.38 89.71 378.39
  Q 86.88 387.81 84.33 397.41
  Q 75.31 431.27 69.35 457.03
  Q 65.38 474.21 61.38 492.02
  C 57.66 508.60 54.80 524.69 51.66 541.35
  Q 50.59 547.01 49.47 552.60
  Q 48.12 559.36 47.30 565.29
  Q 47.23 565.75 47.34 566.30
  Q 47.67 567.98 48.66 566.58
  Q 52.95 560.55 58.11 553.96
  Z"
/>
<path d="
  M 535.08 289.15
  Q 533.50 290.77 531.85 292.39
  Q 530.26 293.95 528.83 295.68
  Q 520.34 306.01 513.82 318.46
  Q 511.51 322.88 510.07 326.67
  C 508.40 331.07 506.51 335.33 504.79 339.71
  C 503.36 343.36 502.58 347.12 501.18 350.82
  Q 500.41 352.88 499.81 355.04
  Q 497.45 363.59 495.15 371.75
  Q 493.63 377.14 492.36 382.57
  C 491.25 387.36 489.90 392.31 488.92 397.17
  Q 487.39 404.77 485.77 412.30
  Q 483.55 422.66 482.25 430.83
  Q 480.60 441.18 479.60 449.52
  Q 479.20 452.84 478.73 456.12
  Q 476.65 470.57 476.04 481.69
  C 475.85 485.05 475.01 488.14 474.99 491.43
  C 474.98 492.46 474.31 493.20 473.66 493.92
  C 469.56 498.50 464.94 502.05 460.54 506.20
  Q 452.89 513.39 446.26 520.59
  Q 444.25 522.78 441.99 524.53
  C 439.63 526.36 437.56 523.35 437.20 521.27
  C 436.79 518.82 437.68 516.38 437.72 513.89
  Q 437.89 504.66 437.99 494.89
  Q 438.05 489.43 438.58 481.85
  Q 439.01 475.57 439.07 468.96
  C 439.09 467.33 439.52 465.77 439.58 464.12
  Q 440.20 446.88 442.44 427.45
  Q 444.07 413.23 445.68 403.77
  C 446.77 397.30 447.73 390.69 448.92 384.40
  C 449.87 379.34 450.10 373.79 451.04 368.75
  Q 454.72 349.05 458.53 334.23
  Q 460.02 328.48 460.73 324.02
  C 461.55 318.85 463.11 313.97 463.97 308.83
  Q 464.64 304.83 466.05 300.94
  C 466.87 298.65 466.81 296.32 467.44 294.01
  C 471.50 278.97 475.30 263.98 479.10 248.89
  Q 480.25 244.32 481.22 240.05
  C 482.13 236.05 483.39 232.27 484.08 228.27
  Q 485.02 222.83 486.64 216.23
  Q 489.63 203.95 494.19 183.02
  Q 496.23 173.64 498.07 163.42
  Q 500.01 152.65 501.96 141.86
  Q 502.39 139.49 503.02 137.24
  C 503.94 133.90 503.96 130.43 504.56 127.03
  Q 505.04 124.22 505.33 121.32
  A 3.66 3.65 2.9 0 1 508.97 118.03
  L 679.25 118.04
  Q 679.77 118.04 679.87 118.54
  C 681.79 127.39 682.86 136.76 684.50 145.57
  Q 685.61 151.55 686.80 158.72
  C 687.51 162.98 688.86 167.01 689.53 171.31
  Q 690.15 175.32 691.45 180.04
  C 692.51 183.93 693.08 187.92 694.19 191.82
  C 695.88 197.76 696.85 204.00 698.49 210.01
  C 699.79 214.76 700.61 219.67 702.05 224.37
  C 702.86 227.01 703.18 229.61 703.88 232.22
  Q 707.85 247.03 711.49 259.51
  Q 714.49 269.77 717.11 278.77
  C 718.18 282.42 719.53 285.77 720.35 289.48
  C 721.17 293.19 722.79 296.51 723.68 300.28
  Q 724.19 302.45 724.92 304.67
  Q 727.43 312.35 729.39 319.50
  Q 732.43 330.56 733.59 334.41
  Q 738.92 352.03 744.28 369.64
  C 744.88 371.61 745.40 374.60 746.44 377.05
  C 747.12 378.63 747.02 380.26 747.56 381.83
  Q 749.90 388.63 750.95 393.75
  C 751.52 396.57 752.55 399.07 753.13 401.85
  Q 755.42 412.85 758.63 423.41
  Q 759.90 427.58 760.93 431.68
  Q 761.96 435.81 763.05 439.99
  Q 766.14 451.88 771.05 473.50
  C 771.29 474.59 771.22 475.76 771.53 476.84
  C 773.30 483.01 774.18 489.30 775.71 495.44
  C 777.28 501.71 778.05 507.75 779.67 513.91
  C 780.64 517.60 781.14 521.33 781.91 525.04
  Q 785.38 541.67 788.67 563.16
  Q 789.10 566.01 788.73 568.54
  A 0.83 0.82 13.1 0 1 787.66 569.20
  Q 785.44 568.49 783.95 566.49
  C 773.13 552.01 761.35 537.60 748.89 524.13
  C 747.97 523.14 747.49 522.00 746.52 521.02
  Q 732.98 507.38 719.21 493.79
  A 4.02 4.00 -74.2 0 1 718.12 491.83
  C 717.01 486.93 716.72 481.81 715.97 476.79
  C 714.20 464.87 712.74 453.76 710.20 441.85
  C 707.73 430.24 705.47 418.77 702.34 407.24
  Q 701.59 404.47 701.05 401.88
  C 699.81 395.98 697.99 390.14 696.41 384.29
  C 696.03 382.89 695.28 381.67 694.95 380.21
  Q 694.01 376.01 692.51 371.36
  Q 688.29 358.31 683.74 344.98
  C 678.53 329.72 671.70 314.40 662.76 301.74
  Q 660.18 298.08 653.50 290.54
  Q 652.53 289.45 651.43 288.65
  C 650.43 287.92 649.89 286.94 648.95 286.13
  Q 645.52 283.18 642.16 280.49
  Q 638.17 277.30 633.62 274.87
  Q 614.96 264.88 594.98 264.36
  Q 588.28 264.19 578.49 265.78
  Q 574.49 266.43 570.84 267.68
  C 567.46 268.84 563.96 269.64 560.71 271.19
  C 552.88 274.92 546.47 279.26 540.06 284.56
  Q 537.39 286.77 535.08 289.15
  Z
  M 514.86 314.04
  Q 524.56 296.10 538.92 283.74
  Q 559.32 266.18 586.05 263.31
  Q 596.07 262.24 606.43 264.09
  C 618.81 266.31 631.31 271.19 641.70 278.71
  Q 655.53 288.71 665.73 304.09
  Q 672.60 314.46 677.27 325.31
  Q 684.47 342.04 691.33 363.70
  Q 703.54 402.21 712.07 444.15
  Q 713.97 453.49 715.32 462.69
  Q 716.75 472.54 718.08 481.86
  C 718.75 486.51 717.99 491.35 721.80 494.94
  Q 735.09 507.50 747.57 520.81
  Q 748.92 522.24 750.27 523.72
  Q 758.20 532.39 766.02 541.86
  Q 776.10 554.05 786.57 567.74
  A 0.97 0.97 0.0 0 0 787.65 568.08
  Q 788.77 567.70 788.32 566.77
  Q 788.07 566.26 787.97 565.72
  Q 786.61 558.30 784.82 547.90
  Q 782.49 534.40 779.33 518.99
  Q 773.42 490.19 767.46 463.71
  C 763.82 447.48 759.58 432.11 755.44 416.44
  Q 753.30 408.37 751.18 399.82
  Q 749.19 391.83 746.73 383.24
  C 743.09 370.51 739.47 357.82 735.40 344.73
  Q 732.32 334.80 729.52 324.77
  Q 726.80 315.03 723.92 305.57
  Q 717.50 284.45 711.67 264.72
  C 702.12 232.42 694.73 199.58 687.08 166.89
  Q 684.08 154.07 679.93 124.74
  Q 679.58 122.28 679.07 120.06
  A 1.35 1.35 0.0 0 0 677.74 119.01
  L 662.50 119.09
  Q 662.27 119.10 662.08 118.99
  Q 661.91 118.90 661.75 118.90
  Q 636.89 118.83 612.00 119.04
  Q 606.82 119.09 602.00 119.06
  Q 556.04 118.83 507.99 119.23
  A 1.04 1.04 0.0 0 0 506.97 120.13
  C 504.84 135.45 502.04 150.04 499.14 165.24
  Q 496.04 181.46 491.25 201.91
  C 487.17 219.33 483.58 236.21 479.21 253.44
  Q 473.09 277.55 467.06 301.27
  C 463.13 316.76 460.29 332.18 456.56 348.06
  Q 453.74 360.09 451.84 372.44
  Q 448.82 392.09 445.73 412.49
  Q 442.56 433.42 440.90 461.41
  Q 440.21 472.98 439.61 484.26
  C 438.98 496.25 439.13 508.25 438.66 520.42
  Q 438.61 521.71 439.02 523.03
  A 1.33 1.33 0.0 0 0 440.97 523.77
  Q 442.50 522.87 443.68 521.65
  C 451.17 513.92 458.24 506.46 465.95 499.53
  Q 469.32 496.51 472.63 492.79
  Q 473.45 491.88 473.63 490.67
  Q 474.34 485.83 474.53 480.61
  C 474.72 475.33 475.43 469.81 476.30 464.61
  C 476.81 461.55 476.89 458.52 477.29 455.45
  Q 481.75 420.42 490.44 384.76
  Q 496.09 361.61 503.30 340.55
  Q 508.11 326.51 514.86 314.04
  Z"
/>
<path d="
  M 514.86 314.04
  Q 508.11 326.51 503.30 340.55
  Q 496.09 361.61 490.44 384.76
  Q 481.75 420.42 477.29 455.45
  C 476.89 458.52 476.81 461.55 476.30 464.61
  C 475.43 469.81 474.72 475.33 474.53 480.61
  Q 474.34 485.83 473.63 490.67
  Q 473.45 491.88 472.63 492.79
  Q 469.32 496.51 465.95 499.53
  C 458.24 506.46 451.17 513.92 443.68 521.65
  Q 442.50 522.87 440.97 523.77
  A 1.33 1.33 0.0 0 1 439.02 523.03
  Q 438.61 521.71 438.66 520.42
  C 439.13 508.25 438.98 496.25 439.61 484.26
  Q 440.21 472.98 440.90 461.41
  Q 442.56 433.42 445.73 412.49
  Q 448.82 392.09 451.84 372.44
  Q 453.74 360.09 456.56 348.06
  C 460.29 332.18 463.13 316.76 467.06 301.27
  Q 473.09 277.55 479.21 253.44
  C 483.58 236.21 487.17 219.33 491.25 201.91
  Q 496.04 181.46 499.14 165.24
  C 502.04 150.04 504.84 135.45 506.97 120.13
  A 1.04 1.04 0.0 0 1 507.99 119.23
  Q 556.04 118.83 602.00 119.06
  Q 606.82 119.09 612.00 119.04
  Q 636.89 118.83 661.75 118.90
  Q 661.91 118.90 662.08 118.99
  Q 662.27 119.10 662.50 119.09
  L 677.74 119.01
  A 1.35 1.35 0.0 0 1 679.07 120.06
  Q 679.58 122.28 679.93 124.74
  Q 684.08 154.07 687.08 166.89
  C 694.73 199.58 702.12 232.42 711.67 264.72
  Q 717.50 284.45 723.92 305.57
  Q 726.80 315.03 729.52 324.77
  Q 732.32 334.80 735.40 344.73
  C 739.47 357.82 743.09 370.51 746.73 383.24
  Q 749.19 391.83 751.18 399.82
  Q 753.30 408.37 755.44 416.44
  C 759.58 432.11 763.82 447.48 767.46 463.71
  Q 773.42 490.19 779.33 518.99
  Q 782.49 534.40 784.82 547.90
  Q 786.61 558.30 787.97 565.72
  Q 788.07 566.26 788.32 566.77
  Q 788.77 567.70 787.65 568.08
  A 0.97 0.97 0.0 0 1 786.57 567.74
  Q 776.10 554.05 766.02 541.86
  Q 758.20 532.39 750.27 523.72
  Q 748.92 522.24 747.57 520.81
  Q 735.09 507.50 721.80 494.94
  C 717.99 491.35 718.75 486.51 718.08 481.86
  Q 716.75 472.54 715.32 462.69
  Q 713.97 453.49 712.07 444.15
  Q 703.54 402.21 691.33 363.70
  Q 684.47 342.04 677.27 325.31
  Q 672.60 314.46 665.73 304.09
  Q 655.53 288.71 641.70 278.71
  C 631.31 271.19 618.81 266.31 606.43 264.09
  Q 596.07 262.24 586.05 263.31
  Q 559.32 266.18 538.92 283.74
  Q 524.56 296.10 514.86 314.04
  Z"
/>
<path d="
  M 58.11 553.96
  Q 52.95 560.55 48.66 566.58
  Q 47.67 567.98 47.34 566.30
  Q 47.23 565.75 47.30 565.29
  Q 48.12 559.36 49.47 552.60
  Q 50.59 547.01 51.66 541.35
  C 54.80 524.69 57.66 508.60 61.38 492.02
  Q 65.38 474.21 69.35 457.03
  Q 75.31 431.27 84.33 397.41
  Q 86.88 387.81 89.71 378.39
  Q 106.22 323.38 121.60 271.28
  Q 129.36 245.00 140.43 202.19
  Q 142.92 192.55 144.99 182.72
  C 148.15 167.71 151.60 152.51 154.03 137.58
  Q 155.48 128.67 156.73 119.78
  A 0.59 0.58 -86.1 0 1 157.31 119.27
  L 328.95 119.24
  A 0.25 0.24 84.2 0 1 329.19 119.44
  Q 336.26 164.16 345.82 206.51
  Q 347.95 215.94 350.47 225.96
  Q 356.85 251.34 363.50 278.01
  Q 368.78 299.15 374.77 325.71
  Q 382.79 361.20 386.83 387.41
  Q 391.46 417.43 393.67 446.89
  Q 393.70 447.34 393.92 447.76
  Q 394.05 448.01 394.07 448.29
  Q 396.87 484.34 396.47 522.28
  A 1.54 1.54 0.0 0 1 393.96 523.46
  C 390.46 520.61 387.71 516.91 384.59 513.60
  Q 374.29 502.66 363.83 492.95
  Q 362.00 491.25 361.54 486.77
  Q 360.40 475.50 359.11 464.43
  Q 357.91 454.10 356.47 445.15
  Q 353.40 426.18 349.66 406.68
  Q 347.89 397.42 345.46 387.70
  Q 342.15 374.42 338.79 361.64
  Q 336.28 352.11 332.94 342.81
  C 327.46 327.56 321.55 313.37 312.79 301.34
  Q 308.03 294.80 300.68 287.47
  C 281.97 268.79 254.58 259.65 228.48 263.92
  Q 214.78 266.17 204.30 272.13
  Q 193.77 278.12 184.15 286.76
  Q 177.28 292.92 171.16 301.41
  Q 159.62 317.41 153.02 335.02
  Q 140.21 369.24 133.15 397.84
  Q 126.40 425.17 122.08 448.19
  Q 119.49 461.97 117.62 476.17
  Q 117.14 479.79 116.99 483.29
  C 116.81 487.44 116.83 491.57 113.54 494.68
  Q 92.38 514.68 78.83 529.40
  Q 69.08 539.99 58.11 553.96
  Z"
/>
<path d="
  M 717.19 756.47
  C 718.76 749.74 717.04 744.57 717.04 737.99
  Q 717.05 658.89 716.98 575.57
  Q 716.97 571.08 718.12 568.79
  C 720.18 564.69 725.94 562.12 730.02 565.71
  Q 732.84 568.19 734.93 570.02
  Q 739.30 573.84 752.28 589.41
  Q 752.58 589.76 753.00 590.21
  Q 760.92 598.57 765.85 604.82
  Q 767.09 606.39 768.32 607.88
  Q 771.38 611.59 774.41 615.73
  Q 783.54 628.19 792.39 641.14
  Q 795.62 645.87 799.25 653.25
  Q 800.72 656.24 801.47 659.31
  C 802.17 662.20 802.97 664.97 803.31 667.93
  Q 804.53 678.39 804.73 682.82
  Q 805.35 696.08 806.67 708.41
  C 807.65 717.63 807.87 731.48 808.66 742.99
  C 809.02 748.39 808.83 753.72 809.27 759.10
  Q 810.25 771.33 810.04 784.16
  C 809.99 787.18 811.01 789.96 811.00 792.97
  Q 810.95 814.10 811.06 835.47
  C 811.12 847.25 805.76 857.34 794.99 862.46
  Q 790.41 864.64 781.73 865.77
  Q 769.68 867.34 758.01 869.58
  Q 753.85 870.39 750.15 871.45
  C 746.67 872.45 743.09 872.93 739.74 874.17
  C 735.71 875.66 731.55 876.71 727.45 878.15
  Q 720.83 880.47 714.82 883.08
  Q 673.07 901.23 639.61 931.49
  Q 632.40 938.01 623.58 947.10
  Q 621.31 949.43 618.06 951.48
  C 614.09 953.97 610.45 953.67 606.88 950.57
  C 602.38 946.66 602.83 943.49 602.85 938.19
  Q 603.00 890.18 603.01 840.25
  Q 603.07 596.38 602.92 349.96
  Q 602.91 345.39 604.12 342.43
  Q 608.10 332.65 619.21 331.17
  Q 621.35 330.88 623.29 331.49
  C 625.03 332.02 626.70 331.79 628.33 332.62
  Q 633.62 335.34 636.59 339.35
  Q 641.57 346.06 644.58 353.38
  Q 648.45 362.78 651.85 371.25
  Q 657.34 384.92 663.71 405.39
  Q 665.09 409.84 666.05 414.21
  C 666.92 418.21 668.25 421.98 669.23 425.96
  Q 671.06 433.44 672.84 440.26
  Q 676.20 453.18 678.59 466.23
  Q 681.07 479.80 684.51 505.04
  Q 686.63 520.57 688.33 546.27
  Q 689.00 556.33 688.99 566.10
  Q 688.91 656.93 688.96 745.85
  Q 688.96 752.09 690.28 756.86
  Q 691.58 761.58 694.18 764.25
  Q 696.34 766.47 699.38 767.57
  Q 701.28 768.25 703.94 768.09
  C 710.13 767.69 713.07 765.19 715.73 760.33
  Q 716.70 758.56 717.19 756.47
  Z
  M 740.39 872.68
  Q 747.52 870.67 753.64 869.25
  Q 764.38 866.76 776.94 865.14
  Q 789.24 863.55 794.41 861.17
  Q 809.87 854.08 809.78 834.30
  Q 809.66 809.46 808.88 790.91
  Q 808.87 790.75 808.98 790.61
  Q 809.19 790.37 809.19 790.05
  C 808.97 779.02 808.82 768.43 808.05 757.01
  C 807.49 748.85 807.41 741.02 806.91 733.00
  Q 806.48 726.04 806.11 718.86
  Q 805.86 714.01 805.32 708.67
  Q 804.80 703.43 804.53 698.44
  C 804.14 690.96 803.12 683.33 802.66 675.65
  Q 802.10 666.33 799.86 658.56
  Q 797.79 651.38 792.09 642.97
  Q 787.21 635.78 782.10 628.52
  Q 770.05 611.40 759.08 598.74
  Q 748.68 586.75 735.97 572.53
  C 734.15 570.49 732.03 568.78 730.04 566.95
  Q 728.68 565.70 727.03 565.27
  C 722.13 564.00 718.56 567.95 718.54 572.69
  Q 718.26 657.11 718.47 744.04
  Q 718.49 748.85 718.42 753.55
  C 718.40 755.30 717.80 757.51 717.24 759.21
  C 714.26 768.29 704.62 772.30 696.11 767.32
  Q 692.52 765.23 690.68 761.28
  Q 688.39 756.38 688.33 752.75
  C 687.54 703.28 687.78 653.99 688.06 600.74
  Q 688.21 572.57 687.27 552.75
  Q 684.87 502.27 674.82 454.72
  Q 669.85 431.14 659.98 398.36
  C 655.24 382.64 649.39 368.21 642.76 352.30
  C 640.13 345.97 635.67 338.69 630.15 335.02
  C 626.56 332.63 621.68 332.34 617.37 332.92
  C 608.82 334.07 604.59 340.82 604.22 349.22
  Q 603.82 358.20 603.87 365.25
  Q 604.29 421.34 603.85 477.13
  C 603.77 487.18 604.08 497.36 604.08 507.29
  Q 604.05 609.15 604.07 719.50
  Q 604.08 789.37 604.15 859.00
  C 604.18 888.83 603.69 919.70 603.77 940.75
  C 603.80 947.84 611.58 956.05 618.55 949.71
  Q 623.25 945.45 628.01 940.68
  Q 657.11 911.53 693.43 891.97
  Q 716.97 879.29 740.39 872.68
  Z"
/>
<path d="
  M 146.89 571.81
  Q 147.04 562.40 147.07 553.28
  C 147.08 552.02 147.62 550.79 147.66 549.74
  Q 148.14 535.81 149.05 524.75
  Q 149.56 518.57 150.63 511.96
  C 151.78 504.87 152.41 497.64 153.70 490.55
  Q 154.64 485.33 155.13 480.00
  Q 155.64 474.40 156.83 469.32
  C 157.82 465.09 158.08 460.76 159.04 456.50
  Q 160.39 450.50 161.72 444.49
  Q 163.01 438.68 164.71 432.59
  C 166.77 425.15 168.72 417.61 170.98 410.21
  Q 176.44 392.32 180.45 381.49
  Q 185.07 369.03 190.27 356.32
  C 193.13 349.32 196.06 342.60 201.31 337.12
  Q 207.77 330.39 217.15 331.89
  Q 223.78 332.95 227.64 337.95
  C 228.91 339.59 231.68 343.23 231.81 345.04
  Q 232.01 347.85 232.01 350.75
  Q 231.92 625.63 231.93 900.50
  Q 231.93 918.11 232.08 935.73
  C 232.15 943.71 232.57 948.26 226.15 952.44
  Q 220.39 956.18 215.51 951.21
  Q 205.90 941.42 195.86 931.71
  Q 170.24 906.91 137.91 890.79
  Q 107.68 875.73 77.45 869.67
  C 68.74 867.93 59.34 866.92 50.48 865.62
  Q 42.38 864.43 34.79 859.75
  C 29.62 856.56 26.25 849.78 24.33 843.80
  Q 22.75 838.86 22.87 831.43
  Q 23.05 820.80 23.03 810.28
  C 23.03 807.87 23.88 805.74 23.91 803.23
  Q 24.05 791.98 23.98 780.90
  C 23.97 779.31 24.53 778.02 24.61 776.50
  Q 24.86 771.67 24.99 766.16
  Q 25.11 760.97 25.70 755.91
  C 26.23 751.34 25.80 746.71 26.28 742.05
  C 26.96 735.38 26.71 728.68 27.64 722.04
  C 28.10 718.71 27.92 715.40 28.27 712.00
  Q 28.74 707.51 29.18 703.01
  Q 29.60 698.75 29.84 693.98
  Q 30.29 685.08 31.00 675.49
  Q 31.76 665.13 33.52 658.26
  Q 34.90 652.87 40.05 645.00
  Q 44.52 638.16 48.81 632.47
  Q 60.65 616.74 73.19 600.42
  Q 77.11 595.32 80.92 590.93
  Q 84.88 586.36 89.11 581.59
  Q 94.55 575.44 99.25 570.26
  Q 103.33 565.77 109.50 563.31
  Q 109.97 563.12 110.45 563.28
  C 114.43 564.58 116.95 566.21 116.95 570.70
  Q 116.92 673.09 116.97 749.90
  C 116.98 755.04 119.33 762.41 123.79 765.38
  Q 131.90 770.76 139.54 765.60
  Q 142.26 763.77 144.63 760.70
  Q 145.06 760.15 144.99 759.45
  Q 144.85 757.89 145.69 756.63
  Q 146.04 756.11 146.04 755.48
  Q 146.00 665.02 146.00 574.25
  Q 146.00 573.37 146.56 572.68
  Q 146.88 572.30 146.89 571.81
  Z
  M 125.54 767.80
  C 117.43 764.05 115.96 755.50 115.93 747.24
  Q 115.68 658.71 115.95 571.77
  C 115.96 568.49 114.70 565.42 111.01 564.86
  Q 108.25 564.44 105.15 566.70
  Q 102.09 568.93 99.29 572.03
  Q 89.55 582.84 80.09 593.62
  C 76.17 598.10 72.36 603.59 68.39 608.66
  Q 53.54 627.59 41.31 645.30
  Q 34.94 654.53 33.68 663.18
  C 31.69 676.85 31.40 691.96 30.21 706.46
  Q 29.43 715.94 28.67 725.83
  Q 28.03 734.20 27.52 745.20
  C 26.83 760.38 25.72 775.41 25.41 790.20
  Q 24.99 810.91 24.49 831.27
  Q 24.30 838.86 25.72 843.81
  Q 29.63 857.48 41.94 861.99
  C 48.36 864.34 56.32 864.99 63.16 865.92
  C 83.29 868.68 102.92 874.22 121.98 882.20
  Q 136.82 888.40 148.85 895.10
  Q 167.61 905.55 184.42 920.03
  Q 197.90 931.65 215.87 949.92
  C 220.58 954.71 226.71 952.67 229.48 947.30
  Q 231.57 943.26 231.50 939.74
  Q 231.32 931.17 231.28 923.00
  Q 230.53 769.04 231.01 612.75
  C 231.15 567.64 230.87 526.16 230.96 485.74
  Q 231.18 395.97 230.95 350.00
  C 230.88 335.85 215.28 327.44 203.84 336.35
  C 200.04 339.31 197.01 344.33 195.04 348.73
  C 185.55 369.85 177.41 392.26 170.86 414.59
  Q 167.37 426.50 163.69 441.59
  C 160.15 456.07 157.67 469.94 155.72 484.48
  Q 153.66 499.88 151.72 514.68
  Q 149.54 531.29 148.18 558.52
  Q 147.64 569.33 147.59 578.73
  Q 147.16 664.01 147.29 748.56
  C 147.30 755.55 146.82 761.72 140.78 766.27
  C 136.26 769.68 130.72 770.20 125.54 767.80
  Z"
/>
<path d="
  M 115.93 747.24
  C 115.96 755.50 117.43 764.05 125.54 767.80
  C 130.72 770.20 136.26 769.68 140.78 766.27
  C 146.82 761.72 147.30 755.55 147.29 748.56
  Q 147.16 664.01 147.59 578.73
  Q 147.64 569.33 148.18 558.52
  Q 149.54 531.29 151.72 514.68
  Q 153.66 499.88 155.72 484.48
  C 157.67 469.94 160.15 456.07 163.69 441.59
  Q 167.37 426.50 170.86 414.59
  C 177.41 392.26 185.55 369.85 195.04 348.73
  C 197.01 344.33 200.04 339.31 203.84 336.35
  C 215.28 327.44 230.88 335.85 230.95 350.00
  Q 231.18 395.97 230.96 485.74
  C 230.87 526.16 231.15 567.64 231.01 612.75
  Q 230.53 769.04 231.28 923.00
  Q 231.32 931.17 231.50 939.74
  Q 231.57 943.26 229.48 947.30
  C 226.71 952.67 220.58 954.71 215.87 949.92
  Q 197.90 931.65 184.42 920.03
  Q 167.61 905.55 148.85 895.10
  Q 136.82 888.40 121.98 882.20
  C 102.92 874.22 83.29 868.68 63.16 865.92
  C 56.32 864.99 48.36 864.34 41.94 861.99
  Q 29.63 857.48 25.72 843.81
  Q 24.30 838.86 24.49 831.27
  Q 24.99 810.91 25.41 790.20
  C 25.72 775.41 26.83 760.38 27.52 745.20
  Q 28.03 734.20 28.67 725.83
  Q 29.43 715.94 30.21 706.46
  C 31.40 691.96 31.69 676.85 33.68 663.18
  Q 34.94 654.53 41.31 645.30
  Q 53.54 627.59 68.39 608.66
  C 72.36 603.59 76.17 598.10 80.09 593.62
  Q 89.55 582.84 99.29 572.03
  Q 102.09 568.93 105.15 566.70
  Q 108.25 564.44 111.01 564.86
  C 114.70 565.42 115.96 568.49 115.95 571.77
  Q 115.68 658.71 115.93 747.24
  Z"
/>
<path d="
  M 740.39 872.68
  Q 716.97 879.29 693.43 891.97
  Q 657.11 911.53 628.01 940.68
  Q 623.25 945.45 618.55 949.71
  C 611.58 956.05 603.80 947.84 603.77 940.75
  C 603.69 919.70 604.18 888.83 604.15 859.00
  Q 604.08 789.37 604.07 719.50
  Q 604.05 609.15 604.08 507.29
  C 604.08 497.36 603.77 487.18 603.85 477.13
  Q 604.29 421.34 603.87 365.25
  Q 603.82 358.20 604.22 349.22
  C 604.59 340.82 608.82 334.07 617.37 332.92
  C 621.68 332.34 626.56 332.63 630.15 335.02
  C 635.67 338.69 640.13 345.97 642.76 352.30
  C 649.39 368.21 655.24 382.64 659.98 398.36
  Q 669.85 431.14 674.82 454.72
  Q 684.87 502.27 687.27 552.75
  Q 688.21 572.57 688.06 600.74
  C 687.78 653.99 687.54 703.28 688.33 752.75
  Q 688.39 756.38 690.68 761.28
  Q 692.52 765.23 696.11 767.32
  C 704.62 772.30 714.26 768.29 717.24 759.21
  C 717.80 757.51 718.40 755.30 718.42 753.55
  Q 718.49 748.85 718.47 744.04
  Q 718.26 657.11 718.54 572.69
  C 718.56 567.95 722.13 564.00 727.03 565.27
  Q 728.68 565.70 730.04 566.95
  C 732.03 568.78 734.15 570.49 735.97 572.53
  Q 748.68 586.75 759.08 598.74
  Q 770.05 611.40 782.10 628.52
  Q 787.21 635.78 792.09 642.97
  Q 797.79 651.38 799.86 658.56
  Q 802.10 666.33 802.66 675.65
  C 803.12 683.33 804.14 690.96 804.53 698.44
  Q 804.80 703.43 805.32 708.67
  Q 805.86 714.01 806.11 718.86
  Q 806.48 726.04 806.91 733.00
  C 807.41 741.02 807.49 748.85 808.05 757.01
  C 808.82 768.43 808.97 779.02 809.19 790.05
  Q 809.19 790.37 808.98 790.61
  Q 808.87 790.75 808.88 790.91
  Q 809.66 809.46 809.78 834.30
  Q 809.87 854.08 794.41 861.17
  Q 789.24 863.55 776.94 865.14
  Q 764.38 866.76 753.64 869.25
  Q 747.52 870.67 740.39 872.68
  Z"
/>
<path d="
  M 506.03 610.07
  Q 506.02 580.35 505.99 559.49
  Q 505.99 558.62 506.46 557.85
  Q 506.72 557.43 506.74 556.93
  Q 507.15 545.99 507.02 535.04
  C 507.00 533.68 507.73 532.77 507.79 531.48
  Q 507.97 527.53 508.01 523.40
  Q 508.05 519.65 508.47 515.53
  Q 509.85 501.95 511.41 487.49
  Q 512.10 481.07 513.25 474.14
  C 514.37 467.34 515.18 460.26 516.73 453.48
  Q 517.49 450.13 518.03 446.16
  Q 519.87 432.53 522.74 421.89
  Q 523.76 418.12 524.41 414.87
  Q 525.15 411.11 526.20 407.84
  C 527.79 402.87 528.54 397.83 530.27 392.89
  C 531.38 389.70 531.91 386.36 532.96 383.08
  Q 535.18 376.17 537.27 369.90
  Q 539.16 364.23 540.85 361.94
  C 544.75 356.69 551.70 353.02 558.07 355.90
  Q 564.96 359.02 566.85 364.85
  C 568.17 368.90 568.01 372.63 568.01 376.92
  Q 568.00 437.11 568.00 497.31
  Q 568.00 500.77 567.42 504.35
  Q 566.51 509.95 567.47 515.84
  Q 567.98 519.05 567.99 522.24
  Q 568.04 542.49 567.96 560.66
  Q 567.95 562.87 567.32 566.26
  Q 566.95 568.22 566.95 570.15
  Q 566.94 706.04 566.98 840.46
  Q 566.98 842.12 567.09 843.88
  C 567.17 845.13 568.02 846.75 568.02 848.53
  Q 567.97 895.00 568.02 937.90
  C 568.02 942.60 567.19 946.87 564.02 950.58
  C 561.24 953.83 556.24 951.75 553.53 949.20
  C 549.80 945.67 546.83 941.75 543.55 938.02
  Q 539.27 933.15 535.11 928.32
  C 533.87 926.88 532.38 926.09 531.47 924.32
  A 1.80 1.75 89.6 0 0 530.71 923.55
  C 529.09 922.72 528.23 921.37 526.94 920.17
  C 523.02 916.56 519.18 912.75 515.06 909.40
  Q 506.83 902.72 498.30 896.28
  C 493.33 892.53 487.86 889.22 482.59 885.92
  Q 474.82 881.07 465.58 876.63
  Q 461.99 874.91 458.54 872.95
  C 455.46 871.21 452.32 869.79 449.44 867.64
  C 442.69 862.61 437.99 854.78 438.00 846.23
  Q 438.13 725.76 437.95 606.18
  C 437.94 601.29 440.17 596.77 443.14 592.79
  Q 452.23 580.60 462.04 569.14
  Q 465.35 565.29 467.85 564.27
  Q 472.32 562.47 475.68 567.43
  A 1.67 1.64 28.6 0 1 475.96 568.35
  Q 475.91 644.31 475.95 727.07
  Q 475.95 736.04 476.22 737.90
  Q 476.97 743.07 479.78 747.89
  Q 481.86 751.46 485.99 752.78
  Q 494.07 755.36 499.61 750.71
  Q 505.01 746.19 505.01 738.31
  Q 504.99 675.93 505.01 611.84
  Q 505.01 611.40 505.28 611.12
  Q 505.43 610.96 505.62 610.84
  Q 506.03 610.57 506.03 610.07
  Z
  M 556.87 356.88
  Q 551.26 355.29 545.84 358.44
  C 542.98 360.10 541.07 363.37 539.76 366.28
  Q 538.10 369.98 536.93 373.88
  Q 529.45 398.70 523.94 421.71
  Q 522.05 429.62 520.63 437.66
  Q 517.67 454.40 514.94 471.76
  C 512.94 484.49 511.63 497.37 510.41 509.94
  Q 508.81 526.50 508.10 544.57
  C 507.81 551.95 507.21 559.46 507.20 566.75
  C 507.18 585.14 506.72 602.86 506.67 621.01
  Q 506.53 678.11 506.53 735.75
  C 506.53 743.36 503.51 751.51 495.95 754.15
  C 488.99 756.57 481.99 753.77 478.12 747.44
  Q 475.18 742.64 475.14 735.75
  Q 474.71 655.06 474.88 571.25
  Q 474.88 568.25 474.49 567.49
  Q 472.99 564.66 469.43 564.98
  C 466.83 565.21 464.76 567.59 463.19 569.52
  Q 455.31 579.25 447.71 588.53
  C 444.57 592.36 440.91 597.04 439.58 601.87
  Q 438.93 604.22 438.93 608.20
  Q 438.89 722.19 438.89 845.50
  Q 438.88 856.21 447.72 864.89
  C 449.99 867.12 453.54 868.96 456.50 870.49
  Q 465.24 875.00 474.25 879.74
  Q 482.04 883.84 494.16 892.04
  Q 500.43 896.28 505.56 900.41
  Q 511.01 904.79 516.45 909.21
  Q 526.10 917.05 534.62 926.11
  C 541.24 933.16 547.21 940.98 553.81 948.19
  Q 555.96 950.54 558.79 951.06
  C 563.87 951.98 566.33 945.50 566.34 941.50
  Q 566.55 889.89 566.33 837.75
  Q 565.77 706.01 565.89 588.25
  C 565.90 577.74 566.29 567.04 566.32 556.86
  Q 566.56 461.58 566.47 372.97
  Q 566.47 366.58 565.01 363.52
  Q 562.64 358.50 556.87 356.88
  Z"
/>
<path d="
  M 359.85 630.21
  Q 360.30 626.83 359.59 623.84
  Q 358.96 621.17 358.97 618.79
  Q 359.12 595.47 358.90 571.96
  C 358.87 568.45 359.78 565.16 363.59 564.30
  C 366.38 563.67 369.04 565.42 370.92 567.62
  Q 379.77 577.93 391.16 592.09
  Q 394.82 596.63 396.56 601.22
  C 397.32 603.24 397.13 605.22 397.67 607.27
  Q 398.01 608.54 398.00 609.89
  Q 397.99 725.19 398.02 841.34
  Q 398.02 847.83 396.67 852.14
  Q 392.80 864.48 380.65 870.92
  Q 372.07 875.48 362.99 880.17
  Q 348.81 887.50 332.87 898.80
  Q 325.78 903.82 318.80 910.18
  Q 311.47 916.85 305.17 923.17
  Q 304.43 923.91 303.67 924.68
  Q 298.86 929.55 293.88 934.78
  C 289.29 939.59 285.46 945.10 281.06 950.10
  Q 279.12 952.29 276.26 953.07
  A 1.58 1.57 -39.3 0 1 275.20 952.97
  Q 270.92 950.88 270.05 949.23
  Q 269.35 947.88 268.70 946.48
  Q 268.01 945.01 268.01 943.48
  Q 268.00 656.66 268.02 368.07
  C 268.02 363.49 271.66 358.75 275.27 356.53
  Q 277.78 354.98 282.12 354.87
  Q 286.00 354.77 288.79 356.26
  C 292.58 358.27 295.60 361.58 297.34 365.51
  Q 300.80 373.31 302.57 380.55
  Q 303.37 383.84 304.15 386.39
  Q 305.05 389.32 305.80 392.16
  C 307.04 396.92 308.54 401.55 309.49 406.45
  Q 310.46 411.43 311.88 416.41
  C 313.06 420.50 313.64 424.78 314.69 428.97
  C 316.02 434.24 316.82 439.41 318.01 444.64
  Q 318.67 447.54 319.19 450.63
  Q 320.98 461.29 322.54 471.22
  Q 324.58 484.19 326.82 505.00
  C 327.22 508.75 327.30 514.11 327.77 518.66
  Q 329.02 530.93 329.33 542.27
  C 329.40 544.54 329.93 546.77 329.93 549.08
  Q 329.97 643.57 329.96 738.08
  Q 329.96 739.02 330.46 739.87
  Q 330.72 740.31 330.79 740.82
  Q 331.62 747.29 337.30 751.68
  Q 337.71 751.99 338.22 752.05
  Q 338.76 752.12 339.08 752.58
  Q 339.41 753.04 339.97 753.03
  Q 343.39 752.99 347.42 753.04
  Q 348.94 753.06 350.42 752.33
  Q 352.17 751.46 353.74 750.61
  Q 354.16 750.38 354.41 749.98
  Q 355.66 748.00 356.97 746.28
  Q 358.94 743.69 358.97 739.74
  C 359.00 735.30 358.83 730.49 359.62 726.03
  Q 360.01 723.80 360.02 721.50
  Q 360.06 679.57 359.99 645.50
  C 359.99 643.08 359.90 641.22 359.41 638.54
  Q 358.83 635.36 359.15 631.72
  Q 359.20 631.20 359.56 630.82
  Q 359.80 630.56 359.85 630.21
  Z
  M 302.91 386.56
  Q 299.82 375.35 297.27 368.37
  C 295.78 364.30 293.29 360.68 289.78 358.17
  Q 286.32 355.70 281.06 356.07
  Q 277.06 356.35 273.86 359.03
  Q 269.10 363.01 269.12 371.25
  Q 269.33 444.69 269.14 528.50
  Q 269.11 539.00 269.13 548.50
  Q 269.41 755.42 269.07 937.58
  C 269.06 943.63 269.05 948.30 274.08 951.21
  C 276.99 952.88 279.64 950.28 281.26 948.12
  Q 286.35 941.32 291.39 935.71
  Q 304.64 920.94 322.19 905.58
  C 326.38 901.90 330.90 898.87 335.55 895.55
  C 347.56 886.97 360.39 879.62 373.84 873.11
  Q 379.44 870.40 384.10 867.18
  C 390.19 862.98 396.30 854.59 396.34 847.38
  Q 396.82 750.98 396.30 608.50
  Q 396.27 601.52 392.75 596.52
  C 386.48 587.63 379.22 579.38 372.42 571.10
  C 370.53 568.80 368.91 566.53 366.12 565.48
  Q 363.04 564.33 361.42 567.02
  Q 360.60 568.38 360.59 571.24
  C 360.43 624.58 361.33 678.09 360.81 731.51
  Q 360.77 735.65 360.28 739.80
  C 359.13 749.40 352.14 755.53 342.28 754.41
  Q 335.47 753.63 332.04 747.67
  Q 328.86 742.13 328.80 737.00
  Q 328.56 714.88 328.62 694.25
  Q 328.82 629.96 328.68 566.75
  Q 328.64 550.88 327.63 535.41
  Q 326.52 518.68 325.24 503.78
  Q 323.17 479.79 317.78 450.30
  Q 312.51 421.43 302.91 386.56
  Z"
/>
<path d="
  M 302.91 386.56
  Q 312.51 421.43 317.78 450.30
  Q 323.17 479.79 325.24 503.78
  Q 326.52 518.68 327.63 535.41
  Q 328.64 550.88 328.68 566.75
  Q 328.82 629.96 328.62 694.25
  Q 328.56 714.88 328.80 737.00
  Q 328.86 742.13 332.04 747.67
  Q 335.47 753.63 342.28 754.41
  C 352.14 755.53 359.13 749.40 360.28 739.80
  Q 360.77 735.65 360.81 731.51
  C 361.33 678.09 360.43 624.58 360.59 571.24
  Q 360.60 568.38 361.42 567.02
  Q 363.04 564.33 366.12 565.48
  C 368.91 566.53 370.53 568.80 372.42 571.10
  C 379.22 579.38 386.48 587.63 392.75 596.52
  Q 396.27 601.52 396.30 608.50
  Q 396.82 750.98 396.34 847.38
  C 396.30 854.59 390.19 862.98 384.10 867.18
  Q 379.44 870.40 373.84 873.11
  C 360.39 879.62 347.56 886.97 335.55 895.55
  C 330.90 898.87 326.38 901.90 322.19 905.58
  Q 304.64 920.94 291.39 935.71
  Q 286.35 941.32 281.26 948.12
  C 279.64 950.28 276.99 952.88 274.08 951.21
  C 269.05 948.30 269.06 943.63 269.07 937.58
  Q 269.41 755.42 269.13 548.50
  Q 269.11 539.00 269.14 528.50
  Q 269.33 444.69 269.12 371.25
  Q 269.10 363.01 273.86 359.03
  Q 277.06 356.35 281.06 356.07
  Q 286.32 355.70 289.78 358.17
  C 293.29 360.68 295.78 364.30 297.27 368.37
  Q 299.82 375.35 302.91 386.56
  Z"
/>
<path d="
  M 556.87 356.88
  Q 562.64 358.50 565.01 363.52
  Q 566.47 366.58 566.47 372.97
  Q 566.56 461.58 566.32 556.86
  C 566.29 567.04 565.90 577.74 565.89 588.25
  Q 565.77 706.01 566.33 837.75
  Q 566.55 889.89 566.34 941.50
  C 566.33 945.50 563.87 951.98 558.79 951.06
  Q 555.96 950.54 553.81 948.19
  C 547.21 940.98 541.24 933.16 534.62 926.11
  Q 526.10 917.05 516.45 909.21
  Q 511.01 904.79 505.56 900.41
  Q 500.43 896.28 494.16 892.04
  Q 482.04 883.84 474.25 879.74
  Q 465.24 875.00 456.50 870.49
  C 453.54 868.96 449.99 867.12 447.72 864.89
  Q 438.88 856.21 438.89 845.50
  Q 438.89 722.19 438.93 608.20
  Q 438.93 604.22 439.58 601.87
  C 440.91 597.04 444.57 592.36 447.71 588.53
  Q 455.31 579.25 463.19 569.52
  C 464.76 567.59 466.83 565.21 469.43 564.98
  Q 472.99 564.66 474.49 567.49
  Q 474.88 568.25 474.88 571.25
  Q 474.71 655.06 475.14 735.75
  Q 475.18 742.64 478.12 747.44
  C 481.99 753.77 488.99 756.57 495.95 754.15
  C 503.51 751.51 506.53 743.36 506.53 735.75
  Q 506.53 678.11 506.67 621.01
  C 506.72 602.86 507.18 585.14 507.20 566.75
  C 507.21 559.46 507.81 551.95 508.10 544.57
  Q 508.81 526.50 510.41 509.94
  C 511.63 497.37 512.94 484.49 514.94 471.76
  Q 517.67 454.40 520.63 437.66
  Q 522.05 429.62 523.94 421.71
  Q 529.45 398.70 536.93 373.88
  Q 538.10 369.98 539.76 366.28
  C 541.07 363.37 542.98 360.10 545.84 358.44
  Q 551.26 355.29 556.87 356.88
  Z"
/>
</svg>
