<?xml version="1.0" encoding="UTF-8" standalone="no"?>
<!DOCTYPE svg PUBLIC "-//W3C//DTD SVG 1.1//EN" "http://www.w3.org/Graphics/SVG/1.1/DTD/svg11.dtd">
<svg xmlns="http://www.w3.org/2000/svg" version="1.1" viewBox="0.00 0.00 1228.00 1458.00">
<path d="
  M 1044.29 232.04
  C 1042.59 230.91 1040.90 229.61 1039.11 228.65
  Q 1032.04 224.87 1024.88 221.22
  Q 1017.74 217.56 1011.85 212.99
  Q 1003.19 206.26 998.06 199.74
  Q 988.48 187.58 981.08 170.16
  Q 979.10 165.48 977.71 160.37
  Q 976.22 154.84 975.59 150.45
  Q 974.85 145.25 974.88 137.75
  Q 975.07 87.50 974.98 33.25
  C 974.98 29.72 974.82 25.86 975.73 22.63
  Q 978.23 13.78 986.80 9.72
  C 988.22 9.05 989.59 9.14 991.05 9.13
  Q 1083.51 8.90 1194.60 9.05
  Q 1196.71 9.05 1198.49 9.99
  C 1210.66 16.48 1213.08 26.49 1213.05 39.23
  Q 1212.96 72.17 1213.00 104.24
  C 1213.01 118.00 1212.28 132.20 1212.05 146.21
  Q 1211.89 156.21 1208.66 165.74
  Q 1205.42 175.28 1201.92 184.71
  Q 1198.75 193.26 1184.79 223.93
  Q 1184.31 224.98 1183.92 226.09
  Q 1183.39 227.60 1182.64 229.08
  Q 1175.86 242.54 1170.30 255.68
  Q 1169.26 258.13 1168.79 260.35
  C 1168.32 262.55 1167.46 264.32 1167.27 266.61
  Q 1166.71 273.23 1166.83 280.01
  A 1.94 1.94 0.0 0 1 1164.89 281.99
  L 1069.81 282.00
  A 0.68 0.68 0.0 0 1 1069.13 281.31
  Q 1069.26 272.91 1067.53 264.91
  Q 1067.01 262.49 1065.11 257.59
  Q 1063.57 253.62 1061.77 250.71
  Q 1057.40 243.64 1052.16 238.80
  C 1049.63 236.46 1047.13 233.94 1044.29 232.04
  Z"
/>
<path d="
  M 286.10 341.47
  C 285.36 341.54 284.90 341.96 284.16 342.10
  Q 279.23 343.05 274.16 344.32
  C 267.61 345.96 260.88 347.21 254.48 349.18
  C 252.25 349.87 249.86 350.16 247.55 350.88
  Q 243.26 352.22 238.40 353.39
  Q 235.24 354.14 232.17 355.20
  Q 210.71 362.58 191.47 373.47
  Q 180.51 379.67 167.99 387.77
  Q 166.75 388.56 165.52 387.86
  A 1.31 1.30 -59.7 0 1 165.05 386.06
  Q 179.44 361.89 193.96 340.32
  Q 205.55 323.11 219.91 306.17
  Q 237.49 285.44 256.55 266.35
  Q 263.53 259.36 271.42 252.44
  Q 299.39 227.93 329.31 208.79
  Q 336.21 204.38 342.74 200.59
  Q 362.03 189.39 381.50 180.69
  Q 392.97 175.57 404.64 171.03
  Q 412.97 167.80 421.02 165.05
  Q 422.81 164.43 424.62 163.93
  Q 426.48 163.40 428.29 162.81
  Q 446.04 156.99 463.89 151.69
  C 466.32 150.97 468.78 150.74 471.25 149.90
  C 474.25 148.88 477.31 148.97 480.31 147.88
  C 483.11 146.87 486.16 146.91 489.08 146.08
  Q 492.88 144.99 497.06 144.63
  C 497.64 144.58 498.14 144.30 498.72 144.18
  Q 521.79 139.72 540.25 138.40
  C 552.66 137.51 566.51 137.00 579.25 137.00
  Q 609.58 136.98 632.71 138.66
  Q 644.17 139.49 673.54 144.45
  Q 679.51 145.45 685.90 146.92
  Q 691.99 148.33 698.26 149.65
  C 699.33 149.87 700.12 150.45 701.19 150.62
  Q 703.53 150.97 708.09 152.25
  Q 739.20 160.96 757.52 168.30
  Q 786.98 180.11 802.87 188.34
  Q 821.56 198.03 841.83 210.54
  Q 850.07 215.64 858.06 221.18
  Q 858.62 221.57 859.17 221.99
  Q 887.60 243.46 909.89 265.15
  Q 934.65 289.25 957.54 319.08
  Q 970.84 336.41 981.33 352.09
  Q 993.03 369.58 1004.03 390.43
  A 1.13 1.10 -46.8 0 1 1004.05 391.41
  Q 1003.54 392.49 1002.69 391.87
  Q 999.14 389.25 995.48 387.13
  Q 971.08 372.94 948.20 362.86
  Q 925.25 352.75 901.72 347.34
  Q 887.57 344.08 873.05 340.99
  C 871.26 340.61 869.68 339.65 868.37 338.38
  Q 862.08 332.20 855.25 325.18
  Q 848.91 318.65 841.56 312.47
  Q 824.07 297.74 807.15 286.63
  Q 805.77 285.72 804.71 284.72
  Q 804.44 284.46 804.11 284.29
  Q 803.69 284.09 803.31 283.85
  Q 792.58 277.31 783.01 271.97
  Q 776.62 268.40 770.15 264.97
  Q 763.53 261.47 757.03 258.57
  Q 726.55 244.98 694.74 235.91
  Q 692.31 235.22 689.72 234.66
  Q 687.23 234.11 684.72 233.42
  C 648.39 223.29 611.22 220.19 571.68 221.19
  C 553.05 221.66 535.45 224.18 516.39 227.16
  Q 513.32 227.64 510.34 228.34
  C 507.71 228.95 505.05 229.12 502.41 229.85
  C 499.02 230.78 495.47 231.25 491.95 232.17
  Q 477.95 235.81 466.07 239.43
  Q 458.29 241.81 443.09 247.41
  Q 432.00 251.50 423.90 254.90
  Q 400.45 264.73 380.41 276.09
  Q 368.38 282.92 352.29 294.02
  Q 335.84 305.37 324.30 315.55
  Q 317.47 321.58 300.48 338.07
  C 299.70 338.83 299.10 340.11 298.20 340.67
  A 1.77 1.73 28.6 0 1 297.28 340.93
  Q 291.78 340.91 286.10 341.47
  Z"
/>
<path d="
  M 1076.14 471.83
  Q 1073.70 467.17 1071.21 461.99
  Q 1069.45 458.35 1069.26 455.85
  C 1069.00 452.35 1068.76 448.81 1068.84 445.31
  Q 1069.26 426.72 1068.44 409.86
  Q 1067.97 400.31 1067.99 390.67
  Q 1068.03 358.55 1068.00 328.29
  Q 1068.00 327.94 1068.12 327.60
  A 0.93 0.92 9.1 0 1 1069.00 326.97
  L 1163.54 327.02
  Q 1166.01 327.02 1166.01 329.49
  Q 1165.99 644.36 1166.01 959.13
  Q 1166.01 967.55 1165.66 976.24
  C 1165.35 983.82 1164.95 991.52 1164.98 998.93
  C 1165.06 1016.93 1165.08 1033.91 1164.78 1050.41
  Q 1164.73 1053.56 1164.32 1056.55
  Q 1160.59 1084.34 1151.33 1111.09
  C 1151.16 1111.58 1150.82 1111.88 1150.65 1112.36
  Q 1146.61 1123.68 1143.26 1130.89
  Q 1138.45 1141.26 1132.48 1152.34
  Q 1125.91 1164.54 1117.77 1176.58
  Q 1105.31 1195.02 1090.53 1212.02
  Q 1065.39 1240.91 1031.47 1267.11
  Q 1025.03 1272.09 1016.55 1277.70
  C 1009.66 1282.27 1002.86 1286.92 995.76 1290.93
  Q 979.53 1300.09 962.82 1307.43
  C 950.53 1312.83 937.27 1317.25 924.29 1320.86
  Q 906.64 1325.77 888.64 1327.29
  Q 885.22 1327.58 881.93 1328.26
  Q 878.53 1328.97 874.93 1329.00
  A 0.91 0.91 0.0 0 1 874.01 1328.10
  Q 873.95 1270.15 874.05 1213.70
  Q 874.06 1212.72 874.20 1211.69
  Q 874.42 1210.09 876.03 1210.10
  Q 892.67 1210.18 907.47 1208.53
  Q 921.98 1206.92 940.26 1199.83
  Q 964.26 1190.52 985.69 1174.18
  Q 990.13 1170.79 994.68 1166.72
  C 998.59 1163.21 1002.64 1159.92 1006.22 1156.20
  Q 1027.37 1134.20 1042.00 1109.37
  Q 1045.08 1104.13 1052.06 1088.36
  Q 1060.59 1069.11 1065.16 1047.98
  Q 1065.82 1044.92 1066.17 1041.95
  C 1066.49 1039.22 1067.26 1036.69 1067.51 1033.98
  Q 1068.95 1018.89 1068.97 1005.01
  Q 1069.11 920.27 1068.87 836.18
  Q 1068.87 834.74 1069.34 833.37
  C 1069.75 832.18 1070.11 831.06 1070.72 829.95
  Q 1077.38 817.91 1080.81 809.51
  Q 1082.11 806.33 1083.40 803.01
  Q 1084.62 799.85 1085.72 796.45
  Q 1091.46 778.73 1094.73 760.13
  C 1095.82 753.90 1096.19 747.40 1096.92 741.08
  C 1097.74 733.99 1097.98 726.59 1097.99 719.42
  Q 1098.13 630.66 1097.84 561.29
  C 1097.82 556.00 1097.76 550.80 1097.12 545.25
  Q 1096.34 538.48 1095.61 532.27
  Q 1094.75 524.93 1092.55 516.75
  Q 1090.72 509.95 1088.09 501.51
  Q 1084.94 491.42 1080.83 481.72
  Q 1078.82 476.97 1076.14 471.83
  Z"
/>
<path d="
  M 143.35 802.36
  Q 142.82 801.89 142.50 801.31
  Q 135.47 788.31 129.65 773.22
  Q 126.46 764.95 124.89 757.29
  Q 124.48 755.28 124.01 753.27
  Q 123.16 749.61 122.40 745.53
  Q 120.99 737.91 120.99 731.99
  Q 120.97 644.30 121.02 559.45
  Q 121.02 552.41 123.47 541.75
  Q 125.12 534.61 127.10 527.47
  Q 129.15 520.08 131.76 513.48
  Q 154.09 456.89 207.23 425.55
  Q 207.94 425.13 208.73 424.84
  C 209.67 424.50 209.97 423.86 210.83 423.41
  Q 227.83 414.53 245.96 408.96
  C 248.83 408.07 251.68 407.73 254.56 406.90
  Q 256.21 406.42 257.99 406.11
  C 262.42 405.32 266.83 404.46 271.36 404.02
  Q 277.21 403.46 283.16 402.78
  C 288.58 402.17 294.21 402.00 299.64 402.00
  Q 581.86 402.00 864.11 402.00
  C 869.97 402.00 876.22 402.07 882.03 402.89
  Q 889.58 403.95 897.15 404.83
  Q 897.57 404.87 897.95 405.16
  Q 898.38 405.48 898.93 405.52
  Q 904.16 405.90 907.76 406.88
  Q 910.27 407.55 912.97 408.18
  Q 929.99 412.13 941.97 417.67
  Q 950.27 421.51 957.81 425.67
  Q 995.20 446.29 1018.12 480.82
  C 1020.21 483.96 1022.43 487.10 1024.26 490.44
  Q 1031.18 503.03 1034.67 510.94
  Q 1046.93 538.71 1046.97 571.25
  Q 1047.04 650.20 1046.93 723.25
  Q 1046.92 734.06 1045.73 744.80
  Q 1045.55 746.44 1044.74 749.38
  C 1044.19 751.42 1043.99 753.52 1043.44 755.53
  Q 1039.46 770.11 1036.32 777.32
  Q 1034.24 782.08 1032.15 786.79
  Q 1030.00 791.62 1027.61 796.04
  Q 1018.03 813.71 1003.79 830.01
  Q 986.50 849.80 966.34 861.57
  Q 950.33 870.91 934.30 876.58
  Q 924.70 879.99 913.40 882.34
  Q 907.81 883.51 902.49 884.40
  Q 893.42 885.91 881.38 885.95
  Q 849.07 886.06 819.28 885.97
  Q 810.21 885.95 799.47 884.92
  Q 796.41 884.62 793.16 883.83
  Q 790.04 883.06 786.86 882.40
  Q 777.97 880.56 769.88 877.40
  Q 761.54 874.14 752.17 869.80
  Q 743.04 865.57 735.77 860.92
  Q 720.67 851.26 709.89 840.40
  Q 688.11 818.48 673.17 791.28
  Q 668.81 783.34 664.35 775.64
  Q 655.42 760.20 646.55 744.63
  C 638.90 731.22 631.68 717.45 623.57 704.36
  Q 618.29 695.83 613.40 690.65
  Q 607.41 684.32 600.58 681.13
  Q 596.17 679.07 589.24 677.62
  C 584.14 676.55 579.67 677.13 574.69 678.42
  Q 561.04 681.96 552.40 692.48
  Q 547.55 698.39 542.19 707.58
  Q 536.80 716.83 531.55 726.31
  C 526.12 736.12 519.96 746.21 514.29 756.25
  Q 498.69 783.87 488.61 800.43
  Q 485.54 805.48 480.42 813.02
  Q 477.40 817.46 474.24 821.26
  Q 471.05 825.09 467.56 829.12
  Q 466.57 830.26 465.62 831.36
  Q 449.92 849.53 429.70 862.10
  Q 422.46 866.61 411.69 871.29
  Q 397.23 877.58 384.76 880.92
  C 383.51 881.25 382.31 881.27 381.07 881.71
  Q 377.90 882.86 374.23 883.29
  C 372.28 883.51 370.42 884.25 368.47 884.49
  Q 357.61 885.83 347.42 885.89
  Q 310.30 886.12 276.10 885.97
  Q 262.95 885.91 247.64 882.37
  C 246.53 882.11 245.76 881.64 244.71 881.43
  Q 236.31 879.76 231.03 877.55
  Q 223.62 874.45 215.78 870.96
  Q 211.66 869.13 207.89 866.93
  Q 205.28 865.42 202.70 863.98
  Q 200.22 862.60 197.88 861.02
  Q 164.43 838.38 144.02 803.86
  Q 143.79 803.48 143.72 803.04
  Q 143.65 802.62 143.35 802.36
  Z
  M 689.00 660.48
  C 690.43 663.24 692.37 665.78 693.97 668.46
  Q 701.63 681.23 706.79 690.27
  Q 719.46 712.46 724.17 720.35
  Q 733.94 736.73 743.13 752.92
  Q 745.67 757.39 752.53 767.32
  C 763.04 782.53 778.46 794.89 796.25 800.43
  Q 797.94 800.96 799.56 801.24
  C 802.34 801.74 804.80 802.67 807.73 802.92
  Q 818.69 803.84 829.51 803.94
  C 852.76 804.16 875.30 804.23 899.12 802.78
  C 901.62 802.62 903.60 801.62 905.99 801.09
  Q 907.92 800.67 909.99 799.84
  Q 912.08 799.00 913.99 798.28
  Q 923.43 794.74 935.82 785.05
  Q 937.76 783.54 939.65 781.66
  Q 941.51 779.80 943.20 777.76
  C 953.55 765.25 961.56 751.19 963.61 735.96
  Q 964.98 725.84 964.98 715.47
  Q 964.99 662.55 965.02 604.64
  C 965.02 589.69 964.22 575.21 963.98 560.70
  Q 963.87 554.34 962.73 548.79
  Q 961.47 542.65 959.36 537.40
  Q 954.82 526.10 945.95 514.99
  Q 935.36 501.72 922.88 494.86
  Q 918.40 492.39 912.60 490.21
  Q 906.80 488.03 902.00 486.71
  Q 892.42 484.07 881.76 484.06
  Q 586.10 483.82 282.02 484.18
  C 277.87 484.18 273.53 484.12 269.41 485.09
  Q 255.33 488.40 247.64 492.58
  Q 237.50 498.10 230.09 505.13
  Q 216.34 518.19 207.88 536.65
  Q 207.27 537.98 206.85 539.37
  C 206.15 541.72 205.20 543.90 204.86 546.32
  C 204.48 549.02 203.44 551.33 203.15 554.14
  Q 202.02 564.75 202.01 575.74
  Q 201.96 646.77 202.04 716.30
  Q 202.05 724.58 203.35 734.87
  C 203.67 737.39 204.54 739.65 205.02 742.18
  Q 205.53 744.88 206.46 747.65
  C 209.75 757.41 214.63 767.00 221.44 774.73
  Q 227.88 782.03 234.33 787.27
  Q 244.48 795.51 257.10 799.80
  C 257.76 800.03 258.20 800.50 258.93 800.63
  Q 261.29 801.04 263.70 801.86
  Q 265.96 802.63 268.43 802.93
  Q 276.75 803.93 284.04 803.97
  Q 302.97 804.07 343.84 803.95
  Q 353.57 803.92 362.90 802.75
  C 365.03 802.48 366.91 801.57 369.01 801.07
  Q 371.22 800.55 373.19 799.77
  Q 375.14 798.99 377.14 798.13
  Q 395.22 790.38 407.87 776.04
  Q 411.44 772.00 416.32 765.19
  Q 417.36 763.75 418.16 762.29
  C 419.53 759.80 421.54 757.65 422.99 755.19
  Q 428.86 745.26 435.73 733.37
  Q 439.69 726.51 443.28 720.15
  Q 446.88 713.77 450.13 708.27
  Q 453.49 702.55 456.75 696.56
  Q 462.34 686.28 468.57 674.98
  Q 470.23 671.96 471.90 669.08
  Q 480.61 654.00 494.07 639.58
  Q 510.33 622.13 533.28 612.22
  Q 546.36 606.57 558.25 604.23
  Q 568.31 602.26 577.17 601.48
  Q 585.31 600.77 591.79 601.45
  Q 639.91 606.48 673.17 640.53
  Q 678.56 646.05 686.46 656.69
  C 687.05 657.49 687.21 658.27 687.92 658.97
  Q 688.55 659.60 689.00 660.48
  Z"
/>
<path d="
  M 16.58 672.67
  C 16.20 671.90 15.69 671.27 15.44 670.43
  Q 12.69 661.20 12.86 651.84
  Q 13.16 634.62 12.84 618.84
  Q 12.57 605.05 14.18 599.30
  Q 17.58 587.21 28.70 579.45
  C 35.06 575.02 41.66 573.66 49.62 573.83
  Q 59.15 574.03 68.36 573.98
  A 0.62 0.61 90.0 0 1 68.97 574.60
  Q 69.04 607.47 68.97 638.38
  C 68.94 652.36 70.12 666.04 69.92 679.94
  C 69.86 683.84 69.03 687.25 69.83 691.21
  Q 70.34 693.75 67.75 693.88
  Q 57.40 694.41 45.28 693.96
  Q 41.05 693.80 37.01 692.10
  Q 23.23 686.29 16.58 672.67
  Z"
/>
<path d="
  M 483.21 985.31
  C 481.57 983.68 479.44 981.90 477.74 980.01
  Q 471.49 973.10 465.78 965.70
  Q 454.86 951.55 445.01 939.11
  Q 437.78 929.97 428.93 920.12
  A 1.11 1.11 0.0 0 1 429.25 918.39
  Q 439.84 912.99 450.94 906.23
  Q 474.73 891.75 493.75 872.19
  Q 508.59 856.93 523.21 841.39
  Q 531.41 832.68 540.19 824.67
  Q 553.08 812.91 569.71 808.11
  C 573.52 807.01 577.02 806.78 580.86 806.33
  Q 583.21 806.05 585.58 806.27
  Q 598.79 807.47 610.83 814.47
  Q 615.66 817.27 620.20 820.44
  Q 624.92 823.74 633.77 832.79
  Q 644.91 844.19 661.61 861.99
  C 670.91 871.91 682.08 883.13 692.89 891.52
  Q 709.19 904.18 730.26 915.88
  Q 734.18 918.05 737.72 920.36
  Q 738.46 920.85 737.85 921.50
  Q 728.88 931.11 721.21 941.04
  Q 712.56 952.25 712.54 952.28
  C 702.85 964.42 693.19 976.44 681.91 986.96
  Q 677.88 990.73 672.10 994.64
  Q 662.70 1001.02 651.62 1003.69
  Q 642.25 1005.95 633.75 1005.98
  Q 576.31 1006.18 532.75 1005.82
  Q 530.22 1005.79 527.57 1005.71
  Q 525.30 1005.64 522.96 1005.15
  Q 518.57 1004.22 514.28 1003.38
  Q 508.50 1002.25 501.53 998.61
  Q 491.20 993.22 483.21 985.31
  Z"
/>
<path d="
  M 195.95 1167.28
  C 194.07 1163.83 192.02 1160.50 190.20 1157.02
  Q 175.29 1128.57 163.65 1100.39
  C 161.54 1095.29 160.12 1090.06 158.05 1084.91
  C 156.15 1080.18 154.93 1075.22 153.39 1070.35
  Q 144.77 1043.06 140.76 1023.71
  Q 136.87 1004.91 134.36 984.74
  Q 133.22 975.55 132.08 966.36
  C 130.37 952.49 130.09 938.71 129.63 924.71
  C 129.15 909.99 129.89 895.13 130.17 880.49
  A 0.72 0.72 0.0 0 1 130.91 879.79
  Q 131.69 879.82 132.30 880.28
  Q 150.82 894.09 172.24 906.35
  Q 178.25 909.79 185.26 913.25
  Q 192.48 916.81 199.37 919.41
  Q 203.29 920.90 206.39 922.26
  Q 206.93 922.50 206.93 923.09
  Q 206.97 931.53 207.46 936.74
  Q 210.44 968.61 214.56 992.74
  Q 215.28 996.93 218.24 1009.97
  Q 218.64 1011.73 219.19 1013.46
  C 219.98 1015.93 220.08 1018.42 221.10 1020.79
  Q 222.14 1023.23 222.34 1026.07
  A 1.58 1.54 -66.5 0 0 222.64 1026.86
  C 224.13 1028.83 223.95 1031.67 224.77 1033.92
  Q 225.70 1036.49 225.72 1036.56
  Q 230.53 1052.77 232.99 1059.02
  Q 235.25 1064.77 237.51 1070.52
  Q 239.92 1076.63 242.26 1081.91
  Q 249.85 1099.02 258.27 1114.74
  Q 261.12 1120.05 264.23 1125.76
  Q 266.13 1129.23 268.10 1132.35
  C 277.89 1147.85 287.91 1162.98 298.95 1177.33
  Q 304.99 1185.20 311.69 1192.64
  Q 325.27 1207.75 336.69 1218.83
  Q 345.11 1227.00 354.07 1233.83
  A 2.59 2.59 0.0 0 1 355.08 1236.24
  Q 354.29 1242.32 354.14 1248.00
  Q 353.70 1264.45 354.07 1280.27
  Q 354.31 1290.95 355.81 1300.21
  Q 357.83 1312.69 360.96 1324.68
  Q 364.63 1338.72 370.81 1352.99
  Q 371.12 1353.69 370.90 1354.41
  Q 370.53 1355.60 369.50 1354.90
  Q 356.00 1345.76 344.12 1336.13
  Q 322.44 1318.56 301.37 1299.67
  Q 295.13 1294.07 289.04 1287.94
  C 283.59 1282.46 278.11 1277.16 272.95 1271.52
  Q 244.20 1240.11 222.90 1210.56
  Q 209.23 1191.60 195.95 1167.28
  Z"
/>
<path d="
  M 989.44 906.22
  Q 999.44 900.38 1009.50 893.56
  C 1013.28 891.00 1016.66 887.66 1020.92 885.72
  A 0.57 0.57 0.0 0 1 1021.72 886.21
  Q 1022.77 906.91 1022.87 926.99
  Q 1022.88 928.52 1022.61 929.99
  C 1022.36 931.40 1022.74 932.58 1022.65 934.01
  Q 1020.89 961.83 1018.99 976.53
  Q 1017.20 990.34 1015.39 1003.74
  C 1015.19 1005.29 1014.41 1006.54 1014.30 1008.12
  C 1014.00 1012.40 1012.53 1016.11 1012.07 1020.23
  Q 1011.84 1022.29 1011.27 1024.21
  Q 1010.69 1026.12 1010.27 1028.13
  Q 1006.10 1047.98 997.94 1068.75
  Q 996.31 1072.90 994.62 1076.95
  Q 991.07 1085.42 986.13 1093.21
  Q 982.30 1099.25 977.31 1106.06
  Q 972.20 1113.03 966.87 1118.62
  Q 946.84 1139.64 917.30 1150.68
  Q 908.89 1153.82 902.76 1154.62
  Q 888.15 1156.52 874.06 1155.90
  Q 873.24 1155.86 872.57 1155.39
  Q 871.92 1154.92 872.35 1154.25
  Q 876.45 1147.71 880.11 1140.95
  Q 882.82 1135.96 886.02 1130.25
  Q 909.52 1088.25 923.33 1045.36
  Q 924.09 1042.99 924.92 1040.59
  C 925.67 1038.40 925.99 1036.22 926.77 1034.09
  Q 927.52 1032.04 928.06 1029.82
  Q 928.47 1028.12 929.26 1025.47
  Q 931.66 1017.32 933.68 1008.87
  Q 935.67 1000.55 937.03 992.42
  Q 941.03 968.54 942.31 952.54
  Q 943.42 938.73 945.19 924.76
  Q 945.27 924.09 945.94 923.97
  C 947.46 923.70 948.36 922.92 949.81 922.49
  Q 966.26 917.61 972.52 914.58
  C 978.20 911.84 984.19 909.28 989.44 906.22
  Z"
/>
<path d="
  M 484.91 1413.63
  C 484.16 1413.35 483.94 1412.69 483.24 1412.21
  Q 455.04 1393.21 435.63 1364.98
  Q 434.16 1362.85 431.85 1358.71
  C 430.17 1355.70 428.20 1352.94 426.65 1349.92
  Q 418.64 1334.34 414.35 1321.05
  Q 410.30 1308.53 407.78 1293.03
  C 405.30 1277.77 405.45 1261.15 406.55 1246.51
  Q 407.55 1233.19 412.01 1215.39
  Q 416.02 1199.34 423.56 1185.27
  Q 428.30 1176.42 434.02 1167.31
  Q 444.20 1151.12 458.87 1136.58
  Q 484.51 1111.19 517.35 1098.58
  Q 519.08 1097.91 520.75 1097.19
  Q 522.47 1096.44 524.31 1095.85
  Q 533.73 1092.80 543.75 1090.34
  C 545.52 1089.90 547.28 1089.82 549.03 1089.31
  Q 553.81 1087.93 559.27 1087.65
  C 560.61 1087.58 561.79 1086.99 563.14 1086.86
  Q 581.86 1085.05 599.86 1086.71
  Q 606.66 1087.34 613.63 1088.22
  Q 628.50 1090.09 642.48 1095.04
  Q 642.82 1095.17 643.16 1095.29
  Q 676.35 1107.01 702.77 1129.97
  Q 706.66 1133.35 714.23 1141.18
  Q 720.40 1147.56 724.96 1153.23
  Q 736.62 1167.72 746.49 1184.74
  Q 747.89 1187.15 750.77 1187.12
  Q 769.66 1186.91 783.40 1187.03
  Q 793.65 1187.12 802.88 1188.32
  C 808.59 1189.07 813.50 1192.05 818.45 1195.44
  Q 822.89 1198.47 825.62 1201.86
  Q 831.51 1209.16 832.62 1217.32
  Q 833.19 1221.48 833.10 1232.53
  Q 832.82 1267.05 833.08 1299.83
  C 833.16 1309.68 833.28 1319.87 828.32 1328.60
  Q 823.81 1336.56 814.12 1341.34
  Q 804.41 1346.13 793.66 1346.07
  Q 771.75 1345.96 748.88 1345.99
  A 3.65 3.64 16.0 0 0 745.79 1347.70
  C 743.71 1351.03 742.18 1354.52 740.07 1357.70
  Q 730.11 1372.77 717.86 1385.73
  Q 714.65 1389.12 711.35 1391.98
  Q 708.00 1394.86 704.80 1397.68
  Q 695.71 1405.65 682.14 1414.65
  C 662.36 1427.76 640.37 1436.06 617.01 1440.69
  Q 580.85 1447.86 544.51 1439.44
  Q 530.13 1436.11 516.93 1430.61
  Q 503.23 1424.90 486.22 1414.28
  Q 485.59 1413.89 484.91 1413.63
  Z
  M 567.26 1214.09
  C 568.41 1216.88 569.91 1219.57 572.40 1221.34
  C 577.61 1225.06 583.20 1227.24 589.41 1225.32
  C 595.74 1223.37 601.17 1219.12 603.03 1213.00
  C 603.79 1210.50 604.78 1208.45 604.85 1205.76
  Q 605.11 1196.09 605.15 1184.93
  C 605.18 1177.63 605.05 1170.99 600.65 1165.20
  Q 597.25 1160.74 591.74 1159.40
  C 587.56 1158.38 581.19 1158.64 576.91 1160.32
  C 572.22 1162.16 567.27 1165.65 566.38 1170.85
  Q 565.06 1178.54 565.42 1186.94
  C 565.77 1195.06 565.76 1203.21 566.12 1211.19
  C 566.17 1212.39 566.85 1213.07 567.26 1214.09
  Z
  M 546.86 1267.45
  C 550.08 1260.20 547.17 1251.90 541.39 1246.95
  Q 539.73 1245.53 538.13 1244.23
  C 534.33 1241.15 526.34 1240.92 521.55 1240.85
  Q 511.16 1240.72 500.76 1241.18
  C 498.72 1241.27 495.09 1241.75 493.67 1242.42
  Q 480.18 1248.84 482.23 1264.13
  C 483.21 1271.41 490.11 1278.27 497.25 1279.64
  C 505.98 1281.32 515.25 1281.47 524.38 1280.97
  Q 529.13 1280.71 533.50 1279.22
  C 539.22 1277.28 544.32 1273.17 546.86 1267.45
  Z
  M 621.62 1263.68
  C 623.05 1267.88 624.85 1271.87 628.48 1274.68
  Q 632.27 1277.61 636.54 1279.29
  Q 640.48 1280.83 645.49 1280.97
  Q 656.39 1281.27 667.49 1281.12
  Q 673.24 1281.04 677.36 1279.16
  C 681.77 1277.15 687.11 1272.72 688.03 1267.69
  C 688.57 1264.72 690.51 1262.04 689.73 1259.00
  Q 689.09 1256.49 688.28 1253.67
  C 687.02 1249.30 684.05 1246.56 680.32 1244.07
  Q 677.28 1242.04 673.70 1241.54
  C 665.15 1240.34 656.32 1240.80 647.42 1240.99
  Q 639.57 1241.16 635.16 1242.96
  C 630.25 1244.97 624.25 1249.72 622.90 1255.17
  C 622.21 1257.95 620.64 1260.79 621.62 1263.68
  Z
  M 567.08 1311.18
  C 565.45 1313.83 564.87 1318.52 564.55 1321.75
  C 564.48 1322.47 564.68 1323.09 564.70 1323.82
  C 564.90 1331.15 565.09 1338.65 564.39 1345.89
  Q 563.70 1353.03 566.70 1359.79
  Q 568.63 1364.14 573.07 1367.41
  C 577.60 1370.74 583.94 1370.49 589.41 1370.10
  Q 592.34 1369.89 595.42 1368.22
  C 599.55 1365.98 601.72 1362.45 603.72 1358.32
  Q 604.84 1356.01 604.90 1353.60
  Q 605.23 1339.68 605.05 1322.80
  Q 604.99 1317.06 602.06 1311.62
  C 599.93 1307.65 595.43 1302.57 590.79 1301.20
  Q 587.06 1300.09 584.27 1300.23
  Q 573.47 1300.77 567.08 1311.18
  Z"
/>
</svg>
