<?xml version="1.0" encoding="UTF-8" standalone="no"?>
<!DOCTYPE svg PUBLIC "-//W3C//DTD SVG 1.1//EN" "http://www.w3.org/Graphics/SVG/1.1/DTD/svg11.dtd">
<svg xmlns="http://www.w3.org/2000/svg" version="1.1" viewBox="0.00 0.00 962.00 1262.00">
<path d="
  M 873.88 5.00
  L 956.46 4.99
  A 0.54 0.54 0.0 0 1 957.00 5.53
  Q 957.00 402.48 956.96 799.50
  Q 956.96 807.63 956.78 810.04
  Q 956.48 813.86 952.43 813.89
  Q 914.12 814.12 873.47 813.96
  Q 873.00 813.95 873.00 813.49
  L 873.00 5.87
  Q 873.00 5.00 873.88 5.00
  Z"
/>
<path d="
  M 699.29 1132.01
  Q 699.21 1132.17 699.13 1132.34
  Q 699.05 1132.53 698.93 1132.66
  Q 672.57 1161.51 641.73 1184.03
  Q 641.52 1184.19 641.26 1184.23
  Q 641.01 1184.27 640.82 1184.44
  Q 637.55 1187.42 633.90 1189.41
  C 633.06 1189.87 632.47 1190.57 631.65 1191.13
  Q 598.67 1213.84 562.11 1228.36
  C 560.63 1228.94 559.13 1229.16 557.73 1229.94
  Q 555.87 1230.98 553.63 1231.42
  C 552.85 1231.57 552.25 1232.27 551.44 1232.52
  Q 547.34 1233.77 543.19 1235.32
  C 541.35 1236.00 539.37 1236.11 537.64 1237.01
  Q 536.53 1237.59 535.31 1237.95
  Q 530.72 1239.31 526.33 1240.68
  C 524.96 1241.10 523.18 1241.10 521.97 1241.81
  Q 521.22 1242.26 520.38 1242.46
  Q 503.61 1246.50 499.07 1247.29
  Q 481.21 1250.41 465.60 1252.20
  Q 450.42 1253.93 433.03 1254.22
  Q 410.29 1254.62 385.76 1251.90
  C 381.08 1251.38 376.47 1250.51 371.79 1249.90
  Q 368.52 1249.48 365.27 1248.77
  Q 362.03 1248.07 358.98 1247.55
  Q 353.19 1246.56 345.27 1244.14
  Q 342.50 1243.30 339.93 1242.95
  Q 338.05 1242.70 336.38 1241.98
  Q 334.78 1241.30 333.11 1241.06
  Q 329.76 1240.57 326.43 1238.95
  C 324.51 1238.01 322.37 1238.18 320.44 1237.38
  Q 318.59 1236.62 316.75 1236.15
  C 311.30 1234.75 305.84 1232.44 300.66 1230.50
  Q 294.33 1228.13 288.51 1225.46
  Q 277.59 1220.47 266.11 1214.89
  C 262.69 1213.23 259.30 1210.99 255.82 1209.09
  Q 248.23 1204.94 240.99 1200.54
  Q 239.84 1199.84 238.90 1198.95
  C 238.07 1198.17 236.90 1197.79 235.87 1197.11
  Q 216.81 1184.38 209.01 1178.00
  Q 203.05 1173.12 197.45 1168.54
  Q 191.46 1163.64 186.14 1158.80
  Q 173.41 1147.21 157.59 1129.77
  Q 145.58 1116.53 136.90 1105.72
  Q 133.14 1101.04 129.75 1096.08
  Q 121.35 1083.78 116.50 1076.74
  A 0.17 0.02 52.0 0 0 116.47 1076.69
  Q 111.04 1068.16 100.73 1050.04
  C 100.28 1049.25 99.72 1048.79 99.36 1048.11
  Q 96.05 1041.74 92.53 1035.48
  C 92.05 1034.63 91.78 1033.24 91.17 1032.18
  Q 88.09 1026.83 85.34 1021.22
  C 84.89 1020.30 84.76 1019.29 84.30 1018.30
  Q 78.46 1005.83 72.58 990.28
  Q 71.62 987.73 71.10 985.96
  Q 70.42 983.62 69.67 981.65
  Q 67.35 975.55 65.61 969.26
  Q 64.74 966.12 62.10 959.27
  Q 61.26 957.10 61.01 955.20
  C 60.73 953.05 59.81 951.54 59.25 949.56
  C 56.64 940.19 52.83 930.97 50.89 921.85
  Q 49.49 915.26 47.51 909.73
  C 45.07 902.92 42.55 896.03 40.80 889.06
  Q 35.49 867.88 31.37 842.15
  Q 28.93 826.94 24.26 808.28
  Q 22.57 801.57 21.91 790.51
  Q 21.70 786.96 21.22 783.99
  C 20.76 781.09 21.11 778.19 20.59 775.26
  C 19.85 771.11 20.03 767.08 19.43 762.82
  Q 18.15 753.71 16.53 745.78
  Q 15.36 740.08 14.84 735.04
  Q 14.32 729.99 14.32 724.32
  Q 14.38 638.99 14.35 561.79
  Q 14.35 556.12 12.85 551.12
  Q 11.98 548.20 12.04 545.74
  Q 12.34 534.81 12.35 523.75
  Q 12.45 455.91 12.34 385.42
  Q 12.34 380.34 12.81 375.69
  Q 13.32 370.71 14.70 365.93
  Q 16.34 360.28 18.49 354.66
  Q 18.95 353.44 19.23 352.19
  C 19.54 350.85 20.48 349.91 20.69 348.56
  Q 21.00 346.60 21.81 344.79
  C 23.26 341.55 24.29 338.18 25.80 334.92
  Q 27.17 331.97 28.45 328.86
  Q 30.07 324.92 32.04 321.11
  C 32.90 319.45 33.41 317.69 34.23 315.91
  Q 52.81 275.87 80.42 238.64
  Q 89.25 226.74 96.56 218.51
  Q 97.98 216.91 99.44 215.04
  Q 100.91 213.16 102.42 211.49
  Q 137.05 173.33 178.72 144.76
  Q 186.68 139.30 195.56 133.83
  Q 211.85 123.78 225.36 116.98
  Q 235.21 112.01 246.24 106.62
  C 247.52 106.00 248.84 105.88 250.05 105.13
  C 252.58 103.56 255.42 103.10 258.06 101.72
  Q 259.15 101.16 260.52 100.89
  Q 261.71 100.66 262.85 100.19
  Q 271.65 96.52 281.30 93.52
  C 282.04 93.29 282.53 92.74 283.32 92.53
  Q 287.30 91.47 291.11 89.93
  C 293.18 89.09 295.54 89.03 297.45 87.95
  Q 298.53 87.34 299.80 87.08
  Q 302.21 86.58 304.73 85.76
  Q 311.45 83.56 318.10 82.15
  Q 320.87 81.56 323.75 80.70
  Q 325.71 80.12 327.74 79.86
  Q 329.42 79.65 331.16 79.21
  Q 336.67 77.81 343.54 76.50
  Q 349.38 75.39 356.41 74.60
  Q 358.23 74.39 359.91 73.94
  Q 361.74 73.46 363.60 73.32
  Q 373.42 72.57 383.70 71.33
  Q 393.36 70.17 403.24 70.08
  Q 432.39 69.79 442.89 70.06
  Q 462.96 70.58 487.75 73.59
  C 489.73 73.83 491.46 74.44 493.50 74.62
  Q 498.29 75.05 505.00 76.31
  Q 515.10 78.21 519.56 79.23
  C 522.17 79.83 525.00 79.94 527.39 80.88
  C 530.07 81.94 532.71 81.78 535.40 82.54
  C 539.76 83.76 544.15 84.91 548.52 86.37
  Q 549.98 86.85 551.51 87.07
  C 553.92 87.42 555.75 88.37 557.98 88.84
  Q 559.77 89.22 561.49 89.80
  Q 566.07 91.36 570.51 93.00
  Q 572.31 93.67 574.06 94.09
  C 575.79 94.50 577.02 95.44 578.72 95.79
  C 582.02 96.45 585.20 97.95 588.38 99.16
  Q 591.14 100.20 595.67 102.06
  Q 607.24 106.82 616.90 111.09
  Q 625.38 114.85 634.74 120.07
  Q 655.84 131.85 671.91 141.98
  Q 684.98 150.24 697.37 160.86
  Q 706.58 168.76 714.26 176.04
  Q 715.15 176.87 715.90 177.75
  C 716.69 178.67 717.60 179.13 718.45 179.94
  Q 753.39 213.56 776.99 253.35
  Q 777.43 254.09 778.01 254.78
  Q 778.59 255.47 779.01 256.25
  C 784.49 266.41 790.05 275.77 795.04 286.99
  Q 797.93 293.47 800.89 301.38
  Q 803.98 309.65 807.11 318.29
  C 807.99 320.72 807.96 323.18 809.01 325.50
  Q 810.24 328.21 810.36 331.79
  C 810.38 332.56 811.13 333.63 811.34 334.50
  Q 814.54 347.68 814.88 350.83
  Q 815.35 355.23 816.10 359.96
  C 816.79 364.27 816.92 368.29 816.94 372.47
  Q 817.05 394.02 816.98 417.12
  C 816.95 428.70 818.00 440.65 818.00 452.50
  Q 817.98 643.33 818.03 828.83
  Q 818.03 836.49 817.72 844.18
  Q 817.38 852.54 816.36 859.80
  Q 815.51 865.82 814.71 871.30
  C 814.43 873.20 813.75 874.85 813.38 876.69
  Q 810.46 891.18 802.56 904.26
  Q 802.17 904.90 801.67 905.47
  C 801.17 906.02 800.97 907.04 800.56 907.73
  Q 797.19 913.47 791.55 920.05
  Q 777.06 936.95 759.05 945.70
  C 756.96 946.72 754.85 947.46 752.72 948.42
  Q 746.64 951.17 740.28 952.65
  Q 739.93 952.73 739.65 952.99
  Q 739.43 953.19 739.15 953.27
  Q 731.04 955.67 722.64 958.02
  Q 720.31 958.67 718.18 958.99
  C 716.06 959.30 714.28 960.02 712.24 960.51
  Q 705.21 962.18 698.30 964.03
  Q 696.20 964.59 694.58 966.11
  C 684.11 975.95 673.85 985.67 665.65 997.21
  C 664.94 998.20 664.33 999.46 664.24 1000.71
  Q 663.08 1015.22 662.93 1022.80
  Q 662.75 1032.24 662.15 1042.25
  C 661.98 1045.21 662.28 1047.53 663.60 1050.33
  Q 665.03 1053.36 666.41 1055.90
  Q 670.48 1063.34 678.25 1072.91
  Q 684.16 1080.20 694.71 1090.09
  Q 699.95 1095.00 705.69 1099.04
  Q 711.35 1103.03 717.25 1107.26
  A 2.26 2.26 0.0 0 1 717.73 1110.48
  Q 710.02 1120.48 701.16 1130.41
  Q 700.66 1130.97 699.98 1131.32
  Q 699.52 1131.56 699.29 1132.01
  Z
  M 64.51 539.33
  L 65.14 538.92
  A 0.68 0.67 63.5 0 0 65.40 538.13
  Q 65.09 537.31 65.92 536.99
  Q 66.59 536.74 66.38 536.07
  Q 66.13 535.27 66.93 534.98
  Q 67.58 534.74 67.38 534.08
  Q 67.12 533.21 68.08 532.93
  Q 68.63 532.77 68.43 532.23
  L 68.29 531.82
  Q 68.09 531.27 68.65 531.11
  Q 69.69 530.82 69.33 529.94
  A 0.58 0.58 0.0 0 1 69.68 529.17
  Q 70.53 528.87 70.37 528.02
  A 1.02 1.01 -25.9 0 1 70.70 527.08
  L 72.08 525.88
  Q 72.48 525.53 72.35 525.02
  Q 72.17 524.32 72.84 524.06
  Q 73.37 523.85 73.35 523.28
  Q 73.30 522.00 74.64 521.28
  Q 75.13 521.01 75.33 520.48
  Q 75.41 520.25 75.32 520.02
  A 0.67 0.66 -22.7 0 1 75.66 519.20
  Q 76.43 518.82 76.37 517.94
  Q 76.31 517.20 76.95 516.84
  Q 78.24 516.10 78.41 514.76
  Q 78.47 514.26 78.87 513.96
  Q 80.23 512.93 81.04 511.48
  C 81.82 510.08 83.42 509.35 83.75 507.78
  Q 83.87 507.22 84.31 506.86
  C 85.45 505.94 86.27 504.97 86.91 503.63
  C 87.66 502.08 89.52 500.76 90.54 499.18
  Q 94.56 492.98 100.32 487.00
  Q 113.92 472.90 126.44 463.17
  Q 133.00 458.07 140.41 453.55
  Q 149.15 448.22 156.08 444.48
  C 164.37 439.99 174.02 436.64 183.35 433.23
  C 190.96 430.45 198.60 429.30 206.52 427.37
  Q 207.98 427.02 209.47 426.96
  A 3.13 3.11 8.3 0 0 212.31 424.85
  C 225.49 385.99 249.95 353.12 285.35 331.91
  C 324.98 308.18 373.18 301.44 418.72 303.00
  C 425.74 303.24 432.50 303.07 439.45 303.02
  Q 466.48 302.85 490.66 308.52
  Q 554.25 323.44 590.96 376.78
  Q 605.05 397.26 614.88 423.15
  Q 615.05 423.61 615.53 423.75
  C 617.19 424.24 618.65 424.89 620.42 424.92
  Q 625.00 424.99 626.79 425.33
  Q 647.69 429.33 656.68 432.17
  C 672.86 437.28 688.46 443.86 702.93 453.08
  Q 717.37 462.29 731.87 474.15
  C 742.65 482.98 751.34 493.13 759.76 503.51
  Q 763.40 507.99 765.83 512.01
  Q 767.02 513.98 767.02 511.68
  Q 767.03 488.50 766.98 465.36
  C 766.96 453.55 765.99 441.86 766.00 429.94
  Q 766.01 406.91 765.96 384.40
  C 765.95 379.85 765.59 375.17 764.82 370.65
  C 764.12 366.48 763.85 362.28 762.90 358.14
  Q 760.20 346.46 757.45 336.73
  Q 754.48 326.22 747.19 309.50
  Q 742.86 299.57 735.92 287.61
  Q 730.54 278.33 725.65 270.85
  Q 716.80 257.32 706.15 244.12
  Q 695.88 231.39 686.86 222.78
  Q 680.05 216.26 672.87 209.61
  Q 654.86 192.91 634.78 181.01
  Q 610.85 166.82 601.98 162.38
  Q 591.72 157.24 568.90 148.29
  Q 563.96 146.35 558.12 144.45
  C 551.89 142.43 545.77 139.96 539.28 138.29
  Q 535.16 137.23 531.37 136.08
  Q 524.89 134.13 519.56 133.03
  Q 513.64 131.80 506.80 130.11
  Q 500.00 128.43 494.48 127.52
  C 464.21 122.58 432.80 119.35 402.75 121.69
  Q 381.37 123.35 357.01 127.38
  C 349.51 128.62 341.88 130.57 334.40 132.28
  Q 326.69 134.05 317.38 136.98
  Q 295.49 143.86 273.55 152.64
  Q 266.66 155.40 259.69 158.82
  Q 251.67 162.74 246.14 165.68
  Q 189.12 195.99 144.85 242.90
  C 143.11 244.74 141.84 246.97 140.11 248.86
  Q 131.60 258.21 124.32 268.04
  Q 112.27 284.31 103.70 297.89
  C 101.36 301.59 99.43 305.62 97.06 309.35
  Q 94.54 313.33 92.44 317.46
  Q 87.96 326.23 83.62 335.06
  Q 82.43 337.48 81.41 340.01
  C 79.72 344.19 77.57 348.19 75.84 352.35
  Q 74.67 355.17 73.06 358.08
  Q 71.58 360.76 70.37 363.93
  Q 66.87 373.08 63.98 382.24
  Q 63.40 384.10 63.32 386.32
  Q 63.24 388.42 63.22 390.48
  Q 62.78 433.70 63.06 477.97
  C 63.12 488.03 64.01 497.48 63.27 507.78
  Q 62.71 515.61 63.12 526.03
  Q 63.13 526.33 63.27 526.59
  C 63.55 527.12 63.08 527.92 63.05 528.58
  Q 62.70 534.85 63.45 540.98
  Q 63.52 541.56 63.97 541.18
  Q 64.55 540.68 64.29 540.10
  Q 64.08 539.62 64.51 539.33
  Z
  M 262.83 422.98
  Q 262.55 423.10 262.65 423.53
  A 0.44 0.44 0.0 0 0 263.05 423.86
  Q 273.35 424.40 283.76 423.55
  Q 290.70 422.99 296.75 422.99
  Q 379.18 423.03 459.42 422.98
  C 478.21 422.97 496.98 424.05 515.75 424.02
  Q 539.70 423.97 563.97 424.01
  Q 564.82 424.01 564.46 423.24
  Q 555.49 404.29 541.62 388.98
  Q 517.98 362.89 481.95 354.06
  C 464.89 349.88 447.23 348.95 429.04 349.54
  Q 423.27 349.73 416.35 349.42
  Q 390.60 348.26 364.95 352.39
  Q 342.60 356.00 323.86 364.13
  Q 283.00 381.88 263.27 422.56
  Q 263.13 422.86 262.83 422.98
  Z
  M 511.13 765.37
  Q 512.22 767.54 513.21 769.72
  Q 513.26 769.82 513.51 770.85
  Q 513.80 772.04 514.98 772.03
  C 542.72 771.85 570.56 771.43 598.64 773.55
  Q 605.38 774.07 621.75 772.61
  C 624.19 772.40 626.50 771.42 629.05 771.09
  Q 631.36 770.79 634.02 770.04
  Q 672.16 759.40 696.94 727.06
  Q 715.33 703.06 721.27 674.26
  Q 722.12 670.16 722.84 665.77
  C 724.14 657.90 724.10 649.91 724.38 641.73
  C 724.69 632.91 724.39 621.92 723.59 614.51
  Q 720.21 583.04 704.19 556.19
  Q 698.94 547.38 692.12 539.90
  Q 673.28 519.20 645.79 508.73
  Q 642.78 507.58 639.67 506.88
  Q 636.52 506.16 633.50 505.21
  C 630.47 504.26 627.26 503.88 624.16 503.21
  C 619.53 502.21 614.36 502.00 609.75 502.00
  Q 422.38 501.99 235.00 501.98
  Q 223.27 501.98 211.16 505.50
  Q 184.17 513.36 163.44 531.21
  Q 156.16 537.48 151.06 543.94
  C 141.10 556.55 132.98 570.81 128.55 586.26
  C 128.00 588.17 127.75 590.09 127.10 591.94
  C 125.99 595.05 125.92 598.32 125.20 601.54
  Q 124.55 604.46 124.28 607.51
  Q 121.73 636.27 124.46 665.51
  C 124.74 668.46 125.71 671.28 126.03 674.31
  Q 126.36 677.34 127.40 680.92
  Q 132.53 698.62 141.78 714.85
  Q 144.91 720.35 148.88 725.66
  Q 152.96 731.14 156.96 735.81
  C 162.43 742.19 169.90 747.85 176.60 752.83
  Q 188.13 761.40 202.05 767.07
  C 204.73 768.16 207.43 768.79 210.09 769.71
  Q 213.34 770.84 216.22 771.18
  C 219.21 771.53 222.02 772.53 225.01 772.68
  Q 241.78 773.51 259.60 772.53
  Q 266.22 772.17 272.74 772.15
  Q 305.58 772.07 338.88 771.98
  Q 339.27 771.98 339.42 771.62
  Q 368.80 701.40 397.30 633.31
  C 404.28 616.64 423.41 611.25 436.75 624.90
  C 440.80 629.05 445.11 633.11 447.65 638.21
  Q 479.32 701.82 511.13 765.37
  Z
  M 69.88 748.16
  Q 69.88 748.14 69.88 748.09
  Q 69.87 747.93 69.89 748.09
  Q 70.90 758.30 71.74 767.75
  Q 71.89 769.47 71.97 771.10
  C 72.10 773.95 72.79 776.66 72.88 779.50
  C 72.98 782.93 73.52 786.20 73.99 789.66
  Q 74.34 792.20 74.94 794.82
  C 77.19 804.71 79.55 814.44 81.18 824.17
  C 84.28 842.59 86.62 856.26 90.50 871.80
  C 92.59 880.18 95.66 888.20 98.42 896.28
  C 100.32 901.84 101.18 907.74 103.01 913.37
  Q 106.74 924.80 110.42 936.03
  C 110.97 937.70 111.25 940.07 111.92 941.99
  Q 114.72 950.00 116.92 956.81
  Q 124.63 980.64 134.07 1000.09
  Q 142.46 1017.41 155.55 1039.23
  C 158.19 1043.65 161.07 1047.68 163.78 1051.97
  Q 175.13 1069.89 189.34 1086.16
  Q 204.78 1103.84 219.13 1117.59
  Q 223.60 1121.88 228.32 1125.58
  C 236.47 1131.98 244.82 1139.12 252.98 1144.84
  Q 272.95 1158.85 293.47 1169.53
  C 298.68 1172.24 304.63 1174.56 310.05 1177.27
  C 313.72 1179.11 317.59 1180.43 321.32 1181.94
  C 329.52 1185.26 338.43 1187.69 346.78 1190.07
  Q 354.71 1192.32 363.38 1194.62
  Q 371.55 1196.79 379.94 1198.14
  Q 388.09 1199.45 396.02 1200.58
  Q 423.77 1204.55 450.55 1201.50
  Q 471.13 1199.15 491.92 1195.31
  C 496.39 1194.48 500.71 1192.97 505.16 1191.86
  Q 510.18 1190.62 515.04 1189.03
  Q 522.77 1186.51 529.66 1184.10
  Q 556.33 1174.76 580.42 1161.17
  Q 588.87 1156.41 597.87 1150.09
  Q 612.16 1140.06 625.12 1130.16
  C 630.32 1126.19 634.70 1121.86 639.84 1117.64
  Q 641.76 1116.06 643.48 1113.96
  A 0.89 0.88 -50.3 0 0 643.37 1112.72
  Q 639.34 1109.27 636.13 1105.02
  Q 629.08 1095.66 623.48 1087.18
  Q 616.60 1076.76 612.39 1063.04
  Q 610.72 1057.62 610.93 1051.82
  Q 610.94 1051.45 610.65 1051.10
  Q 610.18 1050.56 609.96 1051.24
  Q 609.72 1051.96 609.13 1052.49
  C 558.67 1098.43 492.27 1120.26 424.48 1129.59
  C 419.01 1130.35 412.76 1130.13 407.45 1129.03
  Q 366.35 1120.54 327.05 1102.42
  Q 282.29 1081.79 248.43 1049.54
  C 190.24 994.11 163.14 916.15 157.62 837.06
  Q 157.45 834.64 157.87 832.11
  A 1.36 1.35 19.7 0 0 157.21 830.72
  C 148.09 825.52 138.51 820.41 130.51 814.34
  Q 108.98 797.98 92.15 778.18
  Q 82.67 767.02 74.22 754.79
  C 72.73 752.64 71.73 750.21 69.93 748.30
  Q 69.88 748.24 69.88 748.16
  Z
  M 766.80 761.91
  Q 766.92 761.69 766.81 761.42
  Q 766.62 760.92 766.40 761.42
  Q 765.83 762.73 764.88 763.98
  Q 760.30 770.05 755.55 776.04
  Q 739.07 796.84 717.42 813.13
  Q 706.05 821.68 683.52 833.24
  Q 683.07 833.47 683.10 833.98
  Q 685.77 874.35 680.13 913.29
  Q 680.05 913.81 680.57 913.92
  Q 682.43 914.30 684.30 913.73
  Q 695.24 910.40 706.31 907.87
  C 713.00 906.34 719.66 903.91 726.31 901.87
  Q 733.17 899.76 737.78 897.29
  Q 746.48 892.60 752.67 884.03
  C 757.27 877.67 761.20 870.77 762.82 862.75
  Q 767.04 841.84 767.03 820.50
  Q 767.01 791.80 766.90 764.50
  Q 766.90 763.42 766.71 762.49
  Q 766.65 762.19 766.80 761.91
  Z
  M 205.85 847.58
  L 205.50 847.13
  Q 205.31 846.88 205.03 847.02
  Q 204.86 847.09 204.82 847.26
  Q 204.76 847.50 204.86 847.71
  Q 205.22 848.52 205.33 849.49
  C 209.42 886.24 218.90 922.92 235.54 955.44
  Q 259.06 1001.44 298.94 1031.83
  C 332.56 1057.46 372.33 1073.70 413.87 1083.12
  Q 417.49 1083.94 421.33 1083.34
  C 472.86 1075.36 524.00 1060.78 564.95 1029.13
  C 601.03 1001.23 623.21 962.64 632.07 918.17
  Q 638.83 884.26 637.33 849.14
  A 1.34 1.34 0.0 0 0 635.49 847.96
  Q 633.52 848.77 631.48 849.09
  Q 622.93 850.42 614.71 851.36
  C 604.97 852.47 592.02 852.38 580.79 850.86
  Q 575.75 850.18 570.81 849.47
  Q 562.64 848.30 551.23 845.26
  Q 548.54 844.55 545.79 845.14
  C 508.63 853.06 472.68 862.96 435.21 873.59
  Q 426.18 876.15 421.30 876.51
  Q 413.25 877.11 406.03 875.46
  Q 346.75 861.93 284.63 847.34
  A 3.77 3.76 40.8 0 0 282.42 847.50
  C 279.60 848.59 276.87 848.87 273.94 849.42
  Q 254.40 853.08 233.84 851.81
  C 226.88 851.38 219.71 850.08 212.65 849.12
  Q 211.06 848.90 209.70 848.32
  Q 208.39 847.77 206.92 848.00
  A 1.12 1.12 0.0 0 1 205.85 847.58
  Z"
/>
<path d="
  M 719.43 1040.00
  Q 712.25 1031.00 706.90 1020.28
  Q 706.18 1018.83 706.00 1017.22
  A 1.75 1.74 -5.0 0 1 707.63 1015.29
  Q 713.38 1014.94 718.93 1013.04
  C 722.38 1011.85 725.85 1012.16 729.29 1011.17
  Q 732.18 1010.34 735.20 1010.01
  Q 737.88 1009.71 740.91 1008.95
  Q 749.00 1006.90 758.06 1004.98
  C 761.68 1004.21 765.02 1002.89 768.79 1002.68
  C 769.54 1002.63 769.85 1002.13 770.46 1001.93
  Q 776.38 1000.03 782.50 998.34
  Q 783.65 998.02 784.87 997.78
  Q 785.95 997.57 787.08 997.13
  Q 789.43 996.20 791.64 995.35
  Q 798.33 992.77 804.88 989.46
  Q 812.02 985.86 817.43 982.32
  Q 836.47 969.82 848.83 951.58
  Q 854.33 943.46 859.86 930.75
  Q 860.74 928.72 861.18 926.66
  C 861.58 924.77 862.44 923.08 862.77 921.20
  C 863.76 915.68 865.45 909.86 865.66 904.23
  Q 866.11 892.63 866.11 876.68
  Q 866.11 874.90 866.63 873.26
  A 2.25 2.24 4.1 0 1 868.38 871.75
  Q 873.13 870.94 878.14 870.94
  Q 914.07 870.99 951.76 871.03
  C 956.02 871.04 956.93 875.05 956.96 878.69
  Q 957.22 910.75 956.88 923.84
  Q 956.49 939.29 954.87 959.38
  C 954.36 965.76 952.65 971.49 951.53 977.53
  C 951.35 978.47 950.63 978.99 950.50 979.86
  Q 949.78 984.69 947.37 990.14
  Q 943.21 999.53 939.34 1007.69
  Q 937.25 1012.12 933.30 1018.33
  C 932.48 1019.63 931.47 1020.34 930.93 1021.79
  Q 930.76 1022.23 930.43 1022.57
  Q 929.69 1023.34 929.07 1024.23
  Q 918.72 1039.15 906.79 1049.81
  Q 900.81 1055.15 891.52 1062.04
  Q 883.23 1068.18 872.03 1073.73
  Q 870.30 1074.58 868.45 1075.26
  Q 866.53 1075.96 864.65 1076.74
  Q 845.90 1084.46 828.36 1086.51
  Q 817.28 1087.81 800.74 1086.74
  C 795.87 1086.43 791.14 1085.14 786.28 1084.18
  Q 784.99 1083.92 781.33 1082.72
  Q 779.78 1082.22 777.93 1081.94
  Q 776.04 1081.65 774.28 1081.01
  Q 748.40 1071.58 728.41 1050.89
  C 725.14 1047.51 722.33 1043.62 719.43 1040.00
  Z"
/>
<path d="
  M 490.86 967.15
  Q 447.99 994.06 397.27 979.24
  Q 377.96 973.60 357.38 961.64
  Q 353.06 959.13 350.06 955.99
  C 334.46 939.66 349.02 913.26 371.16 917.85
  Q 375.69 918.79 381.19 921.91
  C 409.48 937.94 440.54 946.54 468.88 926.00
  Q 473.36 922.75 477.26 920.78
  C 484.66 917.06 493.78 917.65 500.53 922.44
  C 512.87 931.19 513.58 948.75 502.08 958.85
  Q 497.04 963.27 490.86 967.15
  Z"
/>
</svg>
